<svg xmlns="http://www.w3.org/2000/svg" viewBox="0 0 60.96 55.76"><defs><style>.cls-1{fill:#8d8f9a;}.cls-2{fill:#a58f33;}.cls-3{fill:#fafafa;}</style></defs><title>Asset 2</title><g id="Layer_2" data-name="Layer 2"><g id="Layer_1-2" data-name="Layer 1"><path class="cls-1" d="M47.85,15.2A19,19,0,0,0,10.17,19c0,.43,0,.86.05,1.33a11.42,11.42,0,0,0,1.21,22.78h1.34c0-.42-.07-.84-.07-1.27a16.5,16.5,0,0,1,33,0c0,.43,0,.85-.06,1.27H47a13.95,13.95,0,0,0,.88-27.87Z"/><circle class="cls-2" cx="29.2" cy="41.8" r="13.96"/><path class="cls-3" d="M29.2,50.69a1.27,1.27,0,0,1-1.27-1.27V34.19a1.27,1.27,0,0,1,2.54,0V49.42A1.27,1.27,0,0,1,29.2,50.69Z"/><path class="cls-3" d="M29.2,50.69a1.28,1.28,0,0,1-.89-.37l-5.08-5.08A1.27,1.27,0,0,1,25,43.45l4.18,4.17,4.18-4.17a1.27,1.27,0,0,1,1.8,1.79L30.1,50.32A1.31,1.31,0,0,1,29.2,50.69Z"/></g></g></svg>