<?xml version="1.0" encoding="utf-8"?>
<!-- Generator: Adobe Illustrator 24.1.2, SVG Export Plug-In . SVG Version: 6.00 Build 0)  -->
<svg version="1.1" id="Layer_1" xmlns="http://www.w3.org/2000/svg" xmlns:xlink="http://www.w3.org/1999/xlink" x="0px" y="0px"
	 viewBox="0 0 450 475.1" style="enable-background:new 0 0 450 475.1;" xml:space="preserve">
<style type="text/css">
	.st0{fill:#8AC63F;}
	.st1{fill:url(#SVGID_1_);}
	.st2{fill:#006A56;}
</style>
<g>
	<path class="st0" d="M381.6,273.1c0,0.2-0.2,0.5-0.5,0.5h-34.4c-0.2,0-0.5-0.2-0.5-0.5v-36.2c0-15.5,7.2-25.5,17.7-31.7
		c10.5,6.4,17.7,16.2,17.7,31.7L381.6,273.1L381.6,273.1z M423.7,180.3H304.3c-0.2,0-0.5,0.2-0.5,0.5v24.2c0,0.1,0.1,0.4,0.2,0.4
		c10.3,6.4,17.4,16.2,17.4,31.6v21c0,9.3-4.2,17.2-10.3,21c-0.1,0.1-0.2,0.2-0.2,0.4v4.8c0,0.2,0.2,0.5,0.5,0.5h105.3
		c0.2,0,0.5-0.2,0.5-0.5v-4.8c0-0.1-0.1-0.4-0.2-0.4c-6.1-3.8-10.3-11.8-10.3-21v-21c0-15.4,7.1-25.2,17.4-31.6
		c0.1-0.1,0.2-0.2,0.2-0.4v-24.2C424.1,180.4,424,180.3,423.7,180.3"/>
	<linearGradient id="SVGID_1_" gradientUnits="userSpaceOnUse" x1="363.9081" y1="288.7193" x2="363.9081" y2="164.5477">
		<stop  offset="0" style="stop-color:#8AC640"/>
		<stop  offset="0.15" style="stop-color:#8AC640"/>
		<stop  offset="0.215" style="stop-color:#78BA43"/>
		<stop  offset="0.469" style="stop-color:#388F4D"/>
		<stop  offset="0.654" style="stop-color:#0F7454"/>
		<stop  offset="0.75" style="stop-color:#006A56"/>
		<stop  offset="1" style="stop-color:#006A56"/>
	</linearGradient>
	<path class="st1" d="M315.4,183.7c7.5,4.2,14.2,10,19.5,17.1c6-7.1,13.3-12.7,21.2-17.1H315.4L315.4,183.7z M336.9,203.8
		c3.6,5.7,6.4,11.9,7.9,19.1c2.9-8.7,8.7-15.8,17.3-20.9l1.8-1.1l1.8,1.1c8.7,5.3,14.4,12.3,17.3,20.9c1.6-7.1,4.3-13.5,7.9-19.1
		c-9-10.9-20.9-17.3-27.1-20.1C357.8,186.6,345.9,192.9,336.9,203.8 M372,183.7c7.7,4.3,15.1,10,21.2,17.1
		c5.3-7.1,11.9-12.7,19.5-17.1H372L372,183.7z M395.2,203.5c-0.7,1.1-1.4,2-2,3.1l0,0c-5.2,8.7-7.9,18.9-7.9,30.2v39.8
		c0,0.2-0.2,0.5-0.5,0.5h-41.6c-0.2,0-0.5-0.2-0.5-0.5v-39.8c0-11.3-2.8-21.5-7.9-30.2c-0.6-1.1-1.3-2.2-2-3.1
		c-5.9-8.4-14.4-15.1-25.2-19.7v19.4c7.8,5.3,13.1,12,15.6,20.3c0,0,1.9,5.2,1.9,13v21.4c0,9.5-4,18.2-10.6,23.1h99
		c-6.6-4.9-10.6-13.6-10.6-23.1v-21.4c0-7.8,1.9-13,1.9-13c2.6-8.3,7.8-15,15.6-20.3v-19.4C409.7,188.4,401.2,195.2,395.2,203.5"/>
	<g>
		<path class="st2" d="M51.4,284.5l-21.3-36.7v36.7h-4.2v-45.1h4.2l21.4,37v-37h4.3v45.1L51.4,284.5z M64.7,253.5
			c0-10.1,6.4-15.1,15.6-15.1c6.5,0,10.9,2.6,13.2,7.1l-3.1,1.6c-1.8-3.1-5.3-4.8-9.7-4.8c-6.9,0-11.7,3.7-11.7,11.3v16.6
			c0,7.7,4.8,11.4,11.7,11.4c4.4,0,7.9-1.7,9.7-4.8l3.1,1.6c-2.3,4.3-6.7,7.1-13.2,7.1c-9.1,0-15.6-5-15.6-15.1V253.5L64.7,253.5z
			 M117,260c5.4,0,8.4-3,8.4-8.7c0-4.4-2.9-8.2-8.3-8.2h-12V260H117z M105.1,280.8h13.1c5.4,0,8.4-3,8.4-8.7c0-4.4-2.9-8.2-8.3-8.2
			h-13.2C105.1,263.9,105.1,280.8,105.1,280.8z M117.9,239.4c7.6,0,11.8,5.3,11.8,11.5c0,5.5-2,9.3-6,10.9c4.7,1.6,7.2,5.8,7.2,10.6
			c0,7.8-4.3,12.1-11.8,12.1h-18.2v-45.1h17V239.4z M281.8,284.5v-45.1l4.3-1.8v46.9H281.8z"/>
		<g>
			<path id="B" class="st2" d="M172.3,292.2c0,1.4-1,2.6-2.6,2.6c-1.6,0-2.6-1.1-2.6-2.6c0-1.7,1.2-2.6,2.6-2.6
				C171.2,289.6,172.3,290.6,172.3,292.2"/>
		</g>
		<g>
			<path id="B_1_" class="st2" d="M163.8,292.2c0,1.4-1,2.6-2.6,2.6c-1.6,0-2.6-1.1-2.6-2.6c0-1.7,1.2-2.6,2.6-2.6
				C162.7,289.6,163.8,290.6,163.8,292.2"/>
		</g>
		<path class="st2" d="M254.3,243.4l-1-2.3c-0.5-1.2,0.1-2.3,1.2-2.8c0,0,1.2-0.6,2.4,0.2l0.4-1.4c-1.1-0.8-2.5-1-3.8-0.4
			c-2.3,1-3.1,2.9-2.2,5.2l1,2.3l-1.3,0.6l-1,2.3l9.1-3.7v-1.8L254.3,243.4L254.3,243.4z M268.4,239.4v35.7c0,3.2-2.6,5.8-5.8,5.8
			h-3.2v-33.5l-4.3,1.8v31.7h-3.4l-1.4,3.6h12.6c5.5,0,10-4.4,10-9.9c0,0,0,0,0,0v-36.9L268.4,239.4L268.4,239.4z M227.7,281h-2.4
			c-4.8-0.4-8.4-2.5-8.4-8.1c0-1.9,0.4-3.8,1.1-5c1.6-2.6,4.2-3.8,7.3-3.8c0.7,0,1.4,0.1,2.2,0.2c0.1,0,0.2,0.1,0.4,0.1V281
			L227.7,281z M227.3,247.5c-6.6,0-11.3,2.8-13.6,7.3l3.2,1.7c1.9-3.2,5.5-5,10.1-5c7.1,0,12,3.8,12,11.8v13.6
			c0,2.3-1.9,4.2-4.2,4.2h-2.8v-18.9c-1.3-0.7-2.6-1.2-4.2-1.4c-0.8-0.1-1.6-0.2-2.5-0.2c-1.9,0-3.6,0.4-5.2,0.8l-1.8,0.7
			c-0.1,0.1-0.2,0.1-0.5,0.2l0,0c-3,1.9-4.9,5.4-4.9,10.2v0.2c0,3.7,1.2,6.3,3,8.1h-6.9c-3.2,0-5.8-2.6-5.8-5.8v-37.6l-4.3,1.8v35.7
			c0,3.2-1.4,5.8-4.7,5.8c-1.9,0-3.2-2.2-4.3-4.2l-14.7-29.3c0,0-2,1.2-4.3,4.4c-1.6,2.3-3,5.3-3.2,7.2c-0.4,2.4-1.2,5.8,2.5,12.9
			l5.2,9h-17.7c-5.3-0.1-7.2-4-7.2-8.9c0-3.4,1-6.4,2.6-9l-2.5-1.7c-2.2,3.5-3.5,7.5-3.5,11.8c0,6.5,3.4,11.4,10.8,11.4h23.8
			l-7.3-12.5c0,0-1.8-3.7-2.4-5.8c-0.5-1.4-0.8-3-0.7-4.7c0.1-4.2,2.8-7.1,2.8-7.1l10.2,20.2c3.1,6,4.4,10,10,10
			c2.8,0,5.3-1.4,7-3.7c1.8,2.3,4.6,3.7,7.7,3.7h27.4c4,0,7.2-3.2,7.2-7.2v-14.1C243.4,252.6,236.8,247.5,227.3,247.5"/>
	</g>
</g>
</svg>
