<svg xmlns="http://www.w3.org/2000/svg" viewBox="0 0 450 475.1" fill="#1b4297"><path d="M327.3 180.1v109.3h103.4V180.1H327.3zm96.3 101.7h-89.2v-94.2h89.2v94.2zm-62.3-71.6v17.9l-15.7 9.6v21.5L363 270c.1 0 16-9.5 16-9.5l15.4 9.5 17.8-10.9v-21.3l-15.7-9.6v-17.9L379 199.5l-17.7 10.7zm0 26.6v12.9l10.5 6.4-8.6 5.3-10.5-6.4v-12.9l8.6-5.3zm17.7-28.7l10.5 6.4v30.8c-.1.1-10.4 6.4-10.5 6.4-.1-.1-10.5-6.4-10.6-6.4v-30.8l10.6-6.4zm17.6 41.6h0v-12.9l8.6 5.2v12.9l-10.5 6.4-8.6-5.3 10.5-6.3zM35.1 235.4h5.6v-4.9h-5.6v4.9zm186.7-47.1h-5.6v4.9h5.6v-4.9zM106.9 232h5.6v-4.9h-5.6v4.9zm18.1-14.4s0-.1 0 0h0zm-99.6 17.8H31v-4.9h-5.6v4.9zm81.3-36.4c-3.4 0-6.8.7-9.5 2.1v9.5h5.6v-7.1s1.5-.8 4.2-.8c5.8 0 11.8 5.4 11.8 15.3h0c0 .1 0 .8-.2 1.4H92.8v-1.3c0-11.2-7.6-19-18.3-19-3.4 0-6.8.7-9.5 2.1v9.5h5.6v-7.1s1.5-.8 4.2-.8c5.7 0 11.8 5.4 11.8 15.3v1.4H59.5V197h-5.1c-13.7 0-14.1 7-14.1 15.2v7.3c0 4-1.4 4.8-3.6 4.8h-4.3c-2.8 0-7.4-.4-7.4-10.5 0-8.5 3.7-12.2 11.2-12.2v-3.3c-5.8 0-9.3 1.1-12.7 4.3-2.9 2.8-4.1 6.6-4.1 11.4 0 10.5 4.6 14 10.9 14h7.9c5 0 7.8-3.2 7.8-8.9v-7.5c0-7.1 1.1-10.9 7.9-10.9V223h70.5c.6-2.4.7-5.3.7-5.3-.3-11-7.8-18.7-18.4-18.7zm101.4 6.5c0 5.5 3.9 9.1 10.4 9.1h4v.5c0 2.7-1.2 4.2-3.7 4.2h-16.9c-7 0-9.6-2-9.6-7.7v-10.9h-5.6v11.8c0 8 3.7 10.3 14.3 10.3h19.1c2.6 0 4.5-.9 5.9-2.7 1.2-1.6 1.9-3.6 1.9-6.1v-17.2h-8.7c-7.5 0-11.1 2.9-11.1 8.7zm14.2-5v10.9H220c-1.7 0-6.4-.5-6.4-5.6 0-3.5 2-5.4 6.1-5.4h2.6zm-91.9 22.4h5.6v-37.8h-5.6v37.8zm172.5-19.1c-5.1-4.6-15-2.9-18.2-2.3v17.8h-5.4c.1-.5.2-1.7.2-1.7.7-9.5-4.8-14.7-12.5-14.7-6 0-11.5 3.9-15.4 9.2l-.8 1.2v-9.4h-5.6v10.2c0 3.6-1.2 5.2-3.7 5.2H239v-18.6h-5.6V223c0 3.2 0 4.8-1 6.7-.5 1-1.4 1.8-2.6 2.1v1.8c6.4-.1 9.2-3.4 9.2-10.8h54.4c7.4 0 12.7-4.3 12.7-11-.1-3.3-1-6-3.2-8zm-28.7 13.5c0 .1-.2 2.1-.2 2.1h-21.8l.4-.7c4.1-8 9.2-11.8 14.8-11.5 4.9.1 7.2 4.4 6.8 10.1zm18.2 2h-2v-14.6s.7-.2 2-.2c5.2 0 8 2.7 8 7.4s-3.3 7.4-8 7.4zm-128.7 3.6h5.6v-37.8h-5.6v37.8zm-11-8.9c0 4.4-2 5.3-3.7 5.3h-2v-18.6h-5.6V223c0 3.2 0 4.8-1 6.7-.5 1-1.5 1.8-2.6 2.1v1.8c6.4-.1 9.1-3.4 9.1-10.8h3.3c2.6 0 4.6-.9 6.1-2.8 1.3-1.7 2-3.7 2-6.2V185h-5.6v29zm-92.2 32.5h5.6v37.8h-5.6zm-22.8 1.8l-13.9 35.9H29l3.6-10H46l3.2 10h6.5L43 248.3h-5.3zm2 6.3l5.2 15.9H34l5.7-15.9zm164.6-6.3v35.9h10.6c7.8 0 12.8-4.1 12.8-10.4 0-5.3-4.5-8.4-8.7-8.6v-.9c1.1-.3 6.5-2.2 6.5-8.6 0-4.8-3.7-7.4-9.6-7.4h-11.6zm5.7 3.6h4.1c3.6 0 5.8 2 5.8 5.2 0 3.8-3 6.7-7.3 6.7h-2.7l.1-11.9zm0 15.4h4.9c4.6 0 7.3 2.5 7.3 6.7 0 4.1-2.9 6.8-7.3 6.8H210v-13.5zm78.4-20.8v37.7h5.7v-14.9l10.4 15.4 5.5-2.1-9.7-13.1 7.5-9.3-5-2.5-8.7 11.5v-22.7zm-22.8 15.3l-.8.9v-3.9h-5.5v25.4h5.6V269c0-4.3 2.4-7.1 6.2-7.1 3.5 0 5.6 2.3 5.6 6.6v15.7h5.6v-16.5c0-6.3-2.9-9.5-8.5-9.5-3.2 0-6.1 1.3-8.2 3.6zm-85.2-3h5.6v25.4h-5.6zm0-9.1h5.6v4.9h-5.6zm-41 0h5.6v4.9h-5.6zm11.8-3.2v37.8h5.6v-15.2c0-4.3 2.4-7.1 6.2-7.1 3.5 0 5.6 2.3 5.6 6.6v15.7h5.6v-16.5c0-6.3-2.9-9.5-8.5-9.5-3.2 0-6.2 1.2-8.2 3.6l-.8.9v-16.2l-5.5-.1zm-66.7 1.8v35.9h5.6V269h4.7l7.3 15.8 6.4-1.2-8.2-15.6.4-.2c3.8-2.4 5.6-5.8 5.6-10.3 0-5.8-4-9.2-10.7-9.2H84.5zm5.6 3.6h4.6c3.8 0 6.1 2.4 6.1 6.2 0 3.4-2.1 7.4-6.8 7.4h-3.8l-.1-13.6zm49.3 6.9v25.6c0 2.9-.4 5.4-1 6.7-.5 1-1.5 1.8-2.6 2.1v1.8c6.4-.1 9.1-3.4 9.1-10.8v-25.4h-5.5zm104-.6c-3.5 0-6.3 1-9 3.2.4.5 1.3 2 1.7 2.5 2-1.7 4-2.5 6.5-2.5 2.6 0 4.3 2 4.7 4.5l.1.4-5.9 1.8c-6.1 1.8-8.9 4.8-8.9 9.2 0 4.3 2.8 7.6 6.7 7.6 5.3 0 8.3-5 8.3-5v4.4h5.7v-16.7c-.2-6.3-3.4-9.4-9.9-9.4zm1.6 21.1c-1.1 1.2-2.3 1.8-3.6 1.8-2 0-3.4-1.9-3.4-4.4 0-3.2 1.7-5.4 5.2-6.5l3.7-1.2.6-.2.1.6c.3 5.7-1.5 8.7-2.6 9.9zm-121.5-21.1c-3.5 0-6.3 1-9 3.2.4.5 1.2 2 1.6 2.5 2-1.7 4-2.5 6.5-2.5 2.6 0 4.3 2 4.7 4.5l.1.4-5.9 1.8c-6.1 1.8-8.9 4.8-8.9 9.2 0 4.3 2.8 7.6 6.7 7.6 5.3 0 8.3-5 8.3-5v4.4h5.7v-16.7c0-6.3-3.4-9.4-9.8-9.4zm1.6 21.1c-1.1 1.2-2.3 1.8-3.6 1.8-1.9 0-3.4-1.9-3.4-4.4 0-3.2 1.8-5.4 5.2-6.5l3.7-1.2.6-.2.1.6c.3 5.7-1.5 8.7-2.6 9.9z"/></svg>