<svg xmlns="http://www.w3.org/2000/svg" xmlns:xlink="http://www.w3.org/1999/xlink" viewBox="0 0 450 475.1"><path d="M43.5 194.6h58.3v85.8H43.5zm64.1 0h298.9v85.8H107.6z" fill="#182663"/><g fill="#fff"><path d="M126.2 221.3h19.2v5.1h-12.7v8h11.6v5.1h-11.6v9.1h12.8v5.1h-19.3v-32.4zm22.5 8.5h5.8v3.4h.1c2-2.9 4.8-3.9 7.1-3.9 3.4 0 5.7 1.3 7.1 4.2 1.4-2.9 4.6-4.2 7.5-4.2 5.9 0 7.6 4.1 7.6 9.4v15.1h-6.2v-14.3c0-2.2 0-5.4-3.6-5.4-4.1 0-4.7 4.9-4.7 8.1v11.6h-6.2v-14.3c0-2.2 0-5.4-3.6-5.4-4.1 0-4.7 4.9-4.7 8.1v11.6h-6.2v-24zm38.9-10.3h6.2v6h-6.2v-6zm0 10.3h6.2v24h-6.2v-24zm9.7 0h5.5v5.5h.1c.3-2.2 2.8-6 6.6-6 .6 0 1.3 0 1.9.2v6.3c-.6-.3-1.7-.5-2.8-.5-5.1 0-5.1 6.3-5.1 9.8v8.8h-6.2v-24.1zm16.5 1.3c2.4-1.1 5.7-1.8 8.3-1.8 7.3 0 10.3 3 10.3 10.1v3.1c0 2.4 0 4.2.1 6 0 1.8.1 3.5.3 5.4h-5.5c-.2-1.3-.2-2.8-.3-3.6h-.1c-1.4 2.7-4.6 4.1-7.4 4.1-4.2 0-8.4-2.6-8.4-7.1 0-3.6 1.7-5.7 4.1-6.8 2.4-1.2 5.5-1.4 8.1-1.4h3.4c0-3.9-1.7-5.2-5.4-5.2-2.7 0-5.3 1-7.4 2.6l-.1-5.4zm7.3 18.7c1.9 0 3.4-.8 4.4-2.1 1-1.4 1.3-3.1 1.3-4.9h-2.7c-2.8 0-6.9.5-6.9 4.1-.1 2 1.6 2.9 3.9 2.9zm16.3-15.4h-4.6v-4.6h4.6V225l6.2-2v6.8h5.5v4.6h-5.5v11.2c0 2 .6 4 2.9 4 1.1 0 2.2-.2 2.8-.7l.2 4.9c-1.3.4-2.7.6-4.6.6-4.9 0-7.6-3-7.6-7.8v-12.2zm33 18c-2.3 1.3-4.9 1.9-8.2 1.9-7.9 0-12.5-4.6-12.5-12.4 0-6.9 3.7-12.7 11.1-12.7 8.9 0 11.4 6.1 11.4 14.5h-16.6c.3 3.9 3 6.1 6.8 6.1 3 0 5.6-1.1 8-2.4v5zm-4.2-13c-.2-3-1.6-5.6-5.1-5.6s-5.3 2.4-5.5 5.6h10.6zm22.7-4.6c-1.9-.7-3.3-1-5.6-1-1.7 0-3.7.6-3.7 2.7 0 3.8 10.9 1.4 10.9 10.1 0 5.6-5 7.8-10.1 7.8-2.4 0-4.8-.4-7.1-1l.4-5.1c2 1 4 1.6 6.1 1.6 1.6 0 4.1-.6 4.1-2.9 0-4.7-10.9-1.5-10.9-10.2 0-5.2 4.5-7.5 9.4-7.5 2.9 0 4.8.5 6.8.9l-.3 4.6zm14.3-13.5h8l12.4 24.3h.1v-24.3h6.2v32.5h-8l-12.4-24.3h-.1v24.3h-6.2v-32.5zm31.9 0h11.4c4.2 0 10.5 1.2 10.5 8.3 0 3.9-2.6 6.6-6.5 7.3v.1c4.4.4 7.5 3.4 7.5 7.4 0 8.2-7.4 9.4-11.5 9.4h-11.4v-32.5zm6.5 13.1h2.7c2.7 0 6.1-.6 6.1-4 0-3.8-3.3-4.1-6.3-4.1h-2.5v8.1zm0 14.3h3.1c3 0 6.7-.7 6.7-4.5 0-4.2-3.4-4.9-6.7-4.9h-3.1v9.4zm19.9-27.4h8.9c10 0 18.8 3.4 18.8 16.3s-8.8 16.3-18.8 16.3h-8.9v-32.6zm6.5 27.4h3.6c5.4 0 10.7-4.1 10.7-11.1 0-7.1-5.3-11.1-10.7-11.1H368v22.2z"/><path d="M67.5 246.9c.8-21.3 12.2-40 29.5-52.2H85.5c-14 12.1-23 29-23.7 48-.5 13.7 3.4 26.7 10.6 37.8h3.3c-5.6-10.1-8.6-21.6-8.2-33.6z" stroke="#fff" stroke-width=".1"/></g><use xlink:href="#B" fill="#f9b000"/><use xlink:href="#B" fill="none" stroke="#f9b000" stroke-width=".05"/><path d="M91.2 231.6c0-7.4-2.2-14.3-6.1-20 1.5 4.8 2.1 9.9 2.3 15.3.5 14.7-6.3 27.1-15.8 36.8 11.9-5.2 19.6-18.1 19.6-32.1z" fill="#fff"/><path d="M84.2 240.3c-.3-5.2-2-10-4.9-14 1.2 3.4 1.8 7 2.1 10.7.8 10.4-3.4 19.4-9.7 26.6 8-4 12.9-13.4 12.5-23.3z" fill="#f9b000" stroke="#f9b000" stroke-width=".05"/><defs ><path id="B" d="M81.6 194.6h-9c-9.8 9.2-16.7 22.7-18.3 38.1-1.9 18.8 4.5 36.3 15.9 47.7h3C63.4 269.2 58 253 59.7 235.6c1.8-17.2 10.1-31.9 21.9-41z"/></defs></svg>