<svg xmlns="http://www.w3.org/2000/svg" viewBox="0 0 450 475.1" fill-rule="evenodd"><g fill="#34327a"><path d="M198.3 213.7v-11.9c0-.2 0-.4-.1-.5-.1-.2-.4-.2-.7-.2H189c-.4.1-.3.5-.3 1v13.7c0 .1 0 .3-.1.4v.1c0 .1-.1.2-.1.3s-.1.2-.1.3c-.1.2-.2.4-.4.5-.1.1-.3.1-.4.2-.1 0-.2.1-.3.1h-.3c-.1 0-.2.1-.4.1h-18.4c-.1 0-.2 0-.3-.1-.2 0-.4-.1-.6-.2s-.4-.1-.5-.2-.1-.2-.2-.2c-.1-.1-.2-.2-.2-.3s0-.2-.1-.3v-.1c-.1-.2-.1-.4-.1-.6v-21.6c-.1-.2-.2-.5-.2-.7-.1-.2-.1-.5-.2-.7-.1-.1-.2-.2-.2-.4-.1-.2-.1-.4-.2-.5s-.1-.2-.2-.3-.1-.3-.2-.4l-.3-.3c-.1-.1-.1-.2-.2-.3-.2-.2-.3-.3-.6-.5l-.3-.3c-.1-.1-.2-.1-.3-.2s-.2-.2-.3-.2c-.1-.1-.3-.1-.5-.2-.1-.1-.2-.2-.3-.2-.2-.1-.4-.1-.6-.2s-.3-.2-.5-.3c-.1 0-.2 0-.3-.1-.1 0-.2 0-.3-.1h-.2c-.2-.1-.3-.1-.5-.2v-.2h-3.3v28.3c0 .1.1.3.1.4v1.1c0 .2 0 .4.1.5v.5c0 .1 0 .1.1.2.1.2.2.3.2.5.1.2.1.4.2.6.1.1.2.3.3.4.1.2.1.3.2.5.1.1.2.2.2.3.1.1.1.2.2.3l.3.3c.1.2.3.3.5.5.1.1.1.2.2.2.1.1.2.1.2.2l.2.2c.1.1.2.2.4.2l.3.3c.1.1.3.1.4.2s.2.2.3.2.2.1.3.1.1 0 .2.1.3.2.4.3.3.1.4.1.2.1.3.1c.1.1.3.1.4.2.2.1.5.1.7.1h.4c.1 0 .2.1.2.1h.4c.2 0 .4.1.6.1h1.4c.2.1.5 0 .8 0h21.4c.2 0 .3 0 .5-.1h.6c.2 0 .3-.1.5-.1.1 0 .2-.1.3-.1.2-.1.5 0 .7-.1h.2c.1 0 .1 0 .2-.1.2-.1.3-.1.5-.2h.2c.2 0 .4-.1.5-.1.2-.1.3-.2.4-.3s.2-.1.3-.1.1 0 .2-.1.2-.2.3-.2c.1-.1.3-.1.5-.2.1-.1.2-.1.2-.2.1-.1.2-.1.3-.2l.2-.2c.1-.1.2-.2.3-.2l.7-.7c.1-.1.2-.3.3-.4l.2-.2c.1-.1.1-.2.2-.4.1-.1.2-.2.2-.3.1-.1.1-.3.2-.5l.3-.8c.1-.2.1-.4.1-.6v-.2c0-.1.1-.2.1-.3v-.4c0-.1.1-.3.1-.4V216c.2-.6.2-1.5.2-2.3zm48.9 1.2v-26.8h-3.3v.2c-.1 0-.1 0-.2.1s-.3.1-.4.1h-.2c-.2 0-.3 0-.5.1s-.3.2-.5.2c-.2.1-.4.1-.6.2-.1.1-.2.1-.3.2-.2.1-.3.1-.5.2-.1.1-.2.2-.3.2-.1.1-.2.1-.3.2l-.2.2c-.2.1-.3.3-.5.4l-.3.3c-.1.1-.1.2-.2.3s-.2.2-.2.3c-.1.1-.1.2-.2.3s-.2.2-.2.3c-.1.1-.1.2-.1.3s0 .1-.1.2-.1.2-.2.3c0 .1-.1.2-.1.3v.2c0 .2 0 .3-.1.5v.4c0 .1-.1.2-.1.4V216l-.3.9s-.1 0-.1.1c-.1.1-.2.3-.4.3h-.2c-.1 0-.2 0-.3.1h-.1c-.1 0-.2 0-.3.1-.1 0-.2.1-.3.1h-15.9c-.2-.1-.3-.2-.3-.4v-9.7c-.1-.3-.1-.7-.2-1 0-.2-.1-.4-.1-.6-.1-.3-.2-.5-.3-.7-.1-.1-.1-.3-.2-.4s-.2-.2-.2-.3c-.1-.1-.1-.3-.2-.4l-.2-.2c-.1-.1-.1-.2-.2-.3s-.2-.2-.3-.2l-.4-.4c-.1-.1-.2-.2-.3-.2-.1-.1-.3-.1-.4-.2s-.2-.2-.3-.2c-.1-.1-.2-.1-.3-.1-.2-.1-.3-.2-.4-.3-.2-.1-.4-.1-.6-.2s-.3-.2-.5-.3c-.1 0-.3-.1-.4-.1h-.2c-.1 0-.3-.1-.4-.1s-.2 0-.2-.1h-.1c-.1 0-.2 0-.3-.1h-1.5c-.4 0-.9 0-1.1.1s-.2.4-.2.6v21.6c0 .2 0 .3-.1.5v.5c0 .2-.1.3-.1.5-.1.2-.1.3-.2.5s-.1.3-.2.5c-.1.1-.2.2-.2.3-.1.1-.1.2-.2.3l-.4.4c-.1.1-.2.2-.3.2-.1.1-.2.2-.4.3-.1.1-.3.1-.4.2s-.2.2-.3.2c-.2.1-.4.1-.5.2s-.2.2-.3.2c-.1.1-.2.1-.4.1-.1 0-.2 0-.2.1-.2.1-.3.2-.6.3h-.2c-.1 0-.3.1-.4.1l-.6.3c-.2 0-.5.1-.7.1-.1 0-.2.1-.3.1-.1.1-.3.1-.4.1s-.2.1-.4.1h-.2c-.2 0-.4.1-.5.2s-.1.3 0 .4v1.3c0 .1.1.3.1.4v.4c0 .1.1.2.1.3v.6c0 .1 0 .3.1.4v.5c.1.4 0 1.1.3 1.3s.7.1 1.1.1h.7c.2 0 .3-.1.5-.1h.7c.1 0 .2 0 .3-.1h.5c.1 0 .3-.1.4-.1h.1c.1 0 .2-.1.3-.1.3-.1.5-.1.8-.2h.3c.1 0 .2 0 .3-.1.3-.1.5-.2.7-.3s.5-.1.8-.2l.6-.3c.1-.1.3-.1.5-.1.1 0 .2 0 .3-.1.2-.1.4-.2.5-.3.2-.1.4-.1.6-.2.1-.1.2-.2.4-.2.2-.1.4-.1.5-.2.2-.1.3-.2.4-.3.2-.1.4-.1.5-.2s.2-.2.4-.3c.1-.1.3-.1.4-.2s.2-.2.3-.2c.1-.1.2-.1.3-.2s.2-.2.3-.2c.1-.1.2-.1.3-.2s.2-.1.2-.2c.1-.1.2-.1.3-.2l.2-.2c.1-.1.2-.1.3-.2s.1-.2.2-.2l.6-.6c.1-.1.1-.2.2-.3s.1-.2.2-.2c.1-.1.2-.2.2-.4.1-.1.1-.2.2-.2.1-.1.1-.3.2-.4s.2-.2.2-.4c.1-.2.1-.4.2-.6s.1-.3.2-.5.1-.4.1-.5v-.2c.1-.2.1-.3.2-.4s.4 0 .5 0h16.2c.4 0 .8 0 1.1-.1h.7c.2 0 .3 0 .4-.1h.5c.2-.1.4-.1.6-.2.2 0 .3-.1.5-.1h.3c.2 0 .4-.1.6-.1.2-.1.3-.2.5-.2.2-.1.4-.1.6-.2s.3-.2.5-.3c.1-.1.2-.1.3-.1s.1 0 .2-.1.2-.2.3-.2c.1-.1.3-.1.4-.2s.2-.2.3-.2c.1-.1.2-.1.3-.2s.2-.2.3-.2c.5-.4.9-.8 1.3-1.3.1-.1.2-.2.2-.3.1-.1.1-.3.2-.4a1.38 1.38 0 0 0 .3-.4c.1-.2.1-.4.2-.5s.1-.2.2-.3c0-.1.1-.1.1-.2s.1-.3.1-.4v-.1c0-.1 0-.2.1-.3 0-.1.1-.2.1-.4v-.3c.1-.2.1-.4.1-.5v-.9c-.3-.4-.3-1-.3-1.6zm13.9-26.7h-9.5v37c0 .3.1.4.3.4h2.5c.2 0 .4-.1.6-.2.1 0 .2 0 .3-.1.2-.1.5-.1.7-.2s.3-.2.5-.2h.1c.2-.1.3-.1.5-.2.1-.1.2-.2.4-.2.2-.1.4-.1.5-.2s.2-.2.3-.2c.1-.1.2-.1.3-.2s.2-.2.3-.2l.9-.9c.1-.1.2-.2.2-.3.1-.1.2-.2.2-.3.1-.1.1-.3.2-.4.1-.2.2-.3.3-.4.1-.2.1-.4.1-.6.1-.2.2-.4.2-.6s.1-.3.1-.5v-31.5zm128.3 13h-1.7c-.1 0-.2 0-.4.1h-.5c-.1 0-.3.1-.4.1s-.3.1-.4.1c-.2.1-.4.1-.6.1l-.6.3c-.2.1-.4.1-.6.2-.1.1-.2.2-.3.2-.1.1-.3.1-.5.2-.1.1-.2.2-.3.2-.1.1-.2.1-.3.2l-.3.3c-.1.1-.2.1-.3.2l-.5.5c-.1.1-.1.2-.2.3l-.3.3c-.1.1-.1.2-.2.3s-.2.3-.3.4c-.1.2-.1.4-.2.5-.1.2-.1.3-.2.5 0 .1-.1.3-.1.4v.2c0 .2 0 .5-.1.7v8.4c0 .2-.1.4-.2.6 0 .1 0 .1-.1.2 0 .1-.1.2-.1.2-.2.3-.4.3-.7.4-.1 0-.2.1-.3.1h-.3c-.1 0-.2.1-.4.1h-16.7c-.2 0-.3 0-.4-.2-.1-.1-.1-.2-.1-.3v-16.2c-.1-.2-.4-.2-.7-.2h-8.6c-.1 0-.3.1-.3.2v16.1c-.1.5-.6.4-1.1.4h-11.3c-.1 0-.2-.1-.4-.1h-.5c-.3-.1-.6-.1-.9-.2s-.5 0-.8-.1l-.6-.3c-.2-.1-.5-.1-.7-.2-.1-.1-.2-.2-.3-.2-.1-.1-.3-.1-.5-.2-.1-.1-.2-.2-.3-.2 0 0-.1 0-.1-.1-.1 0-.1-.1-.2-.1l-.3-.3c-.1-.1-.2-.1-.3-.2s-.3-.3-.3-.4l-.3-.3c-.1-.1-.1-.3-.2-.4s-.2-.2-.2-.3c-.1-.2-.1-.4-.2-.6s-.1-.3-.2-.5c0-.1-.1-.2-.1-.3-.1-.2 0-.4-.1-.6v-.2c-.1-.5-.1-.9-.1-1.5v-16c0-.2-.1-.4-.1-.5s-.1-.2-.1-.4c0-.1-.1-.2-.1-.4s-.1-.4-.1-.6c-.1-.2-.2-.3-.3-.5-.1-.1-.1-.3-.2-.4s-.2-.2-.2-.3c-.1-.1-.1-.3-.2-.4s-.1-.2-.2-.2c-.1-.1-.1-.2-.2-.3s-.2-.1-.2-.2c-.1-.2-.3-.3-.5-.4l-.2-.2c-.1-.1-.2-.1-.3-.2a1.38 1.38 0 0 0-.4-.3c-.1-.1-.3-.1-.4-.2s-.2-.2-.4-.3-.3-.1-.5-.1c-.2-.1-.3-.2-.5-.3s-.4-.1-.6-.1h-.2c-.2-.1-.4-.1-.6-.2v-.2h-3v.2c0 .1-.1.1-.1.2v22.6c-.1.3-.1.6-.1.8s0 .4-.1.6v.3c0 .1-.1.2-.1.3s-.1.2-.1.2c-.1.2-.1.4-.2.6-.1.1-.2.2-.2.4-.1.2-.2.3-.3.5l-.2.2c-.1.1-.1.2-.2.3s-.2.1-.2.2l-.2.2c-.1.1-.2.2-.3.2-.1.1-.2.2-.2.3-.1.1-.2.1-.3.2s-.2.2-.3.2c-.1.1-.2.1-.3.2s-.2.1-.3.2c-.2.1-.4.1-.5.2s-.2.2-.4.3c-.1.1-.3.1-.5.1s-.3.1-.4.2-.3.1-.4.1h-.2c-.2.1-.5.1-.8.1-.2 0-.3.1-.5.1h-.4c-.1 0-.2.1-.3.1h-.7c-.2 0-.3 0-.5.1h-2.1c-.2 0-.3 0-.5.1h-13.5c-.1 0-.3-.1-.4-.1s-.2 0-.4-.1c-.1 0-.2-.1-.3-.1-.2 0-.4-.1-.6-.1-.2-.1-.3-.2-.5-.3s-.4-.1-.5-.2-.3-.2-.4-.3-.2-.1-.3-.2-.2-.1-.2-.2c-.1-.1-.2-.1-.2-.2l-.4-.4c-.1-.1-.2-.2-.2-.3-.1-.1-.2-.1-.2-.2-.1-.1-.1-.3-.2-.4s-.2-.2-.2-.3c-.1-.2-.1-.4-.2-.5-.1-.2-.2-.4-.2-.6 0-.1-.1-.3-.1-.4v-1.2c-.1-.4 0-1 0-1.5v-9.1c0-.2-.1-.4-.2-.4-.2-.1-.5-.1-.7-.1h-8c-.3 0-.6 0-.7.2-.1.1-.1.4 0 .5V212c0 .2.1.3.1.5v.7a.9.9 0 0 0 .1.5v.6c0 .1 0 .3.1.4.1.2.1.4.2.6s.1.5.1.7c0 .1.1.2.1.3s.1.2.1.3.1.3.1.4v.1a1.38 1.38 0 0 0 .3.4c.1.1.1.3.2.5.1.1.2.2.2.3.1.1.1.3.2.4s.2.2.2.3c.1.1.1.2.2.3s.1.2.2.2c.3.5.7.9 1.2 1.2l.3.3c.1.1.2.1.3.2l.2.2c.1.1.2.1.4.2l.3.3c.1.1.3.1.5.2.1.1.2.2.3.2.2.1.4.1.5.2s.2.2.4.2c.1.1.3.1.5.1.2.1.3.2.5.2.1 0 .2.1.4.1.1.1.3 0 .5.1l.8.3h.2c.1 0 .2 0 .3.1h.2c.3.1.5.1.8.2.2 0 .3.1.5.1h.1c.2.1.5 0 .7.1h.6c.1 0 .2.1.4.1h.5c.1 0 .3.1.4.1h1.1c.3.1.7.1 1 .1h16.3c.3 0 .7 0 1-.1h1c.1 0 .3-.1.4-.1h.4c.1 0 .3-.1.4-.1h.4c.1 0 .3 0 .4-.1h.3l1.2-.3c.2-.1.5-.1.7-.1h.1c.2-.1.3-.2.5-.3s.4-.1.5-.1.2-.1.3-.1c.1-.1.2-.1.3-.2.2-.1.4-.1.6-.2.1-.1.2-.2.3-.2.1-.1.3-.1.5-.2.1-.1.2-.1.3-.2s.2-.1.4-.2l.3-.3c.1-.1.2-.1.3-.2.1 0 .1-.1.2-.2s.2-.2.3-.2c.1-.1.1-.2.2-.2l1-1h.2l.3.3a1.38 1.38 0 0 1 .3.4c.1.1.2.1.3.2s.2.3.4.4l.2.2c.1.1.3.2.4.3s.2.2.3.2a.76.76 0 0 0 .4.2l.2.2c.1.1.2.1.4.2a1.38 1.38 0 0 0 .4.3c.1.1.3.1.5.2a1.38 1.38 0 0 0 .4.3c.1.1.2.1.3.1s.1 0 .2.1c.1 0 .1.1.2.1.1.1.2.1.3.2.1 0 .3.1.4.1s.3 0 .4.1c.1 0 .2.1.3.1s.1.1.2.1.2.1.3.1h.3c.1 0 .3 0 .4.1h.6c.2.1.4.1.6.2h.6c.1 0 .3.1.4.1h1c.1 0 .3 0 .4.1h41.9c8.2 0 10.5-4.8 10.5-7.1v-17.2c-.5.9-.6.9-.7.9z"/><path d="M122.7 194.9v.3c0 .1 0 .3.1.4 0 .1.1.2.1.3.1.1.1.2.2.3.1.2.1.3.2.4l.3.3c.1.2.3.3.4.4l.3.3c.1.1.3.1.4.2s.2.2.4.2c.2.1.3.1.5.2.1 0 .1.1.2.1.1.1.2.1.3.1a.9.9 0 0 1 .5.1h.4c.3.1.7 0 1 0 .5 0 1.1 0 1.6-.1h.4c.1 0 .2 0 .3-.1l.6-.3c.1-.1.3-.1.4-.1.1-.1.2-.2.3-.2.1-.1.3-.1.4-.2s.2-.2.3-.2c.1-.1.3-.2.4-.4l.3-.3c.1-.1.1-.3.2-.4 0-.1.1-.2.2-.2.1-.1.1-.2.1-.3s.1-.3.1-.5v-1.8c0-.1-.1-.2-.1-.3s-.1-.2-.2-.3-.1-.2-.2-.3-.2-.2-.2-.3c0 0-.1 0-.1-.1-.1-.1-.2-.3-.4-.4l-.4-.4c-.1-.1-.2-.2-.3-.2-.1-.1-.3-.1-.4-.2s-.2-.2-.3-.2c-.2-.1-.4-.1-.6-.2s-.3-.1-.5-.2-.4-.1-.7-.1h-1.7c-.2 0-.4 0-.6.1l-.8.3c-.2.1-.4.1-.6.1-.2.1-.3.2-.5.3-.1.1-.3.1-.4.2s-.2.2-.3.2c-.1.1-.2.1-.3.2l-.9.9c-.1.1-.1.3-.2.4s-.2.2-.2.4c0 .1 0 .2-.1.3v.3c0 .1 0 .3-.1.4v.4c.1.1.1.2.2.2zm177.1 10c0 .2.1.3.2.5.1.1.1.2.2.4a1.38 1.38 0 0 1 .3.4c.1.2.3.3.4.5.1 0 .1.1.2.2s.2.1.4.2l.1.1c.1.1.2.1.3.2.2.1.4.1.5.1.2.1.3.2.5.2.2.1.5.1.5.3 0 .1 0 .2-.1.3s-.1.3-.2.4c0 .1-.1.2-.2.3s-.1.2-.2.3c0 .1-.1.2-.1.3-.1.2-.2.3-.3.4s-.1.3-.2.4c-.1.2-.2.3-.3.4 0 .1-.1.2-.1.3s-.1.2-.1.3l-.2.2c0 .1 0 .1-.1.2-.1.2 0 .4.1.4.1.1.3.1.5 0h7c.2-.1.4-.3.5-.6.1-.1.1-.3.1-.5.1-.2.2-.3.2-.4.1-.1.1-.3.1-.5l.3-.6c.1-.2.1-.4.2-.6s.2-.3.3-.5.1-.4.2-.6a1.38 1.38 0 0 1 .3-.4c.1-.2.1-.5.2-.7s.2-.3.3-.5c0-.1.1-.2.1-.3s.1-.2.1-.3.1-.3.1-.4 0-.2.1-.3v-.9c-.1-.2-.1-.4-.2-.6-.1-.1-.1-.3-.2-.4s-.2-.2-.2-.3c-.1-.1-.1-.2-.2-.2-.1-.1-.2-.2-.3-.2l-.2-.2c-.1-.1-.3-.1-.4-.2s-.2-.2-.3-.2c-.1-.1-.3-.1-.5-.1h-.1c-.1 0-.2 0-.2-.1-.1 0-.2-.1-.3-.1-.2-.1-.3-.1-.4-.3v-.3c.1-.2.1-.3.2-.5 0-.1.1-.1.1-.1.1-.1.1-.2.2-.3 0-.1.1-.3.1-.4.1-.1.2-.2.3-.4.1-.1.1-.3.2-.5s.2-.3.3-.5c0-.1.1-.2.1-.3.1-.1.2-.2.2-.4.1-.2 0-.3-.1-.4h-7.3c-.2.1-.4.2-.5.4-.1.1-.1.3-.2.4-.1.2-.2.3-.3.5s-.1.4-.2.6c-.1.1-.2.2-.2.4-.1.1-.1.3-.2.5s-.2.3-.3.4c-.1.2-.1.3-.2.5s-.2.3-.3.4-.1.3-.2.5-.2.3-.2.4-.1.2-.1.3c-.1.2-.2.4-.3.7v.1c-.1.3 0 .7 0 1.1.1.2.1.4.2.6zM150 201.2h-25.8c-.2 0-.3 0-.5.1H122c-.1.1-.3.1-.4.1h-.1c-.2 0-.4-.1-.6 0-.2 0-.3.1-.4.1h-.5c-.1 0-.3 0-.4.1-.3 0-.5 0-.8.1h-.7c-.2.1-.4.1-.6.2h-.5c-.2 0-.5.1-.7.1s-.3.1-.5.2c-.1 0-.3.1-.4.1h-.2c-.2 0-.5.1-.6.1-.2.1-.3.2-.5.3s-.4.1-.6.1c-.2.1-.3.2-.5.3-.1 0-.2.1-.3.1s-.2.1-.3.1c-.1.1-.2.1-.3.2-.2.1-.4.1-.6.2l-.3.3c-.1.1-.5.2-.7 0-.1-.1-.1-.4-.1-.6v-6c0-.2.1-.3 0-.5-.1-.1-.1-.2-.3-.3-.1-.1-.4 0-.5 0h-7.8c-.2 0-.5 0-.6.1s-.2.4-.1.6V218c0 .1 0 .3-.1.4v.5c0 .1-.1.3-.1.4s0 .2-.1.4c0 .1-.1.2-.1.4-.1.2-.1.5-.1.7-.1.2-.2.3-.3.5-.1.1-.1.3-.2.5-.1.1-.2.2-.2.3-.1.1-.1.2-.2.4-.1.1-.2.2-.2.3-.1.1-.1.2-.2.3l-.4.4c-.1.1-.2.1-.2.2-.1.1-.2.2-.2.3-.1.1-.2.1-.3.2l-.3.3c-.1.1-.3.1-.4.2s-.2.2-.3.2c-.2.1-.4.1-.6.2-.1 0-.2.1-.2.1-.1 0-.2.1-.3.1h-.2c-.2 0-.4.1-.6.1-.2.1-.5.1-.7.2h-.5c-.1 0-.3.1-.5.1H93c-.2 0-.4 0-.6.1h-.9c-.2 0-.4.1-.6.1H77.6c-.1 0-.2-.1-.3-.1h-.8c-.2 0-.3 0-.5-.1h-.6c-.2 0-.4-.1-.5-.1-.2-.1-.3-.1-.5-.2s-.4-.1-.6-.2a.76.76 0 0 0-.4-.2c-.2-.1-.4-.1-.5-.2s-.2-.2-.3-.2c-.1-.1-.3-.1-.4-.2l-.2-.2c-.1-.1-.2-.1-.3-.2l-.3-.3c-.1-.1-.2-.3-.3-.4s-.2-.2-.2-.3c-.1-.1-.1-.3-.2-.4-.1-.2-.2-.3-.2-.4-.1-.1-.1-.3-.1-.5v-.1c-.1-.2-.1-.5-.2-.7 0-.2-.1-.3-.1-.5v-.8c0-.2 0-.3-.1-.5v-3.3c0-.1 0-.3-.1-.4 0-.1 0-.2-.1-.3-.1-.2-.1-.3-.2-.5s-.1-.4-.2-.6-.2-.3-.3-.4c-.1-.2-.1-.3-.2-.5l-.2-.2c-.1-.1-.1-.2-.2-.4-.1-.1-.2-.2-.3-.2-.1-.1-.2-.3-.4-.4l-.3-.3c-.1-.1-.2-.1-.3-.2s-.2-.1-.3-.2a.76.76 0 0 0-.4-.2c-.1-.1-.2-.1-.3-.2-.2-.1-.4-.1-.5-.2-.2-.1-.3-.2-.4-.2-.2-.1-.4-.1-.6-.1a.76.76 0 0 1-.4-.2c-.1-.1-.3-.1-.4-.1s-.2 0-.4-.1h-.4c-.2 0-.3 0-.5-.1h-.4c-.1 0-.2-.1-.3-.1h-1.2c-.1 0-.1 0-.2.1h-.2v12.5h.2c.1.1 0 .3.1.5.1.3.1.6.2.9 0 .2.1.3.1.5.1.1.1.3.2.4 0 .1.1.2.1.3s0 .2.1.3c0 .1.1.2.1.2.1.1.1.2.2.3.1.2.1.4.2.6.1.1.2.2.2.3.1.1.1.2.2.4.1.1.2.2.2.3.1.1.2.2.2.4l.2.2c.1.1.1.2.2.3s.2.1.2.2c.1.1.2.2.2.3l.7.7c.1.1.2.1.3.2s.2.1.2.2c.1.1.2.1.3.2a1.38 1.38 0 0 0 .4.3c.1.1.2.1.4.2.1.1.2.2.3.2.1.1.3.1.4.2a1.38 1.38 0 0 1 .4.3c.2.1.4.1.6.2s.3.2.5.3c.1 0 .2.1.3.1h.2c.2.1.4.2.5.2s.2.1.3.1c.1.1.3 0 .5.1s.4.1.5.2c.1 0 .3.1.4.1s.3 0 .5.1h.1c.2.1.4.1.6.1h.3c.1 0 .2 0 .3.1.1 0 .2.1.3.1h.5c.1 0 .2 0 .3.1h.5c.2 0 .4 0 .7.1h1.1c.1 0 .3.1.4.1H93c.1 0 .2-.1.3-.1h2.2c.2 0 .3 0 .5-.1h.7c.2 0 .3-.1.5-.1h.1c.2 0 .3-.1.5-.1h.5c.1 0 .2 0 .4-.1s.4-.1.6-.2c.1 0 .2-.1.3-.1h.3c.1 0 .3-.1.4-.1.3-.1.5-.2.7-.3s.4-.1.5-.1c.2-.1.3-.2.4-.3.1 0 .1 0 .2-.1s.3-.1.4-.2.2-.1.3-.2c.2-.1.3-.2.5-.2.1-.1.2-.1.3-.2s.3-.1.4-.2.2-.2.3-.2a.76.76 0 0 1 .4-.2c.1-.1.2-.1.2-.2.1-.1.2-.2.3-.2l.2-.2c.1-.1.2-.2.3-.2.1-.1.2-.2.3-.4l.2-.2c.1-.1.2-.2.3-.4 0-.1.1-.1.1-.1.1-.1.1-.2.2-.3l.3-.3c.1-.1.1-.2.2-.3s.1-.2.2-.3.1-.3.2-.4c.1-.2.3-.4.4-.5.1 0 .1-.1.2-.1h33.2c.3 0 .6-.1.9-.1.2-.1.5-.1.7-.2h.3c.2-.1.5-.1.7-.1.2-.1.3-.1.4-.2.1 0 .1 0 .2-.1.2-.1.4-.1.6-.2.1-.1.2-.2.4-.2.1 0 .1 0 .2-.1.1 0 .2-.1.3-.1.1-.1.2-.2.4-.3.1-.1.3-.1.4-.2s.2-.1.2-.2l.5-.5c.1-.1.2-.1.3-.2s.1-.2.2-.2l.2-.2c.1-.1.1-.2.2-.3s.2-.2.2-.3c.1-.1.1-.2.2-.4.1-.1.2-.2.2-.3.1-.1.1-.3.2-.5s.2-.3.3-.4.1-.3.1-.4v-.2c.1-.2.1-.4.2-.6 0-.1 0-.2.1-.2v-.1c.1-.2 0-.5.1-.7.1-.6.1-1.4.1-2.1v-14.2c.5-1.1.2-1-.3-1zm-8.6 14.4v.1c0 .1 0 .3-.1.4 0 .2 0 .5-.1.7s-.2.3-.3.4-.1.2-.2.2c-.2.2-.7.3-1 .4h-.4c-.1 0-.3.1-.4.1h-28.3c-.2-.1-.3-.1-.3-.3-.1-.2 0-.5 0-.7v-.4c0-.1.1-.2.1-.3v-.8c.1-.2 0-.4.1-.6v-.3c.1-.2.2-.4.2-.6 0-.1 0-.1.1-.2.1-.2.1-.4.2-.6.1-.1.1-.2.2-.3s.1-.2.2-.4c.1-.1.2-.2.3-.4.1-.1.1-.2.2-.3s.2-.2.2-.3c.1-.1.1-.2.2-.2l.6-.6c.1-.1.2-.2.4-.2.1-.1.2-.1.3-.2s.3-.1.4-.2.2-.2.3-.2c.2-.1.4-.1.5-.2.2-.1.3-.2.4-.3h.1c.2 0 .3-.1.5-.1.1 0 .2-.1.3-.1s.2-.1.3-.1h.2c.1 0 .3 0 .4-.1h.2l1-.3c.1 0 .2 0 .3-.1.2 0 .5 0 .7-.1.1 0 .2 0 .4-.1h.5c.1 0 .2-.1.4-.1h.4c.1 0 .2 0 .3-.1h.8c.2 0 .5 0 .7-.1h4.5c.1 0 .2-.1.4-.1h13c.7 0 .6.5.6 1.1v6.3c.2 0 .2.2.2.3zm53.8 16c0-.2-.1-.3-.2-.4-.1-.2-.1-.3-.2-.5-.1-.1-.2-.2-.2-.3-.1-.1-.2-.3-.3-.4l-.6-.6c-.1-.1-.3-.2-.5-.3-.1 0-.2-.1-.2-.2-.2-.1-.4-.1-.6-.2a.76.76 0 0 0-.4-.2c-.1 0-.2 0-.3-.1h-.2c-.1 0-.3-.1-.4-.1h-.5c-.3-.1-.5-.1-.8-.1h-.8c-.2 0-.3.1-.5.1h-.3c-.3 0-.6.1-.8.2a.76.76 0 0 1-.4.2c-.1 0-.1 0-.2.1-.1 0-.2.1-.3.1-.1.1-.2.2-.3.2-.1.1-.2.1-.3.2l-.3.3c-.1.1-.2.2-.3.2-.1.1-.2.3-.3.4-.1.2-.3.5-.6.5-.2 0-.3-.3-.4-.4s-.1-.2-.2-.3l-.7-.7c-.1-.1-.3-.2-.4-.3l-.3-.3c-.1-.1-.3-.1-.5-.2-.1 0-.1-.1-.2-.1-.1-.1-.2-.1-.3-.2-.2-.1-.3 0-.5-.1h-.6c-.2-.1-.4-.1-.7-.1h-.8c-.2 0-.3 0-.5.1h-.3c-.1 0-.2 0-.3.1-.1 0-.3 0-.4.1-.1 0-.2.1-.3.1-.1.1-.2.1-.3.2-.2.1-.4.1-.6.2-.1.1-.2.2-.3.2-.1.1-.3.1-.4.2l-.3.3c-.2.2-.4.3-.5.6l-.3.3c-.1.1-.1.2-.2.3s-.1.2-.2.3-.1.2-.1.3v1.4c0 .1 0 .2.1.3l.3.6c.1.1.1.3.1.4l.3.3c.1.1.1.2.2.3s.2.1.2.2l.2.2c.1.1.2.1.3.2s.3.2.4.3.3.1.4.2c.2.1.3.2.5.2.2.1.4.1.6.1.1 0 .3.1.4.1s.3.1.4.1h1.9c.1 0 .2 0 .3-.1.2-.1.4-.1.7-.2h.2c.2 0 .4-.1.5-.1.1-.1.2-.1.3-.2.2-.1.3-.1.5-.2.1-.1.2-.1.2-.2.3-.2.5-.4.8-.6l.2-.2c.1-.1.1-.2.2-.3.1-.2.1-.4.3-.4.1 0 .2 0 .3.1.2.1.3.4.4.6l.5.5a1.38 1.38 0 0 0 .4.3 1.38 1.38 0 0 0 .4.3c.1.1.3.1.4.2a.76.76 0 0 0 .4.2c.2.1.4.1.5.1s.2 0 .2.1c.2.1.3.2.5.2.3.1.7.1 1.1.1h1.4c.1 0 .2-.1.3-.1s.2 0 .3-.1h.1c.1 0 .3-.1.4-.1h.2c.1 0 .2 0 .2-.1.1-.1.2-.2.4-.2.1 0 .2-.1.3-.1.1-.1.2-.2.4-.3.1-.1.3-.1.4-.2s.2-.2.2-.3l.2-.2c.1-.1.2-.2.3-.4.1-.1.2-.2.2-.3.1-.2.1-.4.2-.6.1-.1.1-.3.2-.4.1-.2 0-.5 0-.7.2-.2.2-.5.1-.7z"/></g><g fill="#408b7f"><path d="M389.7 256.7v-7h-8.3c-.2 0-.6 0-.7.1s-.2.3-.1.5v5.4c0 .1 0 .2-.1.2-.1.1-.1.2-.2.4-.1.1-.1.2-.2.3-.2.2-.4.5-.6.6l-.2.2a.76.76 0 0 1-.4.2c-.1 0-.1.1-.2.1s-.2.1-.2.1h-.2c-.2 0-.3 0-.5.1-.1 0-.3.1-.4.1s-.2 0-.3.1h-.1c-.1 0-.2 0-.3.1h-10.6c-.1 0-.2 0-.3-.1s-.2-.2-.2-.3v-16.4c0-.2 0-.4-.1-.6v-.6c0-.1 0-.3-.1-.4 0-.1-.1-.2-.1-.3s-.1-.2-.1-.3c-.1-.2-.1-.4-.2-.6-.1-.1-.2-.2-.2-.3-.1-.1-.1-.2-.2-.3l-.3-.3c-.1-.2-.3-.4-.5-.6-.1-.1-.2-.2-.3-.2l-.3-.3c-.1-.1-.2-.1-.3-.2s-.2-.2-.4-.3c-.1-.1-.3-.1-.4-.2-.2-.1-.3-.2-.5-.3s-.4-.1-.5-.1c-.2-.1-.4-.2-.6-.2-.1 0-.2 0-.4-.1h-.3c-.2 0-.4 0-.6-.1h-2c-.2 0-.5 0-.6.1-.2.2-.1.4-.1.7v38.9c0 .2.1.5.2.6.2.2.7.1 1 .1h7.5c.2-.1.2-.2.3-.4v-11c0-.2 0-.3.2-.4.2 0 .3.1.4.2.2.1.4.1.5.2s.2.2.4.2c.1.1.3.1.4.1h.2l.8.3c.2.1.5.1.7.1h.6c.1 0 .2 0 .3.1h6.2c.1 0 .2.1.3.1h.4c.2 0 .4.1.6.1h.1c.1 0 .2 0 .3.1.2.1.3.2.5.3.1 0 .1 0 .2.1.1 0 .2.1.3.1.1.1.2.2.3.2.1.1.3.1.3.2.1.1.2.2.2.3.1.1.2.1.2.2.1.2.1.4.2.5s.1.2.2.3c.1.2.1.5.1.8v6.4c0 .2.1.3.2.4.2.1.4 0 .7 0h7.9c.1 0 .1 0 .2-.1h.2v-9c0-.3 0-2.6-3.2-4.5-.1-.1-.3-.2-.3-.4s.1-.3.3-.4c3.1-1.2 3.3-3.3 3.3-3.9zm-36.5 18.2v-15.1c0-.1-.1-.3-.1-.4v-.4c0-.1-.1-.2-.1-.3s0-.2-.1-.3v-.4c0-.1 0-.3-.1-.5s-.2-.4-.2-.6c-.1-.2-.1-.5-.2-.7s-.2-.3-.2-.4c-.1-.2-.1-.4-.2-.5s-.1-.2-.2-.3-.1-.3-.2-.4-.2-.2-.3-.4c-.1-.1-.1-.2-.2-.3l-.2-.2c0-.1-.1-.1-.1-.2l-.2-.2c-.1-.1-.2-.3-.4-.4l-.2-.2c-.1-.1-.2-.1-.3-.2l-.2-.2c-.1-.1-.2-.1-.3-.2l-.2-.2c-.1-.1-.3-.1-.5-.2-.1-.1-.2-.2-.4-.3-.1-.1-.3-.1-.4-.2s-.2-.1-.3-.2-.2-.1-.3-.1-.1 0-.2-.1c-.1 0-.1-.1-.2-.1-.1-.1-.2-.1-.3-.2s-.3-.1-.5-.1h-.2c-.1 0-.2-.1-.3-.1-.1-.1-.2-.1-.4-.2s-.4-.1-.6-.1h-.5c-.2-.1-.4-.1-.7-.2h-.4c-.1 0-.3 0-.5-.1h-1.9c-.1 0-.2-.1-.3-.1H331c-.1 0-.2 0-.3.1-.1 0-.2 0-.3.1h-1c-.2 0-.3 0-.5.1h-.7c-.4.1-.8.1-1.2.3-.1 0-.2.1-.3.1-.3 0-.5.1-.8.1l-.8.3c-.2.1-.4.1-.6.1-.2.1-.3.2-.5.3s-.4.1-.6.2c-.1.1-.2.1-.3.2s-.3.1-.5.2c-.1.1-.2.2-.3.2-.1.1-.2.1-.3.2l-.3.3c-.1.1-.3.2-.4.3l-.3.3c-.1.1-.2.1-.2.2s-.1.1-.1.2c-.1.1-.2.2-.3.2l-.5.5c-.1.2-.3.4-.4.6-.1.1-.1.2-.2.4l-.3.3c-.1.1-.1.3-.2.5s-.2.3-.3.5-.1.3-.2.5c-.1.1-.2.2-.2.4-.1.2-.1.5-.2.7 0 .1 0 .2-.1.3 0 .1 0 .2-.1.3s-.1.2-.1.4c-.1.3-.1.6-.1.9v.6c-.1.3-.1.6-.1.9v14.7c0 .1.1.3.2.3.1.1.4.1.6.1h1c.3 0 .5-.1.7-.1h.4c.1 0 .3-.1.4-.1h.5c.2 0 .3-.1.5-.1.2-.1.4-.2.5-.3.1 0 .1 0 .2-.1.1 0 .3-.1.4-.1.1-.1.2-.1.3-.2.2-.1.3-.1.5-.2.1-.1.2-.2.3-.2.1-.1.2-.1.3-.2s.1-.2.2-.2c.2-.1.3-.3.4-.4l.2-.2c.1-.1.1-.2.2-.3s.2-.2.3-.4c.1-.1.1-.3.2-.5s.2-.3.2-.5c0-.1.1-.3.1-.4v-.5c0-.1 0-.2.1-.3.1-.2.1-.5.1-.7 0-.1 0-.3.1-.4v-8.7c0-.2 0-.3.1-.5v-.1c0-.1 0-.3.1-.5 0-.1.1-.2.1-.3.1-.1.1-.2.2-.3.1-.2.1-.3.2-.5l.3-.3c.1-.1.2-.3.3-.4s.2-.1.4-.2c.1-.1.2-.2.4-.3.1-.1.3-.1.4-.1.2-.1.3-.1.4-.2.1 0 .2-.1.3-.1h.6c.2 0 .4-.1.5-.1h9.6c.1 0 .2 0 .3.1.1 0 .3.1.4.1s.2.1.3.2c.2.1.4.1.5.2a1.38 1.38 0 0 0 .4.3c.1.1.2.1.3.2l.1.1c.2.1.3.3.4.5l.1.1c.1.1.1.2.2.3.1.2.1.4.2.6s.2.4.2.6v.5c.1.2 0 .4.1.6v8.2c0 .4 0 .8.1 1.1v.2c0 .1 0 .2.1.3.1.2.1.4.2.6s.1.4.2.6c.1.1.2.2.2.3.1.1.1.3.2.4l.3.3c.1.1.1.2.2.2l.8.8c.1.1.2.1.3.2s.2.2.3.2c.1.1.2.1.4.2.1.1.2.2.3.2s.1 0 .2.1c.1 0 .3.1.4.1l.6.3c.1 0 .3 0 .4.1h.2c.1 0 .2 0 .3.1.1 0 .2.1.3.1h.9c.1 0 .2 0 .4.1h.8c.3 0 .8.1 1-.1.1-.1.1-.2.2-.4v-.4l.2-.8zM88.9 255.5v-4.9c0-.2 0-.5-.1-.6-.1-.3-.4-.2-.7-.2H73.9c-.1 0-.2.1-.4.1h-1.1c-.2 0-.3.1-.4.1h-.6c-.1 0-.3 0-.4.1h-.9c-.2.1-.4.1-.6.2h-.1c-.1 0-.2 0-.3.1h-.3c-.2 0-.3.1-.5.1-.2.1-.4.2-.6.2s-.3.1-.5.1c-.1 0-.2.1-.3.1-.1.1-.2.1-.3.2-.2.1-.4.1-.5.2s-.3.2-.4.3-.3.1-.5.2c-.1.1-.2.2-.3.2-.1.1-.3.1-.4.2s-.2.2-.3.2c-.1.1-.2.1-.3.2l-.3.3c-.2.1-.3.3-.5.5l-.8.8c-.1.1-.1.2-.2.3s-.2.2-.2.3c-.1.1-.1.2-.2.4-.1.1-.2.2-.2.3-.1.1-.1.3-.2.5s-.2.3-.3.5-.1.4-.2.6-.2.3-.2.5c-.1.2-.1.6-.1.8 0 .1 0 .2-.1.3 0 .1-.1.2-.1.3h-.2v16.9h2.1c.1 0 .2 0 .3-.1h.5c.3-.1.5-.1.8-.2h.1c.2 0 .4-.1.5-.1.2-.1.4-.2.7-.3.2-.1.4-.1.6-.2.1-.1.2-.2.3-.2.2-.1.3-.2.5-.3.1-.1.2-.1.2-.2.1-.1.2-.1.3-.2.1 0 .1-.1.2-.2.2-.2.5-.4.7-.6.1-.1.1-.2.2-.3s.2-.2.2-.3c.1-.1.1-.3.2-.4s.2-.2.2-.4c.1-.2.1-.5.2-.7s.1-.4.2-.6c0-.1.1-.3.1-.4v-.7c0-.2.1-.3.1-.5v-8.3c0-.1 0-.3.1-.4v-.1c0-.1 0-.3.1-.4 0-.1.1-.2.1-.3.1-.2.1-.4.2-.6.1-.1.2-.2.3-.4.1-.1.2-.3.3-.3.1-.1.2-.2.3-.2l.3-.3c.2-.1.4-.1.5-.2a.76.76 0 0 1 .4-.2h.1c.1 0 .3 0 .4-.1h.4c.3 0 .5-.1.7-.1h14.4c.2 0 .4 0 .5-.1.2-.1.2-.5.2-.8.3-.1.3-.4.3-.7zm49.8 3.2v-7.8c0-.5 0-.9-.3-1h-1.2c-.4 0-.9 0-1.2.1h-.3c-.1 0-.3.1-.4.1h-.5c-.1 0-.3 0-.4.1-.2.1-.3.2-.5.2-.2.1-.4.1-.6.2-.1.1-.2.2-.3.2-.2.1-.3.1-.5.2l-.3.3c-.1 0-.2.1-.2.1-.1.1-.2.1-.2.2-.2.1-.3.3-.4.4s-.2.1-.2.2c-.1.1-.1.2-.2.3s-.2.2-.2.3c-.1.1-.1.3-.2.5a.76.76 0 0 0-.2.4c-.1.2-.1.5-.2.7v.1c-.1.2-.1.4-.2.6v12.3c0 .3 0 .6-.1.8-.1.1-.2.2-.4.2h-11.7c-.1 0-.3-.1-.4-.1h-.2c-.1 0-.2 0-.4-.1h-.3c-.1 0-.2 0-.3-.1-.2-.1-.3-.2-.5-.2-.2-.1-.3-.1-.5-.2-.1-.1-.2-.2-.3-.2-.1-.1-.2-.1-.3-.2-.1 0-.1-.1-.2-.2l-.2-.2c-.1-.1-.1-.3-.2-.4s-.2-.2-.2-.4c-.1-.2-.1-.5-.2-.7-.1-.4-.2-.8-.2-1.2v-13.1c0-.4.1-1-.1-1.3-.1-.2-.4-.2-.7-.1h-7c-.4 0-.9-.1-1.1.1-.2.1-.1.4-.2.7v13.6a.9.9 0 0 1 .1.5v1.6c0 .2.1.3.1.5v.9c0 .2 0 .4.1.5.1.2.1.5.2.7 0 .1.1.2.1.3.1.2.1.4.1.6.1.2.2.3.2.4s0 .1.1.2c0 .1.1.2.1.3.1.1.2.2.2.3.1.1.1.3.2.4s.1.2.2.2c.1.1.2.2.2.4l.2.2c.1.1.1.2.2.3s.2.2.3.2l.2.2c.1.1.2.2.3.2l.2.2a.76.76 0 0 0 .4.2c.1.1.2.2.3.2.1.1.3.1.4.2s.2.2.3.2c.1.1.3.1.5.2a1.38 1.38 0 0 0 .4.3c.1 0 .2.1.4.1h.2c.2.1.3.2.5.3.2 0 .5.1.7.1h.3c.2.1.4.1.7.2.1 0 .3.1.4.1h.8c.1 0 .3 0 .5.1h.5c.2 0 .4.1.6.1h1.4c.2 0 .3.1.5.1h11c.3 0 .7-.1.9.1s.2.5.2.8v10h9v-.7l.2-27.1z"/><path d="M100.8 269.2v-18.3c0-.4.1-.6-.1-.9-.1-.1-.4-.2-.7-.2h-7.7c-.1 0-.2.1-.2.2-.1.2-.1.4-.1.7v23.9c0 .4-.1 1.1.1 1.2.1.1.3.2.5.1H94c.2 0 .3-.1.4-.1h.5c.2 0 .4-.1.6-.1.3-.1.6-.1.8-.1l.6-.3c.1 0 .1 0 .2-.1.1 0 .3-.1.4-.1.1-.1.2-.1.3-.2s.3-.1.4-.2.2-.1.3-.2.2-.1.3-.2l.3-.3c.2-.1.3-.3.4-.4s.2-.1.2-.2c.1-.1.1-.2.2-.4.1-.1.2-.2.2-.3s.1-.2.1-.2c0-.1.1-.2.1-.3.1-.2.2-.3.2-.5.1-.2.1-.4.1-.6v-.5c0-.1.1-.2.1-.4v-.4c.1-.2.1-.4.1-.6zm213.5 4.6v-23.2c0-.3 0-.6-.1-.7s-.2-.1-.4-.1h-22.3c-.1 0-.2.1-.4.1h-1c-.1 0-.2 0-.3.1h-.5c-.1 0-.3 0-.4.1h-.6c-.2 0-.4.1-.5.1h-.2c-.3.1-.5.1-.8.2-.2 0-.4.1-.6.1-.2.1-.4.1-.5.2-.1 0-.2.1-.3.1-.2.1-.5.1-.6.2-.2.1-.3.2-.4.3-.2.1-.5.1-.6.2s-.2.1-.3.2-.3.1-.4.2-.2.2-.3.2c-.1.1-.2.1-.4.2l-.3.3c-.1.1-.2.1-.4.2l-.3.3c-.1.1-.2.1-.3.2s-.1.2-.2.2l-1.2 1.2c-.1.1-.2.2-.2.4l-.3.3c-.1.1-.1.3-.2.4s-.2.2-.3.4c-.1.1-.1.3-.2.4-.1.2-.2.3-.3.4-.1.2-.1.4-.2.5-.1.2-.2.4-.3.7-.1.2-.1.5-.2.7v.1c0 .1-.1.2-.1.3s-.1.3-.1.4v1.4c0 .1 0 .3-.1.4v2.2c0 .1 0 .3.1.4v1.6c.1.3.1.6.2.8 0 .1 0 .2.1.3v.2c0 .1.1.3.1.4.1.2.2.4.3.5 0 .1.1.2.1.3s.1.2.1.3c.1.1.2.2.2.4.1.2.1.4.2.5s.2.2.2.3c.1.1.1.2.2.3l.3.3c.1.1.2.2.2.4 0 .1.1.1.2.2a1.38 1.38 0 0 1 .3.4l.2.2c.1.1.1.2.2.3s.2.2.3.2l.2.2c.1.1.2.1.3.2s.2.2.3.2c.1.1.3.1.4.2s.2.2.3.2c.1.1.3.1.4.2s.2.2.3.2c.1.1.3.2.5.2.1.1.2.1.3.2.2.1.4.1.6.2s.3.2.5.3.4.1.6.1c.1 0 .1 0 .2.1.1 0 .2.1.3.1s.2.1.3.1h.3c.3.1.6.1.9.2l1.2.3h.5c.2 0 .3 0 .4.1h.8c.1.1.3.1.5.1H314c.1-.1.2-.2.2-.3v-.6c.1.1.1-.3.1-.7zm-9-5.6c-.1.1-.1.3-.3.3h-12.1c-.5 0-.9 0-1.3-.1h-1c-.2-.1-.5 0-.7-.1h-.2c-.1 0-.2-.1-.3-.1-.1-.1-.2-.1-.3-.2-.2-.1-.4-.1-.5-.2s-.2-.2-.3-.2-.2-.1-.2-.1c-.1 0-.1-.1-.2-.2-.1 0-.1-.1-.2-.2s-.2-.3-.3-.4-.2-.2-.2-.3c-.1-.1-.1-.2-.1-.3s0-.1-.1-.2c-.1-.2-.2-.4-.2-.6v-4.6c0-.2.1-.4.2-.6 0-.1 0-.1.1-.2 0-.1.1-.3.1-.4.1-.1.1-.2.2-.3s.1-.2.2-.3c0-.1.1-.1.2-.2l.3-.3c.1 0 .1-.1.2-.1l.3-.3c.1-.1.3-.1.4-.2.2-.1.3-.2.5-.3.1 0 .3 0 .4-.1h.3c.3-.1.7-.1 1-.2h13.7c.7 0 .6.5.6 1.1v8.9c-.1.4-.1.8-.2 1zm-126.9 6.2v-24.1c0-.2 0-.3-.2-.4-.1-.1-.2-.1-.4-.1h-22.7c-.1 0-.3.1-.5.1h-.9c-.2 0-.3.1-.5.1h-.5c-.2 0-.4.1-.5.1h-.2c-.2 0-.4 0-.5.1h-.4c-.2 0-.3.1-.5.2h-.2c-.2.1-.6.1-.8.1-.1 0-.2.1-.2.1-.2.1-.3.2-.5.2h-.2c-.1 0-.3.1-.4.1h-.1c-.2.1-.4.2-.5.3-.1 0-.3.1-.4.1-.1.1-.2.2-.4.2-.1.1-.3.1-.5.2-.1.1-.2.2-.3.2-.1.1-.3.1-.4.2s-.2.2-.3.2c-.1.1-.2.1-.3.2s-.2.1-.2.2l-.2.2c-.1.1-.2.2-.2.3-.2.1-.3.3-.4.4l-.2.2c-.1.1-.1.2-.2.2l-.2.2c-.1.1-.1.2-.2.3s-.1.2-.2.2c-.1.1-.1.3-.2.5-.1.1-.1.2-.2.3s-.1.3-.2.4-.2.2-.2.3c-.1.2-.1.4-.2.6s-.2.3-.2.4c-.1.1-.1.3-.1.5v.2c-.1.2-.1.4-.2.6 0 .1-.1.2-.1.3s0 .2-.1.2v.1c-.1.2 0 .5-.1.8 0 .2-.1.3-.1.5v4.3c0 .1.1.3.1.4v1c.1.2.1.5.1.7.1.2.2.4.2.5v.1c.1.2.1.4.1.6.1.2.2.3.2.4.1.2.1.4.2.5s.2.2.2.3c.1.1.1.3.2.4l.3.3c.1.1.1.2.2.3l.3.3c.2.3.4.5.6.7.1.1.2.1.2.2l.5.5c.1.2.3.3.4.4l.2.2c.1.1.2.1.3.2l.3.3c.1.1.3.1.4.2s.2.2.3.2c.1.1.2.1.4.2a1.38 1.38 0 0 0 .4.3c.2.1.4.1.6.2a1.38 1.38 0 0 1 .4.3h.1c.1 0 .3.1.4.1s.2 0 .3.1c.2.1.3.1.5.2.1 0 .1 0 .2.1.2.1.6.1.8.1l.8.3h.2c.2 0 .3.1.5.1h.4a.9.9 0 0 1 .5.1h.7c.4.1 1 .1 1.5.1h21.9c.4 0 .9.1 1.1-.1.1-.1.2-.5.1-.7.1 0 .1-.2.1-.4zm-9.2-6.1c-.1.1-.2.1-.3.2h-13.8c-.1 0-.2-.1-.3-.1h-1.2c-.1 0-.3 0-.4-.1-.1 0-.1 0-.2-.1s-.3-.1-.4-.2c-.2-.1-.3-.1-.5-.2-.1-.1-.2-.2-.3-.2-.1-.1-.2-.2-.3-.2l-.6-.6c-.1-.1-.1-.3-.2-.4s-.1-.2-.2-.3c0-.1-.1-.2-.1-.3v-.3c0-.2 0-.5-.1-.7v-.7c0-.2-.1-.3-.1-.5v-1.2c0-.2.1-.3.1-.5v-.6c0-.3.1-.7.1-1 0-.1 0-.2.1-.3s.1-.2.2-.4c.1-.1.1-.3.2-.4s.2-.2.2-.3a.76.76 0 0 0 .2-.4c.1-.1.2-.1.3-.2s.3-.2.4-.3.3-.1.4-.2c.2-.1.3-.2.5-.3s.4-.1.6-.1h.4c.1 0 .2-.1.3-.1h14.5c.1 0 .1.1.2.1.1.1.1.2.1.3v9.9c.4.3.3.6.2.7zm106.2-7.6v-.2c0-.2 0-.4-.1-.5v-.2c-.1-.2-.2-.5-.2-.7-.1-.2-.1-.5-.2-.7 0-.1-.1-.2-.1-.3-.1-.1-.1-.3-.2-.4-.1-.2-.1-.4-.2-.6-.1-.1-.2-.2-.3-.4s-.1-.4-.2-.5-.1-.2-.2-.3-.1-.3-.2-.4-.1-.2-.2-.3-.2-.2-.2-.4l-.3-.3c-.1-.1-.2-.2-.2-.3l-.1-.1c-.1-.1-.1-.2-.2-.3l-.4-.4c-.1-.1-.2-.1-.3-.2l-.3-.3c-.1-.1-.3-.1-.4-.2s-.2-.2-.3-.2c-.1-.1-.2-.1-.4-.2-.1-.1-.2-.2-.3-.2-.1-.1-.3-.1-.4-.2s-.2-.2-.3-.2c-.2-.1-.5-.1-.7-.2-.1 0-.2-.1-.2-.2-.1 0-.1-.1-.2-.1s-.2 0-.3-.1c-.1 0-.2 0-.3-.1l-.8-.3c-.2 0-.4-.1-.6-.1-.3-.1-.5-.1-.8-.2h-.2c-.1 0-.2 0-.3-.1h-.2c-.2 0-.5 0-.7-.1h-.7c-.2 0-.4-.1-.6-.1h-.8c-.1 0-.2-.1-.4-.1h-14.3c-.1 0-.2-.1-.3-.1-.2-.2-.2-.5-.2-.8v-13.2c0-.3 0-.7-.1-.9-.1-.1-.3-.2-.6-.2h-1.6c-.1 0-.3 0-.4.1h-.4c-.2 0-.3.1-.5.1h-.5c-.2 0-.3.1-.5.1-.2.1-.3.2-.5.3s-.4.1-.6.2c-.1.1-.2.2-.3.2-.1.1-.3.1-.4.2s-.2.2-.3.2c-.1.1-.2.1-.4.2-.1.1-.1.2-.2.2-.2.1-.3.3-.4.4l-.3.3c-.1.1-.1.2-.2.4-.1.1-.2.2-.3.4-.1.1-.1.3-.1.5-.1.2-.2.4-.2.6 0 .1-.1.2-.1.3v.1c-.1.2 0 .4-.1.6v.5c0 .2-.1.3-.1.5v23.1c0 .2.1.3.1.5v1a.9.9 0 0 0 .1.5c0 .3.1.5.1.8.1.2.1.3.2.5s.1.5.2.7.2.5.3.7c0 .1.1.2.1.3.1.1.2.2.2.4.1.2.1.4.2.5l.2.2a.76.76 0 0 1 .2.4c.1.1.2.2.2.3.1.1.1.2.2.4l.2.2c.1.1.1.2.2.3l.2.2c.1.1.2.2.2.3s.1.1.2.2l.2.2c.1.1.2.1.3.2l.2.2a.76.76 0 0 0 .4.2l.3.3c.1.1.2.1.4.2.1.1.2.1.3.2.2.1.3.2.5.2.1.1.2.2.3.2.2.1.4.1.6.2a.76.76 0 0 0 .4.2c.1 0 .3.1.4.1h.2c.1 0 .2.1.3.1.2.1.3.1.5.2.2 0 .4 0 .5.1.3.1.7.2 1 .2h.5c.1 0 .2 0 .3.1h.7c.1 0 .3 0 .4.1h.5c.2 0 .4.1.5.1h11.7c.2 0 .3-.1.5-.1h.6c.1 0 .3 0 .4-.1h.7c.3-.1.7-.1 1-.2.1 0 .2 0 .3-.1.3-.1.6-.1.9-.2s.5-.2.7-.3c.1-.1.3-.1.4-.1s.2 0 .3-.1c.2-.1.3-.2.4-.2.2-.1.4-.1.6-.2.1-.1.2-.2.4-.2.2-.1.3-.1.5-.2.1-.1.2-.2.3-.2.1-.1.2-.1.3-.2s.2-.2.3-.2c.1-.1.2-.1.3-.2s.2-.2.3-.2c.1-.1.2-.2.3-.2l.5-.5c.1-.1.2-.2.2-.3l.2-.2c.1-.1.1-.2.2-.2l.3-.3c.1-.1.1-.2.2-.3s.2-.2.2-.3c.1-.1.1-.3.2-.4s.2-.2.2-.3c.1-.1.1-.3.2-.4s.2-.3.3-.4c.1-.2.1-.4.2-.6s.2-.3.3-.5c0-.2.1-.3.1-.5 0-.1 0-.2.1-.3 0-.1 0-.2.1-.3 0-.1 0-.2.1-.2v-.1c.1-.2.1-.4.1-.7v-1.1c0-.1.1-.3.1-.4V262c0-.2-.1-.4-.1-.6v-.7zm-9.1 4.3v.3c0 .1-.1.2-.1.3-.1.1-.1.2-.2.3-.1.2-.1.4-.2.5s-.2.2-.2.3c-.1.2-.2.3-.4.5-.1.1-.2.2-.2.3-.1.1-.2.1-.2.2-.1.1-.2.2-.3.2-.2.1-.3.1-.5.2-.1.1-.2.1-.3.2-.1 0-.1.1-.2.1s-.2 0-.3.1c-.3 0-.6.1-.8.1h-.8c-.1 0-.3 0-.4.1h-9.1c-.1 0-.3-.1-.4-.1h-.8c-.1 0-.3 0-.4-.1h-.3c-.1 0-.3-.1-.4-.1-.2-.1-.3-.2-.5-.2-.2-.1-.4-.1-.5-.2s-.2-.2-.3-.2a.76.76 0 0 0-.4-.2c-.1-.1-.2-.2-.2-.3-.1-.1-.2-.1-.2-.2-.1-.2-.2-.4-.3-.5a.76.76 0 0 1-.2-.4c-.1-.2-.1-.5-.1-.7 0-.1-.1-.3-.1-.4v-6.5c0-.3 0-.5.1-.7.1-.1.2-.2.4-.2h14.9c.3 0 .6.1.9.1.2 0 .5 0 .7.1h.2c.2.1.3.2.5.3.1.1.3.1.4.2l.9.9c.1.1.1.2.2.3s.1.2.2.3c.1.2.1.4.2.6s.1.3.2.5c0 .1.1.3.1.4v2.5c-.6.1-.5.6-.6 1.1z"/><path d="M218.6 238.6H217c-.1 0-.3 0-.5.1h-.4c-.2 0-.3 0-.4.1h-.3c-.1 0-.2 0-.4.1s-.4.2-.6.2c-.1 0-.2 0-.2.1h-.1c-.1 0-.3.1-.4.1-.1.1-.2.2-.4.2-.1.1-.3.1-.5.2-.1.1-.2.2-.3.2-.1.1-.2.1-.3.2l-.3.3c-.2.1-.4.3-.6.5-.1.1-.2.2-.3.4l-.3.3c-.1.1-.1.3-.2.4s-.2.2-.2.4c-.1.2-.1.4-.2.6-.1.1-.1.3-.2.4 0 .1-.1.2-.1.3v.2c0 .1 0 .3-.1.4v.5c0 .2-.1.4-.1.6v3.9c0 .2-.1.4-.2.5-.1 0-.2 0-.3.1h-14.2c-.1 0-.3.1-.4.1h-1.2c-.2 0-.3.1-.4.1h-.4c-.2 0-.3 0-.5.1h-.5c-.1 0-.2 0-.4.1s-.4.1-.6.2c-.1 0-.3.1-.4.1h-.2c-.2 0-.4 0-.5.1l-.6.3c-.1 0-.2 0-.3.1-.2.1-.4.1-.5.1-.2.1-.3.2-.5.3s-.4.1-.5.2-.2.2-.4.2c-.1.1-.2.1-.3.1 0 0-.1 0-.1.1-.1.1-.2.2-.3.2-.1.1-.3.1-.4.2s-.2.2-.3.2c-.1.1-.2.1-.3.2l-.2.2c-.1.1-.2.1-.3.2l-.9.9c-.1.1-.1.2-.2.2l-.2.2c-.1.1-.1.2-.2.3s-.2.2-.2.3c-.1.1-.1.2-.2.3s-.2.2-.2.3c-.1.1-.1.3-.2.4s-.2.2-.2.4c-.1.1-.1.3-.2.5a.76.76 0 0 0-.2.4c-.1.2-.1.6-.2.8s-.2.3-.2.5 0 .4-.1.5c0 .2-.1.5-.1.7v.1c0 .1 0 .3-.1.4v.6c0 .1-.1.3-.1.4v2.5c0 .2 0 .3.1.4v.7c0 .2.1.5.1.7v.2c0 .2 0 .5.1.7v.2c0 .1.1.2.1.3.1.2.2.3.2.5.1.2.1.5.2.6.1.2.2.3.2.4.1.2.1.3.2.5.1.1.2.2.2.4.1.2.1.3.2.5.1.1.2.2.2.3.1.1.1.2.2.3l.2.2c.1.1.1.2.2.2l.3.3c.1.1.1.2.2.3l.2.2c.1.1.1.2.2.2l.3.3c.1.1.2.2.3.2l.2.2c.1.1.2.2.3.2.1.1.2.2.3.2.1.1.2.1.4.2a1.38 1.38 0 0 0 .4.3c.1.1.3.1.4.2s.2.2.4.2c.2.1.4.1.6.2a.76.76 0 0 0 .4.2c.1.1.3.1.5.1h.2l.6.3h.2c.2 0 .5.1.7.1h.1c.1 0 .3.1.4.1s.2.1.4.1h1c.2 0 .4 0 .5.1h.8c.1 0 .2.1.4.1h11.9c.2 0 .3-.1.4-.1h1c.4-.1.8 0 1.2-.1.1 0 .2 0 .3-.1.3-.1.5-.1.8-.2h.3c.2 0 .4 0 .6-.1l.6-.3c.2-.1.5-.1.7-.2s.3-.2.4-.2c.2-.1.4-.1.6-.2.1-.1.2-.2.4-.2.1-.1.3-.1.4-.2s.2-.2.4-.3c.1 0 .2-.1.3-.1h.1l.2-.2c.1-.1.3-.1.4-.2l.2-.2c.1-.1.2-.1.3-.2l.1-.1c.1-.1.2-.1.2-.2.2-.2.4-.5.6-.7l.3-.3c.1-.1.1-.2.2-.3s.2-.2.2-.3c.1-.1.1-.2.2-.3s.2-.2.2-.3c.1-.1.1-.3.2-.4s.1-.2.2-.3c.1-.2.1-.4.2-.5 0-.1.1-.1.1-.2s.1-.1.1-.2c.1-.2.1-.4.1-.6 0-.1.1-.1.1-.2s.1-.2.1-.3.1-.2.1-.2c.1-.2.1-.4.1-.6v-.7c0-.1.1-.2.1-.3v-.4c0-.1.1-.3.1-.4v-25.1c0-.2 0-.6-.1-.7.2 0 0 0-.1-.1zM210 264v.2c0 .3-.1.5-.1.8v.2c-.1.1-.1.3-.1.5-.1.2-.1.5-.2.7-.1.1-.1.2-.2.2-.1.1-.1.2-.2.3l-.2.2c-.1.1-.1.2-.2.2-.1.1-.2.1-.4.2-.1.1-.2.2-.3.2-.1.1-.3.1-.5.2-.1 0-.1.1-.2.1-.1.1-.2.1-.3.1s-.3 0-.4.1h-.2c-.2 0-.3 0-.5.1h-.8c-.1 0-.2 0-.3.1h-9.6c-.1 0-.3-.1-.4-.1h-.8c-.1 0-.2 0-.4-.1h-.5c-.1 0-.1 0-.2-.1a.76.76 0 0 0-.4-.2c-.1-.1-.3-.1-.5-.1-.2-.1-.3-.2-.4-.3s-.3-.1-.4-.2-.2-.2-.2-.3l-.2-.2c-.1-.1-.2-.3-.3-.5-.1-.1-.2-.2-.2-.3s-.1-.2-.1-.3v-.5c-.1-.2-.1-.4-.1-.6v-3.7c0-.2.1-.4.1-.5s0-.2.1-.4c0-.1.1-.2.1-.3.1-.1.1-.2.2-.2.1-.1.1-.2.2-.4.1-.1.1-.2.2-.3l.2-.2c.1-.1.1-.2.2-.2.1-.1.2-.2.3-.2l.3-.3c.1-.1.3-.1.5-.2.1-.1.2-.1.3-.2.1 0 .2-.1.3-.1h.3c.2 0 .3 0 .5-.1.1 0 .2 0 .3-.1.1 0 .1 0 .2-.1H210c.1 0 .1.1.2.1.1.1.1.2.1.3v6c-.3.3-.3.4-.3.5z"/></g><g fill="#34327a"><ellipse cx="377.3" cy="232.4" rx="5.6" ry="4.3"/><ellipse cx="355.7" cy="194.5" rx="5.6" ry="4.3"/></g></svg>