<svg xmlns="http://www.w3.org/2000/svg" viewBox="0 0 450 475.1"><path d="M254.8 278.1c0 .5-.1 1.1-.3 1.7s-.5 1.2-.9 1.7-1 1-1.7 1.3-1.5.5-2.5.5-1.8-.2-2.5-.5-1.3-.8-1.7-1.4-.8-1.3-1-2.1-.3-1.6-.3-2.5c0-1.1.2-2 .5-2.9s.7-1.6 1.3-2.2 1.2-1 2-1.4c.7-.3 1.6-.5 2.5-.5 1.4 0 2.4.2 3.1.5.7.4 1.2.6 1.5.9v6.9zm3.7 5.9v-24.8h-3.7v8.8c-.4-.2-1-.4-1.8-.7s-1.8-.5-3.2-.5c-1 0-2.1.2-3.2.6s-2.2 1-3.1 1.8c-1 .8-1.8 1.9-2.4 3.1-.6 1.3-.9 2.8-.9 4.5 0 1.5.2 2.8.6 4s1 2.2 1.8 3 1.7 1.5 2.7 1.9c1 .5 2.2.7 3.3.7.9 0 1.7-.1 2.4-.4.7-.2 1.3-.5 1.8-.8s.9-.6 1.2-1c.3-.3.5-.6.7-.7l.1 2.4h3.6c.1-.6.1-1.3.1-1.9m-24.5-4.8c0 .6-.1 1.1-.4 1.6s-.7 1-1.2 1.4-1.1.7-1.7 1c-.6.2-1.3.4-2 .4-1.3 0-2.2-.3-2.9-.8s-1.1-1.3-1.1-2.3c0-.4.1-.8.2-1.3.1-.4.4-.8.8-1.2s.9-.7 1.5-.9a8.15 8.15 0 0 1 2.5-.4h1.3c.5 0 .9.1 1.3.1s.8.1 1.1.1.5.1.6.1v2.2zm3.5-5.7c0-2.1-.7-3.8-2.1-4.9-1.4-1.2-3.3-1.7-5.8-1.7-1 0-1.9.1-2.7.2s-1.5.3-2.1.6c-.6.2-1.2.5-1.6.7-.5.3-.9.5-1.2.8l1.7 2.4c.6-.4 1.3-.8 2.1-1.2s2-.6 3.4-.6c1.5 0 2.6.3 3.5.9s1.3 1.6 1.3 3v.7c-.1 0-.4-.1-.7-.1s-.7-.1-1.1-.1-.9-.1-1.4-.1h-1.4c-2.7 0-4.8.6-6.2 1.8s-2.1 2.8-2.1 4.8c0 1.1.2 2 .6 2.7s.9 1.3 1.6 1.8c.6.5 1.4.8 2.1 1 .8.2 1.6.3 2.3.3 1.2 0 2.4-.2 3.6-.7s2.1-1.1 2.8-2.1l.1 2.2h3.4v-12.4zm-22.6 12.4h3.7v-26.7h-3.7v26.7zm-7.5 0h3.7v-18.6h-3.7v18.6zm-.3-21.9h4.1v-4h-4.1v4zm-6.9 15.3c-.3.8-.8 1.6-1.4 2.2s-1.3 1.1-2.2 1.4c-.8.3-1.8.5-2.9.5s-1.9-.1-2.5-.2l-1.4-.3v-7.4c0-.7.1-1.4.3-2 .2-.7.6-1.2 1-1.7s1-.9 1.7-1.2 1.5-.5 2.3-.5c1 0 1.8.2 2.5.5.7.4 1.2.8 1.7 1.4.4.6.8 1.3 1 2.1s.3 1.6.3 2.5c.1 1 0 1.9-.4 2.7m2.1-9.6c-.7-.9-1.6-1.5-2.7-2s-2.3-.7-3.7-.7c-.8 0-1.5.1-2.1.2l-1.7.6c-.5.3-.9.5-1.2.8l-.8.8v-10.1h-3.7v26c.8.3 1.9.6 3.2.8s2.8.4 4.3.4c1.6 0 3-.2 4.3-.7s2.4-1.2 3.4-2.1c.9-.9 1.7-1.9 2.2-3.2a10.57 10.57 0 0 0 .8-4c0-1.3-.2-2.6-.6-3.8-.4-1.1-1-2.2-1.7-3m-23.4 16.2h3.7v-26.7h-3.7v26.7zm-18.7-10.6l4.5-11.7 4.4 11.7h-8.9zm2.5-16L152 286h4.1l2.8-7.4h11.2l2.8 7.4h4.4l-10.7-26.7h-3.9zm-17 8h-4.4l-8 7.6v-15.7h-3.7v26.7h3.7v-6.8l2.6-2.5 6.5 9.3h4.4l-8.3-11.7 7.2-6.9zm-26.8-.4c-.9 0-1.7.1-2.3.3-.7.2-1.3.5-1.8.8s-1 .7-1.3 1.1c-.4.4-.7.7-.9 1.1l-.1-2.8H109V286h3.7v-8.6c0-.9.1-1.8.3-2.7s.5-1.6.9-2.3 1-1.2 1.7-1.7c.7-.4 1.6-.6 2.7-.6 1.4 0 2.5.4 3.2 1.2.8.8 1.1 2.1 1.1 3.8V286h3.7v-11.2c0-2.4-.6-4.3-1.8-5.8-1.3-1.4-3.2-2.1-5.6-2.1m-17.1 12.3c0 .6-.2 1.1-.4 1.6-.3.5-.7 1-1.2 1.4s-1.1.7-1.7 1c-.6.2-1.3.4-2 .4-1.3 0-2.2-.3-2.9-.8s-1.1-1.3-1.1-2.3c0-.4.1-.8.2-1.3.1-.4.4-.8.8-1.2s.9-.7 1.5-.9a8.15 8.15 0 0 1 2.5-.4h1.3c.5 0 .9.1 1.3.1s.8.1 1.1.1.5.1.6.1v2.2zm3.5-5.7c0-2.1-.7-3.8-2.1-4.9-1.4-1.2-3.3-1.7-5.8-1.7-1 0-1.9.1-2.7.2s-1.5.3-2.1.6c-.6.2-1.2.5-1.6.7-.5.3-.9.5-1.2.8l1.7 2.4c.6-.4 1.3-.8 2.1-1.2s2-.6 3.4-.6c1.5 0 2.6.3 3.5.9s1.3 1.6 1.3 3v.7c-.1 0-.4-.1-.7-.1s-.7-.1-1.1-.1-.9-.1-1.4-.1h-1.4c-2.7 0-4.8.6-6.2 1.8s-2.1 2.8-2.1 4.8c0 1.1.2 2 .6 2.7s.9 1.3 1.6 1.8c.6.5 1.3.8 2.1 1s1.6.3 2.3.3c1.2 0 2.4-.2 3.6-.7s2.1-1.1 2.8-2.1l.1 2.2h3.4v-12.4zm-23.1 7.1c-.4.6-.9 1-1.6 1.3-.6.3-1.3.5-2.1.6s-1.5.1-2.2.1h-4.7v-9h5c.7 0 1.4.1 2.1.2s1.4.4 2 .7 1.1.8 1.5 1.4.6 1.4.6 2.3c.1 1.1-.1 1.9-.6 2.4m-10.6-18h4.9c.6 0 1.2 0 1.8.1s1.1.3 1.6.6.9.7 1.2 1.2.4 1.1.4 1.9c0 .7-.1 1.3-.4 1.8s-.7.9-1.2 1.2-1 .6-1.6.7-1.2.2-1.8.2h-4.9v-7.7zm13.1 10.9c-.6-.5-1.2-.9-1.9-1.1-.7-.3-1.3-.4-1.9-.5.4-.1.9-.2 1.4-.5s1-.7 1.5-1.2c.4-.5.8-1.1 1.1-1.8s.5-1.5.5-2.3c0-.9-.2-1.8-.5-2.6s-.9-1.5-1.5-2.2c-.7-.6-1.5-1.1-2.6-1.5-1-.4-2.3-.5-3.7-.5h-9.2V286h8.7c1.4 0 2.8-.1 4-.4 1.3-.2 2.3-.7 3.2-1.2.9-.6 1.6-1.4 2.2-2.3.5-.9.8-2.1.8-3.6 0-1.2-.2-2.2-.6-3-.4-.9-.9-1.5-1.5-2m72.9-22.6c.2-.3.1-.4 0-.5l-3.9-2.8-2.3 3s-.2.2 0 .4l4 2.8 2.2-2.9zm87.3-.4s-.2.2 0 .4l4 2.8 2.2-2.8c.2-.3.1-.4 0-.5l-3.9-2.8-2.3 2.9zm-8-27.8s-.2.2 0 .4l3.9 2.8 2.2-2.8c.2-.3.1-.4 0-.5l-3.9-2.8-2.2 2.9zm17.6 20.5c2.9-.7 3.9-6.8 3.9-9.1 0-3.2-1.8-6-3.8-8.4l-.3-.3-1.4 4.5c1.6 2.2 3.3 4.5 3.5 7.3-.2 1.7-4.7 2.3-8.3 2.4h0c-8.9 0-8-5.2-7.9-7.5 0 .1-4.2 7.2-10.5 7.2-7.2-.4-9.5-4.8-9.6-7.9-.1-10.1-9-14.1-16.7-25.3l-.2-.3s-2.5-3.9-2.8-4.2c1.3-1.2 32.2-7.8 37.6-8.8h0c1.1-.2 2.1.1 1.3 2.9-.9 3.2-4.4 11.6-6 15.6 3.3-5.2 11.7-22.9 7.8-22.5h0c-6.3 1.1-37.5 8.1-41.9 9.9-.4.7-1.2 6.2-.8 6.5 6.5 10.4 16 18.4 18.5 22.8.5.9.7 1.8.6 2-2.4 5.7-23 10-29.5 10-1.1 0-2.5 0-4-.2 8.6-13.4-12.5-39.5-17.3-47.2-1.5-2.2-2.1-3.3-2.1-3.3l-1.9 3.9c.8 4.4 2.9 34.3 2.9 36.4 0 2.5.1 2.6.1 5.5 0 3.8-7.4 3.7-8.3 3.6-2.6-.5-3.8-5.7-3.9-9.3-8.7 11-18.6 10.2-18.7 10.2-9.5-1-9.8-13.4-10.1-20.6-.1-2.4 0-23.3-.5-29.9 0 0-2.9 4.1-3.1 4.7 0 2 .8 21.7 1.1 27.4.3 6-1.2 11.5-6.5 16.1.3-.3 1-2.3 1.1-3 1-10.5-11.8-20.9-20.2-32.9l-.3-.4s-3.5-5.9-4.3-6.9c-.4 1-1 3.4-1.3 4.9 10.7 17.6 24.6 27.7 23.8 36.5-.1 1.7-.4 2.4-1.5 3.5-5 4.2-10.4 6.9-16.5 9.4h.9c4.6.2 12.6-1.7 16.3-4.3 5.2-3.7 8.8-10.4 9.7-14.6l.1-.2v.2c.5 5.6.4 12.3 8.6 14.3 6.1 1.5 11.6-1.1 15.4-3.7 3.1-2.1 4.9-4.3 4.9-4.2 0 3.2.7 5.6 2.3 6.5 2.7 1.6 6.4.8 6.4.8 8.8-1.5 7.5-11.8 7.5-16.5 0-5.9-2-25.4-2.3-28.3 4.4 6.8 22.3 30.1 15.2 40.9-2.2-.4-4.3-1.1-5.6-2.3 0-.1-2.6-1.9-2.6-5.2 0-4.4 3.3-8.6 3.3-8.6-3.5 2.9-5.4 9-5.4 11.1 0 5 3.2 7.8 7.4 9.1-2 2.3-2.4 2.8-3.7 4.1 2.2-1.1 4.1-2.4 5.6-3.7 1.3.2 2.6.3 3.8.3 17 0 31.6-6.4 33.8-11.7-.2 13.2 13.1 10.9 13.1 10.9 4.7-.8 6.4-3.1 7.9-4.9v.1c2.4 8.4 15.3 4.7 15.4 4.7m-180 1.1c6.5-.1 20.2-6.5 24.9-8.8 1.6-.8 1.6-3.1 1.6-4.2 0-2.1-.2-3.5-1.3-5.1-2.4-3.1-7.3-6.7-13.9-13.7l-5.1-5.2-.7 4.6c3.7 4.9 10.6 11.7 18.8 18.5.3.3-.3.6-.5.7h0c-5.2 2.5-18.2 8-23.2 8.1-7.7.1-4.7-9.8-4.1-11.5 0 0 .2-.7-.1-.9-1.5 3.3-7.7 17.6 3.6 17.5m115-15.2h0c3.8.1 8 0 10.1-3.3.5-.7 1.7-3.1 1.7-3.8-1.3-1.2-3.2-1.5-3.8-2.2-.2-.3 2.4-1.9 2.4-2.2l.4-2c-.1-.2-5.2 3.5-5.2 6.3v.2c0 1.3 3.8 2.5 3.8 2.5-.6 1.1-7.8 4.1-9.4 4.5" fill="#7a6e66"/><path d="M365.3 188.6h-82.1v48.7c14.1-8.1 30.5-12.7 48.1-12.7 18.7 0 36.2 5.3 51 14.5v-33.9c-.1-9.2-7.7-16.6-17-16.6" fill="#f5b335"/><path d="M317.1 234.8c-12.4 0-24 3.3-34 9.1V269c0 9.1 7.6 16.6 16.9 16.6h82.1c-6.7-29.1-33.3-50.8-65-50.8" fill="#ce0e2d"/></svg>