<?xml version="1.0" encoding="utf-8"?>
<!-- Generator: Adobe Illustrator 24.2.1, SVG Export Plug-In . SVG Version: 6.00 Build 0)  -->
<svg version="1.1" id="Layer_1" xmlns="http://www.w3.org/2000/svg" xmlns:xlink="http://www.w3.org/1999/xlink" x="0px" y="0px"
	 viewBox="0 0 450 475.1" style="enable-background:new 0 0 450 475.1;" xml:space="preserve">
<style type="text/css">
	.st0{fill:url(#SVGID_1_);}
	.st1{fill:#FF0000;}
	.st2{fill:#E30521;}
	.st3{fill:#333333;}
	.st4{fill-rule:evenodd;clip-rule:evenodd;fill:#333333;}
	.st5{fill:url(#SVGID_2_);}
</style>
<radialGradient id="SVGID_1_" cx="312.0004" cy="226.8608" r="94.0309" fx="313.1684" fy="206.339" gradientUnits="userSpaceOnUse">
	<stop  offset="0.559" style="stop-color:#005468"/>
	<stop  offset="0.676" style="stop-color:#004E62"/>
	<stop  offset="0.827" style="stop-color:#003E52"/>
	<stop  offset="1" style="stop-color:#002438"/>
</radialGradient>
<path class="st0" d="M351.7,181.2l-2.4-1.4l-14.1-8.1l-6.5-3.8l-20.2-11.7l-20.3,11.7l-6.5,3.8l-14.1,8.1l-6.7,3.9l-17.6,10.2
	l-5.3,3v81.3l70.5,40.7l70.4-40.7v-81.3L351.7,181.2z M308.5,314.7c-0.8-19.7-8.5-78.4-64.4-120.3l17.7-10.2
	c5.7,3.6,23,16.6,33.7,46.6c0,0-5.7-32.1-27.2-50.3l14.1-8.1c3.7,3.7,15.7,17.4,20.5,42.5c0,0-0.3-28.4-14.1-46.2l19.7-11.4
	l19.7,11.4c-13.8,17.8-14.1,46.2-14.1,46.2c4.8-25,16.8-38.8,20.5-42.5l14.1,8.1c-21.5,18.1-27.2,50.3-27.2,50.3
	c10.7-30,28-43,33.7-46.6l17.7,10.2C317,236.3,309.3,294.9,308.5,314.7z"/>
<path class="st1" d="M209.8,156.2h5v162.7h-5V156.2z"/>
<path class="st2" d="M209.3,157.5h4.7v159.2h-4.7V157.5z"/>
<g>
	<path class="st3" d="M90.9,250.5c0,1.3-1.2,2.2-3.1,2.2h-6v-4h6.1C89.4,248.7,90.9,248.9,90.9,250.5z M91.9,254.2
		c2.1-0.7,3.2-2.3,3.2-4.1c0-3.1-2.5-4.6-6.6-4.6H77.4V263h11.1c4.2,0,6.9-1.5,6.9-4.8C95.4,256,93.7,254.6,91.9,254.2L91.9,254.2z
		 M90.9,257.7c0,1.4-1,2.2-2.7,2.2h-6.5v-4.2h5.8C89.7,255.7,90.9,256.2,90.9,257.7z M109.5,260.3h-4.7c-1.2,0-2.2-0.1-2.2-1.2
		c0-0.8,0.7-1.2,1.5-1.2h5.4L109.5,260.3L109.5,260.3z M109.5,255.3H104c-3.6,0-5.6,1.4-5.6,4s2.2,3.8,5,3.8h10.2v-7.2
		c0-3.6-1.3-5.6-6.3-5.6h-7.8v2.7h6.9C108.8,253,109.5,253.4,109.5,255.3L109.5,255.3z M159.3,250.3v8.3c0,1.3,0.6,1.8,2.1,1.8h3.7
		v-10h4.1V263h-8.3c-3.9,0-5.7-1.5-5.7-4.9v-7.8L159.3,250.3L159.3,250.3z M128,263v-8.3c0-1.3-0.6-1.8-2.1-1.8h-3.7v10h-4.1v-12.8
		h8.4c4,0,5.7,1.5,5.7,4.9v7.8H128V263z M146.7,260.3h-2.8c-2.7,0-4.1-1.4-4.1-3.7c0-2.2,1.2-3.6,3.9-3.6h3L146.7,260.3L146.7,260.3
		z M150.8,267.7v-17.5h-7.5c-4.8,0-7.6,2.1-7.6,6.6c0,3.8,2.8,6.2,7.2,6.2h3.8v4.7L150.8,267.7L150.8,267.7z M179.9,263
		c-4.8,0-7-2.6-7-6.5c0-3.2,2-6.2,7.3-6.2h5.9v2.7h-5.4c-2.1,0-3.2,0.4-3.4,2.3h8.9v2.6h-8.9c0.1,2.1,1.8,2.4,3.9,2.4h5v2.7H179.9z
		 M136.4,287.1h-4.7c-1.2,0-2.2-0.1-2.2-1.2c0-0.8,0.7-1.2,1.5-1.2h5.4V287.1L136.4,287.1z M136.4,282.1h-5.5c-3.6,0-5.6,1.4-5.6,4
		s2.2,3.8,5,3.8h10.2v-7.2c0-3.6-1.3-5.6-6.3-5.6h-7.8v2.7h6.9C135.7,279.8,136.4,280.2,136.4,282.1L136.4,282.1z M148.9,277.1v8.3
		c0,1.3,0.6,1.8,2.1,1.8h3.7v-10h4.1V290h-8.3c-4,0-5.7-1.5-5.7-4.9v-7.8h4.1L148.9,277.1z M173.4,287.1h-3c-2.7,0-3.9-1.4-3.9-3.6
		c0-2.3,1.3-3.7,4.1-3.7h2.8L173.4,287.1L173.4,287.1z M173.4,272.4v4.7h-3.8c-4.4,0-7.2,2.4-7.2,6.2c0,4.5,2.8,6.6,7.6,6.6h7.5
		v-17.5L173.4,272.4L173.4,272.4z M116,289.8h-11.3v-3.1h9.3c2.8,0,3.9-0.6,3.9-2.1c0-1.3-0.8-2-2.9-2l-4.5-0.1
		c-4.3,0-6.4-2.3-6.4-5c0-2.1,1.7-5.2,6.8-5.2h10.3v3.1h-8.8c-1.9,0-4.1-0.2-4.1,1.9c0,1.8,2.1,1.9,3.7,1.9l3.5,0.1
		c5.1,0,6.8,2.3,6.8,5.3C122.5,287.1,120.8,289.8,116,289.8L116,289.8z M182,277.1h4.1v12.8H182V277.1z"/>
	<path class="st4" d="M182,272.4h4.1v2.9H182V272.4z"/>
	<path class="st3" d="M137.5,313.9h-4.7c-1.2,0-2.2-0.1-2.2-1.2c0-0.8,0.7-1.2,1.5-1.2h5.4V313.9L137.5,313.9z M137.5,308.9H132
		c-3.6,0-5.6,1.4-5.6,4s2.2,3.8,5,3.8h10.2v-7.2c0-3.6-1.3-5.6-6.3-5.6h-7.8v2.7h6.9C136.8,306.6,137.5,307,137.5,308.9L137.5,308.9
		z M156,316.6v-8.3c0-1.3-0.6-1.8-2.1-1.8h-3.7v10h-4.1v-12.8h8.3c3.9,0,5.7,1.6,5.7,4.9v7.8H156V316.6z M98.4,309.6v7H94V307
		c0-2.3,0.1-4.5,2.3-6.1c1.9-1.5,4.7-1.6,7.2-1.6h6.8v3.1h-6.8c-3.7,0-5,1-5,3.1v1.2h11.3v3H98.4V309.6z M121,309.6
		c0-1.9,0.1-3-2.6-3h-1.6v10h-4.1v-12.8h6.7c4.5,0,5.5,1.5,5.5,4.4v1.4H121z M163.9,307.6c0-2,1.4-3.7,4.9-3.7h8.9v2.7h-7.6
		c-1.6,0-2.3,0.2-2.3,1.1c0,1.3,1.6,1.1,2.7,1.2l2.8,0.1c2.8,0,5.1,1,5.1,3.6c0,2.3-1.4,4-5.5,4h-8.7v-2.7h7.5c2.5,0,3-0.3,3-1.2
		c0-1.1-1.4-1-2.5-1.1l-3.4-0.1C165.3,311.5,163.9,309.7,163.9,307.6z M182,303.9h4.1v12.8H182V303.9z"/>
	<path class="st4" d="M182,299.2h4.1v2.9H182V299.2z M182,157.5h4.1V175H182V157.5z M155.9,157.5h4.1v2.9h-4.1V157.5z M165.2,176.8
		h4.1v2.9h-4.1V176.8z"/>
	<path class="st3" d="M146.6,166.7c0-1.3-0.6-1.8-2.1-1.8h-14.8v-0.3l6.2-7.1h4.3v0.3l-3.7,4.4h9.3c3.9,0,4.9,1.5,4.9,4.3v5.8h3.1
		c1.5,0,2.1-0.5,2.1-1.8v-8.3h4.1v10h3.1c1.5,0,2.1-0.5,2.1-1.8v-8.3h4.1v10h5v-14.8h4.1V172c0,1.9-0.6,2.8-2.8,2.8h-50.4v-2.7h21.3
		L146.6,166.7L146.6,166.7z"/>
	<path class="st4" d="M74,203.6h4.1v2.9H74V203.6z M79.9,203.6H84v2.9h-4.1V203.6z M71.1,201.8v-2.7h19.8v-2c0-0.8-0.5-1.3-1.7-1.3
		H74v-0.3l5.7-6.5h4.2v0.3l-3.1,3.7h9.5c3.7,0,4.8,1.5,4.8,4v4.7h-24V201.8z M182,184.3h4.1v17.5H182V184.3z"/>
	<path class="st3" d="M97.2,201.8h7.7c4.4,0,7.2-2.4,7.2-6.2c0-4.5-2.4-6.6-7.3-6.6h-7.7v2.7h6.9c2.7,0,3.9,1.4,3.9,3.6
		c0,2.3-1.3,3.7-4.1,3.7H97v2.8H97.2z M128.9,199.1h3.8c-0.7-1-1-2.1-1-3.5c0-4.5,2.8-6.6,7.6-6.6h7.3v2.7h-6.9
		c-2.7,0-3.9,1.4-3.9,3.6c0,2.3,1.3,3.7,4.1,3.7h8.9c1.5,0,2.1-0.5,2.1-1.8V189h4.1v10h0.9c1.5,0,2.1-0.5,2.1-1.8V189h4.1v10h0.9
		c1.5,0,2.1-0.5,2.1-1.8V189h4.1v10h5v-14.8h4.1V199c0,1.9-0.6,2.8-2.8,2.8h-46.7c-0.5,3.2-2.7,5.1-6.9,5.1h-8.4v-2.7h7.2
		c2.1,0,3.8-0.3,3.9-2.4h-11.1v-1.5c0-3.5,2.3-6.3,7.7-6.3C126.1,193.9,128.4,196.1,128.9,199.1L128.9,199.1z M121.3,196.7
		c-2,0-3.3,0.7-3.4,2.4h6.8C124.6,197.4,123.4,196.7,121.3,196.7z"/>
	<path class="st4" d="M134.9,211.1h4.1v2.9h-4.1V211.1z M158.7,211.1h4.1v2.9h-4.1V211.1z M81.2,230.4h4.1v2.9h-4.1V230.4z
		 M87.1,230.4h4.1v2.9h-4.1V230.4z M182,211.1h4.1v17.5H182V211.1z"/>
	<path class="st3" d="M160.7,215.7c5.1,0,8.1,2.1,8.1,6.7c0,1.4-0.4,2.5-1,3.5h6.6v-14.8h4.1v14.7c0,1.9-0.6,2.8-2.8,2.8H147v0.3
		c0,3.4-1.8,4.9-5.7,4.9h-2.8v-2.7h2.3c1.5,0,2.1-0.5,2.1-1.8v-13.5h4.1v10h6.6c-0.7-1-1-2.1-1-3.5
		C152.5,217.8,155.6,215.7,160.7,215.7L160.7,215.7z M164.7,222.2c0-2.2-1.3-3.7-4-3.7s-4,1.5-4,3.7s1.3,3.7,4,3.7
		S164.7,224.4,164.7,222.2z M89.1,225.9c1.5,0,2.1-0.5,2.1-1.8v-3.3c0-3.4,1.8-4.9,5.7-4.9h9.3v10h3.1c1.5,0,2.1-0.5,2.1-1.8v-8.3
		h4.1v10h0.9c1.5,0,2.1-0.5,2.1-1.8v-8.3h4.1v10h0.9c1.5,0,2.1-0.5,2.1-1.8v-8.3h4.1v10h5.2v-10h4.1v10c0,1.9-0.6,2.8-2.8,2.8h-34.1
		v-10.1h-4.7c-1.5,0-2.1,0.5-2.1,1.8v3.3c0,3.4-1.8,4.9-5.7,4.9H77.4v-2.7h11.7V225.9z"/>
</g>
<radialGradient id="SVGID_2_" cx="308.5" cy="239.89" r="71.9064" fx="293.5054" fy="222.6825" gradientTransform="matrix(1 0 0 -1 0 475.89)" gradientUnits="userSpaceOnUse">
	<stop  offset="0" style="stop-color:#FFFFFF"/>
	<stop  offset="0.46" style="stop-color:#B6E5EB"/>
	<stop  offset="0.878" style="stop-color:#78CFD9"/>
</radialGradient>
<path class="st5" d="M261.8,184.2l-17.7,10.2c55.9,41.9,63.6,100.6,64.4,120.3c0.8-19.8,8.5-78.4,64.4-120.3l-17.7-10.2
	c-5.7,3.6-23,16.6-33.7,46.6c0,0,5.7-32.2,27.2-50.3l-14.1-8.1c-3.7,3.7-15.7,17.5-20.5,42.5c0,0,0.3-28.4,14.1-46.2l-19.7-11.4
	l-19.7,11.4c13.8,17.8,14.1,46.2,14.1,46.2c-4.8-25.1-16.8-38.8-20.5-42.5l-14.1,8.1c21.5,18.2,27.2,50.3,27.2,50.3
	C284.8,200.8,267.5,187.8,261.8,184.2L261.8,184.2z"/>
</svg>
