<?xml version="1.0" encoding="utf-8"?>
<!-- Generator: Adobe Illustrator 24.1.2, SVG Export Plug-In . SVG Version: 6.00 Build 0)  -->
<svg version="1.1" id="Layer_1" xmlns="http://www.w3.org/2000/svg" xmlns:xlink="http://www.w3.org/1999/xlink" x="0px" y="0px"
	 viewBox="0 0 450 475.1" style="enable-background:new 0 0 450 475.1;" xml:space="preserve">
<style type="text/css">
	.st0{fill:#1C5AA7;}
	.st1{fill:#A7802C;}
	.st2{stroke:#000000;stroke-width:0.75;stroke-miterlimit:10;}
	.st3{fill:none;stroke:#A7802C;stroke-miterlimit:10;}
</style>
<g>
	<path class="st0" d="M1767.3,119.4l0.6-0.9l-3.6-2.5l-4.4,6.4l1,0.1C1763.4,122.6,1765.8,121.4,1767.3,119.4 M1783.9,121.9l-1,1.4
		l-1.8,2.7c-2.9,4.3-6.1,4.7-10,2l-3.2-2.2l-3.1-2.1c-2.4,1.5-6.4,1-6.4,1l10.3,7c6.5,4.5,11.6,3.4,15.4-2.1l11-16.1l-3.6-2.5
		L1783.9,121.9L1783.9,121.9z"/>
	<path class="st0" d="M1796.6,103.6l-0.6,0.9l3.6,2.5l4.4-6.4l-1-0.1C1800.5,100.5,1798.1,101.6,1796.6,103.6 M1780,101.1l1-1.4
		l1.8-2.7c2.9-4.3,6.1-4.7,10-2l3.2,2.2l3.1,2.1c2.4-1.5,6.4-1,6.4-1l-10.3-7c-6.5-4.5-11.6-3.4-15.4,2.1l-11,16.1l3.6,2.5
		L1780,101.1L1780,101.1z M1591.1,133.6v-8.9c0-3.5-1.8-5.4-5.9-5.4h-2.7c-1.1,0-1.9-0.2-2.1-0.8c-0.4,1.7,0.4,2.4,1.7,2.4h3.1
		c2.4,0,3.7,1.1,3.7,3.7v1.7l-5.5,0.5c-4,0.4-5.6,2.1-5.6,5c0,3.3,2,5,5.2,5c1.4,0,2.7-0.1,3.8-0.3c1.8-0.3,1.2-2.3,1.2-2.3
		c-0.1,0.4-0.8,0.6-0.8,0.6c-1.3,0.3-2.6,0.5-4.2,0.5c-1.8,0-3-1.4-3-3.5c0-2,0.9-3.3,3.5-3.5l5.3-0.4v6.3c0,1.9,0.9,3,3.3,2.4
		C1591.3,136.3,1591.1,135.2,1591.1,133.6 M1622.6,133.6v-8.9c0-3.5-1.8-5.4-5.9-5.4h-2.7c-1.1,0-1.9-0.2-2.1-0.8
		c-0.4,1.7,0.4,2.4,1.7,2.4h3.1c2.4,0,3.7,1.1,3.7,3.7v1.7l-5.5,0.5c-4,0.4-5.6,2.1-5.6,5c0,3.3,2,5,5.2,5c1.4,0,2.7-0.1,3.8-0.3
		c1.8-0.3,1.2-2.3,1.2-2.3c0,0.4-0.7,0.6-0.7,0.6c-1.3,0.3-2.7,0.5-4.2,0.5c-1.8,0-3-1.4-3-3.5c0-2,0.9-3.3,3.5-3.5l5.3-0.4v6.3
		c0,1.9,0.9,3,3.3,2.4C1622.8,136.3,1622.6,135.2,1622.6,133.6 M1578.1,118.5c-0.2,0.6-1,0.8-2.1,0.8h-2.7c-4.1,0-5.9,1.9-5.9,5.4
		v8.9c0,1.6-0.3,2.7-1.1,3c2.4,0.6,3.4-0.5,3.4-2.4v-9.6c0-2.7,1.2-3.7,3.7-3.7h3.1C1577.7,120.9,1578.5,120.2,1578.1,118.5
		 M1605.3,121.9v12.5c-1.1,0.4-3,0.8-4.9,0.8c-3.7,0-4.5-2-4.5-6.9V122c0-1.9-1-3-3.4-2.4c0.8,0.3,1.1,1.4,1.1,3v5.7
		c0,5.7,1.3,8.4,6.8,8.4c1.9,0,3.7-0.5,4.9-0.8l0,0v1.4c0,2.7-1.2,3.7-3.7,3.7h-3.1c-1.3,0-2.1,0.7-1.7,2.4c0.2-0.6,1-0.8,2.1-0.8
		h2.7c4.1,0,5.9-1.9,5.9-5.4v-14.6c0-1.6,0.3-2.7,1.1-3C1606.2,119,1605.3,120,1605.3,121.9 M1678.3,133.6v-9c0-3.5-1.8-5.4-5.9-5.4
		h-2.7c-1.1,0-1.9-0.2-2.1-0.8c-0.4,1.7,0.4,2.4,1.7,2.4h3.1c2.4,0,3.7,1.1,3.7,3.7v1.7l-5.5,0.5c-4,0.4-5.6,2.1-5.6,5
		c0,3.3,2,5,5.2,5c1.4,0,2.7-0.1,3.8-0.3c1.8-0.3,1.2-2.3,1.2-2.3c-0.1,0.4-0.7,0.6-0.7,0.6c-1.3,0.3-2.6,0.5-4.2,0.5
		c-1.8,0-3-1.4-3-3.5c0-2,0.9-3.3,3.5-3.5l5.3-0.4v6.3c0,1.9,0.9,3,3.3,2.4C1678.5,136.3,1678.3,135.2,1678.3,133.6 M1640,113.9
		h-2.7c-4.1,0-5.9,1.9-5.9,5.4v14.5c0,1.6-0.3,2.7-1.1,3c2.4,0.6,3.3-0.5,3.3-2.4v-7.9h6.1c1.3,0,2.1-0.7,1.7-2.4
		c-0.2,0.6-1,0.8-2.1,0.8h-5.7v-5.5c0-2.7,1.2-3.7,3.7-3.7h3c1.3,0,2.1-0.7,1.7-2.4C1641.9,113.7,1641.2,113.9,1640,113.9
		 M1645.8,117.4c0.7,0,1.3-0.6,1.3-1.3s-0.6-1.3-1.3-1.3s-1.3,0.6-1.3,1.3S1645,117.4,1645.8,117.4 M1646.9,133.9v-12
		c0-1.9-0.9-3-3.3-2.4c0.8,0.3,1.1,1.4,1.1,3v12c0,1.9,0.9,3,3.3,2.4C1647.1,136.6,1646.9,135.5,1646.9,133.9"/>
	<g>
		<path id="B" class="st0" d="M1662.9,133.6v-8.9c0-3.5-1.8-5.4-5.9-5.4h-7.1c-0.3,0-0.5,0.1-0.8,0.1c0.8,0.3,1.1,1.4,1.1,3v12
			c0,1.9,0.9,3,3.3,2.4c-0.8-0.3-1.1-1.4-1.1-3v-12c0-0.4,0-0.7-0.1-1h4.7c2.4,0,3.7,1.1,3.7,3.7v9.5c0,1.9,0.9,3,3.3,2.4
			C1663.2,136.3,1662.9,135.2,1662.9,133.6"/>
	</g>
	<path class="st0" d="M1710.9,117.4c0.7,0,1.3-0.6,1.3-1.3s-0.6-1.3-1.3-1.3s-1.3,0.6-1.3,1.3S1710.2,117.4,1710.9,117.4
		 M1712,133.9v-12c0-1.9-0.9-3-3.3-2.4c0.8,0.3,1.1,1.4,1.1,3v12c0,1.9,0.9,3,3.3,2.4C1712.3,136.6,1712,135.5,1712,133.9
		 M1728,133.6v-8.8c0-3.5-1.8-5.4-5.9-5.4h-7.2c-0.3,0-0.5,0.1-0.8,0.1c0.8,0.3,1.1,1.4,1.1,3v12c0,1.9,0.9,3,3.3,2.4
		c-0.8-0.3-1.1-1.4-1.1-3v-12c0-0.4,0-0.7-0.1-1h4.7c2.4,0,3.7,1.1,3.7,3.7v9.5c0,1.9,0.9,3,3.4,2.4
		C1728.2,136.3,1728,135.2,1728,133.6"/>
	<g>
		<path id="B_1_" class="st0" d="M1693.8,133.6v-8.9c0-3.5-1.8-5.4-5.9-5.4h-7.1c-0.3,0-0.5,0.1-0.8,0.1c0.8,0.3,1.1,1.4,1.1,3v12
			c0,1.9,0.9,3,3.3,2.4c-0.8-0.3-1.1-1.4-1.1-3v-12c0-0.4,0-0.7-0.1-1h4.7c2.4,0,3.7,1.1,3.7,3.7v9.5c0,1.9,0.9,3,3.3,2.4
			C1694.1,136.3,1693.8,135.2,1693.8,133.6"/>
	</g>
	<path class="st0" d="M1702.1,120.9h3.1c1.3,0,2.1-0.7,1.7-2.4c-0.2,0.6-1,0.8-2.1,0.8h-2.7c-4.1,0-5.9,1.9-5.9,5.4v6.5
		c0,3.5,1.8,5.4,5.9,5.4h2.7c1.1,0,1.9,0.2,2.1,0.8c0.4-1.7-0.4-2.4-1.7-2.4h-3.1c-2.4,0-3.7-1.1-3.7-3.7v-6.6
		C1698.4,122,1699.6,120.9,1702.1,120.9 M1741.6,134.4c-1.1,0.4-3,0.8-4.9,0.8c-3.7,0-4.5-2-4.5-6.9v-3.7c0-2.7,1.2-3.7,3.7-3.7h5.8
		c-0.1,0.3-0.1,0.6-0.1,1V134.4L1741.6,134.4z M1744.9,119.5c-0.3-0.1-0.6-0.1-0.8-0.1l0,0h-8.3c-4.1,0-5.9,1.9-5.9,5.4l-0.1,3.7
		c0,5.7,1.3,8.4,6.8,8.4c1.9,0,3.8-0.5,4.9-0.8l0,0v1.4c0,2.7-1.2,3.7-3.7,3.7h-3.1c-1.3,0-2.1,0.7-1.7,2.4c0.2-0.6,1-0.8,2.1-0.8
		h2.7c4.1,0,5.9-1.9,5.9-5.4V134l0.2-13.6C1744.3,119.9,1744.5,119.6,1744.9,119.5 M1727.6,82.4v19c0,1.8-0.3,3-1.3,3.4
		c2.8,0.6,3.8-0.6,3.8-2.7V83c0-1.8,0.3-3,1.3-3.4C1728.6,79,1727.6,80.3,1727.6,82.4 M1741.1,88v10.8c0,3-1.4,4.2-4.1,4.2h-1.6
		c-1.5,0-2.4,0.7-1.9,2.7c0.2-0.7,1.1-0.9,2.4-0.9h1.2c4.6,0,6.7-2.1,6.7-6.1V88.6c0-1.8,0.3-3,1.3-3.4
		C1742.2,84.6,1741.1,85.8,1741.1,88"/>
	<path class="st0" d="M1720.5,88v10.9c0,3-1.4,4.2-4.1,4.2h-8.8c-4.2,0-5.1-2.2-5.1-7.7v-10h-6.6c-5.1,0-8.2,2.4-8.2,9.8
		c0,6,1.8,9.7,8.4,9.8h1.2c1.2,0,2.1,0.2,2.3,0.9c0.4-1.9-0.4-2.6-1.8-2.6h-1.6c-4.4,0-5.8-2.6-5.8-7.4v-1.4c0-5.3,1.8-7.3,5.6-7.3
		h4v8.3c0,6.5,1.5,9.5,7.7,9.5h8.8c4.6,0,6.7-2.1,6.7-6.1V88.6c0-1.8,0.3-3,1.3-3.4C1721.5,84.6,1720.5,85.8,1720.5,88"/>
	<g>
		<path id="C" class="st0" d="M1694.3,83.7c0.8,0,1.5-0.7,1.5-1.5c0-0.8-0.7-1.5-1.5-1.5c-0.8,0-1.5,0.7-1.5,1.5
			C1692.8,83,1693.4,83.7,1694.3,83.7C1694.3,83.7,1694.3,83.7,1694.3,83.7"/>
	</g>
	<g>
		<path id="C_1_" class="st0" d="M1698.2,83.7c0.8,0,1.5-0.7,1.5-1.5c0-0.8-0.7-1.5-1.5-1.5c-0.8,0-1.5,0.7-1.5,1.5
			C1696.7,83,1697.3,83.7,1698.2,83.7C1698.2,83.7,1698.2,83.7,1698.2,83.7"/>
	</g>
	<g>
		<path id="C_2_" class="st0" d="M1652.5,83.7c0.8,0,1.5-0.7,1.5-1.5c0-0.8-0.7-1.5-1.5-1.5c-0.8,0-1.5,0.7-1.5,1.5
			C1651,83,1651.6,83.7,1652.5,83.7C1652.5,83.7,1652.5,83.7,1652.5,83.7"/>
	</g>
	<path class="st0" d="M1656.4,83.7c0.8,0,1.5-0.7,1.5-1.5c0-0.8-0.7-1.5-1.5-1.5c-0.8,0-1.5,0.7-1.5,1.5
		C1654.9,83.1,1655.5,83.7,1656.4,83.7 M1687.6,95.2v-0.3V95.2z M1644.3,94.9v0.3V94.9z"/>
	<path class="st0" d="M1615.1,102.1c-1.3,0.4-3.3,1-5.5,1c-4.2,0-5.1-2.3-5.1-7.8v-4.2c0-3,1.4-4.2,4.1-4.2h6.5
		c-0.1,0.3-0.1,0.7-0.1,1.1L1615.1,102.1L1615.1,102.1z M1675.5,82.4v16.5c0,3-1.4,4.2-4.1,4.2h-5.9c1-1,1.4-2.5,1.4-4.3V83.1
		c0-1.8,0.3-3,1.3-3.4c-2.8-0.6-3.8,0.6-3.8,2.7v16.5c0,3-1.4,4.2-4.1,4.2h-6.5c1-1,1.4-2.5,1.4-4.3v-9.9c0-1.8,0.3-3,1.3-3.4
		c-2.8-0.6-3.8,0.6-3.8,2.7v10.7c0,3-1.4,4.2-4.1,4.2h-6.6c1.8-1.6,2.5-4.4,2.5-7.9c0-7.4-3.2-9.8-8.2-9.8h-6.6v10
		c0,5.5-0.9,7.7-5.1,7.7h-2.5c-2.5,0-3.9-1-4.1-3.6l0.2-13.2c0.2-0.6,0.5-0.9,1-1.1c-0.3-0.1-0.7-0.1-1-0.1l0,0h-9.3
		c-4.6,0-6.7,2.1-6.7,6.1l-0.1,4.2c0,6.5,1.5,9.5,7.7,9.5c2.1,0,4.2-0.5,5.5-0.9c-0.1,2.7-1.5,3.9-4.1,3.9h-3.5
		c-1.5,0-2.4,0.7-1.9,2.7c0.2-0.7,1.1-0.9,2.4-0.9h3c4.4,0,6.5-2,6.7-5.7c1,0.6,2.4,0.9,4.2,0.9h2.5c6.2,0,7.7-3,7.7-9.5V87h4
		c3.8,0,5.6,1.9,5.6,7.3v1.4c0,4.9-1.4,7.4-5.8,7.4h-3.6c-1.5,0-2.3,0.7-1.8,2.6c0.2-0.7,1.1-0.9,2.3-0.9h38.7
		c4.6,0,6.7-2.1,6.7-6.1V83c0-1.8,0.3-3,1.3-3.4C1676.5,79,1675.5,80.3,1675.5,82.4 M1595.5,88.2v10.7c0,3-1.4,4.2-4.1,4.2h-1.3
		c-2.7,0-4.1-1.2-4.1-4.2l0,0V83c0-1.8,0.3-3,1.3-3.4c-2.8-0.6-3.8,0.6-3.8,2.7v20.8c0,3-1.4,4.2-4.1,4.2h-5.4
		c-2.7,0-4.1-1.2-4.1-4.2v-5c0-3,1.4-4.2,4.1-4.2h1c1.5,0,2.4-0.7,1.9-2.7c-0.2,0.7-1.1,0.9-2.4,0.9h-0.6c-4.6,0-6.7,2.1-6.7,6.1
		v4.9c0,3.9,2.1,6.1,6.7,6.1h5.4c4.3,0,6.4-1.9,6.7-5.3c1,0.6,2.4,1,4.2,1h1.3c4.6,0,6.7-2.1,6.7-6.1v-9.9c0-1.8,0.3-3,1.3-3.4
		C1596.6,84.8,1595.5,86,1595.5,88.2"/>
	<g>
		<path id="D" class="st0" d="M1715.8,106.8c-0.8,0-1.5,0.7-1.5,1.5c0,0.8,0.7,1.5,1.5,1.5c0.8,0,1.5-0.7,1.5-1.5
			C1717.3,107.4,1716.7,106.8,1715.8,106.8"/>
	</g>
	<g>
		<path id="E" class="st0" d="M1719.7,106.8c-0.8,0-1.5,0.7-1.5,1.5c0,0.8,0.7,1.5,1.5,1.5c0.8,0,1.5-0.7,1.5-1.5
			C1721.2,107.5,1720.6,106.8,1719.7,106.8C1719.7,106.8,1719.7,106.8,1719.7,106.8"/>
	</g>
	<g>
		<path id="D_1_" class="st0" d="M1590.1,106.8c-0.8,0-1.5,0.7-1.5,1.5c0,0.8,0.7,1.5,1.5,1.5c0.8,0,1.5-0.7,1.5-1.5
			C1591.6,107.4,1591,106.8,1590.1,106.8"/>
	</g>
	<g>
		<path id="E_1_" class="st0" d="M1594,106.8c-0.8,0-1.5,0.7-1.5,1.5c0,0.8,0.7,1.5,1.5,1.5c0.8,0,1.5-0.7,1.5-1.5
			C1595.5,107.5,1594.9,106.8,1594,106.8C1594,106.8,1594,106.8,1594,106.8"/>
	</g>
	<path class="st0" d="M1774,96.9l0.9,0.6l2.5-3.6l-6.4-4.4l-0.1,1C1770.9,93,1772.1,95.3,1774,96.9 M1770.1,112.5l-2.7-1.8
		c-4.3-2.9-4.7-6.1-2-10l2.2-3.2l2.1-3.1c-1.5-2.4-1-6.4-1-6.4l-7,10.3c-4.4,6.5-3.4,11.6,2.1,15.4l16.1,11l2.5-3.6l-10.9-7.5
		L1770.1,112.5L1770.1,112.5z M1789.9,126.1l-0.9-0.6l-2.5,3.6l6.4,4.4l0.1-1C1793,130,1791.9,127.7,1789.9,126.1 M1800,109.4
		l-16.1-11l-2.5,3.6l10.9,7.5l1.4,1l2.7,1.8c4.3,2.9,4.7,6.1,2,10l-2.2,3.2l-2.1,3.1c1.5,2.4,1,6.4,1,6.4l7-10.3
		C1806.6,118.3,1805.5,113.2,1800,109.4"/>
</g>
<path class="st1" d="M127.7,199.6h21.8c1.7,0,3-1.4,3.1-3.1v-3.9c0-1.7-1.4-3-3.1-3.1h-21.8c-1.7,0-3,1.4-3.1,3.1v3.9
	C124.7,198.3,126,199.6,127.7,199.6z M113.7,211.7h35.8c1.7,0,3-1.4,3.1-3.1v-3.9c0-1.7-1.4-3-3.1-3.1h-35.8c-1.7,0-3,1.4-3.1,3.1
	v3.9C110.6,210.3,112,211.6,113.7,211.7z M99.9,223.7h49.6c1.7,0,3-1.4,3.1-3.1v-3.9c0-1.7-1.4-3-3.1-3.1H99.9c-1.7,0-3,1.4-3.1,3.1
	v3.9C96.8,222.3,98.2,223.7,99.9,223.7z M86.2,235.6h63.3c1.7,0,3-1.4,3.1-3.1v-3.9c0-1.7-1.4-3-3.1-3.1H86.1c-1.7,0-3,1.4-3.1,3.1
	v3.9C83.1,234.3,84.4,235.6,86.2,235.6L86.2,235.6z M72.2,247.6h77.4c1.7,0,3-1.4,3.1-3.1v-3.9c0-1.7-1.4-3-3.1-3.1H72.2
	c-1.7,0-3,1.4-3.1,3.1v3.9C69.1,246.3,70.5,247.6,72.2,247.6z M59.3,259.7h90.2c1.7,0,3-1.4,3.1-3.1v-3.9c0-1.7-1.4-3-3.1-3.1H59.3
	c-1.7,0-3,1.4-3.1,3.1v3.9C56.2,258.3,57.5,259.7,59.3,259.7z M45,271.7h104.5c1.7,0,3-1.4,3.1-3.1v-3.9c0-1.7-1.4-3-3.1-3.1H45
	c-1.7,0-3,1.4-3.1,3.1v3.9C42,270.3,43.4,271.7,45,271.7z M30.1,283.7h119.5c1.7,0,3-1.4,3.1-3.1v-3.9c0-1.7-1.4-3-3.1-3.1H30.1
	c-1.7,0-3,1.4-3.1,3.1v3.9C27,282.3,28.4,283.7,30.1,283.7z"/>
<path d="M179.2,274.9h1.2l4.5,10.4h-1.2l-1.5-3.5h-4.8l-1.4,3.5h-1.2L179.2,274.9z M177.8,280.8h4.1l-2.1-4.8L177.8,280.8z"/>
<g>
	<path id="F" d="M194.3,277.5c-0.1-0.6-0.2-1.1-0.6-1.4c-0.4-0.4-0.7-0.5-1.3-0.5c-0.5,0-0.9,0.1-1.3,0.5c-0.4,0.4-0.6,0.7-0.6,1.2
		s0.1,0.8,0.5,1.2c0.4,0.2,0.8,0.6,1.7,0.7c1.1,0.2,1.8,0.7,2.2,1.2c0.5,0.5,0.7,1.2,0.7,2s-0.4,1.5-0.9,2.1
		c-0.6,0.6-1.4,0.8-2.2,0.8c-0.9,0-1.7-0.2-2.2-0.8c-0.6-0.6-0.8-1.3-0.8-2.2h1.1c0.1,0.7,0.4,1.2,0.7,1.7c0.4,0.4,0.8,0.6,1.5,0.6
		c0.6,0,1.1-0.2,1.5-0.6c0.5-0.4,0.6-0.8,0.6-1.4c0-0.6-0.2-1.1-0.6-1.4c-0.4-0.4-0.9-0.6-1.9-0.8s-1.7-0.6-2-1.1
		c-0.5-0.5-0.6-1.1-0.6-1.8c0-0.8,0.2-1.4,0.8-1.9c0.6-0.5,1.3-0.8,2-0.8c0.8,0,1.5,0.2,2.1,0.8c0.6,0.5,0.9,1.2,0.8,2L194.3,277.5
		L194.3,277.5z"/>
</g>
<path d="M204,281.4c0,1.3-0.4,2.4-0.9,2.9c-0.6,0.7-1.5,1.1-2.6,1.1c-1.1,0-1.9-0.4-2.6-1.1s-0.9-1.8-0.9-2.9v-6.5h0.9v6.6
	c0,0.9,0.2,1.7,0.7,2.2c0.5,0.6,1.1,0.8,1.8,0.8c0.8,0,1.4-0.2,1.9-0.8c0.5-0.5,0.6-1.3,0.6-2.2v-6.6h0.9v6.5H204z M206.1,274.9h2.7
	c1.1,0,1.9,0.2,2.4,0.7c0.6,0.5,0.8,1.1,0.8,1.9s-0.2,1.4-0.8,1.9c-0.1,0.1-0.2,0.1-0.4,0.2c0.4,0.1,0.6,0.2,0.8,0.5
	c0.6,0.5,0.9,1.2,0.9,2.1c0,0.9-0.4,1.7-0.9,2.1c-0.6,0.5-1.4,0.8-2.5,0.8h-3.1V274.9z M207.2,279.2h1.8c0.6,0,1.2-0.1,1.5-0.5
	s0.6-0.7,0.6-1.3s-0.2-0.9-0.6-1.3c-0.4-0.4-0.9-0.5-1.7-0.5h-1.7L207.2,279.2L207.2,279.2z M207.2,284.3h2.1c0.7,0,1.3-0.2,1.8-0.6
	c0.4-0.4,0.6-0.8,0.6-1.5c0-0.6-0.2-1.2-0.7-1.5c-0.5-0.4-1.1-0.6-1.9-0.6h-1.9L207.2,284.3L207.2,284.3z"/>
<g>
	<path id="F_1_" d="M218.5,277.5c-0.1-0.6-0.2-1.1-0.6-1.4c-0.4-0.4-0.7-0.5-1.3-0.5c-0.5,0-0.9,0.1-1.3,0.5
		c-0.4,0.4-0.6,0.7-0.6,1.2s0.1,0.8,0.5,1.2c0.4,0.2,0.8,0.6,1.7,0.7c1.1,0.2,1.8,0.7,2.2,1.2c0.5,0.5,0.7,1.2,0.7,2
		s-0.4,1.5-0.9,2.1c-0.6,0.6-1.4,0.8-2.2,0.8c-0.9,0-1.7-0.2-2.2-0.8c-0.6-0.6-0.8-1.3-0.8-2.2h1.1c0.1,0.7,0.4,1.2,0.7,1.7
		c0.4,0.4,0.8,0.6,1.5,0.6c0.6,0,1.1-0.2,1.5-0.6c0.5-0.4,0.6-0.8,0.6-1.4c0-0.6-0.2-1.1-0.6-1.4c-0.4-0.4-0.9-0.6-1.9-0.8
		s-1.7-0.6-2-1.1c-0.5-0.5-0.6-1.1-0.6-1.8c0-0.8,0.2-1.4,0.8-1.9c0.6-0.5,1.3-0.8,2-0.8c0.8,0,1.5,0.2,2.1,0.8
		c0.6,0.5,0.9,1.2,0.8,2L218.5,277.5L218.5,277.5z"/>
</g>
<path d="M221.2,274.9h0.9v10.4h-0.9V274.9z M224.3,274.9h2.9c1.8,0,3.2,0.5,4.2,1.4c1.1,0.9,1.5,2.1,1.5,3.7c0,1.5-0.5,2.8-1.5,3.8
	c-1.1,0.9-2.5,1.4-4.1,1.4h-2.9v-10.3L224.3,274.9z M225.4,284.3h2c1.4,0,2.6-0.4,3.4-1.2c0.8-0.7,1.3-1.8,1.3-3.1s-0.5-2.4-1.3-3.1
	c-0.8-0.7-2-1.2-3.4-1.2h-1.9v8.5H225.4z M234.8,274.9h0.9v10.4h-0.9V274.9z M241.5,274.9h1.2l4.5,10.4H246l-1.5-3.5h-4.8l-1.4,3.5
	H237L241.5,274.9z M240,280.8h4.1l-2.1-4.8L240,280.8z M248.2,274.9h3.1c1.2,0,2.1,0.2,2.8,0.8c0.7,0.6,1.1,1.4,1.1,2.5
	s-0.4,1.9-1.1,2.4c-0.5,0.5-1.2,0.7-2,0.8l2.9,3.8h-1.3l-3.5-4.7h1.1c0.9,0,1.5-0.2,2.1-0.6c0.5-0.5,0.7-0.9,0.7-1.8
	c0-0.7-0.2-1.3-0.7-1.8s-1.2-0.6-2.1-0.6h-2.1v9.4h-0.9L248.2,274.9L248.2,274.9z M259.3,281.7l-3.7-6.8h1.2l2.9,5.9l2.9-5.9h1.2
	l-3.5,6.8v3.4h-0.9v-3.4H259.3z M270,283.8c-1.1-1.1-1.7-2.4-1.7-3.8c0-1.4,0.6-2.7,1.7-3.8c1.1-1.1,2.4-1.5,3.9-1.5
	s2.8,0.5,3.9,1.5s1.5,2.4,1.5,3.8c0,1.4-0.6,2.7-1.5,3.8c-1.1,1.1-2.4,1.5-3.9,1.5S271.1,284.9,270,283.8z M277.1,283.1
	c0.9-0.8,1.3-2,1.3-3.2c0-1.3-0.5-2.2-1.3-3.2c-0.8-0.9-2-1.3-3.2-1.3c-1.3,0-2.2,0.5-3.2,1.3c-0.9,0.8-1.3,2-1.3,3.2
	c0,1.3,0.5,2.2,1.3,3.2c0.8,0.9,2,1.3,3.2,1.3C275.1,284.5,276.3,284,277.1,283.1z M281,285.3v-10.4h5.2v0.9H282v3.8h4v0.9h-4v4.7
	H281z M292.1,274.6h1.3v10.5h-1.3V274.6L292.1,274.6z M297.3,285.3H296v-10.6h2.4l9.7,9.2v-9.2h1.3v10.5h-1.8l-10.1-9.4v9.6
	L297.3,285.3z M322.6,274.6h1.3l-5.5,10.5h-1.9l-5.5-10.5h1.5l5.1,9.7L322.6,274.6L322.6,274.6z M325.9,285.3v-10.6h10.5v1.1h-9.2
	v3.5h8.7v1.1h-8.7v3.8h9.2v1.1h-10.5V285.3z M344.8,279.2c0.7,0,1.3,0,1.9,0.1c0.5,0.1,0.9,0.1,1.3,0.2c0.4,0.1,0.6,0.2,0.8,0.5
	c0.2,0.1,0.4,0.4,0.5,0.6c0.1,0.2,0.2,0.5,0.2,0.7v0.9c0,0.4,0,0.6-0.1,0.9c0,0.2-0.1,0.6-0.4,0.7c-0.1,0.2-0.4,0.5-0.6,0.6
	c-0.2,0.2-0.6,0.4-0.9,0.5c-0.5,0.2-0.9,0.2-1.4,0.2c-0.6,0.1-1.2,0.1-1.9,0.1h-1.8c-0.7,0-1.2,0-1.8-0.1c-0.5,0-0.9-0.1-1.3-0.2
	c-0.4-0.1-0.7-0.2-0.8-0.4c-0.2-0.1-0.5-0.4-0.6-0.6s-0.2-0.5-0.2-0.7s-0.1-0.6-0.1-0.9h1.3c0,0.5,0,0.7,0.2,0.9
	c0.1,0.2,0.4,0.5,0.6,0.6c0.2,0.1,0.6,0.2,1.1,0.2h3.4c0.8,0,1.4,0,1.9-0.1l1.2-0.4c0.4-0.1,0.5-0.4,0.6-0.6
	c0.1-0.2,0.2-0.6,0.2-0.9c0-0.4,0-0.7-0.1-0.9c-0.1-0.2-0.2-0.5-0.5-0.6c-0.2-0.1-0.6-0.2-1.1-0.4c-0.5-0.1-1.1-0.1-1.8-0.1h-1.8
	c-0.8,0-1.5,0-2-0.1c-0.5-0.1-1.1-0.1-1.4-0.2c-0.4-0.1-0.7-0.2-0.9-0.5c-0.2-0.1-0.4-0.4-0.6-0.6c-0.1-0.2-0.2-0.5-0.2-0.7v-0.8
	c0-0.4,0-0.6,0.1-0.9c0-0.2,0.1-0.5,0.4-0.7c0.1-0.2,0.4-0.5,0.6-0.6c0.2-0.1,0.6-0.4,1.1-0.5c0.5-0.1,0.9-0.2,1.5-0.2
	s1.3-0.1,2.1-0.1h1.3c0.7,0,1.2,0,1.8,0.1c0.5,0,0.9,0.1,1.3,0.2l0.9,0.4c0.2,0.1,0.5,0.4,0.6,0.6c0.1,0.2,0.2,0.5,0.2,0.7
	s0.1,0.6,0.1,0.9h-1.3c0-0.4-0.1-0.7-0.2-0.9c-0.1-0.2-0.4-0.4-0.6-0.5c-0.2-0.1-0.6-0.2-1.1-0.2h-2.9c-0.8,0-1.7,0-2.1,0.1
	c-0.6,0.1-1.1,0.1-1.3,0.4s-0.6,0.4-0.7,0.6c-0.1,0.2-0.2,0.6-0.2,0.9v0.6c0,0.2,0.1,0.4,0.2,0.5c0.1,0.1,0.3,0.3,0.5,0.4
	c0.2,0.1,0.4,0.1,0.7,0.2c0.2,0.1,0.6,0.1,1.1,0.1H344.8z M363.1,274.6v1.1h-5.3v9.4h-1.3v-9.4h-5.3v-1.1H363.1L363.1,274.6z
	 M365.3,285.3v-10.6h8.7c0.7,0,1.2,0,1.5,0.1c0.4,0.1,0.7,0.2,0.9,0.5c0.2,0.2,0.4,0.5,0.5,0.8c0.1,0.4,0.1,0.7,0.1,1.1
	c0,0.2,0,0.6-0.1,0.8c0,0.2-0.1,0.5-0.2,0.6c-0.1,0.1-0.1,0.4-0.2,0.5c-0.1,0.1-0.2,0.2-0.4,0.2c-0.2,0.1-0.6,0.2-0.8,0.2
	c0.4,0,0.8,0.1,1.1,0.4c0.1,0.1,0.2,0.1,0.4,0.2c0.1,0.1,0.3,0.3,0.4,0.5c0.1,0.1,0.2,0.4,0.2,0.6c0.1,0.2,0.1,0.5,0.1,0.8v0.9
	c0,0.4-0.1,0.6-0.2,0.8c-0.1,0.2-0.2,0.5-0.5,0.6c-0.2,0.2-0.5,0.4-0.8,0.5c-0.4,0.1-0.7,0.2-1.2,0.2c-0.5,0.1-1.1,0.1-1.7,0.1h-7.8
	L365.3,285.3z M372.8,279.1h1.2c0.4,0,0.6,0,0.8-0.1c0.2,0,0.4-0.1,0.6-0.2l0.4-0.4c0.1-0.1,0.1-0.4,0.1-0.5v-0.7
	c0-0.2,0-0.5-0.1-0.7c-0.1-0.2-0.2-0.4-0.4-0.5c-0.1-0.1-0.4-0.1-0.7-0.2h-8v3.3L372.8,279.1L372.8,279.1z M372.8,284.1h1.3
	c0.4,0,0.7,0,0.9-0.1c0.2,0,0.5-0.1,0.6-0.2l0.4-0.4c0.1-0.1,0.1-0.4,0.2-0.6c0.1-0.2,0-0.5,0-0.8v-0.7c0-0.2-0.1-0.4-0.2-0.5
	l-0.4-0.4c-0.1-0.1-0.4-0.1-0.6-0.2c-0.2,0-0.6-0.1-0.9-0.1h-7.4v3.9h6.1L372.8,284.1z M390,282.8h-8.3l-1.4,2.4h-1.5l6-10.5h1.9
	l6,10.5h-1.4L390,282.8L390,282.8z M389.4,281.7l-3.5-6.1l-3.5,6.1H389.4z M396,285.3h-1.3v-10.6h2.4l9.7,9.2v-9.2h1.3v10.5h-1.8
	l-10.1-9.4v9.6L396,285.3z M420.4,274.6h2l-7.4,5.2l7.7,5.3h-2l-7-4.8h-1.8v4.8h-1.3v-10.5h1.3v4.6h1.8L420.4,274.6L420.4,274.6z"/>
<path class="st2" d="M205.2,189.6h-30.5v2.7h13.6V215h3.4v-22.6h13.6V189.6z M261.6,211.8l-15.8-22.2h-5.4V215h3.3v-23.2L260,215
	h3.4l16.2-22.9V215h3.4v-25.4h-5.7L261.6,211.8z M325.4,215h27.2v-2.6h-23.8v-9h18.8v-2.7h-18.8v-8.4h23.8v-2.7h-27.2V215z
	 M357.1,215h27.1v-2.6h-23.7v-9h18.8v-2.7h-18.8v-8.4h23.7v-2.7h-27.1V215z M419.6,189.6v22.2l-24.9-22.2h-5.9V215h3.3v-22.6
	l26.4,22.6h4.5v-25.4H419.6z M215.1,189.6L199.5,215h4l3.5-5.8l1.5-2.6l9.1-14.9l9,14.9l1.7,2.6l3.5,5.8h3.5l-15.4-25.4H215.1z
	 M289.7,215h3.4v-25.4h-3.4V215z M320.3,189.6h-5.1l-19.5,12.5l20,12.9h5.1l-19.8-12.9L320.3,189.6z"/>
<path d="M210,252.5c-2.1,0-3.9-0.5-5.3-1.4v0.6c0,5.7-3.8,9.3-8.8,9.4h-10.3c-5.1,0-8.8-3.8-8.8-9.4v-17.1h4.1v16.9
	c0,3.5,1.5,5.7,5.3,5.7h9.6c3.3-0.2,4.7-2.4,4.7-5.7v-16.9h4.1v10c0,2.6,2.2,4,5.3,4h45.8v4H210V252.5z M187.1,233.4v-4.5h4.1v4.5
	H187.1z M254.6,257.1h4.1v4.5h-4.1V257.1z"/>
<path d="M270.6,252.4c-3.3,0-5.8-1.1-7.4-3.1c-1.5,2-4,3.1-7.2,3.1h-0.7v-4h0.7c3.1,0,4.8-1.8,4.8-4.7V233h4.1v10.7
	c0,2.9,2.1,4.6,5.5,4.6h0.7v4H270.6L270.6,252.4z M261.1,257.1h4.1v4.5h-4.1V257.1z"/>
<path d="M270.9,252.4v-4h75.5v-5.2c0-3.5-1.9-5.2-5.7-5.2h-47.4v-7.1c0-4.7,3.5-7.8,9-7.8h21v4h-21c-3.1,0-5.1,1.7-5.1,3.9v2.8h43.4
	c5.9,0,9.6,3.3,9.4,9.1v5.4h5.4v4H270.9L270.9,252.4z"/>
<path d="M390.8,252.4c-3.1,0-5.7-0.5-7.4-1.9c-1.7,4.4-5.2,6.7-10.4,6.7c-5,0-8.5-2.2-10.3-6.5c-1.8,1.2-4,1.5-7,1.5H355v-4h0.8
	c3.4,0,5.5-1.3,5.7-4.4c0.4-7.7,4.6-12.4,11.4-12.4c6.7,0,10.8,4.5,11.2,11.9c0,3.1,2.6,4.8,6.6,4.8h0.9v4h-0.8V252.4z M373,235.5
	c-4.1,0-6.1,2.9-6.1,8.8c0,5.8,2,8.7,6.1,8.7c4,0,6.1-2.9,6.1-8.6C379.1,238.4,377.1,235.5,373,235.5L373,235.5z M405.9,232.8v-4.5
	h4.1v4.5H405.9z M412.9,252.4v-4c3.9,0,5.5-2.1,5.5-5.7v-9.3h4.1v9.4C422.5,248.8,418.9,252.4,412.9,252.4z M412.4,232.8v-4.5h4.1
	v4.5H412.4z"/>
<path d="M390.9,248.5h21.9v4h-21.9V248.5z"/>
<path class="st3" d="M176.8,269h245.8"/>
</svg>
