<?xml version="1.0" encoding="utf-8"?>
<!-- Generator: Adobe Illustrator 24.1.2, SVG Export Plug-In . SVG Version: 6.00 Build 0)  -->
<svg version="1.1" id="Layer_1" xmlns="http://www.w3.org/2000/svg" xmlns:xlink="http://www.w3.org/1999/xlink" x="0px" y="0px"
	 viewBox="0 0 450 475.1" style="enable-background:new 0 0 450 475.1;" xml:space="preserve">
<style type="text/css">
	.st0{fill:#1C5AA7;}
	.st1{fill:#2E3690;}
	.st2{fill:#00A14B;}
</style>
<g>
	<path class="st0" d="M1767.3,119.4l0.6-0.9l-3.6-2.5l-4.4,6.4l1,0.1C1763.4,122.6,1765.8,121.4,1767.3,119.4 M1783.9,121.9l-1,1.4
		l-1.8,2.7c-2.9,4.3-6.1,4.7-10,2l-3.2-2.2l-3.1-2.1c-2.4,1.5-6.4,1-6.4,1l10.3,7c6.5,4.5,11.6,3.4,15.4-2.1l11-16.1l-3.6-2.5
		L1783.9,121.9L1783.9,121.9z"/>
	<path class="st0" d="M1796.6,103.6l-0.6,0.9l3.6,2.5l4.4-6.4l-1-0.1C1800.5,100.5,1798.1,101.6,1796.6,103.6 M1780,101.1l1-1.4
		l1.8-2.7c2.9-4.3,6.1-4.7,10-2l3.2,2.2l3.1,2.1c2.4-1.5,6.4-1,6.4-1l-10.3-7c-6.5-4.5-11.6-3.4-15.4,2.1l-11,16.1l3.6,2.5
		L1780,101.1L1780,101.1z M1591.1,133.6v-8.9c0-3.5-1.8-5.4-5.9-5.4h-2.7c-1.1,0-1.9-0.2-2.1-0.8c-0.4,1.7,0.4,2.4,1.7,2.4h3.1
		c2.4,0,3.7,1.1,3.7,3.7v1.7l-5.5,0.5c-4,0.4-5.6,2.1-5.6,5c0,3.3,2,5,5.2,5c1.4,0,2.7-0.1,3.8-0.3c1.8-0.3,1.2-2.3,1.2-2.3
		c-0.1,0.4-0.8,0.6-0.8,0.6c-1.3,0.3-2.6,0.5-4.2,0.5c-1.8,0-3-1.4-3-3.5c0-2,0.9-3.3,3.5-3.5l5.3-0.4v6.3c0,1.9,0.9,3,3.3,2.4
		C1591.3,136.3,1591.1,135.2,1591.1,133.6 M1622.6,133.6v-8.9c0-3.5-1.8-5.4-5.9-5.4h-2.7c-1.1,0-1.9-0.2-2.1-0.8
		c-0.4,1.7,0.4,2.4,1.7,2.4h3.1c2.4,0,3.7,1.1,3.7,3.7v1.7l-5.5,0.5c-4,0.4-5.6,2.1-5.6,5c0,3.3,2,5,5.2,5c1.4,0,2.7-0.1,3.8-0.3
		c1.8-0.3,1.2-2.3,1.2-2.3c0,0.4-0.7,0.6-0.7,0.6c-1.3,0.3-2.7,0.5-4.2,0.5c-1.8,0-3-1.4-3-3.5c0-2,0.9-3.3,3.5-3.5l5.3-0.4v6.3
		c0,1.9,0.9,3,3.3,2.4C1622.8,136.3,1622.6,135.2,1622.6,133.6 M1578.1,118.5c-0.2,0.6-1,0.8-2.1,0.8h-2.7c-4.1,0-5.9,1.9-5.9,5.4
		v8.9c0,1.6-0.3,2.7-1.1,3c2.4,0.6,3.4-0.5,3.4-2.4v-9.6c0-2.7,1.2-3.7,3.7-3.7h3.1C1577.7,120.9,1578.5,120.2,1578.1,118.5
		 M1605.3,121.9v12.5c-1.1,0.4-3,0.8-4.9,0.8c-3.7,0-4.5-2-4.5-6.9V122c0-1.9-1-3-3.4-2.4c0.8,0.3,1.1,1.4,1.1,3v5.7
		c0,5.7,1.3,8.4,6.8,8.4c1.9,0,3.7-0.5,4.9-0.8l0,0v1.4c0,2.7-1.2,3.7-3.7,3.7h-3.1c-1.3,0-2.1,0.7-1.7,2.4c0.2-0.6,1-0.8,2.1-0.8
		h2.7c4.1,0,5.9-1.9,5.9-5.4v-14.6c0-1.6,0.3-2.7,1.1-3C1606.2,119,1605.3,120,1605.3,121.9 M1678.3,133.6v-9c0-3.5-1.8-5.4-5.9-5.4
		h-2.7c-1.1,0-1.9-0.2-2.1-0.8c-0.4,1.7,0.4,2.4,1.7,2.4h3.1c2.4,0,3.7,1.1,3.7,3.7v1.7l-5.5,0.5c-4,0.4-5.6,2.1-5.6,5
		c0,3.3,2,5,5.2,5c1.4,0,2.7-0.1,3.8-0.3c1.8-0.3,1.2-2.3,1.2-2.3c-0.1,0.4-0.7,0.6-0.7,0.6c-1.3,0.3-2.6,0.5-4.2,0.5
		c-1.8,0-3-1.4-3-3.5c0-2,0.9-3.3,3.5-3.5l5.3-0.4v6.3c0,1.9,0.9,3,3.3,2.4C1678.5,136.3,1678.3,135.2,1678.3,133.6 M1640,113.9
		h-2.7c-4.1,0-5.9,1.9-5.9,5.4v14.5c0,1.6-0.3,2.7-1.1,3c2.4,0.6,3.3-0.5,3.3-2.4v-7.9h6.1c1.3,0,2.1-0.7,1.7-2.4
		c-0.2,0.6-1,0.8-2.1,0.8h-5.7v-5.5c0-2.7,1.2-3.7,3.7-3.7h3c1.3,0,2.1-0.7,1.7-2.4C1641.9,113.7,1641.2,113.9,1640,113.9
		 M1645.8,117.4c0.7,0,1.3-0.6,1.3-1.3s-0.6-1.3-1.3-1.3s-1.3,0.6-1.3,1.3S1645,117.4,1645.8,117.4 M1646.9,133.9v-12
		c0-1.9-0.9-3-3.3-2.4c0.8,0.3,1.1,1.4,1.1,3v12c0,1.9,0.9,3,3.3,2.4C1647.1,136.6,1646.9,135.5,1646.9,133.9"/>
	<g>
		<path id="B" class="st0" d="M1662.9,133.6v-8.9c0-3.5-1.8-5.4-5.9-5.4h-7.1c-0.3,0-0.5,0.1-0.8,0.1c0.8,0.3,1.1,1.4,1.1,3v12
			c0,1.9,0.9,3,3.3,2.4c-0.8-0.3-1.1-1.4-1.1-3v-12c0-0.4,0-0.7-0.1-1h4.7c2.4,0,3.7,1.1,3.7,3.7v9.5c0,1.9,0.9,3,3.3,2.4
			C1663.2,136.3,1662.9,135.2,1662.9,133.6"/>
	</g>
	<path class="st0" d="M1710.9,117.4c0.7,0,1.3-0.6,1.3-1.3s-0.6-1.3-1.3-1.3s-1.3,0.6-1.3,1.3S1710.2,117.4,1710.9,117.4
		 M1712,133.9v-12c0-1.9-0.9-3-3.3-2.4c0.8,0.3,1.1,1.4,1.1,3v12c0,1.9,0.9,3,3.3,2.4C1712.3,136.6,1712,135.5,1712,133.9
		 M1728,133.6v-8.8c0-3.5-1.8-5.4-5.9-5.4h-7.2c-0.3,0-0.5,0.1-0.8,0.1c0.8,0.3,1.1,1.4,1.1,3v12c0,1.9,0.9,3,3.3,2.4
		c-0.8-0.3-1.1-1.4-1.1-3v-12c0-0.4,0-0.7-0.1-1h4.7c2.4,0,3.7,1.1,3.7,3.7v9.5c0,1.9,0.9,3,3.4,2.4
		C1728.2,136.3,1728,135.2,1728,133.6"/>
	<g>
		<path id="B_1_" class="st0" d="M1693.8,133.6v-8.9c0-3.5-1.8-5.4-5.9-5.4h-7.1c-0.3,0-0.5,0.1-0.8,0.1c0.8,0.3,1.1,1.4,1.1,3v12
			c0,1.9,0.9,3,3.3,2.4c-0.8-0.3-1.1-1.4-1.1-3v-12c0-0.4,0-0.7-0.1-1h4.7c2.4,0,3.7,1.1,3.7,3.7v9.5c0,1.9,0.9,3,3.3,2.4
			C1694.1,136.3,1693.8,135.2,1693.8,133.6"/>
	</g>
	<path class="st0" d="M1702.1,120.9h3.1c1.3,0,2.1-0.7,1.7-2.4c-0.2,0.6-1,0.8-2.1,0.8h-2.7c-4.1,0-5.9,1.9-5.9,5.4v6.5
		c0,3.5,1.8,5.4,5.9,5.4h2.7c1.1,0,1.9,0.2,2.1,0.8c0.4-1.7-0.4-2.4-1.7-2.4h-3.1c-2.4,0-3.7-1.1-3.7-3.7v-6.6
		C1698.4,122,1699.6,120.9,1702.1,120.9 M1741.6,134.4c-1.1,0.4-3,0.8-4.9,0.8c-3.7,0-4.5-2-4.5-6.9v-3.7c0-2.7,1.2-3.7,3.7-3.7h5.8
		c-0.1,0.3-0.1,0.6-0.1,1V134.4L1741.6,134.4z M1744.9,119.5c-0.3-0.1-0.6-0.1-0.8-0.1l0,0h-8.3c-4.1,0-5.9,1.9-5.9,5.4l-0.1,3.7
		c0,5.7,1.3,8.4,6.8,8.4c1.9,0,3.8-0.5,4.9-0.8l0,0v1.4c0,2.7-1.2,3.7-3.7,3.7h-3.1c-1.3,0-2.1,0.7-1.7,2.4c0.2-0.6,1-0.8,2.1-0.8
		h2.7c4.1,0,5.9-1.9,5.9-5.4V134l0.2-13.6C1744.3,119.9,1744.5,119.6,1744.9,119.5 M1727.6,82.4v19c0,1.8-0.3,3-1.3,3.4
		c2.8,0.6,3.8-0.6,3.8-2.7V83c0-1.8,0.3-3,1.3-3.4C1728.6,79,1727.6,80.3,1727.6,82.4 M1741.1,88v10.8c0,3-1.4,4.2-4.1,4.2h-1.6
		c-1.5,0-2.4,0.7-1.9,2.7c0.2-0.7,1.1-0.9,2.4-0.9h1.2c4.6,0,6.7-2.1,6.7-6.1V88.6c0-1.8,0.3-3,1.3-3.4
		C1742.2,84.6,1741.1,85.8,1741.1,88"/>
	<path class="st0" d="M1720.5,88v10.9c0,3-1.4,4.2-4.1,4.2h-8.8c-4.2,0-5.1-2.2-5.1-7.7v-10h-6.6c-5.1,0-8.2,2.4-8.2,9.8
		c0,6,1.8,9.7,8.4,9.8h1.2c1.2,0,2.1,0.2,2.3,0.9c0.4-1.9-0.4-2.6-1.8-2.6h-1.6c-4.4,0-5.8-2.6-5.8-7.4v-1.4c0-5.3,1.8-7.3,5.6-7.3
		h4v8.3c0,6.5,1.5,9.5,7.7,9.5h8.8c4.6,0,6.7-2.1,6.7-6.1V88.6c0-1.8,0.3-3,1.3-3.4C1721.5,84.6,1720.5,85.8,1720.5,88"/>
	<g>
		<path id="C" class="st0" d="M1694.3,83.7c0.8,0,1.5-0.7,1.5-1.5c0-0.8-0.7-1.5-1.5-1.5c-0.8,0-1.5,0.7-1.5,1.5
			C1692.8,83,1693.4,83.7,1694.3,83.7C1694.3,83.7,1694.3,83.7,1694.3,83.7"/>
	</g>
	<g>
		<path id="C_1_" class="st0" d="M1698.2,83.7c0.8,0,1.5-0.7,1.5-1.5c0-0.8-0.7-1.5-1.5-1.5c-0.8,0-1.5,0.7-1.5,1.5
			C1696.7,83,1697.3,83.7,1698.2,83.7C1698.2,83.7,1698.2,83.7,1698.2,83.7"/>
	</g>
	<g>
		<path id="C_2_" class="st0" d="M1652.5,83.7c0.8,0,1.5-0.7,1.5-1.5c0-0.8-0.7-1.5-1.5-1.5c-0.8,0-1.5,0.7-1.5,1.5
			C1651,83,1651.6,83.7,1652.5,83.7C1652.5,83.7,1652.5,83.7,1652.5,83.7"/>
	</g>
	<path class="st0" d="M1656.4,83.7c0.8,0,1.5-0.7,1.5-1.5c0-0.8-0.7-1.5-1.5-1.5c-0.8,0-1.5,0.7-1.5,1.5
		C1654.9,83.1,1655.5,83.7,1656.4,83.7 M1687.6,95.2v-0.3V95.2z M1644.3,94.9v0.3V94.9z"/>
	<path class="st0" d="M1615.1,102.1c-1.3,0.4-3.3,1-5.5,1c-4.2,0-5.1-2.3-5.1-7.8v-4.2c0-3,1.4-4.2,4.1-4.2h6.5
		c-0.1,0.3-0.1,0.7-0.1,1.1L1615.1,102.1L1615.1,102.1z M1675.5,82.4v16.5c0,3-1.4,4.2-4.1,4.2h-5.9c1-1,1.4-2.5,1.4-4.3V83.1
		c0-1.8,0.3-3,1.3-3.4c-2.8-0.6-3.8,0.6-3.8,2.7v16.5c0,3-1.4,4.2-4.1,4.2h-6.5c1-1,1.4-2.5,1.4-4.3v-9.9c0-1.8,0.3-3,1.3-3.4
		c-2.8-0.6-3.8,0.6-3.8,2.7v10.7c0,3-1.4,4.2-4.1,4.2h-6.6c1.8-1.6,2.5-4.4,2.5-7.9c0-7.4-3.2-9.8-8.2-9.8h-6.6v10
		c0,5.5-0.9,7.7-5.1,7.7h-2.5c-2.5,0-3.9-1-4.1-3.6l0.2-13.2c0.2-0.6,0.5-0.9,1-1.1c-0.3-0.1-0.7-0.1-1-0.1l0,0h-9.3
		c-4.6,0-6.7,2.1-6.7,6.1l-0.1,4.2c0,6.5,1.5,9.5,7.7,9.5c2.1,0,4.2-0.5,5.5-0.9c-0.1,2.7-1.5,3.9-4.1,3.9h-3.5
		c-1.5,0-2.4,0.7-1.9,2.7c0.2-0.7,1.1-0.9,2.4-0.9h3c4.4,0,6.5-2,6.7-5.7c1,0.6,2.4,0.9,4.2,0.9h2.5c6.2,0,7.7-3,7.7-9.5V87h4
		c3.8,0,5.6,1.9,5.6,7.3v1.4c0,4.9-1.4,7.4-5.8,7.4h-3.6c-1.5,0-2.3,0.7-1.8,2.6c0.2-0.7,1.1-0.9,2.3-0.9h38.7
		c4.6,0,6.7-2.1,6.7-6.1V83c0-1.8,0.3-3,1.3-3.4C1676.5,79,1675.5,80.3,1675.5,82.4 M1595.5,88.2v10.7c0,3-1.4,4.2-4.1,4.2h-1.3
		c-2.7,0-4.1-1.2-4.1-4.2l0,0V83c0-1.8,0.3-3,1.3-3.4c-2.8-0.6-3.8,0.6-3.8,2.7v20.8c0,3-1.4,4.2-4.1,4.2h-5.4
		c-2.7,0-4.1-1.2-4.1-4.2v-5c0-3,1.4-4.2,4.1-4.2h1c1.5,0,2.4-0.7,1.9-2.7c-0.2,0.7-1.1,0.9-2.4,0.9h-0.6c-4.6,0-6.7,2.1-6.7,6.1
		v4.9c0,3.9,2.1,6.1,6.7,6.1h5.4c4.3,0,6.4-1.9,6.7-5.3c1,0.6,2.4,1,4.2,1h1.3c4.6,0,6.7-2.1,6.7-6.1v-9.9c0-1.8,0.3-3,1.3-3.4
		C1596.6,84.8,1595.5,86,1595.5,88.2"/>
	<g>
		<path id="D" class="st0" d="M1715.8,106.8c-0.8,0-1.5,0.7-1.5,1.5c0,0.8,0.7,1.5,1.5,1.5c0.8,0,1.5-0.7,1.5-1.5
			C1717.3,107.4,1716.7,106.8,1715.8,106.8"/>
	</g>
	<g>
		<path id="E" class="st0" d="M1719.7,106.8c-0.8,0-1.5,0.7-1.5,1.5c0,0.8,0.7,1.5,1.5,1.5c0.8,0,1.5-0.7,1.5-1.5
			C1721.2,107.5,1720.6,106.8,1719.7,106.8C1719.7,106.8,1719.7,106.8,1719.7,106.8"/>
	</g>
	<g>
		<path id="D_1_" class="st0" d="M1590.1,106.8c-0.8,0-1.5,0.7-1.5,1.5c0,0.8,0.7,1.5,1.5,1.5c0.8,0,1.5-0.7,1.5-1.5
			C1591.6,107.4,1591,106.8,1590.1,106.8"/>
	</g>
	<g>
		<path id="E_1_" class="st0" d="M1594,106.8c-0.8,0-1.5,0.7-1.5,1.5c0,0.8,0.7,1.5,1.5,1.5c0.8,0,1.5-0.7,1.5-1.5
			C1595.5,107.5,1594.9,106.8,1594,106.8C1594,106.8,1594,106.8,1594,106.8"/>
	</g>
	<path class="st0" d="M1774,96.9l0.9,0.6l2.5-3.6l-6.4-4.4l-0.1,1C1770.9,93,1772.1,95.3,1774,96.9 M1770.1,112.5l-2.7-1.8
		c-4.3-2.9-4.7-6.1-2-10l2.2-3.2l2.1-3.1c-1.5-2.4-1-6.4-1-6.4l-7,10.3c-4.4,6.5-3.4,11.6,2.1,15.4l16.1,11l2.5-3.6l-10.9-7.5
		L1770.1,112.5L1770.1,112.5z M1789.9,126.1l-0.9-0.6l-2.5,3.6l6.4,4.4l0.1-1C1793,130,1791.9,127.7,1789.9,126.1 M1800,109.4
		l-16.1-11l-2.5,3.6l10.9,7.5l1.4,1l2.7,1.8c4.3,2.9,4.7,6.1,2,10l-2.2,3.2l-2.1,3.1c1.5,2.4,1,6.4,1,6.4l7-10.3
		C1806.6,118.3,1805.5,113.2,1800,109.4"/>
</g>
<path class="st1" d="M360.6,248.2l17.8-27.7h-7.5l-18.1,27.7H360.6z"/>
<path class="st2" d="M399.7,248.2l17.7-27.7h-7.5l-18,27.7H399.7z"/>
<path class="st1" d="M379.7,238l-6-7.5l6-9.4c0,0,0,4.9,1.6,6.8l3.2,3.6L379.7,238z M381.5,239.4l12.6-18.8h5.3v3.5l-13.1,20.3
	L381.5,239.4z M395.8,232.5l2.8,2.8l5.2-7.3l-2.9-2.8L395.8,232.5z M409.2,248.2l-3.8-6.4l4.5-6.6l8.4,13L409.2,248.2z"/>
<path class="st2" d="M420.5,248.2l-9.5-14.5l3.7-5.3l7.7,11.9h2.8l-9.5-13.8l3.8-5.6l17.8,27.3L420.5,248.2z"/>
<path class="st1" d="M394.3,181.8c-30.8,0-55.7,24.9-55.7,55.7s24.9,55.7,55.7,55.7s55.7-24.9,55.7-55.7
	C450,206.8,425.1,181.8,394.3,181.8z M394.3,284.8c-26.1,0-47.3-21.2-47.3-47.3s21.2-47.3,47.3-47.3s47.3,21.2,47.3,47.3
	S420.5,284.8,394.3,284.8z"/>
<g>
	<path class="st2" d="M25.2,228.1c-0.2,1.2-0.7,2.5-1.3,3.5c-0.6,1-1.4,2-2.4,2.7c-0.9,0.7-2.1,1.3-3.3,1.6
		c-1.2,0.4-2.6,0.6-4.1,0.5c-2.3,0-4.1-0.4-5.7-1c-1.5-0.6-2.8-1.6-3.7-3c-0.9-1.3-1.6-3-2.1-4.9s-0.6-4.2-0.5-6.8l4.7-1.4v3.9
		c0,1.4,0.2,2.7,0.6,3.7c0.3,1,0.8,1.9,1.5,2.5c0.6,0.6,1.4,1.1,2.3,1.4s1.9,0.4,3,0.4c0.9,0,1.7-0.1,2.5-0.4s1.4-0.7,2.1-1.2
		c0.6-0.5,1-1.2,1.3-2.1c0.3-0.8,0.5-1.7,0.5-2.8v-23.4l4.8-1.7V223h5.2v5h-5.6L25.2,228.1z"/>
	<path class="st2" d="M33.2,235c0,0.8-0.2,1.4-0.7,2.1c-0.5,0.6-1.1,0.9-1.7,0.9c-0.7,0-1.2-0.3-1.7-0.9c-0.5-0.6-0.7-1.3-0.7-2.1
		c0-0.8,0.2-1.5,0.7-2.2c0.5-0.6,1.1-0.9,1.7-0.9c0.7,0,1.2,0.3,1.7,0.9C32.9,233.5,33.2,234.2,33.2,235z M29.7,228.1v-5h3.1
		c0.9,0,1.6-0.3,2.1-0.8c0.4-0.5,0.7-1.3,0.7-2.5v-10.3l4.7-1.9V220c0,2.5-0.6,4.4-2,5.9s-3.1,2.2-5.5,2.2h-3.2V228.1z M39.8,235
		c0,0.8-0.2,1.4-0.7,2.1c-0.5,0.6-1.1,0.9-1.9,0.9c-0.6,0-1.2-0.3-1.7-0.9c-0.5-0.6-0.7-1.3-0.7-2.1c0-0.8,0.2-1.5,0.7-2.2
		c0.5-0.6,1.1-0.9,1.7-0.9c0.7,0,1.3,0.3,1.9,0.9C39.6,233.5,39.8,234.2,39.8,235z M60.7,228.1c-0.2,1.5-0.5,2.9-1,3.9
		c-0.5,1-1.1,2-2,2.6c-0.7,0.6-1.6,1.1-2.5,1.4c-0.9,0.3-1.9,0.4-2.8,0.4c-0.4,0-0.8,0-1.2-0.1l-1.4-0.3c-0.5-0.1-0.9-0.3-1.4-0.4
		l-1.1-0.5l-2.2-5.7c0.6,0.5,1.2,0.9,2,1.2s1.3,0.5,2,0.6l1.6,0.3c0.5,0,0.8,0.1,1,0.1c1,0,2-0.3,2.8-0.8s1.3-1.4,1.7-2.7H53
		c-1.2,0-2.4-0.3-3.4-0.8c-1-0.5-1.9-1.2-2.6-2.2c-0.7-0.9-1.2-2-1.5-3.2c-0.4-1.2-0.5-2.6-0.5-3.9c0-1.4,0.2-2.7,0.5-4
		c0.3-1.2,0.8-2.4,1.5-3.3s1.5-1.7,2.6-2.3c1-0.5,2.2-0.8,3.4-0.8c1.5,0,2.8,0.3,3.8,0.9c1,0.6,1.9,1.4,2.5,2.5s1.1,2.3,1.3,3.6
		c0.3,1.3,0.4,2.9,0.4,4.5v4h4v5h-4.3L60.7,228.1z M56.1,223.1v-5c0-1.6-0.3-3-0.9-4s-1.4-1.5-2.4-1.5c-0.9,0-1.7,0.5-2.4,1.5
		c-0.6,1-0.9,2.4-0.9,4c0,1.6,0.3,2.9,0.9,3.7c0.6,0.8,1.4,1.2,2.4,1.2h3.3V223.1z"/>
	<path class="st2" d="M88.3,228.1c-1.7,0-3.3-0.6-4.5-1.9c-0.5,1.5-1.4,2.7-2.6,3.6s-2.7,1.4-4.4,1.4c-1.6,0-3.1-0.4-4.2-1.2
		c-1.1-0.8-2.1-2-2.6-3.4c-1,0.9-2.4,1.4-4.1,1.4H64v-5h1.5c2,0,3.2-1,3.4-3.1c0.1-1.1,0.4-2.2,0.7-3.2c0.4-1,0.9-1.9,1.5-2.7
		c0.6-0.7,1.4-1.3,2.4-1.7c0.9-0.4,2-0.6,3.1-0.6s2.2,0.2,3.1,0.6s1.6,1,2.3,1.7c0.6,0.7,1.1,1.6,1.5,2.6c0.4,1,0.6,2.1,0.8,3.2
		c0.3,2.2,1.5,3.2,3.6,3.2h1.4v5L88.3,228.1L88.3,228.1z M76.7,226.4c1,0,1.7-0.4,2.3-1.2c0.5-0.8,0.7-2.1,0.7-3.6
		c0-1.4-0.2-2.6-0.7-3.5s-1.2-1.3-2.3-1.3c-1,0-1.7,0.4-2.3,1.3c-0.5,0.9-0.7,2.1-0.7,3.5c0,1.5,0.2,2.8,0.7,3.6
		C74.9,226,75.6,226.4,76.7,226.4z"/>
	<path class="st2" d="M92.3,202.2c0,0.8-0.2,1.4-0.7,2.1s-1.1,0.9-1.7,0.9c-0.6,0-1.2-0.3-1.7-0.9c-0.5-0.6-0.7-1.3-0.7-2.1
		c0-0.8,0.2-1.5,0.7-2.2c0.5-0.6,1.1-0.9,1.7-0.9c0.7,0,1.2,0.3,1.7,0.9C92,200.7,92.3,201.4,92.3,202.2z M101.5,228.1
		c-0.9,0-1.7-0.2-2.6-0.5c-0.8-0.3-1.5-0.9-2.3-1.6c-1.3,1.4-3,2.2-4.9,2.2h-3.3v-5h3c1.9,0,2.8-1.1,2.8-3.3v-9L99,209v10.9
		c0,1,0.2,1.9,0.7,2.4s1.2,0.8,2.1,0.8h2.5v5L101.5,228.1L101.5,228.1z M98.9,202.2c0,0.8-0.2,1.4-0.7,2.1c-0.5,0.6-1.1,0.9-1.7,0.9
		c-0.7,0-1.2-0.3-1.7-0.9s-0.7-1.3-0.7-2.1c0-0.8,0.2-1.5,0.7-2.2c0.5-0.6,1.1-0.9,1.7-0.9c0.7,0,1.2,0.3,1.7,0.9
		C98.7,200.7,98.9,201.4,98.9,202.2z"/>
	<path class="st2" d="M116.5,228.1c-0.9,0-1.7-0.2-2.6-0.5c-0.8-0.3-1.5-0.9-2.3-1.6c-1.3,1.4-3,2.2-4.9,2.2h-3.3v-5h3
		c1.9,0,2.8-1.1,2.8-3.3v-18.2l4.7-1.9v20.2c0,1,0.2,1.9,0.7,2.4s1.2,0.8,2.1,0.8h2.5v5L116.5,228.1L116.5,228.1z"/>
	<path class="st2" d="M118.3,228.1v-5h3.1c0.9,0,1.6-0.3,2.1-0.8c0.5-0.5,0.7-1.3,0.7-2.5v-18.2l4.7-1.9V220c0,2.5-0.6,4.4-2,5.9
		c-1.3,1.4-3.1,2.2-5.5,2.2h-3.2L118.3,228.1z"/>
</g>
<g>
	<g>
		<path id="F" class="st1" d="M151.3,228.1c-0.2,1.5-0.6,2.9-1.1,3.9c-0.6,1-1.2,2-2.1,2.6c-0.8,0.6-1.7,1.1-2.7,1.4
			s-1.9,0.4-2.8,0.4c-0.4,0-0.8,0-1.2-0.1l-1.3-0.3c-0.4-0.1-0.9-0.3-1.3-0.4l-1.1-0.5l-2.2-5.7c0.6,0.5,1.2,0.9,1.9,1.2
			s1.2,0.5,1.9,0.6l1.5,0.3c0.4,0,0.7,0.1,0.9,0.1c1.4,0,2.6-0.5,3.6-1.6c0.9-1.1,1.4-2.7,1.4-4.6V211l4.7-1.9v14.1h5.1v5h-5.2
			L151.3,228.1z"/>
	</g>
	<path class="st1" d="M155.8,228.1v-5h15.1v-2.4c0-1-0.1-2-0.2-2.9s-0.4-1.7-0.7-2.5c-0.4-0.7-0.8-1.2-1.3-1.6
		c-0.5-0.4-1.2-0.6-2.2-0.6c-1,0-1.9,0.2-2.8,0.7c-1,0.5-1.9,1.2-2.7,2.3l-3-3.5c0.9-1.3,2.2-2.5,3.7-3.4c1.5-0.8,3.1-1.2,4.7-1.2
		c1.4,0,2.8,0.3,3.9,0.8c1.1,0.6,2.2,1.4,3,2.5c0.8,1,1.4,2.4,1.9,3.9c0.4,1.5,0.6,3.2,0.5,5v7.8h-20L155.8,228.1z M168.7,235
		c0,0.8-0.2,1.4-0.7,2.1s-1.1,0.9-1.7,0.9s-1.2-0.3-1.7-0.9s-0.7-1.3-0.7-2.1c0-0.8,0.2-1.5,0.7-2.2c0.5-0.6,1.1-0.9,1.7-0.9
		c0.7,0,1.2,0.3,1.7,0.9C168.4,233.5,168.7,234.2,168.7,235z M185.4,228.1c-1,0-1.9-0.2-2.5-0.5c-0.7-0.3-1.2-0.8-1.6-1.3
		s-0.7-1.2-0.9-2c-0.2-0.7-0.3-1.5-0.3-2.4v-20.5l4.8-1.9V221c0,0.6,0.1,1,0.3,1.4c0.2,0.3,0.6,0.5,1.2,0.5h3.4v5h-4.4V228.1z"/>
	<path class="st1" d="M192.6,202.2c0,0.8-0.2,1.4-0.7,2.1s-1.1,0.9-1.7,0.9c-0.6,0-1.2-0.3-1.7-0.9s-0.7-1.3-0.7-2.1
		c0-0.8,0.2-1.5,0.7-2.2c0.5-0.6,1.1-0.9,1.7-0.9c0.7,0,1.2,0.3,1.7,0.9C192.4,200.7,192.6,201.4,192.6,202.2z M202,228.1
		c-0.9,0-1.7-0.2-2.6-0.5c-0.8-0.3-1.5-0.9-2.3-1.6c-1.3,1.4-3,2.2-4.9,2.2h-3.3v-5h3c1.9,0,2.8-1.1,2.8-3.3v-9l4.7-1.9v10.9
		c0,1,0.2,1.9,0.7,2.4s1.2,0.8,2.1,0.8h2.5v5L202,228.1L202,228.1z M199.3,202.2c0,0.8-0.2,1.4-0.7,2.1s-1.1,0.9-1.7,0.9
		c-0.7,0-1.2-0.3-1.7-0.9s-0.7-1.3-0.7-2.1c0-0.8,0.2-1.5,0.7-2.2c0.5-0.6,1.1-0.9,1.7-0.9c0.7,0,1.2,0.3,1.7,0.9
		C199.1,200.7,199.3,201.4,199.3,202.2z"/>
	<path class="st1" d="M203.8,228.1v-5h2.4c1.9,0,2.8-1.1,2.8-3.4v-1.4c0-1.5,0.1-2.9,0.4-4.1c0.3-1.2,0.8-2.4,1.4-3.2
		c0.6-0.9,1.5-1.7,2.5-2.2c0.9-0.5,2.2-0.7,3.4-0.7c1.3,0,2.5,0.2,3.4,0.7c1,0.5,1.8,1.3,2.4,2.2c0.7,1,1.2,2.1,1.4,3.3
		c0.3,1.2,0.4,2.7,0.4,4.1s-0.1,2.9-0.4,4.1c-0.3,1.2-0.8,2.4-1.4,3.2c-0.6,0.9-1.4,1.6-2.4,2.2c-0.9,0.5-2.1,0.7-3.4,0.7
		c-1,0-2-0.2-2.8-0.5c-0.8-0.3-1.6-0.8-2.3-1.4c-0.6,0.7-1.3,1.1-2.2,1.3c-0.7,0.2-1.5,0.3-2.3,0.3h-3.4L203.8,228.1z M219.7,218.3
		c0-1.6-0.2-2.9-0.7-3.8s-1.2-1.3-2.2-1.3s-1.6,0.4-2.2,1.3c-0.5,0.9-0.7,2.2-0.7,3.8s0.2,2.9,0.7,3.8c0.5,0.8,1.2,1.3,2.2,1.3
		s1.6-0.4,2.2-1.3C219.4,221.2,219.7,219.9,219.7,218.3z"/>
</g>
<g>
	<path class="st2" d="M251.3,228.1c-0.9,0-1.8-0.2-2.6-0.6c-0.8-0.4-1.5-1-2.3-1.7c-0.6,0.7-1.3,1.2-2.2,1.7s-1.9,0.7-3.1,0.7
		c-1.1,0-2.2-0.2-3.1-0.6c-0.9-0.4-1.7-1-2.4-1.9c-0.6-0.8-1.1-2-1.5-3.2c-0.4-1.2-0.5-2.8-0.5-4.5c0-3.3,0.7-5.9,2.2-7.4
		c1.4-1.6,3.4-2.5,5.9-2.5h7.2V220c0,1,0.2,1.9,0.7,2.4s1.2,0.8,2.1,0.8h2.5v5h-2.9L251.3,228.1z M241.4,201.2
		c0,0.8-0.2,1.4-0.7,2.1c-0.5,0.6-1.1,0.9-1.7,0.9s-1.2-0.3-1.7-0.9s-0.7-1.3-0.7-2.1c0-0.8,0.2-1.5,0.7-2.2s1.1-0.9,1.7-0.9
		c0.7,0,1.3,0.3,1.7,0.9C241.2,199.6,241.4,200.4,241.4,201.2z M244,212.9h-2.3c-1.2,0-2.2,0.4-2.6,1.3c-0.4,0.9-0.7,2.2-0.7,3.7
		c0,0.7,0,1.4,0.1,2.1c0.1,0.6,0.2,1.1,0.4,1.6s0.5,0.8,0.8,1c0.3,0.2,0.8,0.4,1.3,0.4c0.5,0,1-0.1,1.3-0.4c0.3-0.2,0.6-0.6,0.8-1
		c0.2-0.5,0.3-1,0.4-1.6c0.1-0.6,0.1-1.3,0.2-2.1v-5L244,212.9z M248,201.2c0,0.8-0.2,1.4-0.7,2.1s-1.1,0.9-1.7,0.9
		c-0.6,0-1.2-0.3-1.7-0.9s-0.7-1.3-0.7-2.1c0-0.8,0.2-1.5,0.7-2.2s1.1-0.9,1.7-0.9c0.7,0,1.2,0.3,1.7,0.9
		C247.7,199.6,248,200.4,248,201.2z"/>
	<path class="st2" d="M253.3,228.1v-5h17.3c0.1-1.3,0-2.6-0.3-3.6c-0.3-1-0.7-2-1.3-2.7c-0.6-0.7-1.2-1.2-2.1-1.6
		c-0.8-0.4-1.6-0.5-2.5-0.5c-1.2,0-2.4,0.3-3.4,0.8s-2.1,1.2-2.9,2.2l-2.9-3l10.9-14.4h6.3l-8,9.9c1.5-0.2,3-0.1,4.2,0.3
		s2.4,1,3.3,1.9c0.9,0.8,1.6,1.9,2.3,3c0.6,1.1,1,2.4,1.2,3.6l0.3,2.6v2.6c0,0.8-0.1,1.5-0.2,2.3l-0.2,2h-22L253.3,228.1z"/>
	<g>
		<path id="F_1_" class="st2" d="M292,228.1c-0.2,1.5-0.6,2.9-1.1,3.9c-0.6,1-1.2,2-2.1,2.6c-0.8,0.6-1.7,1.1-2.7,1.4
			s-1.9,0.4-2.8,0.4c-0.4,0-0.8,0-1.2-0.1l-1.3-0.3c-0.4-0.1-0.9-0.3-1.3-0.4l-1.1-0.5l-2.2-5.7c0.6,0.5,1.2,0.9,1.9,1.2
			c0.6,0.3,1.2,0.5,1.9,0.6l1.5,0.3c0.4,0,0.7,0.1,0.9,0.1c1.4,0,2.6-0.5,3.6-1.6c0.9-1.1,1.4-2.7,1.4-4.6V211l4.7-1.9v14.1h5.1v5
			H292L292,228.1z"/>
	</g>
	<path class="st2" d="M296.4,228.1v-5h4.1v-10.4l4.7-1.9v12.2h5.3v-12l4.7-1.9v13.9h2.8c1.7,0,2.7-1,2.7-3.2v-10.4l4.8-1.9
		l-0.1,12.6c0,1.2-0.2,2.3-0.5,3.2s-0.8,1.7-1.4,2.5c-0.6,0.7-1.3,1.2-2.3,1.6c-0.9,0.4-1.9,0.5-3,0.5h-21.9L296.4,228.1z
		 M312,202.3c0,0.8-0.2,1.4-0.7,2.1s-1.1,0.9-1.7,0.9c-0.7,0-1.2-0.3-1.7-0.9c-0.5-0.6-0.7-1.3-0.7-2.1c0-0.8,0.2-1.5,0.7-2.2
		c0.5-0.6,1.1-0.9,1.7-0.9c0.7,0,1.2,0.3,1.7,0.9C311.8,200.8,312,201.5,312,202.3z M315.1,195.7c0,0.7-0.2,1.4-0.7,2
		s-1,0.8-1.6,0.8c-0.6,0-1.2-0.3-1.6-0.8c-0.4-0.5-0.7-1.2-0.7-2c0-0.8,0.2-1.4,0.7-2.1c0.4-0.5,1-0.8,1.6-0.8
		c0.6,0,1.2,0.3,1.6,0.8C314.9,194.3,315.1,195,315.1,195.7z M318.7,202.3c0,0.8-0.2,1.4-0.7,2.1c-0.5,0.6-1.1,0.9-1.7,0.9
		c-0.6,0-1.2-0.3-1.7-0.9c-0.5-0.6-0.7-1.3-0.7-2.1c0-0.8,0.2-1.5,0.7-2.2c0.5-0.6,1.1-0.9,1.7-0.9c0.7,0,1.2,0.3,1.7,0.9
		C318.4,200.8,318.7,201.5,318.7,202.3z"/>
</g>
<g>
	<path class="st1" d="M10.2,249c1,0.1,2.2,0.1,3.2,0.1h4.9c0.6,0,1.2-0.1,1.7-0.1c-0.2,0.6-0.4,1.2-0.5,2c-0.2,0.6-0.3,1.3-0.4,2.3
		c-0.1,0.9-0.3,2-0.5,3.1l-0.6,3.4l-0.7,3.6c-0.3,1.2-0.4,2.4-0.6,3.5l0.1,0.1l5.7-8.1l2.7-3.8l2.8-4c0.2-0.3,0.3-0.6,0.4-0.9l0.3-1
		c0.7,0.1,1.4,0.1,2.2,0.1h4.1c0.7,0,1.3-0.1,2-0.1l-0.3,0.9c-0.6,0-1.1,0.1-1.5,0.3c-0.4,0.1-0.7,0.4-1,0.7
		c-0.3,0.3-0.5,0.8-0.8,1.4l-0.8,2.4l-5,15.5l-0.3,1.1c-0.1,0.4-0.1,0.7-0.1,1c0,0.4,0.1,0.7,0.3,0.9s0.5,0.4,0.8,0.6
		c0.3,0.1,0.6,0.3,1,0.3c0.3,0.1,0.7,0.1,1,0.2l-0.3,0.9c-0.9-0.1-1.7-0.1-2.7-0.1h-5.7l-3,0.1l0.3-0.9c0.6-0.2,1.1-0.4,1.6-0.6
		c0.4-0.2,0.7-0.5,1-0.8c0.3-0.3,0.5-0.7,0.6-1.2c0.2-0.4,0.4-1,0.6-1.6l6.3-18.3l-0.1-0.1l-16.3,23c-0.1,0.2-0.4,0.4-0.7,0.4
		c-0.2,0-0.4,0-0.4-0.1c-0.1-0.1-0.1-0.2-0.1-0.4s0-0.4,0.1-0.8c0-0.4,0.1-0.8,0.2-1.2c0.1-0.5,0.2-1,0.2-1.5
		c0.1-0.5,0.2-1.1,0.2-1.6l1.5-9.7l1.6-7.7l-0.1-0.1l-4.2,7.8L7,267.7c-0.1,0.3-0.3,0.7-0.5,1.1l-0.6,1.2c-0.2,0.4-0.3,0.9-0.4,1.3
		c-0.1,0.4-0.2,0.9-0.2,1.3c0,0.3,0.1,0.5,0.4,0.7c0.3,0.2,0.6,0.4,0.9,0.5c0.4,0.1,0.7,0.3,1.1,0.4c0.4,0.1,0.6,0.2,0.8,0.3
		l-0.3,0.9c-0.3,0-0.7-0.1-1.1-0.1s-0.7-0.1-1.1-0.1H0l0.3-1.2c0.7-0.8,1.4-1.7,2.2-2.8l2.3-3.4l2.3-3.7l2.1-3.5l1.6-3l1.2-2.2
		c0.4-0.8,0.8-1.5,1.2-2.2c0.3-0.6,0.5-1.1,0.5-1.6c0-0.3-0.2-0.6-0.5-0.8c-0.3-0.2-0.7-0.4-1.1-0.5l-1.2-0.3
		c-0.4-0.1-0.7-0.1-0.9-0.1L10.2,249L10.2,249z M48.8,268.6c-0.3,0.8-0.5,1.4-0.6,2.1l-0.2,1.5c0,0.4,0.2,0.7,0.5,0.9
		c0.4,0.1,0.7,0.2,1,0.2c0.4,0,0.8-0.1,1.2-0.3s0.7-0.4,1-0.7c0.3-0.2,0.5-0.5,0.7-0.7c0.2-0.2,0.3-0.3,0.4-0.3
		c0.2,0,0.3,0.1,0.3,0.4c0,0.1,0,0.2-0.1,0.3l-0.3,0.3c-0.1,0.1-0.2,0.2-0.3,0.4c-0.1,0.1-0.2,0.2-0.2,0.3c-0.2,0.3-0.5,0.5-0.9,0.9
		l-1.3,0.9c-0.5,0.3-1,0.5-1.6,0.7c-0.6,0.2-1.1,0.3-1.7,0.3c-0.8,0-1.5-0.1-2.2-0.4c-0.6-0.2-1.2-0.7-1.9-1.3l1.9-4h-0.1l-1.5,1.9
		c-0.6,0.6-1.2,1.3-2,1.9c-0.7,0.6-1.4,1.1-2.2,1.4s-1.4,0.6-2.2,0.6c-0.5,0-0.9-0.1-1.3-0.2c-0.4-0.1-0.8-0.3-1.1-0.6
		c-0.3-0.3-0.6-0.6-0.8-1c-0.2-0.4-0.3-0.8-0.3-1.4c0-1.1,0.2-2.3,0.7-3.3c0.5-1.1,1.1-2.2,1.9-3.1l2.6-2.7c0.9-0.8,1.9-1.5,2.7-2.1
		c0.9-0.6,1.6-1,2.4-1.3s1.2-0.5,1.5-0.5c0.4,0,0.8,0.2,1.3,0.4c0.4,0.3,0.7,0.6,0.9,1H47l0.2-1h4.4L48.8,268.6L48.8,268.6z
		 M38.2,271c0,0.6,0.1,1.1,0.3,1.4c0.2,0.3,0.6,0.5,1.2,0.5c0.8,0,1.5-0.3,2.3-1c0.7-0.7,1.3-1.5,1.9-2.5c0.5-0.9,1-2,1.4-3l0.9-2.6
		c-0.1-0.4-0.2-0.7-0.5-0.9c-0.2-0.2-0.5-0.4-0.8-0.6c-0.3-0.2-0.7-0.3-1-0.3c-0.4-0.1-0.7-0.1-1.1-0.1c-0.5,0.5-1,1.1-1.5,2
		c-0.5,0.8-1,1.5-1.4,2.4l-1.1,2.5C38.4,269.5,38.2,270.3,38.2,271z M65.1,253.5l-2.3,6.5H68l-0.5,1.6h-5l-2.3,6.9l-0.7,2
		c-0.2,0.7-0.4,1.2-0.4,1.7c0,0.3,0.1,0.6,0.4,0.8c0.3,0.2,0.7,0.3,1.1,0.3c0.5,0,1-0.1,1.4-0.3c0.4-0.2,0.8-0.5,1.1-0.7
		c0.3-0.3,0.6-0.5,0.8-0.7s0.4-0.3,0.4-0.3c0.1,0,0.2,0.1,0.2,0.3c0,0.1-0.2,0.4-0.5,0.9c-0.3,0.4-0.8,0.9-1.3,1.4
		c-0.6,0.5-1.3,1-2.1,1.3c-0.8,0.4-1.7,0.6-2.6,0.6c-0.5,0-0.9-0.1-1.3-0.2c-0.4-0.1-0.8-0.3-1.1-0.5c-0.3-0.2-0.6-0.6-0.8-0.9
		c-0.2-0.4-0.3-0.8-0.3-1.3c0-0.4,0.1-0.9,0.3-1.5l0.7-2.2l4.6-14.5L65.1,253.5L65.1,253.5z M81.2,268.6c-0.3,0.8-0.5,1.4-0.6,2.1
		l-0.2,1.5c0,0.4,0.2,0.7,0.5,0.9c0.4,0.1,0.7,0.2,1,0.2c0.4,0,0.8-0.1,1.2-0.3s0.7-0.4,1-0.7c0.3-0.2,0.5-0.5,0.7-0.7
		c0.2-0.2,0.3-0.3,0.4-0.3c0.2,0,0.3,0.1,0.3,0.4c0,0.1,0,0.2-0.1,0.3l-0.3,0.3c-0.1,0.1-0.2,0.2-0.3,0.4c-0.1,0.1-0.2,0.2-0.2,0.3
		c-0.2,0.3-0.5,0.5-0.9,0.9l-1.3,0.9c-0.5,0.3-1,0.5-1.6,0.7c-0.6,0.2-1.1,0.3-1.7,0.3c-0.8,0-1.5-0.1-2.2-0.4
		c-0.6-0.2-1.2-0.7-1.9-1.3l1.9-4h-0.1l-1.5,1.9c-0.6,0.6-1.2,1.3-2,1.9c-0.7,0.6-1.4,1.1-2.2,1.4s-1.4,0.6-2.2,0.6
		c-0.5,0-0.9-0.1-1.3-0.2c-0.4-0.1-0.8-0.3-1.1-0.6s-0.6-0.6-0.8-1c-0.2-0.4-0.3-0.8-0.3-1.4c0-1.1,0.2-2.3,0.7-3.3
		c0.5-1.1,1.1-2.2,1.9-3.1l2.6-2.7c0.9-0.8,1.9-1.5,2.7-2.1c0.9-0.6,1.6-1,2.4-1.3s1.2-0.5,1.5-0.5c0.4,0,0.8,0.2,1.3,0.4
		c0.4,0.3,0.7,0.6,0.9,1h0.1l0.2-1h4.4L81.2,268.6L81.2,268.6z M70.6,271c0,0.6,0.1,1.1,0.3,1.4s0.6,0.5,1.2,0.5
		c0.8,0,1.5-0.3,2.3-1s1.3-1.5,1.9-2.5c0.5-0.9,1-2,1.4-3l0.9-2.6c-0.1-0.4-0.2-0.7-0.5-0.9c-0.2-0.2-0.5-0.4-0.8-0.6
		c-0.3-0.2-0.7-0.3-1-0.3c-0.4-0.1-0.7-0.1-1.1-0.1c-0.5,0.5-1,1.1-1.5,2c-0.5,0.8-1,1.5-1.4,2.4l-1.1,2.5
		C70.8,269.5,70.6,270.3,70.6,271z M104.2,259.3l-1.2,3.9l-1.2,4l-1.2,3.8l-1.1,3.2c-0.5,1.4-1.2,2.8-2.1,4
		c-0.8,1.2-1.6,2.4-2.7,3.4c-1,0.9-2.2,1.7-3.5,2.3c-1.3,0.5-2.8,0.8-4.2,0.8c-0.8,0-1.4-0.1-2.1-0.2c-0.5-0.1-0.9-0.3-1.3-0.5
		c-0.3-0.2-0.5-0.5-0.6-0.9c-0.1-0.4-0.2-0.8-0.2-1.2c0-0.5,0.2-1,0.5-1.4c0.4-0.4,0.8-0.6,1.3-0.6c0.4,0,0.8,0.1,1,0.2
		s0.4,0.2,0.6,0.4c0.1,0.2,0.2,0.3,0.2,0.5c0,0.2,0.1,0.4,0.1,0.6c0,0.6,0.1,1.1,0.3,1.5c0.1,0.4,0.6,0.6,1.2,0.6
		c0.5,0,1.1-0.3,1.6-0.8c0.6-0.6,1.2-1.3,1.6-2.1c0.6-0.9,1.1-1.8,1.5-2.8l1.4-3c0.4-1,0.8-1.9,1.2-2.7l0.9-1.9h-0.1l-1.3,1.7
		c-0.5,0.6-1.1,1.2-1.7,1.7c-0.6,0.5-1.3,0.9-2.1,1.3c-0.7,0.3-1.3,0.5-2.1,0.5c-0.9,0-1.6-0.2-2.3-0.6c-0.6-0.4-0.9-1.2-0.9-2.3
		c0-1.1,0.2-2.3,0.7-3.3c0.4-1.1,1-2.2,1.7-3.1c0.7-1,1.5-1.9,2.4-2.8c0.8-0.8,1.7-1.5,2.6-2.2c0.8-0.6,1.6-1.1,2.3-1.4
		c0.7-0.3,1.2-0.5,1.5-0.5c0.3,0,0.7,0.1,1,0.2c0.3,0.1,0.6,0.2,0.8,0.4c0.2,0.1,0.5,0.3,0.6,0.4c0.2,0.1,0.3,0.2,0.4,0.2
		c0.1,0,0.3,0,0.5-0.1c0.2-0.1,0.5-0.2,0.9-0.3L104.2,259.3L104.2,259.3z M90.9,271.6c0,0.6,0.1,1,0.2,1.3c0.1,0.2,0.4,0.4,0.8,0.4
		c0.6,0,1.1-0.2,1.6-0.5c0.5-0.4,1-0.8,1.4-1.4l1.2-2c0.4-0.7,0.7-1.4,0.9-2.2c0.2-0.7,0.5-1.3,0.7-2.1l0.5-1.5
		c-0.3-0.6-0.7-1.1-1.2-1.4c-0.5-0.3-1.1-0.5-1.7-0.5c-0.3,0-0.7,0.2-1.1,0.5c-0.4,0.4-0.8,0.9-1,1.4l-0.9,2
		c-0.3,0.7-0.5,1.4-0.7,2.2l-0.5,2.1C91.2,269.8,90.9,271.6,90.9,271.6z"/>
	<g>
		<path id="G" class="st1" d="M104,271.6c0-0.9,0.2-1.9,0.5-2.9c0.4-0.9,0.8-1.9,1.4-2.8c0.6-0.9,1.3-1.7,2.2-2.5
			c0.8-0.8,1.6-1.4,2.6-2.1c0.9-0.5,1.7-1,2.7-1.3c0.9-0.3,1.7-0.5,2.5-0.5c0.8,0,1.4,0.2,2,0.6s0.7,1,0.7,2c0,0.6-0.2,1.2-0.5,1.7
			s-0.8,1-1.3,1.4c-0.5,0.4-1.1,0.8-1.9,1.2l-2.1,0.9l-2.1,0.6c-0.6,0.2-1.2,0.3-1.6,0.4c0,0.3-0.1,0.7-0.2,1
			c-0.1,0.4-0.1,0.7-0.1,1c0,1.1,0.3,1.9,0.8,2.3c0.6,0.4,1.3,0.6,2.3,0.6c0.8,0,1.5-0.1,2.2-0.4l1.6-0.9c0.5-0.3,0.8-0.6,1.1-0.9
			c0.3-0.3,0.5-0.4,0.6-0.4c0.1,0,0.1,0.1,0.1,0.3c0,0.1-0.2,0.4-0.7,1c-0.4,0.5-1.1,1-1.9,1.6c-0.8,0.5-1.7,1-2.9,1.5
			c-1.1,0.4-2.3,0.6-3.5,0.6c-0.6,0-1.2-0.1-1.9-0.2c-0.6-0.1-1-0.4-1.4-0.7s-0.7-0.7-1-1.3C104.1,273,104,272.4,104,271.6
			L104,271.6z M114.3,262.4c0-0.3-0.1-0.5-0.3-0.6c-0.2-0.1-0.4-0.2-0.6-0.2c-0.4,0-0.8,0.2-1.2,0.7c-0.4,0.5-0.8,1-1.1,1.6l-0.9,2
			l-0.6,1.4c1.9-0.6,3.2-1.4,3.9-2.3C113.9,264.1,114.3,263.3,114.3,262.4L114.3,262.4z"/>
	</g>
	<path class="st1" d="M123.5,260h4.7l-2.4,6l0.1,0.1l1.1-1.9l1.5-2.2c0.6-0.7,1.2-1.2,1.9-1.7c0.5-0.5,1.2-0.7,2-0.7
		c0.7,0,1.3,0.2,1.7,0.7c0.4,0.5,0.7,1.1,0.7,2c0,0.3-0.1,0.7-0.2,1.1c-0.1,0.4-0.3,0.7-0.5,1.1c-0.2,0.3-0.5,0.6-0.8,0.8
		c-0.3,0.2-0.7,0.3-1,0.3c-0.7,0-1.2-0.2-1.5-0.6c-0.3-0.4-0.4-1-0.4-1.7c-0.1-0.1-0.2-0.1-0.4-0.2h-0.4c-0.5,0-0.9,0.2-1.3,0.7
		c-0.4,0.4-0.8,1-1.2,1.6l-0.9,1.9c-0.3,0.6-0.5,1.1-0.6,1.4l-0.5,1.1l-0.6,1.7l-0.6,2l-0.5,1.7h-4.4L123.5,260L123.5,260z"/>
</g>
<g>
	<path class="st2" d="M141.9,274.5c0.7-0.1,1.3-0.3,1.9-0.4c0.5-0.1,0.9-0.3,1.2-0.5c0.3-0.2,0.5-0.4,0.7-0.6
		c0.1-0.2,0.3-0.5,0.4-0.7l3-9.1l2.9-9.1l0.3-1c0.1-0.3,0.1-0.6,0.1-1c0-0.3-0.2-0.5-0.5-0.8l-1.3-0.6c-0.5-0.2-1-0.3-1.4-0.5
		l-1-0.2l0.3-0.9h19.8l-0.1,2.2v3.9c0,0.6,0.1,1.1,0.1,1.7l-0.7,0.2c-1.5-2.1-2.6-4.3-3-7h-6l-3.5,10.8c0.5,0,1.2,0,2.1-0.1
		c0.8,0,1.4-0.1,2-0.2c0.8-0.1,1.7-0.6,2.6-1.5c0.8-0.9,1.5-2,2.2-3.3l0.8,0.4c-0.8,1.9-1.4,3.7-2.1,5.7l-1.9,5.8l-0.7-0.2v-2.1
		c0-1.2-0.1-2.2-0.4-2.7s-0.7-0.8-1.3-0.8c-0.9-0.1-1.7-0.1-2.2-0.1h-1.3l-2.4,7.2l-0.6,1.7c-0.2,0.5-0.3,1-0.3,1.6
		c0,0.2,0.2,0.5,0.7,0.7c0.4,0.2,1,0.4,1.6,0.6c0.6,0.2,1.2,0.3,2,0.4l1.6,0.2l-0.3,0.9c-1.2-0.1-2.5-0.1-3.7-0.1h-7.5l-3.9,0.1
		V274.5z M175.5,260l-3.3,9.3c-0.2,0.4-0.3,0.9-0.5,1.3c-0.1,0.4-0.2,0.8-0.2,1.1c0,0.5,0.2,0.9,0.5,1.2s0.7,0.4,1.1,0.4
		c0.6,0,1-0.1,1.4-0.3c0.4-0.2,0.7-0.4,1-0.7c0.3-0.2,0.5-0.5,0.6-0.7c0.2-0.2,0.3-0.3,0.4-0.3c0.1,0,0.2,0.1,0.2,0.3
		c0,0.1-0.2,0.3-0.6,0.8l-1.4,1.4c-0.6,0.5-1.3,0.9-2.1,1.3c-0.7,0.4-1.5,0.6-2.3,0.6c-0.4,0-0.8-0.1-1.2-0.2
		c-0.4-0.1-0.8-0.3-1.2-0.5c-0.4-0.2-0.6-0.5-0.9-0.9c-0.3-0.4-0.3-0.8-0.3-1.3c0-0.2,0-0.5,0.1-0.8l0.3-1l0.3-1.1l0.3-1l3-8.8
		L175.5,260L175.5,260z M173.5,252c0-0.4,0.1-0.8,0.2-1.2c0.1-0.4,0.4-0.7,0.6-1c0.3-0.3,0.6-0.5,0.9-0.7c0.4-0.2,0.8-0.3,1.2-0.3
		c0.7,0,1.2,0.2,1.6,0.6c0.4,0.4,0.6,0.9,0.6,1.6c0,0.4-0.1,0.8-0.2,1.2c-0.1,0.4-0.4,0.7-0.6,1c-0.3,0.3-0.6,0.5-0.9,0.7
		c-0.4,0.2-0.8,0.3-1.2,0.3c-0.7,0-1.2-0.2-1.6-0.6C173.7,253.3,173.5,252.7,173.5,252z M182.3,260h4.5l-2.8,7.3h0.1
		c0.4-0.7,1-1.5,1.6-2.5c0.6-0.9,1.2-1.7,2.1-2.6c0.7-0.8,1.5-1.4,2.4-2s1.7-0.8,2.7-0.8c0.8,0,1.5,0.2,2.2,0.7
		c0.6,0.4,0.9,1.1,0.9,2.1c0,0.4-0.2,1.1-0.5,2.2c-0.3,1-0.7,2-1.1,3l-1.1,2.9c-0.3,0.9-0.5,1.4-0.5,1.7c0,0.5,0.1,0.9,0.4,1.1
		c0.3,0.2,0.6,0.3,1.1,0.3c0.4,0,0.7-0.1,1-0.3l0.8-0.5c0.2-0.2,0.5-0.4,0.6-0.5s0.3-0.2,0.5-0.2c0.1,0,0.1,0.1,0.1,0.2
		s-0.2,0.3-0.5,0.7c-0.3,0.4-0.8,0.8-1.3,1.2c-0.6,0.4-1.2,0.8-2.1,1.1c-0.8,0.3-1.5,0.5-2.4,0.5c-0.4,0-0.7,0-1.1-0.1l-1.1-0.3
		c-0.4-0.1-0.6-0.4-0.8-0.7c-0.2-0.3-0.3-0.7-0.3-1.1c0-0.3,0.1-0.7,0.2-1.2l0.6-1.7c0.2-0.6,0.5-1.3,0.8-2.1l0.8-2l0.6-1.6
		c0.2-0.5,0.2-0.8,0.2-1c0-0.8-0.4-1.2-1.1-1.2c-0.5,0-0.9,0.2-1.4,0.5c-0.5,0.4-0.9,0.8-1.4,1.3c-0.4,0.5-0.8,1.1-1.2,1.7l-1,1.5
		c-0.5,0.9-1,2.1-1.5,3.4l-1.4,4h-4.3L182.3,260L182.3,260z M213.3,268.6c-0.3,0.8-0.5,1.4-0.6,2.1l-0.2,1.5c0,0.4,0.2,0.7,0.5,0.9
		c0.4,0.1,0.7,0.2,1,0.2c0.4,0,0.8-0.1,1.2-0.3s0.7-0.4,1-0.7c0.3-0.2,0.5-0.5,0.7-0.7c0.2-0.2,0.3-0.3,0.4-0.3
		c0.2,0,0.3,0.1,0.3,0.4c0,0.1,0,0.2-0.1,0.3l-0.3,0.3c-0.1,0.1-0.2,0.2-0.3,0.4c-0.1,0.1-0.2,0.2-0.2,0.3c-0.2,0.3-0.5,0.5-0.9,0.9
		l-1.3,0.9c-0.5,0.3-1,0.5-1.6,0.7s-1.1,0.3-1.7,0.3c-0.8,0-1.5-0.1-2.2-0.4c-0.6-0.2-1.2-0.7-1.9-1.3l1.9-4h-0.1l-1.5,1.9
		c-0.6,0.6-1.2,1.3-2,1.9c-0.7,0.6-1.4,1.1-2.2,1.4c-0.7,0.3-1.4,0.6-2.2,0.6c-0.5,0-0.9-0.1-1.3-0.2c-0.4-0.1-0.8-0.3-1.1-0.6
		c-0.3-0.3-0.6-0.6-0.8-1c-0.2-0.4-0.3-0.8-0.3-1.4c0-1.1,0.2-2.3,0.7-3.3c0.5-1.1,1.1-2.2,1.9-3.1l2.6-2.7c0.9-0.8,1.9-1.5,2.7-2.1
		c0.9-0.6,1.6-1,2.4-1.3c0.7-0.3,1.2-0.5,1.5-0.5c0.4,0,0.8,0.2,1.3,0.4c0.4,0.3,0.7,0.6,0.9,1h0.1l0.2-1h4.4L213.3,268.6
		L213.3,268.6z M202.7,271c0,0.6,0.1,1.1,0.3,1.4c0.2,0.3,0.6,0.5,1.2,0.5c0.8,0,1.5-0.3,2.3-1c0.7-0.7,1.3-1.5,1.9-2.5
		c0.5-0.9,1-2,1.4-3l0.9-2.6c-0.1-0.4-0.2-0.7-0.5-0.9c-0.2-0.2-0.5-0.4-0.8-0.6c-0.3-0.2-0.7-0.3-1-0.3c-0.4-0.1-0.7-0.1-1.1-0.1
		c-0.5,0.5-1,1.1-1.5,2c-0.5,0.8-1,1.5-1.4,2.4l-1.1,2.5C202.8,269.5,202.7,270.3,202.7,271L202.7,271z M223.1,260h4.5l-2.8,7.3h0.1
		c0.4-0.7,1-1.5,1.6-2.5c0.6-0.9,1.2-1.7,2.1-2.6c0.7-0.8,1.5-1.4,2.4-2c0.8-0.5,1.7-0.8,2.7-0.8c0.8,0,1.5,0.2,2.2,0.7
		c0.6,0.4,0.9,1.1,0.9,2.1c0,0.4-0.2,1.1-0.5,2.2c-0.3,1-0.7,2-1.1,3l-1.1,2.9c-0.3,0.9-0.5,1.4-0.5,1.7c0,0.5,0.1,0.9,0.4,1.1
		c0.3,0.2,0.6,0.3,1.1,0.3c0.4,0,0.7-0.1,1-0.3l0.8-0.5c0.2-0.1,0.5-0.4,0.6-0.5c0.2-0.2,0.3-0.2,0.5-0.2c0.1,0,0.1,0.1,0.1,0.2
		s-0.2,0.3-0.5,0.7c-0.3,0.4-0.8,0.8-1.3,1.2c-0.6,0.4-1.2,0.8-2.1,1.1s-1.5,0.5-2.4,0.5c-0.4,0-0.7,0-1.1-0.1l-1.1-0.3
		c-0.4-0.1-0.6-0.4-0.8-0.7c-0.2-0.3-0.3-0.7-0.3-1.1c0-0.3,0.1-0.7,0.2-1.2l0.6-1.7c0.2-0.6,0.5-1.3,0.8-2.1l0.8-2
		c0.3-0.6,0.4-1.1,0.6-1.6c0.2-0.5,0.2-0.8,0.2-1c0-0.8-0.4-1.2-1.1-1.2c-0.5,0-0.9,0.2-1.4,0.5c-0.5,0.4-0.9,0.8-1.4,1.3
		c-0.4,0.5-0.8,1.1-1.2,1.7l-1,1.5c-0.5,0.9-1,2.1-1.5,3.4l-1.4,4h-4.3L223.1,260L223.1,260z M238.9,271.2c0-0.8,0.1-1.6,0.4-2.6
		c0.3-0.9,0.7-1.7,1.2-2.7c0.5-0.8,1.1-1.6,1.9-2.5c0.7-0.8,1.4-1.4,2.3-2.1s1.6-1,2.5-1.4c0.8-0.3,1.6-0.5,2.5-0.5
		c0.9,0,1.7,0.3,2.3,0.8s0.8,1.3,0.8,2.4c0,0.7-0.2,1.3-0.7,2c-0.4,0.6-1,0.9-1.7,0.9c-0.5,0-1-0.1-1.4-0.4
		c-0.4-0.2-0.6-0.7-0.6-1.3c0-0.4,0.1-0.7,0.2-1c0.1-0.3,0.3-0.6,0.4-1c-0.1-0.2-0.2-0.3-0.5-0.5c-0.3-0.2-0.5-0.3-0.6-0.3
		c-0.2,0-0.5,0.2-0.8,0.5c-0.3,0.4-0.6,0.8-0.9,1.4c-0.3,0.6-0.6,1.2-0.8,2c-0.3,0.7-0.5,1.4-0.7,2.2l-0.5,2.1
		c-0.1,0.6-0.2,1.1-0.2,1.6c0,0.8,0.3,1.4,0.8,1.9c0.6,0.4,1.2,0.6,2,0.6c0.6,0,1.2-0.1,1.7-0.4c0.5-0.3,1-0.6,1.4-1
		c0.2-0.2,0.3-0.4,0.5-0.5c0.2-0.2,0.3-0.3,0.4-0.3c0.2,0,0.3,0.1,0.3,0.4c0,0.2-0.2,0.5-0.6,0.9c-0.4,0.5-0.9,1-1.6,1.4
		c-0.7,0.5-1.4,0.9-2.4,1.3s-1.7,0.6-2.7,0.6c-1.4,0-2.6-0.4-3.4-1.1C239.3,273.9,238.9,272.7,238.9,271.2L238.9,271.2z"/>
	<g>
		<path id="G_1_" class="st2" d="M252.3,271.6c0-0.9,0.2-1.9,0.5-2.9c0.4-0.9,0.8-1.9,1.4-2.8c0.6-0.9,1.3-1.7,2.2-2.5
			c0.8-0.8,1.6-1.4,2.6-2.1c0.9-0.5,1.7-1,2.7-1.3c0.9-0.3,1.7-0.5,2.5-0.5c0.8,0,1.4,0.2,2,0.6s0.7,1,0.7,2c0,0.6-0.2,1.2-0.5,1.7
			c-0.3,0.5-0.8,1-1.3,1.4c-0.5,0.4-1.1,0.8-1.9,1.2l-2.1,0.9l-2.1,0.6c-0.6,0.2-1.2,0.3-1.6,0.4c0,0.3-0.1,0.7-0.2,1
			c-0.1,0.4-0.1,0.7-0.1,1c0,1.1,0.3,1.9,0.8,2.3c0.6,0.4,1.3,0.6,2.3,0.6c0.8,0,1.5-0.1,2.2-0.4l1.6-0.9c0.5-0.3,0.8-0.6,1.1-0.9
			c0.3-0.3,0.5-0.4,0.6-0.4s0.1,0.1,0.1,0.3c0,0.1-0.2,0.4-0.7,1c-0.4,0.5-1.1,1-1.9,1.6c-0.8,0.5-1.7,1-2.9,1.5
			c-1.1,0.4-2.3,0.6-3.5,0.6c-0.6,0-1.2-0.1-1.9-0.2c-0.6-0.1-1-0.4-1.4-0.7c-0.4-0.3-0.7-0.7-1-1.3
			C252.4,273,252.3,272.4,252.3,271.6L252.3,271.6z M262.6,262.4c0-0.3-0.1-0.5-0.3-0.6c-0.2-0.1-0.4-0.2-0.6-0.2
			c-0.4,0-0.8,0.2-1.2,0.7c-0.4,0.5-0.8,1-1.1,1.6l-0.9,2l-0.6,1.4c1.9-0.6,3.2-1.4,3.9-2.3C262.1,264.1,262.6,263.3,262.6,262.4
			L262.6,262.4z"/>
	</g>
</g>
<path class="st1" d="M299.7,259.1h-0.8c0-1.2-0.1-2.5-0.2-3.6c-0.1-1.1-0.4-2.1-0.8-3c-0.4-0.8-0.9-1.5-1.5-2.1
	c-0.6-0.5-1.4-0.7-2.5-0.7c-1.3,0-2.6,0.5-3.8,1.5c-1.2,1-2.3,2.3-3.2,3.9c-0.9,1.6-1.6,3.4-2.2,5.3c-0.5,2-0.8,3.9-0.8,5.9
	c0,0.9,0.1,1.8,0.3,2.7c0.2,0.8,0.5,1.5,1,2.2c0.4,0.6,1,1.1,1.7,1.5c0.7,0.4,1.5,0.5,2.5,0.5c1.1,0,2.1-0.2,2.9-0.6
	s1.6-0.9,2.4-1.5c0.7-0.6,1.3-1.3,2-2.2l2-2.4l0.7,0.7c-1,1.6-2.2,3-3.2,4.1c-1,1.1-2.1,2.1-3.1,2.7c-1,0.7-2.1,1.2-3.2,1.5
	c-1,0.3-2.3,0.5-3.4,0.5c-2.6,0-4.5-0.8-5.9-2.4c-1.4-1.5-2.1-3.8-2.1-6.6c0-2.4,0.5-4.6,1.3-6.9c0.9-2.3,2.2-4.2,3.7-6
	c1.5-1.7,3.4-3.2,5.5-4.2c2.1-1,4.2-1.6,6.5-1.6c1.3,0,2.6,0.1,3.7,0.4c1.1,0.3,2,0.6,2.7,1.1L299.7,259.1L299.7,259.1z M301,272.1
	c0-1.5,0.3-3,1-4.4c0.7-1.4,1.6-2.9,2.8-4c1.1-1.2,2.4-2.2,3.8-2.9c1.4-0.7,2.8-1.1,4.2-1.1c1.3,0,2.5,0.3,3.3,1
	c0.8,0.6,1.2,1.7,1.2,3.3c0,1-0.2,2-0.5,3c-0.4,1-0.8,2-1.4,2.8c-0.6,0.9-1.3,1.7-2.1,2.5l-2.5,2c-0.8,0.5-1.6,1-2.5,1.3
	c-0.8,0.3-1.5,0.4-2.3,0.4c-1.4,0-2.7-0.3-3.6-0.8C301.5,274.3,301,273.4,301,272.1L301,272.1z M312.7,263.7c0-0.3,0-0.6-0.1-0.9
	c0-0.3-0.1-0.6-0.3-0.9c-0.1-0.3-0.3-0.5-0.5-0.7c-0.2-0.2-0.5-0.3-0.8-0.3c-0.4,0-0.8,0.2-1.2,0.6c-0.4,0.4-0.8,0.9-1.2,1.5
	c-0.4,0.6-0.7,1.3-1,2.2l-0.9,2.5l-0.6,2.4l-0.2,1.9c0,0.2,0,0.5,0.1,0.8c0,0.3,0.1,0.6,0.2,0.9c0.1,0.3,0.3,0.5,0.5,0.7
	c0.2,0.2,0.5,0.3,0.8,0.3c0.5,0,0.9-0.2,1.3-0.6c0.4-0.4,0.8-0.9,1.2-1.6c0.4-0.6,0.7-1.4,1-2.3l0.8-2.5l0.5-2.3
	C312.6,264.7,312.7,264,312.7,263.7L312.7,263.7z M321.1,275.5c-0.7,0-1.3-0.2-1.9-0.6c-0.5-0.4-0.7-1-0.7-1.9
	c0-0.5,0.1-0.9,0.2-1.3c0.1-0.4,0.3-0.8,0.5-1.1c0.2-0.3,0.6-0.6,0.9-0.8c0.4-0.2,0.8-0.3,1.2-0.3c0.8,0,1.4,0.2,1.9,0.7
	c0.4,0.5,0.6,1.1,0.6,2c0,0.4-0.1,0.8-0.2,1.2c-0.1,0.4-0.3,0.8-0.6,1.1c-0.2,0.3-0.6,0.6-0.9,0.8
	C321.9,275.4,321.6,275.5,321.1,275.5L321.1,275.5z"/>
</svg>
