<?xml version="1.0" encoding="utf-8"?>
<!-- Generator: Adobe Illustrator 24.1.2, SVG Export Plug-In . SVG Version: 6.00 Build 0)  -->
<svg version="1.1" id="Layer_1" xmlns="http://www.w3.org/2000/svg" xmlns:xlink="http://www.w3.org/1999/xlink" x="0px" y="0px"
	 viewBox="0 0 450 475.1" style="enable-background:new 0 0 450 475.1;" xml:space="preserve">
<style type="text/css">
	.st0{fill:#008033;}
	.st1{fill:#99AA33;}
	.st2{fill:#99AA99;}
	.st3{fill:none;stroke:#666666;stroke-width:3;stroke-miterlimit:10;}
</style>
<g>
	<g>
		<path class="st0" d="M187.7,156.7v-45.2h37.7l-15,45.2H187.7z"/>
		<path class="st1" d="M223.3,131.9H254v-8.5h-27.9L223.3,131.9z M254,144.8v-8.5h-32.1l-2.9,8.5H254z M217.5,149.3l-2.4,7.4H254
			v-7.4H217.5z M254,118.9v-7.4h-23.9l-2.5,7.4H254z"/>
		<path class="st2" d="M220.9,77.2c-31.4,0-56.8,25.4-56.8,56.8s25.4,56.8,56.8,56.8s56.8-25.4,56.8-56.8S252.3,77.2,220.9,77.2
			L220.9,77.2z M220.9,182.9c-26.9,0-48.8-21.8-48.8-48.8s21.8-48.8,48.8-48.8s48.8,21.8,48.8,48.8
			C269.7,161,247.9,182.9,220.9,182.9z"/>
		<path class="st0" d="M220.9,82.7c-28.4,0-51.4,23-51.4,51.4s23,51.4,51.4,51.4s51.4-23,51.4-51.4S249.3,82.7,220.9,82.7
			L220.9,82.7z M220.9,178.2c-24.3,0-44.1-19.8-44.1-44.1S196.6,90,220.9,90s44.1,19.8,44.1,44.1C265,158.5,245.3,178.2,220.9,178.2
			z"/>
	</g>
	<g>
		<path class="st0" d="M26.3,236.7l1.3-3.8h2.8v-23.1h3.8l-0.6,16.3c2-4.5,5.7-9.8,11.5-9.8c5.9,0,8.4,5.2,8.4,9.5
			c0,2-0.6,4.8-2.1,7.2h5.8v3.8H26.3V236.7z M45.2,219.9c-7.1,0-9.9,9.9-11,13h10.1c4.2,0,5.7-3.7,5.7-7.4
			C49.8,223,48.4,219.9,45.2,219.9z"/>
		<path class="st0" d="M55.2,244.9v-4.2h4v4.2H55.2z M70.5,236.7c-3.1,0-5.5-1-7.1-3c-1.4,2-3.8,3-6.8,3h-0.7v-3.8h0.7
			c3,0,4.7-1.7,4.7-4.5v-13.2h4v13.3c0,2.8,2,4.4,5.2,4.4h0.7v3.8H70.5z M61.5,244.9v-4.2h3.8v4.2C65.3,244.9,61.5,244.9,61.5,244.9
			z"/>
		<path class="st0" d="M70.1,236.7v-3.8h7.5v-17.4h3.8v17.4h6.9v-17.6h3.8v17.6h7.5v-17.6h4v17.6h5.4v3.8H70.1z"/>
		<path class="st0" d="M124.4,236.7c-1.8,0-3.5-0.3-5.2-0.8c-1.7,0.6-3.4,0.8-5.2,0.8h-6.2v-3.8h6.9c-2.7-2.4-5-5.9-4.5-9.9
			c0.7-4.2,3.5-7.6,9.1-7.6c5.4,0,8.4,3.4,8.9,7.6c0.6,4-1.7,7.5-4.5,9.9h6.8v3.8H124.4L124.4,236.7z M119.1,218.6
			c-2.5,0-4.7,1.7-5.1,4.2c-0.6,3.8,1.8,6.9,5.1,8.6c3.1-1.8,5.5-5,5-8.6C123.6,220.4,121.7,218.6,119.1,218.6z M114.2,211.2V207
			h3.8v4.2H114.2z M120.2,211.2V207h3.8v4.2H120.2z"/>
		<path class="st0" d="M128.2,211.2V207h4v4.2H128.2z M143.6,236.7c-3.1,0-5.5-1-7.1-3c-1.4,2-3.8,3-6.8,3h-0.4v-3.8h0.4
			c3,0,4.7-1.7,4.7-4.5v-13.2h4v13.3c0,2.8,2,4.4,5.2,4.4h0.4v3.8H143.6z M134.4,211.2V207h4v4.2H134.4z"/>
		<path class="st0" d="M157.5,236.7c-3.1,0-5.5-1-7.1-3c-1.4,2-3.8,3-6.8,3h-0.7v-3.8h0.7c3,0,4.7-1.7,4.7-4.5v-21.5h4v21.7
			c0,2.8,2,4.4,5.2,4.4h0.7v3.8L157.5,236.7L157.5,236.7z"/>
		<g>
			<path id="B" class="st0" d="M156.8,236.7v-3.8c3.7,0,5.5-2,5.5-5.4V207h4v20.7C166.3,233.3,162.6,236.7,156.8,236.7z"/>
		</g>
		<path class="st0" d="M187.2,236.7c-3.5,0-8.5-2.5-8.5-10.3c0-7.5,3.3-11,8.5-11h8.6v17.6h5.4v3.8L187.2,236.7L187.2,236.7z
			 M191.9,218.9h-4.7c-3.7,0-4.5,4.7-4.5,7.5c0,2.7,1.3,6.7,4.5,6.7h4.7V218.9z M185.8,211.2V207h3.8v4.2H185.8z M191.9,211.2V207
			h3.8v4.2H191.9z"/>
		<path class="st0" d="M199.1,244.9v-4.2h4v4.2H199.1z M214.4,236.7c-3.1,0-5.5-1-7.1-3c-1.4,2-3.8,3-6.8,3h-0.7v-3.8h0.7
			c3,0,4.7-1.7,4.7-4.5v-13.2h4v13.3c0,2.8,2,4.4,5.2,4.4h0.7v3.8H214.4z M205.4,244.9v-4.2h3.8v4.2H205.4z"/>
		<path class="st0" d="M228.3,236.7c-3.1,0-5.5-1-7.1-3c-1.4,2-3.8,3-6.8,3h-0.7v-3.8h0.7c3,0,4.7-1.7,4.7-4.5v-13.2h4v13.3
			c0,2.8,2,4.4,5.2,4.4h0.7v3.8H228.3z M219.1,211.2V207h4v4.2H219.1z"/>
		<path class="st0" d="M244.8,236.7h-16.6v-3.8h3v-23.1h3.8l-0.6,16.3c2-4.5,5.7-9.8,11.5-9.8s8.4,5.2,8.4,9.5
			C254.4,229.5,252.4,236.7,244.8,236.7L244.8,236.7z M245.9,219.9c-7.1,0-9.9,9.9-11,13h10.1c4.1,0,5.5-3.7,5.5-7.4
			C250.4,223,249,219.9,245.9,219.9z M275.8,236.7L275.8,236.7c-0.4,5.2-3.8,8.2-8.2,8.2h-0.1v-3.5c2.5-0.1,4.2-2.7,4.2-4.8h-4.5
			c-3.5,0-8.5-2.5-8.5-10.3c0-7.5,3.3-11,8.5-11h8.6v17.6h5.4v3.8h-5.4V236.7z M272,218.9h-4.7c-3.7,0-4.5,4.7-4.5,7.5
			c0,2.7,1.3,6.7,4.5,6.7h4.7V218.9z"/>
		<g>
			<path id="B_1_" class="st0" d="M279.9,236.7v-3.8c3.7,0,5.5-2,5.5-5.4V207h4v20.7C289.4,233.3,285.7,236.7,279.9,236.7z"/>
		</g>
		<path class="st0" d="M293.8,236.7V207h4v29.7H293.8z M318.6,236.7c-3.5,0-8.5-2.5-8.5-10.3c0-7.5,3.3-11,8.5-11h8.6v17.6h5.4v3.8
			L318.6,236.7L318.6,236.7z M323.4,218.9h-4.7c-3.7,0-4.5,4.7-4.5,7.5c0,2.7,1.3,6.7,4.5,6.7h4.7V218.9z M317.1,211.2V207h3.8v4.2
			H317.1z M323.2,211.2V207h3.8v4.2H323.2z"/>
		<path class="st0" d="M331,236.7v-3.8h18.6v-6.8c0-3.4-1.8-5-5.4-5h-11.9v-6.8c0-4.5,3.4-7.4,8.5-7.4h8.1v3.8h-8.1
			c-2.8,0-4.7,1.6-4.7,3.7v2.7h8.2c5.7,0,9.1,3.1,9.1,8.6v10.8H331V236.7z M368.6,236.7c-2.1,0-3.8-0.6-5.2-1.4v0.3
			c0,5-3.1,9.5-8.4,9.3v-3.5c1.6-0.1,3.1-1.3,3.8-3c0.7-1.8,0.7-4.1,0.7-5.4v-17.8h4v13.5c0,2.7,2.1,4.1,5.2,4.1h0.4v3.8h-0.6V236.7
			z"/>
		<path class="st0" d="M368.1,236.7v-3.8h7.5v-17.4h3.8v17.4h6.9v-17.6h3.8v17.6h7.4v-17.6h4v17.6h5.4v3.8H368.1z M383.7,211.2V207
			h4v4.2H383.7z M386.8,205.1v-4.2h3.8v4.2H386.8z M390,211.2V207h4v4.2H390z"/>
		<g>
			<path id="B_2_" class="st0" d="M405.7,236.7v-3.8c3.7,0,5.5-2,5.5-5.4V207h4v20.7C415.2,233.3,411.5,236.7,405.7,236.7z"/>
		</g>
		<path class="st0" d="M419.7,236.7V207h4v29.7H419.7z M167.6,305.4v-2h5v-4.1c0-2.5-0.4-3.3-1.8-3.3l0.3-1.8c1.4,0,2.5,0.7,3.1,1.8
			c0.3,0.6,0.4,1,0.4,2.3v5.1h3v2L167.6,305.4L167.6,305.4z"/>
		<path class="st0" d="M176.8,305.4v-2h4v2H176.8z"/>
		<path class="st0" d="M180.2,305.4v-2h4v2H180.2z"/>
		<path class="st0" d="M183.6,305.4v-2h4v2H183.6z"/>
		<path class="st0" d="M186.5,309.7v-2.1h2v2.1H186.5z M194.3,305.4c-1.6,0-2.8-0.6-3.5-1.6c-0.7,1-2,1.6-3.5,1.6H187v-2h0.3
			c1.6,0,2.4-0.8,2.4-2.3v-6.8h2v6.8c0,1.4,1,2.3,2.7,2.3h0.3v2H194.3L194.3,305.4z M189.7,309.7v-2.1h2v2.1H189.7z"/>
		<path class="st0" d="M204,305.4c-0.8,0-1.5-0.1-2.3-0.4c-0.7,0.3-1.5,0.4-2.3,0.4H194v-2h5.4l-3.7-3.4c0-3.1,2.3-5.8,5.9-5.8
			c3.8,0,6.1,2.7,6.1,5.8l-3.7,3.4h5.4v2H204L204,305.4z M201.7,296.1L201.7,296.1c-2.4,0-3.8,1.7-3.8,3.5l3.8,3.5l3.8-3.5
			C205.5,297.9,204,296.2,201.7,296.1z"/>
		<path class="st0" d="M216.1,305.4c-1.6,0-2.8-0.6-3.5-1.6c-0.7,1-2,1.6-3.5,1.6h-0.3v-2h0.3c1.6,0,2.4-0.8,2.4-2.3v-6.8h2v6.8
			c0,1.4,1,2.3,2.7,2.3h0.1v2H216.1L216.1,305.4z M211.5,309.7v-2.1h2v2.1H211.5z"/>
		<path class="st0" d="M215.9,305.4v-2c1.8,0,2.8-1,2.8-2.8v-10.5h2v10.6C220.7,303.7,218.7,305.4,215.9,305.4z M222.9,305.4v-15.3
			h2v15.3H222.9z M240.2,305.4c-0.1,0,0.6,0-4.2,0c-3,0-4.7-1.7-4.7-4.7v-6.4h2v6.2c0,1.7,0.7,2.8,2.5,2.8h4.4
			c1.8,0,2.7-1.1,2.7-2.8v-6.2h2v6.4C244.8,303.7,243.1,305.4,240.2,305.4L240.2,305.4z M237.1,309.7v-2.1h2v2.1H237.1z
			 M252.8,305.4c-1,0-2-0.3-2.7-0.7v0.1c0,2.5-1.6,4.8-4.2,4.8v-1.8c0.7,0,1.6-0.6,2-1.6c0.4-0.8,0.3-2.1,0.3-2.7v-9.2h2v6.9
			c0,1.4,1,2.1,2.7,2.1h0.3v2H252.8L252.8,305.4z"/>
		<path class="st0" d="M260.9,305.4c-0.9,0-1.8-0.1-2.7-0.4c-0.8,0.3-1.7,0.4-2.7,0.4h-3.1v-2h3.5c-1.4-1.3-2.5-3.1-2.3-5.1
			c0.3-2.3,1.8-4,4.7-4c2.8,0,4.2,1.7,4.5,4c0.3,2-0.8,3.8-2.3,5.1h3.5v2H260.9z M258.2,296.2c-1.3,0-2.4,0.8-2.5,2.3
			c-0.3,2,1,3.5,2.5,4.4c1.6-1,2.8-2.5,2.5-4.4C260.6,297.1,259.5,296.2,258.2,296.2z M255.7,292.4v-2.1h2v2.1H255.7z M258.9,292.4
			v-2.1h2v2.1H258.9z"/>
		<path class="st0" d="M263.3,305.4v-2h4v2H263.3z"/>
		<path class="st0" d="M266.7,305.4v-2h4v2H266.7z"/>
		<path class="st0" d="M270.1,305.4v-2h4v2H270.1z"/>
		<path class="st0" d="M273.4,305.4v-2h4v2H273.4z"/>
		<path class="st0" d="M277.8,305.4h-1.1v-2h1.1c1.8,0,2.7-1,2.7-2.8v-6.2h2v6.4C282.4,303.7,280.6,305.4,277.8,305.4L277.8,305.4z
			 M280.3,292.4v-2.1h2v2.1H280.3z M25.6,277.4V256h3l6.8,10.8l3.8,6.9c-0.3-2.8-0.3-5.5-0.3-8.8V256h2.7v21.4h-2.8L32,266.5
			c-1.6-2.4-3-4.8-4-7.1h-0.1l0.3,8.8v9.1h-2.5L25.6,277.4z"/>
		<g>
			<path id="C" class="st0" d="M54.9,277.4l-0.3-2h-0.1c-0.8,1.3-2.5,2.3-4.7,2.3c-3.1,0-4.7-2.1-4.7-4.4c0-3.7,3.3-5.8,9.2-5.7
				v-0.3c0-1.3-0.3-3.5-3.5-3.5c-1.4,0-3,0.4-4,1.1l-0.6-1.8c1.3-0.8,3.1-1.4,5.1-1.4c4.7,0,5.8,3.3,5.8,6.2v5.8
				c0,1.3,0,2.7,0.3,3.7L54.9,277.4L54.9,277.4z M54.5,269.6c-3,0-6.5,0.4-6.5,3.4c0,1.8,1.1,2.7,2.7,2.7c2,0,3.3-1.3,3.7-2.5
				c0.1-0.3,0.1-0.6,0.1-0.8V269.6L54.5,269.6z"/>
		</g>
		<g>
			<path id="D" class="st0" d="M64.9,257.7v4.4h4v2.1h-4v8.2c0,1.8,0.6,3,2.1,3c0.7,0,1.3-0.1,1.6-0.1l0.1,2.1
				c-0.6,0.3-1.4,0.4-2.4,0.4c-1.3,0-2.4-0.4-3-1.1c-0.8-0.8-1.1-2.1-1.1-4v-8.4h-2.4v-2.1h2.4v-3.7L64.9,257.7L64.9,257.7z"/>
		</g>
		<path class="st0" d="M75.1,257.7c0,1-0.7,1.7-1.8,1.7c-1,0-1.7-0.7-1.7-1.7s0.7-1.7,1.7-1.7C74.5,256,75.1,256.7,75.1,257.7z
			 M72.1,277.4v-15.3h2.8v15.3H72.1z"/>
		<g>
			<path id="E" class="st0" d="M93.3,269.6c0,5.7-4,8.2-7.6,8.2c-4.1,0-7.4-3-7.4-7.9c0-5.1,3.4-8.2,7.6-8.2
				C90.4,261.7,93.3,264.9,93.3,269.6z M81.1,269.7c0,3.4,2,5.9,4.7,5.9c2.7,0,4.7-2.5,4.7-5.9c0-2.5-1.3-5.9-4.5-5.9
				C82.7,263.8,81.1,266.8,81.1,269.7z"/>
		</g>
		<g>
			<path id="F" class="st0" d="M96.9,266.2l-0.1-4.1h2.4l0.1,2.5c0.7-1.4,2.5-2.8,5.1-2.8c2.1,0,5.4,1.3,5.4,6.5v9.2h-2.8v-8.9
				c0-2.4-0.8-4.5-3.5-4.5c-1.8,0-3.3,1.3-3.7,2.8c-0.1,0.3-0.1,0.8-0.1,1.3v9.2h-2.8v-11.2H96.9z"/>
		</g>
		<g>
			<path id="C_1_" class="st0" d="M122.9,277.4l-0.3-2h-0.1c-0.8,1.3-2.5,2.3-4.7,2.3c-3.1,0-4.7-2.1-4.7-4.4c0-3.7,3.3-5.8,9.2-5.7
				v-0.3c0-1.3-0.3-3.5-3.5-3.5c-1.4,0-3,0.4-4,1.1l-0.6-1.8c1.3-0.8,3.1-1.4,5.1-1.4c4.7,0,5.8,3.3,5.8,6.2v5.8
				c0,1.3,0,2.7,0.3,3.7L122.9,277.4L122.9,277.4z M122.5,269.6c-3,0-6.5,0.4-6.5,3.4c0,1.8,1.1,2.7,2.7,2.7c2,0,3.3-1.3,3.7-2.5
				c0.1-0.3,0.1-0.6,0.1-0.8V269.6L122.5,269.6z"/>
		</g>
		<path class="st0" d="M129.7,254.9h2.8v22.5h-2.8V254.9z M146.7,256v21.4H144V256H146.7z"/>
		<g>
			<path id="F_1_" class="st0" d="M151.8,266.2l-0.1-4.1h2.4l0.1,2.5c0.7-1.4,2.5-2.8,5.1-2.8c2.1,0,5.4,1.3,5.4,6.5v9.2h-2.8v-8.9
				c0-2.4-0.8-4.5-3.5-4.5c-1.8,0-3.3,1.3-3.7,2.8c-0.1,0.3-0.1,0.8-0.1,1.3v9.2h-2.8v-11.2H151.8z"/>
		</g>
		<path class="st0" d="M169,274.6c0.8,0.6,2.3,1.1,3.7,1.1c2,0,3-1,3-2.3s-0.8-2.1-2.8-2.8c-2.7-1-4.1-2.5-4.1-4.4
			c0-2.4,2-4.5,5.2-4.5c1.6,0,3,0.4,3.8,1l-0.7,2c-0.6-0.4-1.7-0.8-3.1-0.8c-1.7,0-2.5,1-2.5,2.1c0,1.3,0.8,1.8,3,2.5
			c2.7,1,4,2.4,4,4.7c0,2.7-2.1,4.5-5.7,4.5c-1.7,0-3.3-0.4-4.2-1L169,274.6L169,274.6z"/>
		<g>
			<path id="D_1_" class="st0" d="M185.3,257.7v4.4h4v2.1h-4v8.2c0,1.8,0.6,3,2.1,3c0.7,0,1.3-0.1,1.6-0.1l0.1,2.1
				c-0.6,0.3-1.4,0.4-2.4,0.4c-1.3,0-2.4-0.4-3-1.1c-0.8-0.8-1.1-2.1-1.1-4v-8.4h-2.4v-2.1h2.4v-3.7L185.3,257.7L185.3,257.7z"/>
		</g>
		<g>
			<path id="C_2_" class="st0" d="M200.8,277.4l-0.3-2h-0.1c-0.8,1.3-2.5,2.3-4.7,2.3c-3.1,0-4.7-2.1-4.7-4.4c0-3.7,3.3-5.8,9.2-5.7
				v-0.3c0-1.3-0.3-3.5-3.5-3.5c-1.4,0-3,0.4-4,1.1l-0.6-1.8c1.3-0.8,3.1-1.4,5.1-1.4c4.7,0,5.8,3.3,5.8,6.2v5.8
				c0,1.3,0,2.7,0.3,3.7L200.8,277.4L200.8,277.4z M200.4,269.6c-3,0-6.5,0.4-6.5,3.4c0,1.8,1.1,2.7,2.7,2.7c2,0,3.3-1.3,3.7-2.5
				c0.1-0.3,0.1-0.6,0.1-0.8V269.6L200.4,269.6z"/>
		</g>
		<path class="st0" d="M207.6,254.9h2.8v22.5h-2.8V254.9z M215.2,254.9h2.8v22.5h-2.8V254.9z M222.7,266.2l-0.1-4.1h2.4l0.1,2.4h0.1
			c0.8-1.4,2.3-2.8,4.8-2.8c2.1,0,3.7,1.3,4.4,3.1l0,0c0.4-0.8,1.1-1.6,1.7-2c0.8-0.7,2-1.1,3.4-1.1c2,0,5.1,1.3,5.1,6.7v9.1h-2.7
			v-8.6c0-3-1.1-4.7-3.3-4.7c-1.6,0-2.8,1.1-3.3,2.5c-0.1,0.4-0.3,0.8-0.3,1.4v9.5h-2.7v-9.2c0-2.4-1.1-4.2-3.3-4.2
			c-1.7,0-3,1.4-3.4,2.8c-0.1,0.4-0.3,0.8-0.3,1.4v9.2h-2.7v-11.3L222.7,266.2z M250.6,270.2c0,3.8,2.4,5.4,5.2,5.4
			c2,0,3.3-0.3,4.2-0.8l0.4,2c-1,0.4-2.7,1-5.1,1c-4.7,0-7.5-3.1-7.5-7.8s2.7-8.2,7.2-8.2c5,0,6.4,4.4,6.4,7.2c0,0.6,0,1-0.1,1.3
			L250.6,270.2L250.6,270.2z M258.8,268.2c0-1.8-0.7-4.5-3.8-4.5c-2.8,0-4.1,2.5-4.2,4.5H258.8z"/>
		<g>
			<path id="F_2_" class="st0" d="M264.9,266.2l-0.1-4.1h2.4l0.1,2.5c0.7-1.4,2.5-2.8,5.1-2.8c2.1,0,5.4,1.3,5.4,6.5v9.2h-2.8v-8.9
				c0-2.4-0.8-4.5-3.5-4.5c-1.8,0-3.3,1.3-3.7,2.8c-0.1,0.3-0.1,0.8-0.1,1.3v9.2h-2.8v-11.2H264.9z"/>
		</g>
		<g>
			<path id="D_2_" class="st0" d="M285.7,257.7v4.4h4v2.1h-4v8.2c0,1.8,0.6,3,2.1,3c0.7,0,1.3-0.1,1.6-0.1l0.1,2.1
				c-0.6,0.3-1.4,0.4-2.4,0.4c-1.3,0-2.4-0.4-3-1.1c-0.8-0.8-1.1-2.1-1.1-4v-8.4h-2.4v-2.1h2.4v-3.7L285.7,257.7L285.7,257.7z"/>
		</g>
		<path class="st0" d="M314.6,276.7c-1,0.6-3,1-5.7,1c-5.9,0-10.5-3.8-10.5-10.8c0-6.7,4.5-11.2,11.2-11.2c2.7,0,4.4,0.6,5.1,1
			L314,259c-1-0.6-2.5-0.8-4.2-0.8c-5,0-8.4,3.3-8.4,8.8c0,5.2,3,8.6,8.2,8.6c1.7,0,3.4-0.3,4.5-0.8L314.6,276.7L314.6,276.7z"/>
		<g>
			<path id="E_1_" class="st0" d="M331.5,269.6c0,5.7-4,8.2-7.6,8.2c-4.1,0-7.4-3-7.4-7.9c0-5.1,3.4-8.2,7.6-8.2
				C328.5,261.7,331.5,264.9,331.5,269.6z M319.3,269.7c0,3.4,2,5.9,4.7,5.9c2.7,0,4.7-2.5,4.7-5.9c0-2.5-1.3-5.9-4.5-5.9
				S319.3,266.8,319.3,269.7z"/>
		</g>
		<path class="st0" d="M335,266.2l-0.1-4.1h2.4l0.1,2.4h0.1c0.8-1.4,2.3-2.8,4.8-2.8c2.1,0,3.7,1.3,4.4,3.1l0,0
			c0.4-0.8,1.1-1.6,1.7-2c0.8-0.7,2-1.1,3.4-1.1c2,0,5.1,1.3,5.1,6.7v9.1h-2.7v-8.6c0-3-1.1-4.7-3.3-4.7c-1.6,0-2.8,1.1-3.3,2.5
			c-0.1,0.4-0.3,0.8-0.3,1.4v9.5h-2.7v-9.2c0-2.4-1.1-4.2-3.3-4.2c-1.7,0-3,1.4-3.4,2.8c-0.1,0.4-0.3,0.8-0.3,1.4v9.2h-2.7v-11.3
			L335,266.2z M361.5,267l-0.1-5h2.5l0.1,2.7c1.1-1.8,3-3,5.4-3c3.7,0,6.5,3.1,6.5,7.8c0,5.5-3.4,8.2-6.9,8.2c-2,0-3.8-0.8-4.7-2.4
			l0,0v8.4h-2.7V267H361.5z M364.2,271.2c0,0.4,0,0.8,0.1,1.1c0.6,2,2.1,3.3,4.2,3.3c3,0,4.7-2.4,4.7-5.9c0-3.1-1.6-5.7-4.5-5.7
			c-1.8,0-3.7,1.4-4.2,3.4c-0.1,0.3-0.1,0.7-0.1,1.1v2.7H364.2z M388,277.4l-0.3-2h-0.1c-0.8,1.3-2.5,2.3-4.7,2.3
			c-3.1,0-4.7-2.1-4.7-4.4c0-3.7,3.3-5.8,9.2-5.7v-0.3c0-1.3-0.3-3.5-3.5-3.5c-1.4,0-3,0.4-4,1.1l-0.6-1.8c1.3-0.8,3.1-1.4,5.1-1.4
			c4.7,0,5.8,3.3,5.8,6.2v5.8c0,1.3,0,2.7,0.3,3.7L388,277.4L388,277.4z M387.5,269.6c-3,0-6.5,0.4-6.5,3.4c0,1.8,1.3,2.7,2.7,2.7
			c2,0,3.3-1.3,3.7-2.5c0.1-0.3,0.1-0.6,0.1-0.8V269.6L387.5,269.6z"/>
		<g>
			<path id="F_3_" class="st0" d="M394.8,266.2l-0.1-4.1h2.4l0.1,2.5c0.7-1.4,2.5-2.8,5.1-2.8c2.1,0,5.4,1.3,5.4,6.5v9.2h-2.8v-8.9
				c0-2.4-0.8-4.5-3.5-4.5c-1.8,0-3.3,1.3-3.7,2.8c-0.1,0.3-0.1,0.8-0.1,1.3v9.2h-2.8v-11.2H394.8z"/>
		</g>
		<path class="st0" d="M412.9,262.1l3.4,9.1l1,3.1l1-3.3l3-9.1h3l-4.2,10.9c-2,5.2-3.4,7.9-5.2,9.6c-1.4,1.3-2.7,1.7-3.4,1.8
			l-0.7-2.4c0.7-0.3,1.6-0.7,2.4-1.4c0.7-0.6,1.7-1.7,2.4-3.1c0.1-0.3,0.3-0.6,0.3-0.7s0-0.4-0.1-0.7l-5.7-14.2h3L412.9,262.1z"/>
		<path class="st3" d="M25.2,300.5h129.2 M295.5,300.5h129.3"/>
	</g>
</g>
</svg>
