<?xml version="1.0" encoding="utf-8"?>
<!-- Generator: Adobe Illustrator 24.1.2, SVG Export Plug-In . SVG Version: 6.00 Build 0)  -->
<svg version="1.1" id="Layer_1" xmlns="http://www.w3.org/2000/svg" xmlns:xlink="http://www.w3.org/1999/xlink" x="0px" y="0px"
	 viewBox="0 0 450 475.1" style="enable-background:new 0 0 450 475.1;" xml:space="preserve">
<style type="text/css">
	.st0{fill:#1C5AA7;}
	.st1{fill:url(#SVGID_1_);}
	.st2{fill:url(#SVGID_2_);}
	.st3{fill:url(#SVGID_3_);}
	.st4{fill:url(#SVGID_4_);}
	.st5{fill:url(#SVGID_5_);}
	.st6{fill:url(#SVGID_6_);}
	.st7{fill:url(#SVGID_7_);}
	.st8{fill:url(#SVGID_8_);}
	.st9{fill:url(#SVGID_9_);}
	.st10{fill:url(#SVGID_10_);}
	.st11{fill:url(#SVGID_11_);}
	.st12{fill:url(#SVGID_12_);}
	.st13{fill:url(#SVGID_13_);}
	.st14{fill:url(#SVGID_14_);}
	.st15{fill:url(#SVGID_15_);}
	.st16{fill:url(#SVGID_16_);}
	.st17{fill:url(#SVGID_17_);}
	.st18{fill:url(#SVGID_18_);}
	.st19{fill:url(#SVGID_19_);}
	.st20{fill:url(#SVGID_20_);}
	.st21{fill:url(#SVGID_21_);}
	.st22{fill:url(#SVGID_22_);}
	.st23{fill:url(#SVGID_23_);}
	.st24{fill:url(#SVGID_24_);}
	.st25{fill:url(#SVGID_25_);}
	.st26{fill:url(#SVGID_26_);}
	.st27{fill:url(#SVGID_27_);}
	.st28{fill:url(#SVGID_28_);}
	.st29{fill:url(#SVGID_29_);}
</style>
<g>
	<path class="st0" d="M1767.3,119.4l0.6-0.9l-3.6-2.5l-4.4,6.4l1,0.1C1763.4,122.6,1765.8,121.4,1767.3,119.4 M1783.9,121.9l-1,1.4
		l-1.8,2.7c-2.9,4.3-6.1,4.7-10,2l-3.2-2.2l-3.1-2.1c-2.4,1.5-6.4,1-6.4,1l10.3,7c6.5,4.5,11.6,3.4,15.4-2.1l11-16.1l-3.6-2.5
		L1783.9,121.9L1783.9,121.9z"/>
	<path class="st0" d="M1796.6,103.6l-0.6,0.9l3.6,2.5l4.4-6.4l-1-0.1C1800.5,100.5,1798.1,101.6,1796.6,103.6 M1780,101.1l1-1.4
		l1.8-2.7c2.9-4.3,6.1-4.7,10-2l3.2,2.2l3.1,2.1c2.4-1.5,6.4-1,6.4-1l-10.3-7c-6.5-4.5-11.6-3.4-15.4,2.1l-11,16.1l3.6,2.5
		L1780,101.1L1780,101.1z M1591.1,133.6v-8.9c0-3.5-1.8-5.4-5.9-5.4h-2.7c-1.1,0-1.9-0.2-2.1-0.8c-0.4,1.7,0.4,2.4,1.7,2.4h3.1
		c2.4,0,3.7,1.1,3.7,3.7v1.7l-5.5,0.5c-4,0.4-5.6,2.1-5.6,5c0,3.3,2,5,5.2,5c1.4,0,2.7-0.1,3.8-0.3c1.8-0.3,1.2-2.3,1.2-2.3
		c-0.1,0.4-0.8,0.6-0.8,0.6c-1.3,0.3-2.6,0.5-4.2,0.5c-1.8,0-3-1.4-3-3.5c0-2,0.9-3.3,3.5-3.5l5.3-0.4v6.3c0,1.9,0.9,3,3.3,2.4
		C1591.3,136.3,1591.1,135.2,1591.1,133.6 M1622.6,133.6v-8.9c0-3.5-1.8-5.4-5.9-5.4h-2.7c-1.1,0-1.9-0.2-2.1-0.8
		c-0.4,1.7,0.4,2.4,1.7,2.4h3.1c2.4,0,3.7,1.1,3.7,3.7v1.7l-5.5,0.5c-4,0.4-5.6,2.1-5.6,5c0,3.3,2,5,5.2,5c1.4,0,2.7-0.1,3.8-0.3
		c1.8-0.3,1.2-2.3,1.2-2.3c0,0.4-0.7,0.6-0.7,0.6c-1.3,0.3-2.7,0.5-4.2,0.5c-1.8,0-3-1.4-3-3.5c0-2,0.9-3.3,3.5-3.5l5.3-0.4v6.3
		c0,1.9,0.9,3,3.3,2.4C1622.8,136.3,1622.6,135.2,1622.6,133.6 M1578.1,118.5c-0.2,0.6-1,0.8-2.1,0.8h-2.7c-4.1,0-5.9,1.9-5.9,5.4
		v8.9c0,1.6-0.3,2.7-1.1,3c2.4,0.6,3.4-0.5,3.4-2.4v-9.6c0-2.7,1.2-3.7,3.7-3.7h3.1C1577.7,120.9,1578.5,120.2,1578.1,118.5
		 M1605.3,121.9v12.5c-1.1,0.4-3,0.8-4.9,0.8c-3.7,0-4.5-2-4.5-6.9V122c0-1.9-1-3-3.4-2.4c0.8,0.3,1.1,1.4,1.1,3v5.7
		c0,5.7,1.3,8.4,6.8,8.4c1.9,0,3.7-0.5,4.9-0.8l0,0v1.4c0,2.7-1.2,3.7-3.7,3.7h-3.1c-1.3,0-2.1,0.7-1.7,2.4c0.2-0.6,1-0.8,2.1-0.8
		h2.7c4.1,0,5.9-1.9,5.9-5.4v-14.6c0-1.6,0.3-2.7,1.1-3C1606.2,119,1605.3,120,1605.3,121.9 M1678.3,133.6v-9c0-3.5-1.8-5.4-5.9-5.4
		h-2.7c-1.1,0-1.9-0.2-2.1-0.8c-0.4,1.7,0.4,2.4,1.7,2.4h3.1c2.4,0,3.7,1.1,3.7,3.7v1.7l-5.5,0.5c-4,0.4-5.6,2.1-5.6,5
		c0,3.3,2,5,5.2,5c1.4,0,2.7-0.1,3.8-0.3c1.8-0.3,1.2-2.3,1.2-2.3c-0.1,0.4-0.7,0.6-0.7,0.6c-1.3,0.3-2.6,0.5-4.2,0.5
		c-1.8,0-3-1.4-3-3.5c0-2,0.9-3.3,3.5-3.5l5.3-0.4v6.3c0,1.9,0.9,3,3.3,2.4C1678.5,136.3,1678.3,135.2,1678.3,133.6 M1640,113.9
		h-2.7c-4.1,0-5.9,1.9-5.9,5.4v14.5c0,1.6-0.3,2.7-1.1,3c2.4,0.6,3.3-0.5,3.3-2.4v-7.9h6.1c1.3,0,2.1-0.7,1.7-2.4
		c-0.2,0.6-1,0.8-2.1,0.8h-5.7v-5.5c0-2.7,1.2-3.7,3.7-3.7h3c1.3,0,2.1-0.7,1.7-2.4C1641.9,113.7,1641.2,113.9,1640,113.9
		 M1645.8,117.4c0.7,0,1.3-0.6,1.3-1.3s-0.6-1.3-1.3-1.3s-1.3,0.6-1.3,1.3S1645,117.4,1645.8,117.4 M1646.9,133.9v-12
		c0-1.9-0.9-3-3.3-2.4c0.8,0.3,1.1,1.4,1.1,3v12c0,1.9,0.9,3,3.3,2.4C1647.1,136.6,1646.9,135.5,1646.9,133.9"/>
	<g>
		<path id="e" class="st0" d="M1662.9,133.6v-8.9c0-3.5-1.8-5.4-5.9-5.4h-7.1c-0.3,0-0.5,0.1-0.8,0.1c0.8,0.3,1.1,1.4,1.1,3v12
			c0,1.9,0.9,3,3.3,2.4c-0.8-0.3-1.1-1.4-1.1-3v-12c0-0.4,0-0.7-0.1-1h4.7c2.4,0,3.7,1.1,3.7,3.7v9.5c0,1.9,0.9,3,3.3,2.4
			C1663.2,136.3,1662.9,135.2,1662.9,133.6"/>
	</g>
	<path class="st0" d="M1710.9,117.4c0.7,0,1.3-0.6,1.3-1.3s-0.6-1.3-1.3-1.3s-1.3,0.6-1.3,1.3S1710.2,117.4,1710.9,117.4
		 M1712,133.9v-12c0-1.9-0.9-3-3.3-2.4c0.8,0.3,1.1,1.4,1.1,3v12c0,1.9,0.9,3,3.3,2.4C1712.3,136.6,1712,135.5,1712,133.9
		 M1728,133.6v-8.8c0-3.5-1.8-5.4-5.9-5.4h-7.2c-0.3,0-0.5,0.1-0.8,0.1c0.8,0.3,1.1,1.4,1.1,3v12c0,1.9,0.9,3,3.3,2.4
		c-0.8-0.3-1.1-1.4-1.1-3v-12c0-0.4,0-0.7-0.1-1h4.7c2.4,0,3.7,1.1,3.7,3.7v9.5c0,1.9,0.9,3,3.4,2.4
		C1728.2,136.3,1728,135.2,1728,133.6"/>
	<g>
		<path id="e_1_" class="st0" d="M1693.8,133.6v-8.9c0-3.5-1.8-5.4-5.9-5.4h-7.1c-0.3,0-0.5,0.1-0.8,0.1c0.8,0.3,1.1,1.4,1.1,3v12
			c0,1.9,0.9,3,3.3,2.4c-0.8-0.3-1.1-1.4-1.1-3v-12c0-0.4,0-0.7-0.1-1h4.7c2.4,0,3.7,1.1,3.7,3.7v9.5c0,1.9,0.9,3,3.3,2.4
			C1694.1,136.3,1693.8,135.2,1693.8,133.6"/>
	</g>
	<path class="st0" d="M1702.1,120.9h3.1c1.3,0,2.1-0.7,1.7-2.4c-0.2,0.6-1,0.8-2.1,0.8h-2.7c-4.1,0-5.9,1.9-5.9,5.4v6.5
		c0,3.5,1.8,5.4,5.9,5.4h2.7c1.1,0,1.9,0.2,2.1,0.8c0.4-1.7-0.4-2.4-1.7-2.4h-3.1c-2.4,0-3.7-1.1-3.7-3.7v-6.6
		C1698.4,122,1699.6,120.9,1702.1,120.9 M1741.6,134.4c-1.1,0.4-3,0.8-4.9,0.8c-3.7,0-4.5-2-4.5-6.9v-3.7c0-2.7,1.2-3.7,3.7-3.7h5.8
		c-0.1,0.3-0.1,0.6-0.1,1V134.4L1741.6,134.4z M1744.9,119.5c-0.3-0.1-0.6-0.1-0.8-0.1l0,0h-8.3c-4.1,0-5.9,1.9-5.9,5.4l-0.1,3.7
		c0,5.7,1.3,8.4,6.8,8.4c1.9,0,3.8-0.5,4.9-0.8l0,0v1.4c0,2.7-1.2,3.7-3.7,3.7h-3.1c-1.3,0-2.1,0.7-1.7,2.4c0.2-0.6,1-0.8,2.1-0.8
		h2.7c4.1,0,5.9-1.9,5.9-5.4V134l0.2-13.6C1744.3,119.9,1744.5,119.6,1744.9,119.5 M1727.6,82.4v19c0,1.8-0.3,3-1.3,3.4
		c2.8,0.6,3.8-0.6,3.8-2.7V83c0-1.8,0.3-3,1.3-3.4C1728.6,79,1727.6,80.3,1727.6,82.4 M1741.1,88v10.8c0,3-1.4,4.2-4.1,4.2h-1.6
		c-1.5,0-2.4,0.7-1.9,2.7c0.2-0.7,1.1-0.9,2.4-0.9h1.2c4.6,0,6.7-2.1,6.7-6.1V88.6c0-1.8,0.3-3,1.3-3.4
		C1742.2,84.6,1741.1,85.8,1741.1,88"/>
	<path class="st0" d="M1720.5,88v10.9c0,3-1.4,4.2-4.1,4.2h-8.8c-4.2,0-5.1-2.2-5.1-7.7v-10h-6.6c-5.1,0-8.2,2.4-8.2,9.8
		c0,6,1.8,9.7,8.4,9.8h1.2c1.2,0,2.1,0.2,2.3,0.9c0.4-1.9-0.4-2.6-1.8-2.6h-1.6c-4.4,0-5.8-2.6-5.8-7.4v-1.4c0-5.3,1.8-7.3,5.6-7.3
		h4v8.3c0,6.5,1.5,9.5,7.7,9.5h8.8c4.6,0,6.7-2.1,6.7-6.1V88.6c0-1.8,0.3-3,1.3-3.4C1721.5,84.6,1720.5,85.8,1720.5,88"/>
	<g>
		<path id="f" class="st0" d="M1694.3,83.7c0.8,0,1.5-0.7,1.5-1.5c0-0.8-0.7-1.5-1.5-1.5c-0.8,0-1.5,0.7-1.5,1.5
			C1692.8,83,1693.4,83.7,1694.3,83.7C1694.3,83.7,1694.3,83.7,1694.3,83.7"/>
	</g>
	<g>
		<path id="f_1_" class="st0" d="M1698.2,83.7c0.8,0,1.5-0.7,1.5-1.5c0-0.8-0.7-1.5-1.5-1.5c-0.8,0-1.5,0.7-1.5,1.5
			C1696.7,83,1697.3,83.7,1698.2,83.7C1698.2,83.7,1698.2,83.7,1698.2,83.7"/>
	</g>
	<g>
		<path id="f_2_" class="st0" d="M1652.5,83.7c0.8,0,1.5-0.7,1.5-1.5c0-0.8-0.7-1.5-1.5-1.5c-0.8,0-1.5,0.7-1.5,1.5
			C1651,83,1651.6,83.7,1652.5,83.7C1652.5,83.7,1652.5,83.7,1652.5,83.7"/>
	</g>
	<path class="st0" d="M1656.4,83.7c0.8,0,1.5-0.7,1.5-1.5c0-0.8-0.7-1.5-1.5-1.5c-0.8,0-1.5,0.7-1.5,1.5
		C1654.9,83.1,1655.5,83.7,1656.4,83.7 M1687.6,95.2v-0.3V95.2z M1644.3,94.9v0.3V94.9z"/>
	<path class="st0" d="M1615.1,102.1c-1.3,0.4-3.3,1-5.5,1c-4.2,0-5.1-2.3-5.1-7.8v-4.2c0-3,1.4-4.2,4.1-4.2h6.5
		c-0.1,0.3-0.1,0.7-0.1,1.1L1615.1,102.1L1615.1,102.1z M1675.5,82.4v16.5c0,3-1.4,4.2-4.1,4.2h-5.9c1-1,1.4-2.5,1.4-4.3V83.1
		c0-1.8,0.3-3,1.3-3.4c-2.8-0.6-3.8,0.6-3.8,2.7v16.5c0,3-1.4,4.2-4.1,4.2h-6.5c1-1,1.4-2.5,1.4-4.3v-9.9c0-1.8,0.3-3,1.3-3.4
		c-2.8-0.6-3.8,0.6-3.8,2.7v10.7c0,3-1.4,4.2-4.1,4.2h-6.6c1.8-1.6,2.5-4.4,2.5-7.9c0-7.4-3.2-9.8-8.2-9.8h-6.6v10
		c0,5.5-0.9,7.7-5.1,7.7h-2.5c-2.5,0-3.9-1-4.1-3.6l0.2-13.2c0.2-0.6,0.5-0.9,1-1.1c-0.3-0.1-0.7-0.1-1-0.1l0,0h-9.3
		c-4.6,0-6.7,2.1-6.7,6.1l-0.1,4.2c0,6.5,1.5,9.5,7.7,9.5c2.1,0,4.2-0.5,5.5-0.9c-0.1,2.7-1.5,3.9-4.1,3.9h-3.5
		c-1.5,0-2.4,0.7-1.9,2.7c0.2-0.7,1.1-0.9,2.4-0.9h3c4.4,0,6.5-2,6.7-5.7c1,0.6,2.4,0.9,4.2,0.9h2.5c6.2,0,7.7-3,7.7-9.5V87h4
		c3.8,0,5.6,1.9,5.6,7.3v1.4c0,4.9-1.4,7.4-5.8,7.4h-3.6c-1.5,0-2.3,0.7-1.8,2.6c0.2-0.7,1.1-0.9,2.3-0.9h38.7
		c4.6,0,6.7-2.1,6.7-6.1V83c0-1.8,0.3-3,1.3-3.4C1676.5,79,1675.5,80.3,1675.5,82.4 M1595.5,88.2v10.7c0,3-1.4,4.2-4.1,4.2h-1.3
		c-2.7,0-4.1-1.2-4.1-4.2l0,0V83c0-1.8,0.3-3,1.3-3.4c-2.8-0.6-3.8,0.6-3.8,2.7v20.8c0,3-1.4,4.2-4.1,4.2h-5.4
		c-2.7,0-4.1-1.2-4.1-4.2v-5c0-3,1.4-4.2,4.1-4.2h1c1.5,0,2.4-0.7,1.9-2.7c-0.2,0.7-1.1,0.9-2.4,0.9h-0.6c-4.6,0-6.7,2.1-6.7,6.1
		v4.9c0,3.9,2.1,6.1,6.7,6.1h5.4c4.3,0,6.4-1.9,6.7-5.3c1,0.6,2.4,1,4.2,1h1.3c4.6,0,6.7-2.1,6.7-6.1v-9.9c0-1.8,0.3-3,1.3-3.4
		C1596.6,84.8,1595.5,86,1595.5,88.2"/>
	<g>
		<path id="g" class="st0" d="M1715.8,106.8c-0.8,0-1.5,0.7-1.5,1.5c0,0.8,0.7,1.5,1.5,1.5c0.8,0,1.5-0.7,1.5-1.5
			C1717.3,107.4,1716.7,106.8,1715.8,106.8"/>
	</g>
	<g>
		<path id="h" class="st0" d="M1719.7,106.8c-0.8,0-1.5,0.7-1.5,1.5c0,0.8,0.7,1.5,1.5,1.5c0.8,0,1.5-0.7,1.5-1.5
			C1721.2,107.5,1720.6,106.8,1719.7,106.8C1719.7,106.8,1719.7,106.8,1719.7,106.8"/>
	</g>
	<g>
		<path id="g_1_" class="st0" d="M1590.1,106.8c-0.8,0-1.5,0.7-1.5,1.5c0,0.8,0.7,1.5,1.5,1.5c0.8,0,1.5-0.7,1.5-1.5
			C1591.6,107.4,1591,106.8,1590.1,106.8"/>
	</g>
	<g>
		<path id="h_1_" class="st0" d="M1594,106.8c-0.8,0-1.5,0.7-1.5,1.5c0,0.8,0.7,1.5,1.5,1.5c0.8,0,1.5-0.7,1.5-1.5
			C1595.5,107.5,1594.9,106.8,1594,106.8C1594,106.8,1594,106.8,1594,106.8"/>
	</g>
	<path class="st0" d="M1774,96.9l0.9,0.6l2.5-3.6l-6.4-4.4l-0.1,1C1770.9,93,1772.1,95.3,1774,96.9 M1770.1,112.5l-2.7-1.8
		c-4.3-2.9-4.7-6.1-2-10l2.2-3.2l2.1-3.1c-1.5-2.4-1-6.4-1-6.4l-7,10.3c-4.4,6.5-3.4,11.6,2.1,15.4l16.1,11l2.5-3.6l-10.9-7.5
		L1770.1,112.5L1770.1,112.5z M1789.9,126.1l-0.9-0.6l-2.5,3.6l6.4,4.4l0.1-1C1793,130,1791.9,127.7,1789.9,126.1 M1800,109.4
		l-16.1-11l-2.5,3.6l10.9,7.5l1.4,1l2.7,1.8c4.3,2.9,4.7,6.1,2,10l-2.2,3.2l-2.1,3.1c1.5,2.4,1,6.4,1,6.4l7-10.3
		C1806.6,118.3,1805.5,113.2,1800,109.4"/>
</g>
<linearGradient id="SVGID_1_" gradientUnits="userSpaceOnUse" x1="369.7992" y1="307.8368" x2="367.7377" y2="160.2513" gradientTransform="matrix(1 0 0 -1 0 475.89)">
	<stop  offset="0" style="stop-color:#1785B8"/>
	<stop  offset="1" style="stop-color:#4A8F3F"/>
</linearGradient>
<path class="st1" d="M439.7,230.5c-0.2-0.5-4.8-11.3-14.9-22.3c-0.8-14.9-5.1-25.7-5.4-26.3l-0.3-0.8l-0.8-0.3
	c-0.5-0.2-11.4-4.6-26.3-5.3c-11.1-10-21.8-14.6-22.3-14.8l-0.8-0.3l-0.8,0.3c-0.5,0.2-11.4,4.8-22.5,14.9
	c-14.9,0.8-25.8,5.1-26.4,5.4l-0.8,0.3l-0.3,0.8c-0.2,0.5-4.6,11.4-5.3,26.4c-10,11.1-14.6,21.9-14.8,22.5l-0.3,0.8l0.3,0.8
	c0.2,0.5,4.8,11.3,14.9,22.3c0.8,14.9,5.1,25.7,5.4,26.3l0.3,0.8l0.8,0.3c0.5,0.2,11.4,4.6,26.3,5.3c11.1,10,21.8,14.6,22.3,14.8
	l0.8,0.3l0.8-0.3c0.5-0.2,11.4-4.8,22.5-14.9c14.9-0.8,25.8-5.1,26.4-5.4l0.8-0.3l0.3-0.8c0.2-0.5,4.6-11.4,5.3-26.4
	c10-11.1,14.6-21.9,14.8-22.5l0.3-0.8L439.7,230.5L439.7,230.5z M420.8,219.1c0,0-0.2,3.3-5.1,8.2l-1.3,1.3L403,217.3v-16.1h1.9
	c6.9,0,9.3,2.1,9.3,2.1l0.1,0.1c2.5,2.1,4.7,4.3,6.8,6.4C421.2,212.7,421.2,215.8,420.8,219.1z M411.7,231.3l-8.8,8.8v-17.4
	L411.7,231.3z M416.2,184c0.9,2.3,3.4,9.9,4.4,19.8c-1.2-1.2-2.5-2.3-3.8-3.5c-0.7-0.5-3.8-3.2-11.9-3.2H403v-1.9
	c0-8.1-2.6-11.4-3.2-11.9c-1.1-1.3-2.3-2.6-3.5-3.8C406.4,180.7,413.9,183.2,416.2,184L416.2,184z M390.6,179.3
	c2.2,2.1,4.4,4.4,6.6,6.9c0,0,2.2,2.4,2.2,9.4v1.9h-16.2l-11.4-11.4l1.3-1.3c4.9-4.9,8.1-5.1,8.1-5.1h0.2
	C384.5,179.2,387.5,179.2,390.6,179.3L390.6,179.3z M398.6,244.5l-17,17h-25.1l-17.6-17.6v-25.1l17.6-17.6h25.1l17.6,17.6v25.1
	L398.6,244.5z M399.3,249.3v12.3H387L399.3,249.3z M377.8,265.4l-8.8,8.8l-8.8-8.8H377.8z M351.2,261.6h-12.4v-12.4L351.2,261.6z
	 M338.8,213.4v-12.3h12.3L338.8,213.4L338.8,213.4z M360.3,197.3l8.8-8.8l8.8,8.8H360.3z M386.9,201.1h12.4v12.4L386.9,201.1z
	 M369,164.5c2.2,1.1,9.3,4.6,17.2,11c-1.8,0-3.4,0.1-5.3,0.3c-0.9,0-4.9,0.5-10.7,6.2l-1.3,1.3l-1.3-1.3c-5.7-5.7-9.9-6.1-10.7-6.2
	c-1.8-0.1-3.5-0.2-5.1-0.2C359.6,169.1,366.7,165.6,369,164.5z M347.4,179.3c3-0.1,6.1,0,9.4,0.2c0,0,3.3,0.2,8.2,5.1l1.3,1.3
	l-11.5,11.4h-16.1v-1.9c0-6.9,2.1-9.3,2.1-9.3l0.1-0.1C343.1,183.5,345.3,181.3,347.4,179.3L347.4,179.3z M321.7,184.1
	c2.3-0.9,9.9-3.4,19.9-4.4c-1.2,1.2-2.3,2.5-3.4,3.8c-0.5,0.7-3.2,3.8-3.2,11.9v1.9h-1.9c-8.1,0-11.4,2.6-11.9,3.2
	c-1.3,1.1-2.6,2.3-3.8,3.5C318.3,194.1,320.8,186.5,321.7,184.1L321.7,184.1z M316.9,209.8c2.1-2.2,4.3-4.4,6.8-6.5
	c0,0,2.4-2.2,9.4-2.2h1.9v16.1l-11.4,11.4l-1.3-1.3c-4.9-4.9-5.1-8.1-5.1-8.1V219C316.9,216,316.8,212.8,316.9,209.8L316.9,209.8z
	 M335,222.6v17.4l-8.8-8.7L335,222.6z M313.2,248.6c-6.4-7.8-9.9-14.9-11-17.2c1-2.3,4.6-9.3,11-17.2c0,1.6,0.1,3.4,0.3,5.1
	c0,0.9,0.5,4.9,6.2,10.7l1.3,1.3l-1.3,1.3c-5.7,5.7-6.1,9.9-6.2,10.7C313.3,245.2,313.2,246.9,313.2,248.6z M317.2,243.6
	c0,0,0.2-3.3,5.1-8.2l1.3-1.3l11.4,11.4v16.1h-1.9c-6.9,0-9.3-2.1-9.3-2.1l-0.1-0.1c-2.5-2.1-4.7-4.3-6.8-6.4
	C316.9,250,316.9,246.8,317.2,243.6z M321.8,278.7c-0.9-2.3-3.4-9.9-4.4-19.8c1.2,1.2,2.5,2.3,3.8,3.5c0.7,0.5,3.8,3.2,11.9,3.2h1.9
	v1.9c0,8.1,2.6,11.4,3.2,11.9c1.1,1.3,2.3,2.6,3.5,3.8C331.7,282,324.1,279.5,321.8,278.7z M347.4,283.4c-2.2-2.1-4.4-4.4-6.6-6.9
	c0,0-2.2-2.4-2.2-9.4v-1.9h16.2l11.4,11.4L365,278c-4.9,4.9-8.1,5.1-8.1,5.1h-0.2C353.6,283.5,350.4,283.5,347.4,283.4L347.4,283.4z
	 M369,298.2c-2.2-1.1-9.3-4.6-17.2-11c1.8,0,3.4-0.1,5.3-0.3c0.9,0,4.9-0.5,10.7-6.2l1.3-1.3l1.3,1.3c5.7,5.7,9.9,6.1,10.7,6.2
	c1.8,0.1,3.5,0.2,5.1,0.2C378.4,293.6,371.2,297.1,369,298.2L369,298.2z M390.6,283.4c-3,0.1-6.1,0-9.4-0.2c0,0-3.3-0.2-8.2-5.1
	l-1.3-1.3l11.4-11.4h16.1v1.9c0,6.9-2.1,9.3-2.1,9.3l-0.1,0.1C395,279.2,392.8,281.4,390.6,283.4z M416.3,278.6
	c-2.3,0.9-9.9,3.4-19.9,4.4c1.2-1.2,2.3-2.5,3.4-3.8c0.5-0.7,3.2-3.8,3.2-11.9v-1.9h1.9c8.1,0,11.4-2.6,11.9-3.2
	c1.3-1.1,2.6-2.3,3.8-3.5C419.7,268.6,417.2,276.2,416.3,278.6z M421.2,252.9c-2.1,2.2-4.3,4.4-6.8,6.5c0,0-2.4,2.2-9.4,2.2h-1.9
	v-16.1l11.4-11.4l1.3,1.3c4.9,4.9,5.1,8.1,5.1,8.1v0.2C421.2,246.7,421.3,249.9,421.2,252.9L421.2,252.9z M425,248.5
	c0-1.6-0.1-3.4-0.3-5.1c0-0.9-0.5-4.9-6.2-10.7l-1.3-1.3l1.3-1.3c5.7-5.7,6.1-9.9,6.2-10.7c0.1-1.8,0.2-3.5,0.2-5.1
	c6.4,7.8,9.9,14.9,11,17.2C434.9,233.5,431.2,240.6,425,248.5L425,248.5z"/>
<linearGradient id="SVGID_2_" gradientUnits="userSpaceOnUse" x1="380.6443" y1="307.6853" x2="378.5828" y2="160.0999" gradientTransform="matrix(1 0 0 -1 0 475.89)">
	<stop  offset="0" style="stop-color:#1785B8"/>
	<stop  offset="1" style="stop-color:#4A8F3F"/>
</linearGradient>
<path class="st2" d="M377.8,246.5h3.8v-17.9l-3.8-3.8V246.5z"/>
<linearGradient id="SVGID_3_" gradientUnits="userSpaceOnUse" x1="359.809" y1="307.9769" x2="357.7476" y2="160.3915" gradientTransform="matrix(1 0 0 -1 0 475.89)">
	<stop  offset="0" style="stop-color:#1785B8"/>
	<stop  offset="1" style="stop-color:#4A8F3F"/>
</linearGradient>
<path class="st3" d="M356.8,246.5h4.2v-22l-4.2,4.2V246.5z"/>
<linearGradient id="SVGID_4_" gradientUnits="userSpaceOnUse" x1="370.2525" y1="307.831" x2="368.1911" y2="160.2456" gradientTransform="matrix(1 0 0 -1 0 475.89)">
	<stop  offset="0" style="stop-color:#1785B8"/>
	<stop  offset="1" style="stop-color:#4A8F3F"/>
</linearGradient>
<path class="st4" d="M366.8,218.7v27.8h5v-27.6l-2.6-2.6L366.8,218.7z"/>
<linearGradient id="SVGID_5_" gradientUnits="userSpaceOnUse" x1="47.6061" y1="312.5975" x2="45.5447" y2="165.0121" gradientTransform="matrix(1 0 0 -1 0 475.89)">
	<stop  offset="0" style="stop-color:#1785B8"/>
	<stop  offset="1" style="stop-color:#4A8F3F"/>
</linearGradient>
<path class="st5" d="M45,221h3.5v3.6H45V221z"/>
<linearGradient id="SVGID_6_" gradientUnits="userSpaceOnUse" x1="41.4734" y1="312.6823" x2="39.412" y2="165.097" gradientTransform="matrix(1 0 0 -1 0 475.89)">
	<stop  offset="0" style="stop-color:#1785B8"/>
	<stop  offset="1" style="stop-color:#4A8F3F"/>
</linearGradient>
<path class="st6" d="M38.9,221h3.5v3.6h-3.5V221z"/>
<linearGradient id="SVGID_7_" gradientUnits="userSpaceOnUse" x1="29.3065" y1="312.8524" x2="27.2451" y2="165.267" gradientTransform="matrix(1 0 0 -1 0 475.89)">
	<stop  offset="0" style="stop-color:#1785B8"/>
	<stop  offset="1" style="stop-color:#4A8F3F"/>
</linearGradient>
<path class="st7" d="M40,217.5h3.3c3.6,0,5.4-2,5.4-5.8v-8.8H45v7.6c0,1.2-0.1,2-0.2,2.3c-0.3,0.7-1.1,1.1-2.3,1.1H28.8
	c0.1-0.7,0.2-1.3,0.2-2v-15.1h-3.6v14.7c0,4.6-2.7,8-6.6,8c-3.9,0-6.6-3.5-6.6-8v-2.7H8.7v3.2c0,6,4.6,11.1,10.2,11.1
	c3.5,0,6.9-2,8.8-5.4H40V217.5z"/>
<linearGradient id="SVGID_8_" gradientUnits="userSpaceOnUse" x1="110.1219" y1="311.7235" x2="108.0605" y2="164.1382" gradientTransform="matrix(1 0 0 -1 0 475.89)">
	<stop  offset="0" style="stop-color:#1785B8"/>
	<stop  offset="1" style="stop-color:#4A8F3F"/>
</linearGradient>
<path class="st8" d="M107.9,196.4h3.5v3.6h-3.5V196.4z"/>
<linearGradient id="SVGID_9_" gradientUnits="userSpaceOnUse" x1="103.9892" y1="311.8102" x2="101.9278" y2="164.2247" gradientTransform="matrix(1 0 0 -1 0 475.89)">
	<stop  offset="0" style="stop-color:#1785B8"/>
	<stop  offset="1" style="stop-color:#4A8F3F"/>
</linearGradient>
<path class="st9" d="M101.8,196.4h3.5v3.6h-3.5V196.4z"/>
<linearGradient id="SVGID_10_" gradientUnits="userSpaceOnUse" x1="102.1956" y1="311.8345" x2="100.1342" y2="164.2491" gradientTransform="matrix(1 0 0 -1 0 475.89)">
	<stop  offset="0" style="stop-color:#1785B8"/>
	<stop  offset="1" style="stop-color:#4A8F3F"/>
</linearGradient>
<path class="st10" d="M143.5,217.5h2.8c3.6,0,5.4-2,5.4-5.8v-15h-3.6v13.8c0,1.2-0.1,2-0.2,2.3c-0.3,0.7-1.1,1.1-2.3,1.1h-8.2
	c0.5-0.7,0.8-1.9,0.8-3.7v-13.4h-3.6v13.6c0,1.1-0.1,2-0.4,2.4c-0.4,0.8-1.1,1.1-2.2,1.1h-21.4c0.5-0.7,0.8-1.9,0.8-3.7v-7.2h-3.6
	v7.4c0,1.1-0.1,2-0.4,2.4c-0.4,0.8-1.1,1.1-2.2,1.1H93.1v-1c0-2.2-0.7-3.9-2-5.4s-3.1-2.2-5.3-2.2c-2.2,0-3.9,0.7-5.3,2.1
	s-2,3.2-2,5.4v1.1H65.3v-3.7c0-4.3-2.7-7.2-6.7-7.2c-4.1,0-7.2,3-7.2,7.1s3.2,7.6,7.1,7.6H62c-0.5,1.8-1.8,2.5-3.6,2.5v2.8
	c4.2,0,6.6-1.8,7-5.4h14.8c1.4,1.9,3.3,2.8,5.8,2.8s4.5-1,5.8-2.8h51.7V217.5z M62,213.9h-3.2c-2,0-3.5-1.8-3.5-4.1
	c0-2.2,1.3-3.6,3.5-3.6c1.9,0,3,1.3,3.2,3.3V213.9z M88.8,215.7c-0.6,0.8-1.6,1.2-2.6,1.2c-2.2,0-3.6-1.9-3.6-4.3
	c0-1.1,0.3-2.1,0.9-2.8c0.7-0.9,1.5-1.3,2.6-1.3c1.1,0,2.1,0.4,2.7,1.3c0.5,0.8,0.9,1.8,0.9,3C89.7,214.1,89.4,215,88.8,215.7z"/>
<linearGradient id="SVGID_11_" gradientUnits="userSpaceOnUse" x1="187.8437" y1="310.6391" x2="185.7823" y2="163.0537" gradientTransform="matrix(1 0 0 -1 0 475.89)">
	<stop  offset="0" style="stop-color:#1785B8"/>
	<stop  offset="1" style="stop-color:#4A8F3F"/>
</linearGradient>
<path class="st11" d="M207.4,217.5c3.6,0,5.4-2,5.4-5.8v-15h-3.5v13.8c0,1.2-0.1,2-0.2,2.3c-0.3,0.7-1.1,1.1-2.3,1.1h-16.2
	c-2.7,0-4.1-1.2-5.6-6.4c-0.8-2.8-3.5-4.6-6.7-4.6h-9c-4.8,0-7.6,3.4-7.6,8.5V223h3.6v-10.8c0-3.5,1.5-5.7,3.9-5.7h2.6
	c-0.7,1.1-0.9,2.4-0.9,3.7c0,4.3,3,7.6,7.3,7.6c2.6,0,4.6-1,5.9-3c1.8,1.8,3.9,2.6,6.5,2.6h16.6L207.4,217.5z M178.3,214.5
	c-2.2,0-3.7-1.9-3.7-4.3s1.4-4.2,3.5-4.2c2.2,0,3.6,1.9,3.6,4.3C181.7,212.9,180.3,214.5,178.3,214.5z"/>
<linearGradient id="SVGID_12_" gradientUnits="userSpaceOnUse" x1="248.3636" y1="309.7932" x2="246.3022" y2="162.2078" gradientTransform="matrix(1 0 0 -1 0 475.89)">
	<stop  offset="0" style="stop-color:#1785B8"/>
	<stop  offset="1" style="stop-color:#4A8F3F"/>
</linearGradient>
<path class="st12" d="M247.9,217.5h18.6c1.4,1.9,3.4,2.8,5.8,2.8c4.3,0,7.2-3.2,7.2-7.4c0-4.3-3-7.6-7.2-7.6c-4.3,0-7.3,3.1-7.3,7.4
	c0,0.3,0,0.5,0.1,0.9v0.1h-22.3c-0.8,0-1.2,0-1.4-0.1c-0.4-0.1-0.9-0.3-1.3-0.8c1.2-0.8,2.4-2,3.7-3.6c1.2-1.5,2-2.7,2.3-3.6
	c-2.6-2.2-5.7-3.4-9.2-3.4c-3,0-5.9,0.9-8.8,2.6v3.4c1.2,0.3,2.5,0.9,3.8,1.8c1.3,0.9,2.3,1.6,2.7,2.4c-0.8,0.5-1.5,0.9-2.3,1
	c-0.7,0.1-1.4,0.2-2.5,0.2h-6.4c-1.3,0-2.3-0.2-2.7-0.5c-0.7-0.4-1-1.5-1-3.1v-13.5h-3.6v14.9c0,1.8,0.4,3.2,1.3,4.2
	c1,1.1,2.3,1.6,4.1,1.6h8.5c2.4,0,4.8-0.8,7.1-2.3c0.5,0.7,1.2,1.1,2.1,1.5c1,0.5,2,0.8,2.8,0.8h5.8V217.5z M272.1,208.6
	c2.1,0,3.6,1.9,3.6,4.3c0,2.4-1.4,4.1-3.4,4.1c-2.2,0-3.7-1.9-3.7-4.3C268.6,210.4,270.1,208.6,272.1,208.6z M237.5,210.8
	c-1.6-1.9-3.5-3.2-5.5-3.8c1.6-0.9,3.3-1.3,4.9-1.3s3.2,0.4,4.7,1.3c-0.4,0.7-1.1,1.4-1.8,2.1L237.5,210.8z"/>
<linearGradient id="SVGID_13_" gradientUnits="userSpaceOnUse" x1="20.8196" y1="312.9715" x2="18.7581" y2="165.3861" gradientTransform="matrix(1 0 0 -1 0 475.89)">
	<stop  offset="0" style="stop-color:#1785B8"/>
	<stop  offset="1" style="stop-color:#4A8F3F"/>
</linearGradient>
<path class="st13" d="M21,254.2l-1.3,3.9l-1.2-3.6l-5.7-17.2H8v24.3h3.1v-20.7l7,20.7h3l7.1-20.4v20.4h3.1v-24.3h-4.4L21,254.2z"/>
<linearGradient id="SVGID_14_" gradientUnits="userSpaceOnUse" x1="44.5019" y1="312.6405" x2="42.4416" y2="165.0551" gradientTransform="matrix(1 0 0 -1 0 475.89)">
	<stop  offset="0" style="stop-color:#1785B8"/>
	<stop  offset="1" style="stop-color:#4A8F3F"/>
</linearGradient>
<path class="st14" d="M50.3,254.3v-3.9l-0.1-2.7c-0.2-0.8-0.4-1.5-0.9-2.1c-0.4-0.5-1.1-1-2.1-1.3c-1-0.3-2.2-0.5-3.7-0.5
	s-2.8,0.2-4.1,0.7c-1.2,0.4-2.1,1-2.6,1.8c-0.7,0.8-1.1,1.8-1.3,3.1l3,0.4c0.3-1.2,0.8-2.1,1.5-2.6c0.7-0.4,1.8-0.8,3.1-0.8
	c1.5,0,2.6,0.3,3.4,1c0.5,0.5,0.9,1.3,0.9,2.5v0.8c-1.1,0.4-3,0.8-5.4,1c-1.2,0.1-2.1,0.3-2.6,0.4c-0.8,0.2-1.5,0.5-2.2,1
	c-0.7,0.4-1.2,1-1.5,1.8c-0.4,0.8-0.5,1.5-0.5,2.4c0,1.4,0.5,2.6,1.5,3.6c1.1,1,2.5,1.4,4.5,1.4c1.2,0,2.3-0.2,3.3-0.5
	c1-0.4,2.1-1.1,3.2-2c0.1,0.9,0.3,1.5,0.5,2.2h3.2c-0.3-0.7-0.7-1.4-0.8-2.1C50.4,259,50.3,257,50.3,254.3L50.3,254.3z M47.3,253.9
	c0,1.3-0.1,2.3-0.4,3c-0.4,0.9-1.1,1.5-2,2.1s-2,0.8-3.1,0.8c-1.2,0-2.1-0.2-2.6-0.8c-0.7-0.5-0.9-1.2-0.9-2c0-0.5,0.1-1,0.4-1.4
	c0.3-0.4,0.7-0.8,1.2-1c0.5-0.2,1.4-0.4,2.6-0.5c2.2-0.3,3.8-0.7,4.9-1.1v1L47.3,253.9z"/>
<linearGradient id="SVGID_15_" gradientUnits="userSpaceOnUse" x1="63.4482" y1="312.3761" x2="61.3868" y2="164.7907" gradientTransform="matrix(1 0 0 -1 0 475.89)">
	<stop  offset="0" style="stop-color:#1785B8"/>
	<stop  offset="1" style="stop-color:#4A8F3F"/>
</linearGradient>
<path class="st15" d="M69.2,254.3v-3.9l-0.1-2.7c-0.2-0.8-0.4-1.5-0.9-2.1c-0.4-0.5-1.1-1-2.1-1.3c-1-0.3-2.2-0.5-3.7-0.5
	s-2.8,0.2-4.1,0.7c-1.2,0.4-2.1,1-2.6,1.8c-0.7,0.8-1.1,1.8-1.3,3.1l3,0.4c0.3-1.2,0.8-2.1,1.5-2.6c0.7-0.4,1.8-0.8,3.1-0.8
	c1.5,0,2.6,0.3,3.4,1c0.5,0.5,0.9,1.3,0.9,2.5v0.8c-1.1,0.4-3,0.8-5.4,1c-1.2,0.1-2.1,0.3-2.6,0.4c-0.8,0.2-1.5,0.5-2.2,1
	c-0.7,0.4-1.2,1-1.5,1.8c-0.4,0.8-0.5,1.5-0.5,2.4c0,1.4,0.5,2.6,1.5,3.6c1.1,1,2.5,1.4,4.5,1.4c1.2,0,2.3-0.2,3.3-0.5
	c1-0.4,2.1-1.1,3.2-2c0.1,0.9,0.3,1.5,0.5,2.2h3.2c-0.3-0.7-0.7-1.4-0.8-2.1C69.3,258.8,69.2,257,69.2,254.3L69.2,254.3z
	 M66.3,253.9c0,1.3-0.1,2.3-0.4,3c-0.4,0.9-1.1,1.5-2,2.1s-2,0.8-3.1,0.8c-1.2,0-2.1-0.2-2.6-0.8c-0.5-0.5-0.9-1.2-0.9-2
	c0-0.5,0.1-1,0.4-1.4c0.3-0.4,0.7-0.8,1.2-1c0.5-0.2,1.4-0.4,2.6-0.5c2.2-0.3,3.8-0.7,4.9-1.1v1L66.3,253.9z"/>
<linearGradient id="SVGID_16_" gradientUnits="userSpaceOnUse" x1="76.5065" y1="312.1936" x2="74.445" y2="164.6082" gradientTransform="matrix(1 0 0 -1 0 475.89)">
	<stop  offset="0" style="stop-color:#1785B8"/>
	<stop  offset="1" style="stop-color:#4A8F3F"/>
</linearGradient>
<path class="st16" d="M73.8,237.3h3v24.3h-3V237.3z"/>
<linearGradient id="SVGID_17_" gradientUnits="userSpaceOnUse" x1="89.773" y1="312.008" x2="87.7115" y2="164.4226" gradientTransform="matrix(1 0 0 -1 0 475.89)">
	<stop  offset="0" style="stop-color:#1785B8"/>
	<stop  offset="1" style="stop-color:#4A8F3F"/>
</linearGradient>
<path class="st17" d="M88.6,243.6c-2.4,0-4.4,0.8-5.9,2.4s-2.3,3.9-2.3,6.9c0,2.8,0.8,5.1,2.3,6.7c1.5,1.6,3.5,2.4,6.1,2.4
	c2.1,0,3.7-0.5,5-1.5c1.3-1,2.2-2.4,2.7-4.2l-3.1-0.3c-0.4,1.3-1.1,2.2-1.9,2.7s-1.8,0.9-2.8,0.9c-1.4,0-2.7-0.5-3.7-1.5
	c-1-1-1.5-2.5-1.6-4.5h13.1v-0.8c0-3-0.8-5.1-2.2-6.8C93,244.4,91,243.6,88.6,243.6L88.6,243.6z M83.7,251.1
	c0.1-1.5,0.7-2.7,1.5-3.7c1-0.9,2.1-1.4,3.5-1.4c1.5,0,2.7,0.5,3.7,1.8c0.7,0.8,1,1.9,1.1,3.3h-9.9V251.1z"/>
<linearGradient id="SVGID_18_" gradientUnits="userSpaceOnUse" x1="113.4564" y1="311.6778" x2="111.395" y2="164.0924" gradientTransform="matrix(1 0 0 -1 0 475.89)">
	<stop  offset="0" style="stop-color:#1785B8"/>
	<stop  offset="1" style="stop-color:#4A8F3F"/>
</linearGradient>
<path class="st18" d="M118.7,243.6c-2.2,0-4.1,1-5.5,3.1c-0.3-1-1-1.8-1.8-2.3c-0.9-0.5-1.9-0.8-3.2-0.8c-1.2,0-2.2,0.2-3.2,0.8
	c-0.9,0.5-1.6,1.2-2.2,2.1v-2.5h-2.6v17.6h3v-9.2c0-1.6,0.1-2.8,0.4-3.7c0.3-0.9,0.9-1.5,1.5-2c0.8-0.4,1.5-0.7,2.3-0.7
	c1.1,0,1.9,0.3,2.4,1c0.4,0.7,0.8,1.6,0.8,3v11.5h3v-10.3c0-1.9,0.4-3.2,1.2-3.9c0.8-0.9,1.9-1.2,3.1-1.2c0.7,0,1.3,0.1,1.8,0.4
	c0.5,0.3,0.9,0.8,1.1,1.3c0.2,0.5,0.3,1.4,0.3,2.6v11.1h3v-12.2c0-2-0.4-3.5-1.4-4.5C121.9,244.1,120.5,243.6,118.7,243.6
	L118.7,243.6z"/>
<linearGradient id="SVGID_19_" gradientUnits="userSpaceOnUse" x1="147.9227" y1="311.1958" x2="145.8613" y2="163.6104" gradientTransform="matrix(1 0 0 -1 0 475.89)">
	<stop  offset="0" style="stop-color:#1785B8"/>
	<stop  offset="1" style="stop-color:#4A8F3F"/>
</linearGradient>
<path class="st19" d="M138.7,261.6h3.2v-11.1h11.5v-2.8h-11.5v-7.6h13.3v-2.8h-16.4V261.6z"/>
<linearGradient id="SVGID_20_" gradientUnits="userSpaceOnUse" x1="161.644" y1="311.0041" x2="159.5826" y2="163.4186" gradientTransform="matrix(1 0 0 -1 0 475.89)">
	<stop  offset="0" style="stop-color:#1785B8"/>
	<stop  offset="1" style="stop-color:#4A8F3F"/>
</linearGradient>
<path class="st20" d="M158.9,244h3v17.6h-3V244z"/>
<linearGradient id="SVGID_21_" gradientUnits="userSpaceOnUse" x1="161.4513" y1="311.0073" x2="159.3899" y2="163.4219" gradientTransform="matrix(1 0 0 -1 0 475.89)">
	<stop  offset="0" style="stop-color:#1785B8"/>
	<stop  offset="1" style="stop-color:#4A8F3F"/>
</linearGradient>
<path class="st21" d="M158.9,237.3h3v3.4h-3V237.3z"/>
<linearGradient id="SVGID_22_" gradientUnits="userSpaceOnUse" x1="174.8402" y1="310.8202" x2="172.7788" y2="163.2348" gradientTransform="matrix(1 0 0 -1 0 475.89)">
	<stop  offset="0" style="stop-color:#1785B8"/>
	<stop  offset="1" style="stop-color:#4A8F3F"/>
</linearGradient>
<path class="st22" d="M179.6,245.6c-0.4-0.7-1.1-1.1-2-1.5c-0.9-0.4-1.9-0.5-3-0.5c-2.4,0-4.3,1-5.6,3V244h-2.6v17.6h3V252
	c0-2.3,0.4-3.8,1.4-4.6c0.9-0.8,2-1.2,3.3-1.2c0.8,0,1.5,0.2,2.1,0.5c0.5,0.3,1,0.9,1.2,1.4c0.2,0.5,0.3,1.5,0.3,2.7v10.7h3v-10.8
	c0-1.4,0-2.3-0.2-3C180.4,247.1,180.1,246.3,179.6,245.6L179.6,245.6z"/>
<linearGradient id="SVGID_23_" gradientUnits="userSpaceOnUse" x1="193.8772" y1="310.5549" x2="191.8157" y2="162.9684" gradientTransform="matrix(1 0 0 -1 0 475.89)">
	<stop  offset="0" style="stop-color:#1785B8"/>
	<stop  offset="1" style="stop-color:#4A8F3F"/>
</linearGradient>
<path class="st23" d="M199.7,254.3v-3.9l-0.1-2.7c-0.2-0.8-0.4-1.5-0.9-2.1s-1.1-1-2.1-1.3c-1-0.3-2.2-0.5-3.7-0.5
	c-1.5,0-2.8,0.2-4.1,0.7c-1.2,0.4-2.1,1-2.6,1.8c-0.7,0.8-1.1,1.8-1.3,3.1l3,0.4c0.3-1.2,0.8-2.1,1.5-2.6c0.7-0.4,1.8-0.8,3.1-0.8
	c1.5,0,2.6,0.3,3.4,1c0.5,0.5,0.9,1.3,0.9,2.5v0.8c-1.1,0.4-3,0.8-5.4,1c-1.2,0.1-2.1,0.3-2.6,0.4c-0.8,0.2-1.5,0.5-2.2,1
	c-0.7,0.4-1.2,1-1.5,1.8c-0.4,0.8-0.5,1.5-0.5,2.4c0,1.4,0.5,2.6,1.5,3.6c1.1,1,2.5,1.4,4.5,1.4c1.2,0,2.3-0.2,3.3-0.5
	c1-0.4,2.1-1.1,3.2-2c0.1,0.9,0.3,1.5,0.5,2.2h3.2c-0.3-0.7-0.7-1.4-0.8-2.1C199.7,258.8,199.7,257,199.7,254.3L199.7,254.3z
	 M196.6,253.9c0,1.3-0.1,2.3-0.4,3c-0.4,0.9-1.1,1.5-2,2.1s-2,0.8-3.1,0.8c-1.2,0-2.1-0.2-2.6-0.8c-0.7-0.5-0.9-1.2-0.9-2
	c0-0.5,0.1-1,0.4-1.4c0.3-0.4,0.7-0.8,1.2-1c0.5-0.2,1.4-0.4,2.6-0.5c2.2-0.3,3.8-0.7,4.9-1.1v1L196.6,253.9z"/>
<linearGradient id="SVGID_24_" gradientUnits="userSpaceOnUse" x1="212.6219" y1="310.2928" x2="210.5605" y2="162.7074" gradientTransform="matrix(1 0 0 -1 0 475.89)">
	<stop  offset="0" style="stop-color:#1785B8"/>
	<stop  offset="1" style="stop-color:#4A8F3F"/>
</linearGradient>
<path class="st24" d="M217.5,245.6c-0.4-0.7-1.1-1.1-2-1.5s-1.9-0.5-3-0.5c-2.4,0-4.3,1-5.6,3V244h-2.7v17.6h3V252
	c0-2.3,0.4-3.8,1.4-4.6c1-0.8,2-1.2,3.3-1.2c0.8,0,1.5,0.2,2.1,0.5c0.5,0.3,1,0.9,1.2,1.4c0.2,0.7,0.3,1.5,0.3,2.7v10.7h3v-10.8
	c0-1.4,0-2.3-0.2-3C218.3,247.1,218,246.3,217.5,245.6L217.5,245.6z"/>
<linearGradient id="SVGID_25_" gradientUnits="userSpaceOnUse" x1="231.366" y1="310.0313" x2="229.3046" y2="162.4459" gradientTransform="matrix(1 0 0 -1 0 475.89)">
	<stop  offset="0" style="stop-color:#1785B8"/>
	<stop  offset="1" style="stop-color:#4A8F3F"/>
</linearGradient>
<path class="st25" d="M233.2,258.5c-0.8,0.8-1.8,1.1-3,1.1c-1.4,0-2.6-0.5-3.5-1.6c-0.9-1.1-1.3-2.8-1.3-5.1c0-2.3,0.4-4.1,1.4-5.1
	c1-1.1,2.2-1.6,3.7-1.6c1,0,1.9,0.3,2.5,0.9s1.2,1.5,1.4,2.6l3-0.4c-0.3-1.8-1.1-3.2-2.3-4.2c-1.2-1-2.7-1.4-4.7-1.4
	c-1.5,0-3,0.3-4.2,1.1c-1.3,0.8-2.3,1.8-2.8,3.2c-0.7,1.4-1,3.1-1,5c0,3,0.8,5.3,2.2,6.8c1.4,1.5,3.4,2.4,5.8,2.4
	c2,0,3.5-0.5,4.8-1.8c1.3-1.1,2.2-2.7,2.5-4.7l-3-0.3C234.5,256.7,234,257.8,233.2,258.5L233.2,258.5z"/>
<linearGradient id="SVGID_26_" gradientUnits="userSpaceOnUse" x1="242.902" y1="309.8696" x2="240.8406" y2="162.2842" gradientTransform="matrix(1 0 0 -1 0 475.89)">
	<stop  offset="0" style="stop-color:#1785B8"/>
	<stop  offset="1" style="stop-color:#4A8F3F"/>
</linearGradient>
<path class="st26" d="M240.2,244h3v17.6h-3V244z"/>
<linearGradient id="SVGID_27_" gradientUnits="userSpaceOnUse" x1="242.7093" y1="309.8718" x2="240.6479" y2="162.2864" gradientTransform="matrix(1 0 0 -1 0 475.89)">
	<stop  offset="0" style="stop-color:#1785B8"/>
	<stop  offset="1" style="stop-color:#4A8F3F"/>
</linearGradient>
<path class="st27" d="M240.2,237.3h3v3.4h-3V237.3z"/>
<linearGradient id="SVGID_28_" gradientUnits="userSpaceOnUse" x1="256.0982" y1="309.6858" x2="254.0368" y2="162.1004" gradientTransform="matrix(1 0 0 -1 0 475.89)">
	<stop  offset="0" style="stop-color:#1785B8"/>
	<stop  offset="1" style="stop-color:#4A8F3F"/>
</linearGradient>
<path class="st28" d="M261,245.6c-0.4-0.7-1.1-1.1-2-1.5c-0.9-0.3-1.9-0.5-3-0.5c-2.4,0-4.3,1-5.6,3V244h-2.7v17.6h3V252
	c0-2.3,0.4-3.8,1.4-4.6c0.9-0.8,2-1.2,3.3-1.2c0.8,0,1.5,0.2,2.1,0.5c0.5,0.3,1,0.9,1.2,1.4c0.2,0.7,0.3,1.5,0.3,2.7v10.7h3v-10.8
	c0-1.4,0-2.3-0.2-3C261.7,247.1,261.5,246.3,261,245.6L261,245.6z"/>
<linearGradient id="SVGID_29_" gradientUnits="userSpaceOnUse" x1="274.6508" y1="309.4265" x2="272.5894" y2="161.8411" gradientTransform="matrix(1 0 0 -1 0 475.89)">
	<stop  offset="0" style="stop-color:#1785B8"/>
	<stop  offset="1" style="stop-color:#4A8F3F"/>
</linearGradient>
<path class="st29" d="M278.3,246.1c-1.3-1.6-3.1-2.5-5.1-2.5c-1.5,0-3,0.4-4.1,1.2c-1.2,0.8-2.1,1.9-2.6,3.3c-0.7,1.4-0.9,3-0.9,4.7
	c0,2.4,0.7,4.5,2,6.2c1.3,1.8,3.2,2.6,5.6,2.6c2,0,3.6-0.8,4.9-2.3c0,2-0.1,3.2-0.2,3.8c-0.2,1-0.8,1.8-1.5,2.3s-1.9,0.9-3.2,0.9
	c-1.3,0-2.3-0.3-3.1-0.9c-0.5-0.4-0.9-1.1-1-2l-3-0.4c0,1.9,0.5,3.3,1.9,4.3c1.3,1,3,1.4,5.1,1.4c1.8,0,3.3-0.3,4.5-1
	c1.2-0.7,2.1-1.5,2.6-2.7c0.5-1.1,0.9-3.1,0.9-5.8V244h-2.7v2.1L278.3,246.1z M276.9,257.6c-0.9,1.1-2.1,1.5-3.5,1.5
	c-1.4,0-2.5-0.5-3.5-1.6c-0.9-1.1-1.4-2.7-1.4-5c0-2.1,0.4-3.7,1.4-4.8c0.9-1.1,2.1-1.6,3.4-1.6s2.5,0.5,3.5,1.6
	c1,1.1,1.4,2.7,1.4,4.9C278.2,254.8,277.8,256.5,276.9,257.6L276.9,257.6z"/>
</svg>
