<?xml version="1.0" encoding="utf-8"?>
<!-- Generator: Adobe Illustrator 24.1.2, SVG Export Plug-In . SVG Version: 6.00 Build 0)  -->
<svg version="1.1" id="Layer_1" xmlns="http://www.w3.org/2000/svg" xmlns:xlink="http://www.w3.org/1999/xlink" x="0px" y="0px"
	 viewBox="0 0 450 475.1" style="enable-background:new 0 0 450 475.1;" xml:space="preserve">
<style type="text/css">
	.st0{fill-rule:evenodd;clip-rule:evenodd;fill:#85764B;}
	.st1{fill-rule:evenodd;clip-rule:evenodd;fill:#842732;}
	.st2{fill-rule:evenodd;clip-rule:evenodd;fill:url(#SVGID_1_);}
	.st3{fill-rule:evenodd;clip-rule:evenodd;fill:url(#SVGID_2_);}
	.st4{fill-rule:evenodd;clip-rule:evenodd;fill:url(#SVGID_3_);}
	.st5{fill-rule:evenodd;clip-rule:evenodd;fill:url(#SVGID_4_);}
	.st6{fill-rule:evenodd;clip-rule:evenodd;fill:url(#SVGID_5_);}
	.st7{fill-rule:evenodd;clip-rule:evenodd;fill:url(#SVGID_6_);}
	.st8{fill-rule:evenodd;clip-rule:evenodd;fill:url(#SVGID_7_);}
	.st9{fill:#842732;}
	.st10{fill:#85764B;}
</style>
<g>
	<path class="st0" d="M60,328.5c0,0-6-4-6-10.7c0-6.7,1.8-10.7,6-15.9c11.4-14,20.3-20.2,23.6-24.4c5.9-7.6,4.8-12,4.8-12l4.4-7.1
		c0,0,0.8,8,0.9,15.9c0.2,10.2-8.4,19.9-15.1,27.5c-4.9,5.6-11.4,11.6-15.1,16.8S61,329.3,61,329.3L60,328.5L60,328.5z"/>
	<path class="st1" d="M50.2,313.3c0,0-13.3-13.4-12.4-24.8c1.5-19.9,25.5-31,35.5-38.1c5.8-4.2,10.3-7.8,14.2-13.8
		c9.3-14.4,6.2-34.1,6.2-34.1s7.7,9.5,10.7,22.2c4,17.4-5.3,29.6-9.8,35.5c-5.3,6.9-28.5,27.1-36.4,37.3c-7.7,9.9-7.1,16.8-7.1,16.8
		L50.2,313.3L50.2,313.3z"/>
</g>
<radialGradient id="SVGID_1_" cx="63.4157" cy="290.2018" r="53.4812" gradientTransform="matrix(1 0 0 -1 0 475.89)" gradientUnits="userSpaceOnUse">
	<stop  offset="0" style="stop-color:#CFBF8B"/>
	<stop  offset="1" style="stop-color:#85764B"/>
</radialGradient>
<path class="st2" d="M91,202.6c0,0-1.5,4.6-5.3,9.8c-4.6,6.3-11.5,13.3-11.5,13.3s-0.1,5.3-1.8,11.5c-1.4,5.3-4.4,11.5-4.4,11.5
	S93.6,235.1,91,202.6z"/>
<radialGradient id="SVGID_2_" cx="63.4157" cy="290.2018" r="53.4812" gradientTransform="matrix(1 0 0 -1 0 475.89)" gradientUnits="userSpaceOnUse">
	<stop  offset="0" style="stop-color:#CFBF8B"/>
	<stop  offset="1" style="stop-color:#85764B"/>
</radialGradient>
<path class="st3" d="M66.2,216.7c0,0-5.6-4.1-11.5-7.1c-3.7-1.9-7.5-2.3-10.7-4.4c-5.3-3.5-6.2-7.1-6.2-7.1l-0.9-1.8
	c0,0-14.6,33.5,27.5,53.2c0,0,6.7-12.4,7.1-20.4C72,220.7,66.2,216.7,66.2,216.7L66.2,216.7z"/>
<radialGradient id="SVGID_3_" cx="63.4157" cy="290.2018" r="53.4812" gradientTransform="matrix(1 0 0 -1 0 475.89)" gradientUnits="userSpaceOnUse">
	<stop  offset="0" style="stop-color:#CFBF8B"/>
	<stop  offset="1" style="stop-color:#85764B"/>
</radialGradient>
<path class="st4" d="M53.7,205.2c0,0,4.4,1.4,8.9,4.4c5.3,3.6,10.7,8.9,10.7,8.9s2.2-9.5,0-15.9c-2.2-6.4-8.9-9.8-8.9-9.8
	s-8.1-3.1-13.3-6.2c-4.9-3.1-7.1-6.2-7.1-6.2l-0.9-1.8c0,0-3.8,9.5-0.9,16.8C44.5,201,53.7,205.2,53.7,205.2z"/>
<radialGradient id="SVGID_4_" cx="63.4157" cy="290.2018" r="53.4812" gradientTransform="matrix(1 0 0 -1 0 475.89)" gradientUnits="userSpaceOnUse">
	<stop  offset="0" style="stop-color:#CFBF8B"/>
	<stop  offset="1" style="stop-color:#85764B"/>
</radialGradient>
<path class="st5" d="M75.9,199v18.6c0,0,24.8-17,7.1-43.4c0,0,1,6.7-0.9,12.4C80,193.2,75.9,199,75.9,199z"/>
<radialGradient id="SVGID_5_" cx="63.4157" cy="290.2018" r="53.4812" gradientTransform="matrix(1 0 0 -1 0 475.89)" gradientUnits="userSpaceOnUse">
	<stop  offset="0" style="stop-color:#CFBF8B"/>
	<stop  offset="1" style="stop-color:#85764B"/>
</radialGradient>
<path class="st6" d="M69.7,176.8c0,0,5.1,12.2,5.3,17.7c0,0,16.8-24.2-7.1-37.3c0,0,1.4,2.7,1.8,7.1
	C70.2,169.7,69.7,176.8,69.7,176.8z"/>
<radialGradient id="SVGID_6_" cx="63.4157" cy="290.2018" r="53.4812" gradientTransform="matrix(1 0 0 -1 0 475.89)" gradientUnits="userSpaceOnUse">
	<stop  offset="0" style="stop-color:#CFBF8B"/>
	<stop  offset="1" style="stop-color:#85764B"/>
</radialGradient>
<path class="st7" d="M66.2,171.4c0,0,6.2-21.1-19.6-25.7C46.7,145.7,42.2,162.9,66.2,171.4z"/>
<radialGradient id="SVGID_7_" cx="63.4157" cy="290.2018" r="53.4812" gradientTransform="matrix(1 0 0 -1 0 475.89)" gradientUnits="userSpaceOnUse">
	<stop  offset="0" style="stop-color:#CFBF8B"/>
	<stop  offset="1" style="stop-color:#85764B"/>
</radialGradient>
<path class="st8" d="M56.4,184.7c0,0,3,0.5,6.2,2.6c4.2,2.7,8.9,7.1,8.9,7.1s0.5-9.3-3.5-15.9c-3.8-6.3-12.4-9.8-12.4-9.8
	s-6.7-3.1-7.1-4.4c0,0-4.1,6.7-1.8,12.4C48.4,181,56.4,184.7,56.4,184.7z"/>
<g>
	<path class="st9" d="M143.2,197.3h6.2v27.8h4.4v4.8h-4.6c-1,7.3-5.4,10.7-12.2,10.7c-7.4,0-12-3.8-12-13.2c0-2.6,0.3-5.6,1.1-8.2
		l6.3-1.2c-0.9,3-1.3,6-1.3,8.9c0,7,3.1,8.9,6.4,8.9c3.4,0,5.8-2.1,5.8-8.9L143.2,197.3L143.2,197.3z"/>
	<path class="st9" d="M153,225.1h8.7v-16.9h6.2v21.8H153V225.1L153,225.1z M156.9,239.9c-1.8,0-3.1-1.4-3.1-3.2
		c0-1.8,1.3-3.2,3.1-3.2c1.8,0,3.1,1.4,3.1,3.2C160,238.5,158.7,239.9,156.9,239.9z M164.6,239.9c-1.8,0-3.1-1.4-3.1-3.2
		c0-1.8,1.3-3.2,3.1-3.2c1.8,0,3.1,1.4,3.1,3.2C167.7,238.5,166.3,239.9,164.6,239.9z M173.4,240.9l0.3-4.9c0,0,3.6,0.8,7.3,0.8
		c4.8,0,8-1.8,8-6.2v-0.7h-3.6c-9,0-12.4-4.2-12.4-10.8c0-6,3.7-11.6,12.3-11.6c5.5,0,9.7,1.6,9.7,1.6v15.9h4.6v4.8H195v0.1
		c0,6.4-4.1,11.5-14.5,11.5C176.9,241.5,173.4,240.9,173.4,240.9L173.4,240.9z M189,213.2c0,0-1.8-0.9-4.4-0.9
		c-3.5,0-5.5,2.6-5.5,6.3c0,4.2,2.1,6.5,6.9,6.5h3V213.2L189,213.2z"/>
	<path class="st9" d="M205.5,226.3c-1.2,2.4-3.3,3.5-6.2,3.5h-0.7V225h0.9c2.2,0,3.5-1.3,3.5-5.5c0-6.6,4.1-12,11.8-12
		c7.5,0,10.7,4.3,10.7,11v6.5h4v4.8H215C209.6,229.8,206.9,228.6,205.5,226.3L205.5,226.3z M219.7,219.3c0-4.8-1.8-6.9-5.2-6.9
		s-5.4,2.6-5.4,6.6c0,4.1,1.8,6.2,6.5,6.2h4v-5.8H219.7z"/>
	<path class="st9" d="M228.8,225.1h6.5v-16.9h6.2v16.9h4.1v4.8h-16.7V225.1z M230.6,201.5c0-1.8,1.3-3.2,3.1-3.2
		c1.8,0,3.1,1.4,3.1,3.2c0,1.8-1.3,3.2-3.1,3.2C231.9,204.6,230.6,203.2,230.6,201.5z M238.3,201.5c0-1.8,1.3-3.2,3.1-3.2
		c1.8,0,3.1,1.4,3.1,3.2c0,1.8-1.3,3.2-3.1,3.2C239.6,204.6,238.3,203.2,238.3,201.5z"/>
	<path class="st9" d="M244.9,225.1h5.7v-27.8h6.2v27.8h4.6v4.8h-16.5V225.1z"/>
	<path class="st9" d="M260.6,225.1h5.7v-27.8h6.2v32.6h-11.9L260.6,225.1L260.6,225.1z M301.8,229.8c-9,0-12.4-4.2-12.4-10.8
		c0-6,3.7-11.6,12.3-11.6c5.5,0,9.7,1.6,9.7,1.6V225h4.5v4.8L301.8,229.8L301.8,229.8z M294.2,201.5c0-1.8,1.3-3.2,3.1-3.2
		s3.1,1.4,3.1,3.2c0,1.8-1.3,3.2-3.1,3.2S294.2,203.2,294.2,201.5z M305.4,213.2c0,0-1.8-0.9-4.4-0.9c-3.5,0-5.5,2.6-5.5,6.3
		c0,4.2,2.1,6.5,6.9,6.5h3V213.2L305.4,213.2z M301.8,201.5c0-1.8,1.3-3.2,3.1-3.2s3.1,1.4,3.1,3.2c0,1.8-1.3,3.2-3.1,3.2
		C303.2,204.6,301.8,203.2,301.8,201.5z"/>
	<path class="st9" d="M315.2,225.1h17.9l0.2-3.5c0-5.8-2.4-8.9-9-8.9c-1.9,0-3.6,0.1-5.3,0.3v-4.7c1.8-0.2,4-0.4,5.9-0.4
		c10.4,0,14.5,4.6,14.5,13.4c0,1.1,0,2.4-0.2,3.7h3.6v4.8h-27.7V225.1L315.2,225.1z"/>
	<path class="st9" d="M342.1,225.1h6.5v-16.9h6.2v21.8h-12.5v-4.8L342.1,225.1z M345,236.8c0-1.8,1.4-3.2,3.2-3.2s3.2,1.4,3.2,3.2
		c0,1.8-1.4,3.2-3.2,3.2S345,238.6,345,236.8z M362,197.3h6.2v32.6H362V197.3z M366.4,241.1l0.5-4.8c1.2,0.4,2.5,0.6,3.7,0.5
		c3.1,0,4.9-1.4,4.9-6.5v-22.2h6.2v16.9h4.6v4.8h-4.6v0.2c0,5.9-2,11.5-11.4,11.5C368.9,241.6,367.6,241.5,366.4,241.1z"/>
	<path class="st9" d="M402,229.8c-5.5,0-8.1-1.3-9.6-3.5c-1.2,2.4-3.3,3.5-6.2,3.5h-0.7V225h0.9c2.2,0,3.5-1.3,3.5-5.5
		c0-6.6,4.1-12,11.8-12c7.5,0,10.7,4.3,10.7,11v11.3L402,229.8L402,229.8z M406.5,219.3c0-4.8-1.8-6.9-5.2-6.9s-5.4,2.6-5.4,6.6
		c0,4.1,1.8,6.2,6.5,6.2h4v-5.8H406.5z"/>
</g>
<g>
	<path class="st10" d="M144.4,274.9l-1.5-10.2c-0.3-1.7-0.5-3.5-0.7-5.3h-0.1l-1.2,4.8l-3.4,10.8h-4l-3.3-10l-1.4-5.6h-0.1l-0.5,5.6
		l-1.2,9.9h-4.1l3.2-21.2h4.8l3.6,11l1.2,4.5h0.1c0.3-1.5,0.7-3,1.2-4.4l3.6-11h4.7l3.3,21.2h-4.3L144.4,274.9z M159.9,275.2
		c-6.7,0-8.2-3.6-8.2-7.7v-13.8h4.1v13.6c0,2.6,0.9,4.5,4.4,4.5c3.2,0,4.5-1.3,4.5-4.9v-13.2h4.1v13
		C168.7,272.4,165.4,275.2,159.9,275.2z M183.8,274.9l-5.7-8.8h-0.3v8.8h-4.1v-21.2l6.2-0.1c4.7,0,7.7,1.6,7.7,5.9
		c0,3.2-2.3,5.4-5.2,5.9l1.6,2.3l4.9,7.1H183.8L183.8,274.9z M179.2,256.8c-0.5,0-1.2,0-1.6,0.1v6.2c0.3,0,0.9,0.1,1.4,0.1
		c2.4,0,4-1.2,4-3.2C183.1,257.8,181.8,256.8,179.2,256.8L179.2,256.8z M204.1,274.9l-1.4-4.3h-8l-1.4,4.3h-4.1l7.4-21.2h4.8
		l7.5,21.2H204.1L204.1,274.9z M199.5,260.9l-0.9-3l-0.8,3l-2.2,6.4h6L199.5,260.9z M217.1,274.9c-1.4,0-3.5-0.1-6.2-0.1v-21.2
		l7-0.1c4.5,0,7.1,1.9,7.1,5.3c0,2.1-1.2,4-3.2,4.7v0.1c2.3,0.4,3.8,2.4,3.8,4.7C225.6,271.6,223.3,274.9,217.1,274.9L217.1,274.9z
		 M217.3,256.7l-2.3,0.1v5.6h1.6c2.7,0,4.1-1.1,4.1-3C220.7,257.8,219.7,256.7,217.3,256.7L217.3,256.7z M216.7,265.5H215v6l2.3,0.1
		c2.6,0,4.1-1.3,4.1-3.2C221.2,266.4,219.5,265.5,216.7,265.5z M241.6,274.9l-1.4-4.3h-8l-1.4,4.3h-4.1l7.4-21.2h4.8l7.5,21.2H241.6
		L241.6,274.9z M236.9,260.9l-0.9-3l-0.8,3l-2.2,6.4h6L236.9,260.9z M261.5,274.9v-9.2h-9v9.2h-4.1v-21.2h4.1v8.5h9v-8.5h4.1v21.2
		H261.5z M282.9,274.9l-1.4-4.3h-8l-1.4,4.3h-4.1l7.4-21.2h4.8l7.5,21.2H282.9z M278.2,260.9l-0.9-3l-0.8,3l-2.2,6.4h6L278.2,260.9z
		 M301.3,257.1v5.4h6.8v3.4h-6.8v8.9h-4.1v-21.2h11.3v3.5H301.3L301.3,257.1z M311.9,274.9v-21.2h4.1v21.2H311.9L311.9,274.9z"/>
	<g>
		<path id="C" class="st10" d="M333.1,274.9l-6.6-11.6l-1.9-4.2l0.2,10.1v5.7h-4v-21.2h5.4l6.4,11.4c0.8,1.3,1.4,2.9,2.1,4.3
			l-0.2-10.3v-5.4h4v21.2L333.1,274.9L333.1,274.9z"/>
	</g>
	<path class="st10" d="M355.9,274.9l-1.4-4.3h-8l-1.4,4.3h-4.1l7.4-21.2h4.8l7.5,21.2H355.9z M351.2,260.9l-0.9-3l-0.8,3l-2.2,6.4h6
		L351.2,260.9z"/>
	<g>
		<path id="C_1_" class="st10" d="M374.8,274.9l-6.6-11.6l-1.9-4.2l0.2,10.1v5.7h-4v-21.2h5.4l6.4,11.4c0.8,1.3,1.4,2.9,2.1,4.3
			l-0.2-10.3v-5.4h4v21.2L374.8,274.9L374.8,274.9z"/>
	</g>
	<path class="st10" d="M393.4,275.1c-7.5,0-9.8-4.9-9.8-10.2c0-6.7,3.5-11.4,10.7-11.4c1.5,0,3.2,0.2,4.5,0.7l-0.5,3.7
		c-1.3-0.5-2.7-0.8-4.2-0.8c-4,0-5.9,3-5.9,7.1c0,4.6,1.9,7.1,6.2,7.1c1.3,0,3-0.3,4.1-0.9l0.7,3.6
		C397.4,274.8,395.4,275.1,393.4,275.1L393.4,275.1z M402.5,274.9v-21.2H414v3.4h-7.5v5.2h7v3.3h-7v5.7h7.5v3.5h-11.5V274.9z"/>
</g>
</svg>
