<svg xmlns="http://www.w3.org/2000/svg" viewBox="0 0 450 475.1"><g fill="#2c4169"><path d="M382.8 254.8c-.7-.6-1.3-1.1-2.5-3l-16.7-24.5 14.9-20.5c1.5-2 1.8-2.4 2.7-3.2h-8.4c.3.8.3 1.8-.8 3.2l-11.7 15.7-10.7-15.8c-.9-1.2-1-2.4-.7-3.1h-10c1 .6 1.6 1.3 2.9 3.2l14.4 21L339 251c-1.6 2.1-2.1 2.8-3.3 3.7h9.7c-.4-.8-.5-1.8.5-3.1l13.6-18.9 12.8 18.7c1.2 1.7 1 2.4.7 3.3l9.8.1m-68-4.3l-14.5-18.8c-2.1-2.6-2.5-3.1-3.6-3.9v-.2c5.2 0 13.4-3.3 13.4-12.2 0-6.9-4.8-11.7-15.8-11.7h-13.6c.8 1 .9 1.2.9 5v41.9c0 2.4-.1 2.8-.9 4.2h8.3c-.9-1.3-.9-1.6-.9-4.2v-25.1c.9.4 1.8 1.8 3.8 4.4 5.7 7.2 16.3 22.9 18.4 24.9h8.9v-.1c-1.7-.9-2.3-1.5-4.4-4.2h0zm-24.3-25.3c-1.2 0-2.2-.1-2.7-.2v-17.4c.9-.3 2.2-.5 4.3-.5 7.4 0 11.3 4.1 11.3 8.6 0 5-4.6 9.5-12.9 9.5"/><path d="M331.6 254.8c-.8-1.3-.9-1.8-.9-4.2v-41.9c0-3.8 0-4 .9-5h-8.2c.8 1 .9 1.2.9 5v41.9c0 2.4-.1 2.8-.9 4.2h8.2m-81.4-51.6c-14.2 0-25.8 11.1-25.8 26 0 14.7 11.5 26 25.8 26 14.1 0 25.8-11.3 25.8-26s-11.5-26-25.8-26zm0 48c-11.4 0-19-10.5-19-22 0-11.4 7.5-22 19-22 11.1 0 18.8 10.5 18.8 22 0 11.4-7.7 22-18.8 22"/></g><path d="M67.2 218.6v4.7l142.8-41v-4.7l-142.8 41m83.7-3.4c-4.9 0-9.1-2.3-10.4-7l-73.2 21v4.7l70.4-20.2c3.1 4.3 7.7 6.4 14.1 6.4 8.5 0 19.3-6.9 19.5-16.1l38.8-11.1v-4.7l-43.8 12.6c1.5 9.2-7.9 14.4-15.4 14.4m.4 13.9c-8.3 0-15.9-3.5-18.5-8.1l-65.6 18.8v4.7l64.9-18.6c1.8 3.5 9.7 8 19.9 8 15.3 0 29.7-12.5 30.8-22.6l27.2-7.8v-4.7l-30.8 8.8c.5 9.4-12.7 21.5-27.9 21.5m1.7 12c-9.6 0-17.9-3.3-22-9l-63.8 18.3v4.7l64.2-18.4c5.8 6.4 14.5 8.6 21.6 8.6 19.4 0 33.8-13.3 35.9-25.1l21.1-6.1v-4.7l-22.8 6.6c-2.7 13.8-17.7 25.1-34.2 25.1m2.6 10.2c-11.3 0-18.4-4-22.6-9.2L67.2 261v4.7l67.6-19.4c4 5 12.7 8.6 21.8 8.6 15.5 0 30.1-8.9 34.8-24.9l18.6-5.3V220l-19.3 5.5c-4 18-21.3 25.8-35.1 25.8m-17.3-.1l-71.1 20.4v4.7l74.3-21.3c-1.3-1-2.8-2.9-3.2-3.8m51.6-10.1l20.1-5.8v-4.7l-18.9 5.4c-.2 1.3-.6 3.5-1.2 5.1M67.2 297.5l142.8-41v-4.7l-142.8 41v4.7m122.3-54c.1-.3-.2-.5-.4-.1-.9 1.6-10 16.1-32 16.1-5.1 0-9.6-1.2-12.7-2.7-.3-.1-.5.1-.2.3 1 .8 2.2 1.5 3.5 2.2l-80.5 23.1v4.7l87.7-25.2c2 .4 4 .7 6.1.7 9.7 0 16.6-4.1 21.2-8.5l27.8-8v-4.7l-22.8 6.5c1.3-2.2 2.1-3.8 2.3-4.4" fill="#da1f3d"/></svg>