<?xml version="1.0" encoding="utf-8"?>
<!-- Generator: Adobe Illustrator 23.0.4, SVG Export Plug-In . SVG Version: 6.00 Build 0)  -->
<svg version="1.1" id="Layer_1" xmlns="http://www.w3.org/2000/svg" xmlns:xlink="http://www.w3.org/1999/xlink" x="0px" y="0px"
	 viewBox="0 0 450 475.1" style="enable-background:new 0 0 450 475.1;" xml:space="preserve">
<style type="text/css">
	.st0{fill:#231F20;stroke:#FFFFFF;stroke-width:11;stroke-linejoin:round;stroke-miterlimit:10;}
	.st1{fill:#231F20;}
	.st2{fill:#FFFFFF;}
	.st3{fill:#BBBDBF;}
	.st4{fill:url(#SVGID_1_);}
</style>
<g>
	<path class="st0" d="M228.5,144.6c0,0-14.9,21.9-15,22c0,0.2,0,17.4,0,17.4H202c0,0,0-16.8,0-17c-0.1-0.2-16.2-22.4-16.2-22.4H199
		c0,0,10.8,14,11.1,14.2c0.2-0.2,10.6-14.2,10.6-14.2H228.5z"/>
	<polygon class="st0" points="279,144.8 290.5,144.8 290.5,176.8 316.4,176.8 316.4,184 279,184 	"/>
	<polygon class="st0" points="325.8,144.6 363.5,144.6 363.5,151.8 337.1,151.8 337.1,160.6 363,160.6 363,168 337.1,168 
		337.1,176.8 364,176.8 364,184 325.8,184 	"/>
	<polygon class="st0" points="84.1,144.8 84.1,183.8 95.6,183.8 95.6,168 119.5,168 119.5,183.8 130.9,183.8 130.9,144.8 
		119.5,144.8 119.5,160.8 95.6,160.8 95.6,144.8 	"/>
	<path class="st0" d="M140.5,144.6h26c13.2,0,17.3,5.7,17.3,11.1c0,4.9-4.8,9.4-12.4,10.5c3.2,3.7,14.7,17.6,14.7,17.6h-12.8
		c0,0-11.8-17.2-14.5-21.3c11.6,1,13.5-2.5,13.5-5.7c0-3.9-9.2-6.2-19.5-4.9c0,0.8,0,32,0,32h-12.1v-39.4L140.5,144.6L140.5,144.6z"
		/>
	<path class="st0" d="M373.1,144.6h26c13.2,0,17.3,5.7,17.3,11.1c0,5.1-4.8,9.6-12.4,10.5c3.2,3.7,14.7,17.6,14.7,17.6h-12.8
		c0,0-11.8-17.2-14.5-21.5c11.6,1,13.5-2.5,13.5-5.7c0-4.1-9.2-6.2-19.5-5.1c0,0.8,0,32.2,0,32.2h-12.1v-39.2L373.1,144.6
		L373.1,144.6z"/>
	<path class="st0" d="M231.6,155.7c0,6.6,3.4,9.8,11.6,11.7c1.7,0.4,3.9,1,8.6,1.8c4.1,0.8,6.7,1.6,6.7,3.7c0,1.2-0.6,4.3-9.8,4.3
		c-8.2,0-14.8-2.3-16.2-2.7l-1.1,7.6c1.1,0.2,9.1,2.1,17.9,2.1c11.1,0,21.6-3.1,21.6-12.3c0-6.4-3.7-9.8-11.4-11.3
		c-3.4-0.8-7-1.4-9.6-2c-3.7-0.6-6-1.4-6-3.7c0-2,1.5-3.1,8.8-3.1c6.8,0,12.8,1.8,14.2,2.1l0.9-7c-1.9-0.4-10.3-2.1-18.5-2.1
		C242.2,144.8,231.6,146.4,231.6,155.7"/>
	<path class="st0" d="M29.9,164.3c0,13.3,12.9,19.7,27.4,19.7c7.7,0,14.9-1.4,16.7-1.8l1.1-7.6c-1.7,0.2-8.8,1.6-15.7,1.6
		c-7.5,0-18.2-3.5-18.2-12.1S51.8,152,59.4,152c6.9,0,14,1.4,15.7,1.6L74,146c-1.8-0.4-8.9-1.8-16.7-1.8
		C42.8,144.6,29.9,151,29.9,164.3"/>
	<g>
		<path class="st0" d="M445.1,215.2c-3.1,0-158-2.7-163.4-2.7c-5.3,0-7.4-0.2-14.5,3.7c-3.9,2.1-10.5,6.4-16.1,6.8
			c-5.3,0.4-26.1,0.2-26.1,0.2s-20.9,0.2-26.1-0.2c-5.6-0.4-12.2-4.7-16.1-6.8c-7-3.9-9.2-3.7-14.5-3.7S8,215.2,4.9,215.2
			c-4.6,0-6.6,3.1-3,9.4c3.3,5.7,15.4,16.8,22.7,20.1c12.1,5.5,86.1,22.6,99.8,25.6c30.1,6.2,71.5,15,73.5,14.8
			c7-0.8,13.4-5.9,27-5.9s19.9,4.9,27,5.9c2.1,0.2,43.5-8.4,73.5-14.8c13.6-2.9,87.7-19.9,99.8-25.6c7.3-3.3,19.4-14.4,22.7-20.1
			C451.8,218.4,449.9,215.2,445.1,215.2"/>
	</g>
</g>
<g>
	<g>
		<g>
			<path class="st1" d="M228.5,144.6c0,0-14.9,21.9-15,22c0,0.2,0,17.4,0,17.4H202c0,0,0-16.8,0-17c-0.1-0.2-16.2-22.4-16.2-22.4
				H199c0,0,10.8,14,11.1,14.2c0.2-0.2,10.6-14.2,10.6-14.2H228.5z"/>
		</g>
		<g>
			<polygon class="st1" points="279,144.8 290.5,144.8 290.5,176.8 316.4,176.8 316.4,184 279,184 			"/>
		</g>
		<g>
			<polygon class="st1" points="325.8,144.6 363.5,144.6 363.5,151.8 337.1,151.8 337.1,160.6 363,160.6 363,168 337.1,168 
				337.1,176.8 364,176.8 364,184 325.8,184 			"/>
		</g>
		<g>
			<polygon class="st1" points="84.1,144.8 84.1,183.8 95.6,183.8 95.6,168 119.5,168 119.5,183.8 130.9,183.8 130.9,144.8 
				119.5,144.8 119.5,160.8 95.6,160.8 95.6,144.8 			"/>
		</g>
		<g>
			<path class="st1" d="M140.5,144.6h26c13.2,0,17.3,5.7,17.3,11.1c0,4.9-4.8,9.4-12.4,10.5c3.2,3.7,14.7,17.6,14.7,17.6h-12.8
				c0,0-11.8-17.2-14.5-21.3c11.6,1,13.5-2.5,13.5-5.7c0-3.9-9.2-6.2-19.5-4.9c0,0.8,0,32,0,32h-12.1v-39.4L140.5,144.6L140.5,144.6
				z"/>
		</g>
		<g>
			<path class="st1" d="M373.1,144.6h26c13.2,0,17.3,5.7,17.3,11.1c0,5.1-4.8,9.6-12.4,10.5c3.2,3.7,14.7,17.6,14.7,17.6h-12.8
				c0,0-11.8-17.2-14.5-21.5c11.6,1,13.5-2.5,13.5-5.7c0-4.1-9.2-6.2-19.5-5.1c0,0.8,0,32.2,0,32.2h-12.1v-39.2L373.1,144.6
				L373.1,144.6z"/>
		</g>
		<path class="st1" d="M231.6,155.7c0,6.6,3.4,9.8,11.6,11.7c1.7,0.4,3.9,1,8.6,1.8c4.1,0.8,6.7,1.6,6.7,3.7c0,1.2-0.6,4.3-9.8,4.3
			c-8.2,0-14.8-2.3-16.2-2.7l-1.1,7.6c1.1,0.2,9.1,2.1,17.9,2.1c11.1,0,21.6-3.1,21.6-12.3c0-6.4-3.7-9.8-11.4-11.3
			c-3.4-0.8-7-1.4-9.6-2c-3.7-0.6-6-1.4-6-3.7c0-2,1.5-3.1,8.8-3.1c6.8,0,12.8,1.8,14.2,2.1l0.9-7c-1.9-0.4-10.3-2.1-18.5-2.1
			C242.2,144.8,231.6,146.4,231.6,155.7"/>
		<path class="st1" d="M29.9,164.3c0,13.3,12.9,19.7,27.4,19.7c7.7,0,14.9-1.4,16.7-1.8l1.1-7.6c-1.7,0.2-8.8,1.6-15.7,1.6
			c-7.5,0-18.2-3.5-18.2-12.1S51.8,152,59.4,152c6.9,0,14,1.4,15.7,1.6L74,146c-1.8-0.4-8.9-1.8-16.7-1.8
			C42.8,144.6,29.9,151,29.9,164.3"/>
	</g>
	<g>
		<path class="st2" d="M294,235.7c1.8,0,8.9,0,14-0.2c-0.1,0.2-0.3,0.4-0.4,0.6c-2.1,2.9-4.5,5.7-6.6,7.8c-0.2,0-0.4,0-0.7,0
			c-2.1,0-23.2,0-23.2,0s9.3,1.2,9.5,2.3c1.3,0,7.9-0.4,12.6-0.6c-0.9,1-1.8,1.8-2.4,2.3c4.3-4.3-1.9,2.1-0.5,0.6
			c0.1-0.2,0.3-0.4,0.5-0.6c-0.2,0.2-0.4,0.4-0.6,0.6c-3.4,3.3-13.8,11.1-28.3,15.2c-7.9,2.3-6.3,2-11.2,2.7c0,0-4.5,0.8-3.7,0.8
			c0.7,0,18.2,0.8,31.6-5.7c13-6.2,21.8-15.6,24.8-18.9c4.2-4.7,8.4-7.2,15.3-8.2c3.2-0.4,102.2-8.8,102.4-8.8
			c10.6-1,18.1-4.1,19.4-4.9c0.5-0.4,1-0.6,1.4-1c-0.2,0.6-0.5,1.2-1.1,2.1c-3.1,5.3-15.1,16.2-22,19.5
			c-12.1,5.5-86.4,22.6-99.6,25.4l-7.4,1.6c-19.8,4.1-44.9,9.4-57.7,11.9c-4.5,0.8-6.1-0.2-7.2-0.8c-1.1-0.6-6-3.3-8.1-4.1
			c-4.8-1.6-11.3-3.9-19.9-3.9c-8.7,0-15.2,2.3-19.9,4.1c-2.1,0.8-6.9,3.5-8.1,4.1c-1.1,0.6-2.7,1.6-7.2,0.8
			c-12.8-2.3-37.9-7.8-57.7-11.9l-7.3-1.6c-13.2-2.7-87.5-19.9-99.6-25.4c-6.9-3.1-18.9-14.2-22-19.5c-0.6-1-0.9-1.6-1.1-2.1
			c0.4,0.2,0.8,0.6,1.4,1c1.3,0.8,8.8,3.9,19.4,4.9c0.2,0,99.3,8.4,102.4,8.8c6.8,1,11.1,3.5,15.3,8.2c3.1,3.3,11.9,12.9,24.9,18.9
			c13.4,6.4,30.9,5.5,31.6,5.7c0.7,0-3.8-0.8-3.8-0.8c-5-0.8-3.4-0.6-11.2-2.7c-14.5-4.3-24.9-11.9-28.3-15.2
			c-0.2-0.2-0.4-0.4-0.6-0.6c0.2,0.2,0.4,0.4,0.6,0.6c1.2,1.6-4.9-4.9-0.6-0.6c-0.6-0.6-1.4-1.4-2.4-2.5c4.9,0.2,12.2,0.6,13.5,0.6
			c0.2-1.4,9.5-2.3,9.5-2.3s-21.2-0.2-23.2,0c-0.6,0-1.1,0-1.5,0c-2.1-2.1-4.5-4.9-6.6-7.8c-0.1-0.2-0.3-0.4-0.4-0.6
			c5.3,0.4,13.2,0.4,15.1,0.4c0.2-1.4,10.5-2.5,10.5-2.5s-24.6,0-26.8,0c-0.3,0-0.7,0-1,0c-4.8-4.1-10.6-4.7-14.2-4.7
			c-2.2,0-91.1-3.5-103.3-3.9c-3.9-0.4-13.1-1.6-19-4.5c-0.6-0.4-1.2-0.6-1.7-0.8c0-0.6,1.1-1,3.2-1l29.6-0.6
			c45.3-0.8,129.8-2.3,133.7-2.3h0.9c4.6,0,6.7,0,13.1,3.5l1.7,1c4.1,2.3,9.8,5.7,14.8,6c5.3,0.4,25.3,0.2,26.2,0.2
			c0.8,0,21,0,26.2-0.2c5.1-0.4,10.6-3.7,14.8-6l1.7-1c6.4-3.5,8.5-3.5,13.1-3.5h0.9c3.8,0,88.3,1.6,133.7,2.3l29.6,0.6
			c2.1,0,3.3,0.4,3.2,1c-0.5,0.2-1,0.4-1.7,0.8c-5.9,2.9-15.1,3.9-19,4.5c-12.2,0.4-101.1,3.9-103.2,3.9c-3.6,0-9.4,0.6-14.2,4.7
			h-0.2c-2.1,0-26.8,0-26.8,0S293.8,234.6,294,235.7"/>
		<path class="st3" d="M283.4,233.2c0,0,10.4,1.2,10.5,2.5c1.8,0,8.9,0,14-0.2c-0.1,0.2-0.3,0.4-0.4,0.6c-2.1,2.9-4.5,5.7-6.6,7.8
			c-0.2,0-0.4,0-0.7,0c-2.1,0-23.2,0-23.2,0s9.3,1.2,9.5,2.3c1.3,0,7.9-0.4,12.6-0.6c-0.9,1-1.8,1.8-2.4,2.3
			c4.3-4.3-1.9,2.1-0.5,0.6c0.1-0.2,0.3-0.4,0.5-0.6c-0.2,0.2-0.4,0.4-0.6,0.6c-3.4,3.3-13.8,11.1-28.3,15.2
			c-7.9,2.3-6.3,2-11.2,2.7c0,0-4.5,0.8-3.8,0.8s18.2,0.8,31.6-5.7c13-6.2,21.8-15.6,24.8-18.9c4.2-4.7,8.4-7.2,15.3-8.2
			c3.2-0.4,102.2-8.8,102.4-8.8c10.6-1,18.1-4.1,19.4-4.9c0.5-0.4,1-0.6,1.4-1c-0.2,0.6-0.5,1.2-1.1,2.1c-3.1,5.3-15.1,16.2-22,19.5
			c-12.1,5.5-86.4,22.6-99.6,25.4l-7.4,1.6c-19.8,4.1-44.9,9.4-57.7,11.9c-4.5,0.8-6.1-0.2-7.2-0.8c-1.1-0.6-6-3.3-8.1-4.1
			c-4.8-1.6-11.3-3.9-19.9-3.9c-8.7,0-15.2,2.3-19.9,4.1c-2.1,0.8-6.9,3.5-8.1,4.1c-1.1,0.6-2.7,1.6-7.2,0.8
			c-12.8-2.3-37.9-7.8-57.7-11.9l-7.3-1.6c-13.2-2.7-87.5-19.9-99.6-25.4C18,238.4,6,227.3,2.9,222c-0.6-1-0.9-1.6-1.1-2.1
			c0.4,0.2,0.8,0.6,1.4,1c1.3,0.8,8.8,3.9,19.4,4.9c0.2,0,99.3,8.4,102.4,8.8c6.8,1,11.1,3.5,15.3,8.2c3.1,3.3,11.9,12.9,24.9,18.9
			c13.4,6.4,30.9,5.7,31.6,5.7c0.7,0-3.8-0.8-3.8-0.8c-5-0.8-3.4-0.6-11.2-2.7c-14.5-4.3-24.9-11.9-28.3-15.2
			c-0.2-0.2-0.4-0.4-0.6-0.6c0.2,0.2,0.4,0.4,0.6,0.6c1.2,1.6-4.9-4.9-0.6-0.6c-0.6-0.6-1.4-1.4-2.4-2.5c4.9,0.2,12.2,0.6,13.5,0.6
			c0.2-1.4,9.5-2.3,9.5-2.3s-21.2-0.2-23.2,0c-0.6,0-1.1,0-1.5,0c-2.1-2.1-4.5-4.9-6.6-7.8c-0.1-0.2-0.3-0.4-0.4-0.6
			c5.3,0.4,13.2,0.4,15.1,0.4c0.2-1.4,10.5-2.5,10.5-2.5"/>
		<g>
			<path class="st1" d="M445.1,215.2c-3.1,0-158-2.7-163.4-2.7c-5.3,0-7.4-0.2-14.5,3.7c-3.9,2.1-10.5,6.4-16.1,6.8
				c-5.3,0.4-26.1,0.2-26.1,0.2s-20.9,0.2-26.1-0.2c-5.6-0.4-12.2-4.7-16.1-6.8c-7-3.9-9.2-3.7-14.5-3.7S8,215.2,4.9,215.2
				c-4.6,0-6.6,3.1-3,9.4c3.3,5.7,15.4,16.8,22.7,20.1c12.1,5.5,86.1,22.6,99.8,25.6c30.1,6.2,71.5,15,73.5,14.8
				c7-0.8,13.4-5.9,27-5.9s19.9,4.9,27,5.9c2.1,0.2,43.5-8.4,73.5-14.8c13.6-2.9,87.7-19.9,99.8-25.6c7.3-3.3,19.4-14.4,22.7-20.1
				C451.8,218.4,449.9,215.2,445.1,215.2 M294,235.7c1.8,0,8.9,0,14-0.2c-0.1,0.2-0.3,0.4-0.4,0.6c-2.1,2.9-4.5,5.7-6.6,7.8
				c-0.2,0-0.4,0-0.7,0c-2.1,0-23.2,0-23.2,0s9.3,1.2,9.5,2.3c1.3,0,7.9-0.4,12.6-0.6c-0.9,1-1.8,1.8-2.4,2.3
				c4.3-4.3-1.9,2.1-0.5,0.6c0.1-0.2,0.3-0.4,0.5-0.6c-0.2,0.2-0.4,0.4-0.6,0.6c-3.4,3.3-13.8,11.1-28.3,15.2
				c-7.9,2.3-6.3,2-11.2,2.7c0,0-4.5,0.8-3.7,0.8c0.7,0,18.2,0.8,31.6-5.7c13-6.2,21.8-15.6,24.8-18.9c4.2-4.7,8.4-7.2,15.3-8.2
				c3.2-0.4,102.2-8.8,102.4-8.8c10.6-1,18.1-4.1,19.4-4.9c0.5-0.4,1-0.6,1.4-1c-0.2,0.6-0.5,1.2-1.1,2.1
				c-3.1,5.3-15.1,16.2-22,19.5c-12.1,5.5-86.4,22.6-99.6,25.4l-7.4,1.6c-19.8,4.1-44.9,9.4-57.7,11.9c-4.5,0.8-6.1-0.2-7.2-0.8
				c-1.1-0.6-6-3.3-8.1-4.1c-4.8-1.6-11.3-3.9-19.9-3.9c-8.7,0-15.2,2.3-19.9,4.1c-2.1,0.8-6.9,3.5-8.1,4.1
				c-1.1,0.6-2.7,1.6-7.2,0.8c-12.8-2.3-37.9-7.8-57.7-11.9l-7.3-1.6c-13.2-2.7-87.5-19.9-99.6-25.4c-6.9-3.1-18.9-14.2-22-19.5
				c-0.6-1-0.9-1.6-1.1-2.1c0.4,0.2,0.8,0.6,1.4,1c1.3,0.8,8.8,3.9,19.4,4.9c0.2,0,99.3,8.4,102.4,8.8c6.8,1,11.1,3.5,15.3,8.2
				c3.1,3.3,11.9,12.9,24.9,18.9c13.4,6.4,30.9,5.5,31.6,5.7c0.7,0-3.8-0.8-3.8-0.8c-5-0.8-3.4-0.6-11.2-2.7
				c-14.5-4.3-24.9-11.9-28.3-15.2c-0.2-0.2-0.4-0.4-0.6-0.6c0.2,0.2,0.4,0.4,0.6,0.6c1.2,1.6-4.9-4.9-0.6-0.6
				c-0.6-0.6-1.4-1.4-2.4-2.5c4.9,0.2,12.2,0.6,13.5,0.6c0.2-1.4,9.5-2.3,9.5-2.3s-21.2-0.2-23.2,0c-0.6,0-1.1,0-1.5,0
				c-2.1-2.1-4.5-4.9-6.6-7.8c-0.1-0.2-0.3-0.4-0.4-0.6c5.3,0.4,13.2,0.4,15.1,0.4c0.2-1.4,10.5-2.5,10.5-2.5s-24.6,0-26.8,0
				c-0.3,0-0.7,0-1,0c-4.8-4.1-10.6-4.7-14.2-4.7c-2.2,0-91.1-3.5-103.3-3.9c-3.9-0.4-13.1-1.6-19-4.5c-0.6-0.4-1.2-0.6-1.7-0.8
				c0-0.6,1.1-1,3.2-1l29.6-0.6c45.3-0.8,129.8-2.3,133.7-2.3h0.9c4.6,0,6.7,0,13.1,3.5l1.7,1c4.1,2.3,9.8,5.7,14.8,6
				c5.3,0.4,25.3,0.2,26.2,0.2c0.8,0,21,0,26.2-0.2c5.1-0.4,10.6-3.7,14.8-6l1.7-1c6.4-3.5,8.5-3.5,13.1-3.5h0.9
				c3.8,0,88.3,1.6,133.7,2.3l29.6,0.6c2.1,0,3.3,0.4,3.2,1c-0.5,0.2-1,0.4-1.7,0.8c-5.9,2.9-15.1,3.9-19,4.5
				c-12.2,0.4-101.1,3.9-103.2,3.9c-3.6,0-9.4,0.6-14.2,4.7h-0.2c-2.1,0-26.8,0-26.8,0S293.8,234.6,294,235.7"/>
		</g>
		
			<linearGradient id="SVGID_1_" gradientUnits="userSpaceOnUse" x1="225.9467" y1="970.3378" x2="225.9467" y2="947.7033" gradientTransform="matrix(1 0 0 1 0 -714.9)">
			<stop  offset="0" style="stop-color:#000643"/>
			<stop  offset="0.2143" style="stop-color:#000747"/>
			<stop  offset="0.2243" style="stop-color:#00084A"/>
			<stop  offset="0.3486" style="stop-color:#001066"/>
			<stop  offset="0.4727" style="stop-color:#00157B"/>
			<stop  offset="0.5956" style="stop-color:#001987"/>
			<stop  offset="0.7156" style="stop-color:#001A8B"/>
		</linearGradient>
		<path class="st4" d="M280.2,232.8H171.6c-1.2,0-1.3,0.2-0.6,2.7c0.8,2.9,5.6,12.1,15.9,17.4c4.3,2.1,19.1,2.5,34.1,2.5l0,0h9.9
			l0,0c15,0,29.7-0.4,34.1-2.5c10.2-5.1,15.1-14.4,15.9-17.4C281.6,233.2,281.5,232.8,280.2,232.8"/>
		<polygon class="st2" points="226,238.9 222.8,243.3 222.8,246.9 220.3,246.9 220.3,243.3 216.8,238.9 219.6,238.9 222.1,241.8 
			224.4,238.9 		"/>
		<polygon class="st2" points="237,246.9 245,246.9 245,245.3 239.3,245.3 239.3,238.9 237,238.9 		"/>
		<polygon class="st2" points="247,238.9 255.2,238.9 255.2,240.4 249.5,240.4 249.5,242.2 255.1,242.2 255.1,243.5 249.5,243.5 
			249.5,245.3 255.3,245.3 255.3,246.9 247,246.9 		"/>
		<polygon class="st2" points="197.3,238.9 197.3,242.2 202.5,242.2 202.5,238.9 205,238.9 205,246.9 202.5,246.9 202.5,243.5 
			197.3,243.5 197.3,246.9 194.8,246.9 194.8,238.9 		"/>
		<path class="st2" d="M207,238.9h5.6c2.9,0,3.7,1.2,3.7,2.1c0,1-1,2-2.7,2.1c0.7,0.8,3.2,3.5,3.2,3.5H214c0,0-2.6-3.5-3.1-4.3
			c2.5,0.2,2.9-0.6,2.9-1.2c0-0.8-2-1.2-4.2-1v6.4H207V238.9z"/>
		<path class="st2" d="M257.2,238.9h5.6c2.9,0,3.7,1.2,3.7,2.1c0,1-1,2-2.7,2.1c0.7,0.8,3.2,3.5,3.2,3.5h-2.8c0,0-2.6-3.5-3.1-4.3
			c2.5,0.2,2.9-0.6,2.9-1.2c0-0.8-2-1.2-4.2-1v6.4h-2.6V238.9L257.2,238.9z"/>
		<path class="st2" d="M226.6,240.8c0,1.4,0.7,2.1,2.5,2.5c0.3,0,0.8,0.2,1.9,0.4c0.9,0.2,1.4,0.4,1.4,0.8c0,0.2-0.1,1-2.1,1
			c-1.8,0-3.2-0.6-3.5-0.6l-0.2,1.8c0.2,0,2,0.4,3.8,0.4c2.4,0,4.6-0.8,4.6-2.7c0-1.4-0.8-2.1-2.5-2.5c-0.7-0.2-1.5-0.4-2.1-0.4
			c-0.8-0.2-1.2-0.4-1.2-0.8s0.3-0.8,1.9-0.8c1.4,0,2.8,0.4,3.1,0.4l0.2-1.6c-0.4,0-2.3-0.4-4-0.4
			C229,238.5,226.6,238.9,226.6,240.8"/>
		<path class="st2" d="M183.1,242.8c0,2.9,2.8,4.3,5.9,4.3c1.7,0,3.2-0.4,3.6-0.4l0.2-1.6c-0.3,0-1.9,0.4-3.4,0.4
			c-1.7,0-3.9-0.8-3.9-2.5c0-1.8,2.3-2.5,3.9-2.5c1.4,0,3,0.4,3.4,0.4l-0.2-1.6c-0.4,0-2-0.4-3.6-0.4
			C185.8,238.5,183.1,239.8,183.1,242.8"/>
		<path class="st2" d="M305.7,238.1c0.2,0,0.3,0,0.5,0c0.5-0.6,1-1.2,1.4-2c0.1-0.2,0.3-0.4,0.4-0.6c-5.3,0.2-12.4,0.4-14,0.2
			c-0.9,1.8-12.9,3.1-12.9,3.1S302,238.5,305.7,238.1"/>
		<path class="st2" d="M291.5,248.4c1.4,0,3.6-0.2,5.7-0.6c0.5-0.6,1.2-1.4,2.1-2.1c-1,0-2.2,0.2-3.3,0.2c-4,0.2-8.3,0.4-9.3,0.4
			c-0.1,0.8-13.2,2.5-13.2,2.5S287.6,248.6,291.5,248.4"/>
		<path class="st2" d="M170,238.9c0,0-12.1-1.4-12.9-3.1c-1.9,0-9.7,0-15.1-0.4c0.1,0.2,0.3,0.4,0.4,0.6c0.4,0.6,0.9,1.2,1.3,1.8
			c0.5,0,1,0.2,1.5,0.2C149.1,238.5,170,238.9,170,238.9"/>
		<path class="st2" d="M177.6,248.8c0,0-13.1-2-13.2-2.5c-1,0-5.1-0.2-9.1-0.4c-1.5,0-3.1-0.2-4.4-0.2c0.7,0.8,1.4,1.6,2,2
			c2.5,0.4,5.2,0.6,6.7,0.8C163.4,248.6,177.6,248.8,177.6,248.8"/>
	</g>
</g>
</svg>
