<?xml version="1.0" encoding="utf-8"?>
<!-- Generator: Adobe Illustrator 23.0.4, SVG Export Plug-In . SVG Version: 6.00 Build 0)  -->
<svg version="1.1" id="Layer_1" xmlns="http://www.w3.org/2000/svg" xmlns:xlink="http://www.w3.org/1999/xlink" x="0px" y="0px"
	 viewBox="0 0 450 491.9" style="enable-background:new 0 0 450 491.9;" xml:space="preserve">
<style type="text/css">
	.st0{fill:#CD3029;}
	.st1{fill:#262626;}
	.st2{fill:#313131;}
	.st3{fill:#3C3C3C;}
	.st4{fill:#474747;}
	.st5{fill:#515151;}
	.st6{fill:#5C5C5C;}
	.st7{fill:#676767;}
	.st8{fill:#727272;}
	.st9{fill:#7C7C7C;}
	.st10{fill:#878787;}
	.st11{fill:#929292;}
	.st12{fill:#9D9D9D;}
	.st13{fill:#A8A8A8;}
	.st14{fill:#B3B3B3;}
	.st15{fill:url(#path106_1_);}
	.st16{fill:url(#path126_1_);}
	.st17{fill:#FFFFFF;}
	.st18{fill:url(#path218_1_);}
	.st19{fill:url(#path250_1_);}
	.st20{fill:url(#path334_1_);}
	.st21{fill:url(#path358_1_);}
	.st22{fill:url(#path498_1_);}
	.st23{fill:url(#path522_1_);}
	.st24{fill:url(#path614_1_);}
	.st25{fill:url(#path638_1_);}
</style>
<g id="g10" transform="matrix(1.25,0,0,-1.25,0,70)">
	<g id="g3627" transform="matrix(1.1316135,0,0,1.1612234,-145.83422,-432.30385)">
		<g id="g12" transform="translate(389.5254,371.8877)">
			<path id="path14" class="st0" d="M-27.5-150.8h18.7l36.4,59.9H8.9L-27.5-150.8z"/>
		</g>
		<g id="g16" transform="translate(418.6904,371.8877)">
			<path id="path18" class="st0" d="M-30.9-150.8h18.8l36.4,59.9H5.6L-30.9-150.8z"/>
		</g>
		<g id="g20">
			<g>
				<g>
					<g>
						<g id="g22">
							<g id="g28" transform="translate(132.8086,389.2148)">
								<path id="path30" class="st1" d="M1.7-146.6c-0.9,0-1.6,1-1.6,2.3v20.2c0,1.1,0.7,2.3,1.6,2.3l30.6-0.2
									c8.6,0,15.6-5.6,15.6-12.2c0-6.9-7-12.2-15.6-12.2L1.7-146.6z M28.1-140.9c4.5,0,8,3,8,6.7s-3.6,6.7-8,6.7H12.3
									c-0.4,0-0.7-0.6-0.7-1.1v-10.8c-0.1-0.7,0.3-1.3,0.7-1.3h15.8V-140.9z"/>
							</g>
							<g id="g32" transform="translate(132.8892,389.3223)">
								<path id="path34" class="st2" d="M1.6-146.5c-0.9,0-1.6,1-1.6,2.3v20.1c0,1.1,0.7,2.3,1.6,2.3l30.5-0.2
									c8.6,0,15.6-5.6,15.6-12.2c0-6.7-7-12.2-15.6-12.2L1.6-146.5z M28-141c4.5,0,8,3,8,6.7c0,3.7-3.6,6.7-8,6.7l-15.9,0.2
									c-0.4,0-0.7-0.6-0.7-1.1v-11.1c0-0.7,0.3-1.1,0.7-1.1L28-141z"/>
							</g>
							<g id="g36" transform="translate(132.9697,389.4287)">
								<path id="path38" class="st3" d="M1.7-146.4c-0.9,0-1.6,1-1.6,2.3v19.9c0,1.1,0.7,2.3,1.6,2.3l30.3-0.2
									c8.6,0,15.5-5.4,15.5-12.1c0-6.7-7-12.1-15.5-12.1L1.7-146.4z M27.9-141.1c4.5,0,8.2,3,8.2,6.9c0,3.8-3.7,6.9-8.2,6.9H11.8
									c-0.4,0-0.9-0.6-0.9-1.3v-11.3c0-0.7,0.3-1.3,0.9-1.3L27.9-141.1z"/>
							</g>
							<g id="g40" transform="translate(133.0498,389.5361)">
								<path id="path42" class="st4" d="M1.7-146.5c-0.9,0-1.5,1-1.5,2.1v19.7c0,1.1,0.7,2.1,1.5,2.1l30.2-0.1
									c8.5,0,15.5-5.4,15.5-12.1c0-6.7-6.8-12.1-15.5-12.1L1.7-146.5z M27.7-141.3c4.6,0,8.2,3,8.2,6.9s-3.7,6.9-8.2,6.9l-16,0.2
									c-0.4,0-0.9-0.6-0.9-1.3V-140c0-0.7,0.3-1.3,0.9-1.3L27.7-141.3L27.7-141.3z"/>
							</g>
							<g id="g44" transform="translate(133.1304,389.6426)">
								<path id="path46" class="st5" d="M1.6-146.4c-0.9,0-1.5,1-1.5,2.1v19.7c0,1.1,0.7,2.1,1.5,2.1l30-0.2
									c8.5,0,15.3-5.4,15.3-11.8s-6.8-11.8-15.3-11.8H1.6z M27.6-141.4c4.6,0,8.3,3,8.3,7.1c0,3.8-3.7,7.1-8.3,7.1H11.3
									c-0.4,0-0.9-0.6-0.9-1.3v-11.7c0-0.7,0.4-1.3,0.9-1.3C11.4-141.4,27.6-141.4,27.6-141.4z"/>
							</g>
							<g id="g48" transform="translate(133.2109,389.75)">
								<path id="path50" class="st6" d="M1.6-146.3c-0.9,0-1.5,1-1.5,2.1v19.5c0,1.1,0.7,2.1,1.5,2.1l29.9-0.2
									c8.5,0,15.3-5.4,15.3-11.8c0-6.5-6.8-11.8-15.3-11.8L1.6-146.3z M27.7-141.5c4.6,0,8.3,3.3,8.3,7.1c0,4-3.7,7.3-8.3,7.3
									H11.2c-0.4,0-0.9-0.6-0.9-1.3v-11.8c0-0.7,0.4-1.3,0.9-1.3L27.7-141.5z"/>
							</g>
							<g id="g52" transform="translate(133.2915,389.8574)">
								<path id="path54" class="st7" d="M1.7-146.4c-0.9,0-1.5,1-1.5,2.1v19.4c0,1.1,0.7,2.1,1.5,2.1l29.7-0.2
									c8.3,0,15.2-5.1,15.2-11.7c0-6.5-6.8-11.7-15.2-11.7L1.7-146.4L1.7-146.4z M27.6-141.8c4.6,0,8.5,3.3,8.5,7.3
									c0,4-3.7,7.3-8.5,7.3H10.9c-0.4,0-0.9-0.6-0.9-1.3v-12.1c0-0.7,0.4-1.3,0.9-1.3L27.6-141.8z"/>
							</g>
							<g id="g56" transform="translate(133.3716,389.9639)">
								<path id="path58" class="st8" d="M1.6-146.3c-0.9,0-1.5,1-1.5,2.1v19.1c0,1.1,0.7,2.1,1.5,2.1h29.7
									c8.3,0,15.2-5.1,15.2-11.7c0-6.6-6.8-11.7-15.2-11.7H1.6V-146.3z M27.5-141.9c4.8,0,8.5,3.3,8.5,7.4c0,4-3.9,7.4-8.5,7.4
									H10.8c-0.4,0.1-0.9-0.5-0.9-1.2v-12.2c0-0.7,0.4-1.3,0.9-1.3L27.5-141.9z"/>
							</g>
							<g id="g60" transform="translate(133.4521,390.0713)">
								<path id="path62" class="st9" d="M1.6-146.4c-0.9,0-1.5,1-1.5,2.1v18.9c0,1.1,0.7,2.1,1.5,2.1h29.5c8.3,0,15-5.1,15-11.5
									c0-6.3-6.7-11.5-15-11.5L1.6-146.4L1.6-146.4z M27.3-142c4.8,0,8.6,3.3,8.6,7.4c0,4.3-3.9,7.4-8.6,7.4l-16.8,0.2
									c-0.4,0-0.9-0.6-0.9-1.3v-12.4c0-0.7,0.4-1.3,0.9-1.3H27.3z"/>
							</g>
							<g id="g64" transform="translate(133.5327,390.1787)">
								<path id="path66" class="st10" d="M1.7-146.3c-0.9,0-1.5,1-1.5,2.1v18.8c0,1.1,0.7,2.1,1.5,2.1l29.3-0.2
									c8.3,0,15-5.1,15-11.5c0-6.3-6.7-11.5-15-11.5L1.7-146.3z M27.4-142.3c4.8,0,8.6,3.4,8.6,7.7s-3.9,7.7-8.6,7.7H10.3
									c-0.4,0-0.9-0.6-0.9-1.3v-12.7c0-0.7,0.4-1.3,0.9-1.3H27.4L27.4-142.3z"/>
							</g>
							<g id="g68" transform="translate(133.6133,390.2852)">
								<path id="path70" class="st11" d="M1.5-146.1c-0.9,0-1.5,1-1.5,2.1v18.5c0,1.1,0.7,2.1,1.5,2.1l29.2-0.2
									c8.2,0,14.9-5,14.9-11.3s-6.7-11.3-14.9-11.3L1.5-146.1z M27.3-142.4c4.9,0,8.8,3.4,8.8,7.7s-3.9,7.7-8.8,7.7l-17.1,0.1
									c-0.4,0-0.9-0.6-0.9-1.3v-12.7c0-0.7,0.4-1.3,0.9-1.3L27.3-142.4z"/>
							</g>
							<g id="g72" transform="translate(133.6934,390.3926)">
								<path id="path74" class="st12" d="M1.6-146.2c-0.9,0-1.5,1-1.5,2.1v18.5c0,1.1,0.6,2.1,1.5,2.1l29-0.2
									c8.2,0,14.9-5,14.9-11.3c0-6.3-6.7-11.3-14.9-11.3L1.6-146.2z M27.2-142.5c4.9,0,8.8,3.4,8.8,7.8c0,4.4-3.9,7.8-8.8,7.8
									l-17.3,0.1c-0.4,0-0.9-0.6-0.9-1.3v-12.8c0-0.7,0.4-1.3,0.9-1.3L27.2-142.5z"/>
							</g>
							<g id="g76" transform="translate(133.7739,390.499)">
								<path id="path78" class="st13" d="M1.6-146.2c-0.9,0-1.5,1-1.5,2.1v18.4c0,1.1,0.6,2.1,1.5,2.1l28.9-0.2
									c8.2,0,14.7-5,14.7-11.1c0-6.1-6.5-11.1-14.7-11.1L1.6-146.2z M27.1-142.8c4.9,0,8.9,3.4,8.9,7.8c0,4.4-4,7.8-8.9,8
									l-17.4,0.2c-0.4,0-0.9-0.6-0.9-1.6v-13c0-0.7,0.4-1.6,0.9-1.6L27.1-142.8z"/>
							</g>
							<g id="g80" transform="translate(133.8545,390.6064)">
								<path id="path82" class="st14" d="M1.5-146.1c-0.7,0-1.5,1-1.5,2.1v18.2c0,1.1,0.6,2.1,1.5,2.1l28.7-0.2
									c8,0,14.7-5,14.7-11.1s-6.5-11.1-14.7-11.1L1.5-146.1z M26.9-142.8c4.9,0,8.9,3.7,8.9,8s-4,8-8.9,8l-17.5,0.1
									c-0.4,0-0.9-0.6-0.9-1.6v-13.2c0-0.7,0.4-1.6,0.9-1.6L26.9-142.8z"/>
							</g>
						</g>
					</g>
				</g>
			</g>
		</g>
		<g id="g84">
			<g id="g86">
				<g id="g92">
					<g id="g94">
						
							<linearGradient id="path106_1_" gradientUnits="userSpaceOnUse" x1="63.052" y1="-221.5102" x2="64.2953" y2="-221.5102" gradientTransform="matrix(0 63.8763 72.6821 0 16256.46 -3783.4932)">
							<stop  offset="0" style="stop-color:#BCBEC0"/>
							<stop  offset="0.6978" style="stop-color:#939598"/>
							<stop  offset="0.6978" style="stop-color:#939598"/>
							<stop  offset="1" style="stop-color:#939598"/>
						</linearGradient>
						<path id="path106" class="st15" d="M134.4,254.4c-0.1-2.4-0.3-5-0.3-7.3l0,0c0-2.4,0.4-3,1.6-3l0,0c1.3,0,10.4,0,17,0l0,0
							c1.8,0,3.6,0,5.4,0l0,0c5.9,0,11-0.2,14.9,2.1l0,0c4.3,2.4,5.9,6.7,6.1,7.8l0,0c0.1,1.1,0.1,3.3-0.3,3.3l0,0
							c-0.4,0-7.1-1.6-7.7-1.7l0,0c-0.3,0-0.4-1.1-0.4-1.1l0,0c-0.9-6.1-5.7-8-6.7-8l0,0c-1.3,0-17.4,0-18.6,0l0,0
							c-1.2,0-2.5,0.6-2.5,2.3l0,0c0,1.7-0.1,4.6-0.1,6l0,0c0,0.6-0.1,1.7-0.1,3.4l0,0c-0.1-1.6-0.7-2.4-1.3-2.4l0,0h-5.1
							c-1.3,0-1.3,0.6-1.5,2.7l0,0C134.4,257.3,134.4,255.4,134.4,254.4"/>
					</g>
				</g>
			</g>
		</g>
		<g id="g108">
			<g id="g110">
				<g id="g116">
					<g id="g118">
						
							<linearGradient id="path126_1_" gradientUnits="userSpaceOnUse" x1="59.4618" y1="-220.1883" x2="60.7052" y2="-220.1883" gradientTransform="matrix(0 50.394 57.3414 0 12782.3965 -2741.2971)">
							<stop  offset="0" style="stop-color:#FFFFFF"/>
							<stop  offset="1" style="stop-color:#BCBEC0"/>
						</linearGradient>
						<path id="path126" class="st16" d="M135.6,266.4c-0.7,0-1.6,0.2-1.6-1.6l0,0c0-1.6,0.3-7.8,0.4-9.4l0,0h7.7
							c0.1,0.7,0.3,5.1,0.3,5.7l0,0c0,0.6-0.1,2.9,1.9,2.9l0,0c2.1,0,12.6,0,15.2,0l0,0c2.5,0,11-1,11-8.7l0,0h8.5
							c0,1.7-0.1,3-0.7,4l0,0c-0.9,1.6-3.6,5.6-11.9,6.7l0,0c-1.8,0.2-16.8,0.4-25.4,0.4l0,0C138.6,266.4,136.6,266.4,135.6,266.4"
							/>
					</g>
				</g>
			</g>
		</g>
		<g id="g128">
			<g>
				<g>
					<g>
						<g id="g130">
							<g id="g136" transform="translate(141.7158,392.7168)">
								<path id="path138" class="st17" d="M0.7-145.7c0-0.7,0.1-1.3,1-1.3c1.6,0,14,0,16.7,0s5.9-0.2,9.1,4.3
									c1.2,1.6,0.3,1.7-0.7,0.7c-0.9-1-2.5-3.3-8.3-3.3s-12,0-15.6,0c-0.6,0-0.9,0.6-1,0.7C1.6-144.4,0.7-144,0.7-145.7"/>
							</g>
							<g id="g140" transform="translate(254.584,389.2148)">
								<path id="path142" class="st1" d="M-12.2-146.6c-0.9,0-1.6,1-1.6,2.3v20.2c0,1.1,0.7,2.3,1.6,2.3l30.6-0.2
									c8.6,0,15.6-5.6,15.6-12.2c0-6.9-7-12.2-15.6-12.2L-12.2-146.6z M14.1-140.9c4.5,0,8,3,8,6.7s-3.6,6.7-8,6.7H-1.7
									c-0.4,0-0.7-0.6-0.7-1.1v-10.8c0-0.6,0.3-1.1,0.7-1.1C-1.5-140.9,14.1-140.9,14.1-140.9z"/>
							</g>
							<g id="g144" transform="translate(254.6646,389.3223)">
								<path id="path146" class="st2" d="M-12.2-146.5c-0.9,0-1.6,1-1.6,2.3v20.1c0,1.1,0.7,2.3,1.6,2.3l30.5-0.2
									c8.6,0,15.6-5.6,15.6-12.2c0-6.7-7-12.2-15.6-12.2L-12.2-146.5z M14.1-141c4.5,0,8,3,8,6.7c0,3.7-3.6,6.7-8,6.7H-1.8
									c-0.4,0-0.7-0.6-0.7-1.1v-11.1c0-0.7,0.3-1.1,0.7-1.1h15.9C14.1-140.9,14.1-141,14.1-141z"/>
							</g>
							<g id="g148" transform="translate(254.7451,389.4287)">
								<path id="path150" class="st3" d="M-12.2-146.4c-0.9,0-1.6,1-1.6,2.3v19.9c0,1.1,0.7,2.3,1.6,2.3l30.3-0.2
									c8.6,0,15.5-5.4,15.5-12.1c0-6.7-7-12.1-15.5-12.1L-12.2-146.4z M14-141.1c4.5,0,8.2,3,8.2,6.9c0,3.8-3.7,6.9-8.2,6.9H-2
									c-0.4,0-0.9-0.6-0.9-1.3v-11.3c0-0.7,0.3-1.3,0.9-1.3L14-141.1z"/>
							</g>
							<g id="g152" transform="translate(254.8252,389.5361)">
								<path id="path154" class="st4" d="M-12.3-146.5c-0.9,0-1.5,1-1.5,2.1v19.7c0,1.1,0.7,2.1,1.5,2.1l30.2-0.1
									c8.5,0,15.5-5.4,15.5-12.1c0-6.7-6.8-12.1-15.5-12.1L-12.3-146.5z M13.9-141.3c4.6,0,8.2,3,8.2,6.9s-3.7,6.9-8.2,6.9H-2.3
									c-0.4,0-0.9-0.6-0.9-1.3v-11.5c0-0.7,0.3-1.3,0.9-1.3L13.9-141.3z"/>
							</g>
							<g id="g156" transform="translate(254.9058,389.6426)">
								<path id="path158" class="st5" d="M-12.2-146.4c-0.9,0-1.5,1-1.5,2.1v19.7c0,1.1,0.7,2.1,1.5,2.1l30-0.2
									c8.5,0,15.3-5.4,15.3-11.8s-6.8-11.8-15.3-11.8H-12.2z M13.8-141.4c4.6,0,8.3,3,8.3,7.1c0,3.8-3.7,7.1-8.3,7.1H-2.6
									c-0.4,0-0.9-0.6-0.9-1.3v-11.7c0-0.7,0.4-1.3,0.9-1.3C-2.4-141.4,13.8-141.4,13.8-141.4z"/>
							</g>
							<g id="g160" transform="translate(254.9863,389.75)">
								<path id="path162" class="st6" d="M-12.2-146.3c-0.9,0-1.5,1-1.5,2.1v19.5c0,1.1,0.7,2.1,1.5,2.1l29.9-0.2
									c8.5,0,15.3-5.4,15.3-11.8c0-6.5-6.8-11.8-15.3-11.8L-12.2-146.3z M13.7-141.5c4.6,0,8.3,3.3,8.3,7.1c0,4-3.7,7.3-8.3,7.3
									H-2.8c-0.4,0-0.9-0.6-0.9-1.3v-11.8c0-0.7,0.4-1.3,0.9-1.3C-2.7-141.5,13.7-141.5,13.7-141.5z"/>
							</g>
							<g id="g164" transform="translate(255.0669,389.8574)">
								<path id="path166" class="st7" d="M-12.3-146.4c-0.9,0-1.5,1-1.5,2.1v19.4c0,1.1,0.7,2.1,1.5,2.1l29.7-0.2
									c8.3,0,15.2-5.1,15.2-11.7c0-6.5-6.8-11.7-15.2-11.7L-12.3-146.4L-12.3-146.4z M13.7-141.8c4.6,0,8.5,3.3,8.5,7.3
									c0,4-3.7,7.3-8.5,7.3H-2.9c-0.4,0-0.9-0.6-0.9-1.3v-12.1c0-0.7,0.4-1.3,0.9-1.3L13.7-141.8z"/>
							</g>
							<g id="g168" transform="translate(255.147,389.9639)">
								<path id="path170" class="st8" d="M-12.3-146.3c-0.9,0-1.5,1-1.5,2.1v19.1c0,1.1,0.7,2.1,1.5,2.1l29.6-0.2
									c8.3,0,15.2-5.1,15.2-11.7c0-6.5-6.8-11.7-15.2-11.7L-12.3-146.3z M13.6-141.9c4.8,0,8.5,3.3,8.5,7.4c0,4-3.9,7.4-8.5,7.4
									l-16.7,0.2c-0.4,0-0.9-0.6-0.9-1.3v-12.2c0-0.7,0.4-1.3,0.9-1.3L13.6-141.9z"/>
							</g>
							<g id="g172" transform="translate(255.2275,390.0713)">
								<path id="path174" class="st9" d="M-12.2-146.4c-0.9,0-1.5,1-1.5,2.1v18.9c0,1.1,0.7,2.1,1.5,2.1h29.4c8.3,0,15-5.1,15-11.5
									c0-6.3-6.7-11.5-15-11.5L-12.2-146.4L-12.2-146.4z M13.5-142c4.8,0,8.6,3.3,8.6,7.4c0,4.3-3.9,7.4-8.6,7.4l-16.8,0.2
									c-0.4,0-0.9-0.6-0.9-1.3v-12.4c0-0.7,0.4-1.3,0.9-1.3C-3.3-142,13.5-142,13.5-142z"/>
							</g>
							<g id="g176" transform="translate(255.3081,390.1787)">
								<path id="path178" class="st10" d="M-12.3-146.3c-0.9,0-1.5,1-1.5,2.1v18.8c0,1.1,0.7,2.1,1.5,2.1l29.3-0.2
									c8.3,0,15-5.1,15-11.5c0-6.3-6.7-11.5-15-11.5L-12.3-146.3z M13.4-142.3c4.8,0,8.6,3.4,8.6,7.7s-3.9,7.7-8.6,7.7l-17,0.2
									c-0.4,0-0.9-0.6-0.9-1.3v-12.7c0-0.7,0.4-1.3,0.9-1.3C-3.5-142.3,13.4-142.3,13.4-142.3z"/>
							</g>
							<g id="g180" transform="translate(255.3887,390.2852)">
								<path id="path182" class="st11" d="M-12.3-146.1c-0.9,0-1.5,1-1.5,2.1v18.5c0,1.1,0.7,2.1,1.5,2.1l29.2-0.1
									c8.2,0,14.9-5,14.9-11.3c0-6.3-6.7-11.3-14.9-11.3L-12.3-146.1z M13.4-142.4c4.9,0,8.8,3.4,8.8,7.7s-3.9,7.7-8.8,7.7
									l-17.1,0.2c-0.4,0-0.9-0.6-0.9-1.3v-12.7c0-0.7,0.4-1.3,0.9-1.3L13.4-142.4z"/>
							</g>
							<g id="g184" transform="translate(255.4688,390.3926)">
								<path id="path186" class="st12" d="M-12.2-146.2c-0.9,0-1.5,1-1.5,2.1v18.5c0,1.1,0.6,2.1,1.5,2.1l29-0.2
									c8.2,0,14.9-5,14.9-11.3c0-6.3-6.7-11.3-14.9-11.3L-12.2-146.2z M13.3-142.5c4.9,0,8.8,3.4,8.8,7.8c0,4.4-3.9,7.8-8.8,7.8
									L-4-126.6c-0.4,0-0.9-0.6-0.9-1.3v-12.8c0-0.7,0.4-1.3,0.9-1.3L13.3-142.5z"/>
							</g>
							<g id="g188" transform="translate(255.5493,390.499)">
								<path id="path190" class="st13" d="M-12.2-146.2c-0.9,0-1.5,1-1.5,2.1v18.4c0,1.1,0.6,2.1,1.5,2.1l28.9-0.2
									c8.2,0,14.7-5,14.7-11.1c0-6.1-6.5-11.1-14.7-11.1L-12.2-146.2z M13.2-142.8c4.9,0,8.9,3.4,8.9,7.8c0,4.4-4,7.8-8.9,8
									l-17.4,0.2c-0.4,0-0.9-0.5-0.9-1.5v-13c0-0.7,0.4-1.6,0.9-1.6H13.2z"/>
							</g>
							<g id="g192" transform="translate(255.6299,390.6064)">
								<path id="path194" class="st14" d="M-12.3-146.1c-0.7,0-1.5,1-1.5,2.1v18.2c0,1.1,0.6,2.1,1.5,2.1l28.7-0.2
									c8,0,14.7-5,14.7-11.1s-6.5-11.1-14.7-11.1L-12.3-146.1z M13.1-142.8c4.9,0,8.9,3.7,8.9,8s-4,8-8.9,8l-17.6,0.2
									c-0.4,0-0.9-0.6-0.9-1.6v-13.2c0-0.7,0.4-1.6,0.9-1.6H13.1z"/>
							</g>
						</g>
					</g>
				</g>
			</g>
		</g>
		<g id="g196">
			<g id="g198">
				<g id="g204">
					<g id="g206">
						
							<linearGradient id="path218_1_" gradientUnits="userSpaceOnUse" x1="63.052" y1="-221.7012" x2="64.2953" y2="-221.7012" gradientTransform="matrix(0 63.8763 72.6821 0 16378.0439 -3783.4932)">
							<stop  offset="0" style="stop-color:#BCBEC0"/>
							<stop  offset="0.6978" style="stop-color:#939598"/>
							<stop  offset="0.6978" style="stop-color:#939598"/>
							<stop  offset="1" style="stop-color:#939598"/>
						</linearGradient>
						<path id="path218" class="st18" d="M242.1,254.4c-0.1-2.4-0.3-5-0.3-7.3l0,0c0-2.4,0.4-3,1.6-3l0,0c1.3,0,10.4,0,17,0l0,0
							c1.8,0,3.6,0,5.4,0l0,0c5.9,0,11-0.2,14.9,2.1l0,0c4.3,2.4,5.9,6.7,6.1,7.8l0,0c0.1,1.1,0.1,3.3-0.3,3.3l0,0
							c-0.4,0-7.1-1.6-7.7-1.7l0,0c-0.3,0-0.4-1.1-0.4-1.1l0,0c-0.9-6.1-5.7-8-6.7-8l0,0c-1.3,0-17.4,0-18.6,0l0,0
							c-1.2,0-2.5,0.6-2.5,2.3l0,0c0,1.7-0.1,4.6-0.1,6l0,0c0,0.6-0.1,1.7-0.1,3.4l0,0c-0.1-1.6-0.7-2.4-1.3-2.4l0,0H244
							c-1.3,0-1.3,0.6-1.5,2.7l0,0C242.1,257.3,242.1,255.4,242.1,254.4"/>
					</g>
				</g>
			</g>
		</g>
		<g id="g220">
			<g>
				<g>
					<g>
						<g id="g222">
							<g id="g228" transform="translate(263.5107,392.7168)">
								<path id="path230" class="st17" d="M-13.2-145.7c0-0.7,0.1-1.3,1-1.3c1.6,0,14,0,16.7,0s5.9-0.2,9.1,4.3
									c1.2,1.6,0.3,1.7-0.7,0.7c-0.9-1-2.5-3.3-8.3-3.3s-12,0-15.6,0c-0.6,0-0.9,0.6-1,0.7C-12.2-144.4-13.2-144-13.2-145.7"/>
							</g>
						</g>
					</g>
				</g>
			</g>
		</g>
		<g id="g232">
			<g id="g234">
				<g id="g240">
					<g id="g242">
						
							<linearGradient id="path250_1_" gradientUnits="userSpaceOnUse" x1="59.4618" y1="-220.4304" x2="60.7052" y2="-220.4304" gradientTransform="matrix(0 50.394 57.3414 0 12903.9805 -2741.2971)">
							<stop  offset="0" style="stop-color:#FFFFFF"/>
							<stop  offset="1" style="stop-color:#BCBEC0"/>
						</linearGradient>
						<path id="path250" class="st19" d="M243.3,266.4c-0.7,0-1.6,0.2-1.6-1.6l0,0c0-1.6,0.3-7.8,0.4-9.4l0,0h7.7
							c0.1,0.7,0.3,5.1,0.3,5.7l0,0c0,0.6-0.1,2.9,1.9,2.9l0,0c2.1,0,12.6,0,15.2,0l0,0c2.5,0,11-1,11-8.7l0,0h8.5
							c0,1.7-0.1,3-0.7,4l0,0c-0.9,1.6-3.6,5.6-11.9,6.7l0,0c-1.8,0.2-16.8,0.4-25.4,0.4l0,0C246.2,266.4,244.3,266.4,243.3,266.4"
							/>
					</g>
				</g>
			</g>
		</g>
		<g id="g252">
			<g>
				<g>
					<g>
						<g id="g254">
							<g id="g260" transform="translate(212.0234,388.7734)">
								<path id="path262" class="st1" d="M-7.4-146.6C-18.3-146-27-140.9-27-133.8c0,7.1,8.8,12.4,19.6,12.8c1.9,0,4.2,0.2,6.1,0.2
									c2.1,0,4.2,0,6.1-0.2c10.9-0.4,19.6-5.7,19.6-12.8c0-7.1-8.8-12.4-19.6-12.8c-1.8,0-3.6-0.2-6.1-0.2
									C-3.7-146.8-5.5-146.6-7.4-146.6 M-1.1-141.1c1.3,0,2.4,0,3.4,0c5.9,0.2,10.7,3.3,10.7,7.3c0,4-4.8,6.9-10.7,7.3
									c-1,0-2.2,0-3.4,0c-1,0-2.2,0-3.4,0c-5.9-0.2-10.7-3.3-10.7-7.3c0-4,4.8-6.9,10.7-7.3C-3.5-141.1-2.5-141.1-1.1-141.1"/>
							</g>
							<g id="g264" transform="translate(212.0034,388.876)">
								<path id="path266" class="st2" d="M-7.3-146.6c-10.7,0.6-19.5,5.7-19.5,12.8c0,7.1,8.8,12.2,19.5,12.8
									c1.9,0,4.2,0.2,6.1,0.2c2.1,0,4.2,0,6.1-0.2c10.7-0.4,19.5-5.7,19.5-12.8c0-7.1-8.8-12.2-19.5-12.8c-1.8,0-3.6-0.2-6.1-0.2
									C-3.7-146.7-5.5-146.7-7.3-146.6 M-1.2-141.2c1.3,0,2.4,0,3.4,0c5.9,0.2,10.7,3.3,10.7,7.3s-4.8,7.1-10.7,7.3
									c-1,0-2.2,0-3.4,0c-1,0-2.2,0-3.4,0c-5.9-0.2-10.7-3.3-10.7-7.3s4.8-7.1,10.7-7.3C-3.5-141.2-2.5-141.2-1.2-141.2"/>
							</g>
							<g id="g268" transform="translate(211.9834,388.9775)">
								<path id="path270" class="st3" d="M-7.3-146.7c-10.7,0.6-19.5,5.7-19.5,12.7c0,7.1,8.8,12.2,19.5,12.7
									c1.9,0,4.2,0.2,6.1,0.2s4.2,0,6.1-0.2c10.7-0.4,19.5-5.7,19.5-12.7c0-7.1-8.8-12.2-19.5-12.7c-1.8,0-3.6-0.2-6.1-0.2
									C-3.7-146.8-5.5-146.7-7.3-146.7 M-1.2-141.4c1.3,0,2.4,0,3.4,0.2c5.9,0.2,10.9,3.3,10.9,7.4c0,4.3-4.9,7.3-10.9,7.4
									c-1,0-2.2,0.2-3.4,0.2s-2.4,0-3.4-0.2c-5.9-0.2-10.9-3.3-10.9-7.4c0-4.3,4.9-7.3,10.9-7.4C-3.5-141.4-2.7-141.4-1.2-141.4"
									/>
							</g>
							<g id="g272" transform="translate(211.9639,389.0801)">
								<path id="path274" class="st4" d="M-7.3-146.5c-10.7,0.6-19.3,5.6-19.3,12.7c0,6.9,8.6,12.1,19.3,12.7c1.9,0,4,0.2,6.1,0.2
									s4.2,0,6.1-0.2c10.7-0.4,19.3-5.6,19.3-12.7c0-6.9-8.6-12.1-19.3-12.7c-1.8,0-3.6-0.2-6.1-0.2S-5.5-146.5-7.3-146.5
									 M-1.2-141.5c1.5,0,2.4,0,3.4,0.2c6.1,0.2,11,3.4,11,7.7c0,4.3-4.9,7.3-11,7.7c-1,0-2.4,0.2-3.4,0.2c-1.2,0-2.4,0-3.4-0.2
									c-6.1-0.2-11-3.4-11-7.7c0-4.3,4.9-7.3,11-7.7C-3.6-141.5-2.7-141.5-1.2-141.5"/>
							</g>
							<g id="g276" transform="translate(211.9438,389.1826)">
								<path id="path278" class="st5" d="M-7.3-146.4c-10.6,0.4-19.2,5.6-19.2,12.4c0,6.8,8.6,12.1,19.2,12.4c1.9,0,4,0.2,6.1,0.2
									c1.9,0,4,0,6.1-0.2c10.6-0.4,19.2-5.6,19.2-12.4c0-6.8-8.6-12.1-19.2-12.4c-1.8,0-3.6-0.2-6.1-0.2S-5.5-146.6-7.3-146.4
									 M-1.2-141.9c1.5,0,2.4,0,3.4,0.2c6.1,0.4,11,3.4,11,7.7s-4.9,7.4-11,7.7c-1.2,0-2.4,0.2-3.4,0.2c-1.2,0-2.4,0-3.4-0.2
									c-6.1-0.2-11-3.4-11-7.7s4.9-7.4,11-7.7C-3.6-141.6-2.7-141.9-1.2-141.9"/>
							</g>
							<g id="g280" transform="translate(211.9238,389.2842)">
								<path id="path282" class="st6" d="M-7.3-146.5c-10.6,0.4-19.2,5.6-19.2,12.4c0,6.8,8.6,11.8,19.2,12.4c1.9,0,4,0.2,5.9,0.2
									s4,0,5.9-0.2c10.6-0.4,19.2-5.6,19.2-12.4c0-6.8-8.6-11.8-19.2-12.4c-1.8,0-3.6-0.2-5.9-0.2S-5.5-146.5-7.3-146.5 M-1.2-142
									c1.5,0,2.5,0,3.6,0.2c6.1,0.4,11.2,3.4,11.2,7.8c0,4.3-5.1,7.4-11.2,7.8c-1.2,0-2.4,0.2-3.6,0.2s-2.4,0-3.6-0.2
									c-6.1-0.2-11.2-3.4-11.2-7.8c0-4.3,5.1-7.4,11.2-7.8C-3.6-142-2.7-142-1.2-142"/>
							</g>
							<g id="g284" transform="translate(211.9038,389.3867)">
								<path id="path286" class="st7" d="M-7.3-146.5c-10.6,0.4-19,5.6-19,12.2c0,6.7,8.5,11.8,19,12.2c1.9,0,4,0.2,5.9,0.2
									s4,0,5.9-0.2c10.6-0.4,19-5.6,19-12.2c0-6.7-8.5-11.8-19-12.2c-1.8,0-3.6-0.2-5.9-0.2S-5.5-146.6-7.3-146.5 M-1.2-142.1
									c1.5,0,2.5,0,3.6,0.2c6.2,0.4,11.3,3.4,11.3,7.8c0,4.4-5.1,7.7-11.3,7.8c-1.2,0-2.4,0.2-3.6,0.2s-2.4,0-3.6-0.2
									c-6.2-0.1-11.3-3.4-11.3-7.8s5.1-7.7,11.3-7.8C-3.7-142.1-2.7-142.1-1.2-142.1"/>
							</g>
							<g id="g288" transform="translate(211.8843,389.4893)">
								<path id="path290" class="st8" d="M-7.3-146.3c-10.4,0.4-18.9,5.4-18.9,12.2c0,6.7,8.5,11.7,18.9,12.2c1.9,0,4,0.2,5.9,0.2
									s4,0,5.9-0.2c10.4-0.4,18.9-5.4,18.9-12.2c0-6.7-8.5-11.7-18.9-12.2c-1.8,0-3.4-0.2-5.9-0.2S-5.5-146.6-7.3-146.3
									 M-1.2-142.3c1.5,0,2.5,0,3.6,0.2c6.2,0.4,11.3,3.7,11.3,8c0,4.4-5.1,7.7-11.3,8c-1.2,0-2.4,0.2-3.6,0.2s-2.4,0-3.6-0.2
									c-6.2-0.2-11.3-3.7-11.3-8c0-4.4,5.1-7.7,11.3-8C-3.7-142.2-2.7-142.3-1.2-142.3"/>
							</g>
							<g id="g292" transform="translate(211.8643,389.5918)">
								<path id="path294" class="st9" d="M-7.3-146.4c-10.4,0.4-18.8,5.4-18.8,12.1c0,6.7,8.5,11.7,18.7,12.1c1.9,0,4,0.2,5.9,0.2
									s4,0,5.9-0.2c10.4-0.4,18.7-5.4,18.7-12.1c0-6.7-8.5-11.7-18.7-12.1c-1.8,0-3.4-0.2-5.9-0.2C-3.9-146.7-5.5-146.4-7.3-146.4
									 M-1.2-142.4c1.5,0,2.5,0,3.6,0.2c6.2,0.4,11.5,3.7,11.5,8c0,4.4-5.1,7.8-11.5,8c-1.2,0-2.4,0.2-3.6,0.2s-2.4,0-3.6-0.2
									c-6.2-0.2-11.5-3.7-11.5-8c0-4.4,5.1-7.8,11.5-8C-3.7-142.4-2.7-142.4-1.2-142.4"/>
							</g>
							<g id="g296" transform="translate(211.8442,389.6934)">
								<path id="path298" class="st10" d="M-7.3-146.4c-10.3,0.4-18.8,5.4-18.8,12.1c0,6.7,8.3,11.5,18.7,12.1
									c1.9,0,3.9,0.2,5.8,0.2s4,0,5.8-0.2c10.3-0.4,18.7-5.4,18.7-12.1c0-6.7-8.3-11.5-18.7-12.1c-1.8,0-3.4-0.2-5.8-0.2
									C-3.9-146.5-5.5-146.5-7.3-146.4 M-1.2-142.5c1.5,0,2.5,0,3.6,0.2c6.4,0.4,11.6,3.7,11.6,8.2c-0.1,4.5-5.3,8-11.7,8.2
									c-1.2,0-2.4,0.2-3.6,0.2s-2.4,0-3.6-0.2c-6.4-0.2-11.6-3.7-11.6-8.2c0-4.6,5.2-7.8,11.6-8.2C-3.8-142.5-2.7-142.5-1.2-142.5
									"/>
							</g>
							<g id="g300" transform="translate(211.8242,389.7959)">
								<path id="path302" class="st11" d="M-7.3-146.5c-10.3,0.4-18.6,5.4-18.6,11.8s8.3,11.5,18.6,11.8c1.9,0,3.9,0.2,5.8,0.2
									s4,0,5.8-0.2c10.2-0.2,18.6-5.2,18.6-11.7c0-6.5-8.3-11.5-18.6-11.8c-1.8,0-3.4-0.2-5.8-0.2C-3.9-146.5-5.6-146.5-7.3-146.5
									 M-1.2-142.8c1.5,0,2.5,0,3.7,0.2c6.4,0.4,11.6,3.8,11.6,8.4c0,4.6-5.2,8-11.6,8.4c-1.2,0-2.4,0.2-3.7,0.2
									c-1.2,0-2.5,0-3.7-0.2c-6.4-0.4-11.6-3.8-11.6-8.4c0-4.6,5.2-8,11.6-8.4C-3.8-142.6-2.7-142.8-1.2-142.8"/>
							</g>
							<g id="g304" transform="translate(211.8047,389.8984)">
								<path id="path306" class="st12" d="M-7.3-146.3c-10.3,0.4-18.4,5.4-18.4,11.8c0,6.5,8.3,11.3,18.4,11.8
									c1.9,0,3.9,0.2,5.8,0.2s3.9,0,5.8-0.2c10.3-0.4,18.4-5.4,18.4-11.8c0-6.5-8.2-11.5-18.4-11.8c-1.8,0-3.4-0.2-5.8-0.2
									S-5.6-146.3-7.3-146.3 M-1.2-142.9c1.5,0,2.5,0,3.7,0.2c6.5,0.4,11.8,3.8,11.8,8.4c0,4.6-5.2,8.2-11.8,8.4
									c-1.2,0-2.5,0.2-3.7,0.2s-2.5,0-3.7-0.2c-6.5-0.4-11.8-3.8-11.8-8.4c0-4.6,5.2-8.2,11.8-8.4C-3.8-142.9-2.7-142.9-1.2-142.9
									"/>
							</g>
							<g id="g308" transform="translate(211.7847,390)">
								<path id="path310" class="st13" d="M-7.4-146.2c-10.1,0.4-18.4,5.1-18.4,11.7c0,6.6,8.2,11.3,18.4,11.7
									c1.9,0,3.9,0.2,5.8,0.2s3.9,0,5.8-0.2c10.1-0.4,18.4-5.1,18.4-11.7s-8.2-11.3-18.4-11.7c-1.6,0-3.4-0.2-5.8-0.2
									C-3.9-146.4-5.6-146.4-7.4-146.2 M-1.3-143.2c1.5,0,2.7,0,3.7,0.2c6.5,0.4,11.8,3.8,11.8,8.7c0,4.8-5.4,8.2-11.8,8.7
									c-1.2,0-2.5,0.2-3.7,0.2s-2.5,0-3.7-0.2c-6.5-0.4-11.8-3.8-11.8-8.7c0-4.8,5.4-8.2,11.8-8.7C-3.8-143-2.7-143.2-1.3-143.2"
									/>
							</g>
							<g id="g312" transform="translate(211.7646,390.1025)">
								<path id="path314" class="st14" d="M-7.2-146.3c-10.1,0.6-18.3,5.1-18.3,11.7c0,6.3,8.2,11.1,18.3,11.7
									c1.9,0,3.9,0.2,5.8,0.2s3.9,0,5.8-0.2c10.1-0.4,18.3-5.1,18.3-11.7c0-6.3-8.2-11.1-18.3-11.7c-1.6,0-3.4-0.2-5.8-0.2
									C-3.9-146.3-5.6-146.3-7.2-146.3 M-1.3-143.3c1.5,0,2.7,0,3.7,0.2c6.5,0.4,11.9,3.8,11.9,8.7s-5.4,8.4-11.9,8.7
									c-1.2,0-2.5,0.2-3.7,0.2s-2.5,0-3.7-0.2c-6.5-0.4-11.9-3.8-11.9-8.7s5.4-8.4,11.9-8.7C-3.8-143.3-2.8-143.3-1.3-143.3"/>
							</g>
						</g>
					</g>
				</g>
			</g>
		</g>
		<g id="g316">
			<g id="g318">
				<g id="g324">
					<g id="g326">
						
							<linearGradient id="path334_1_" gradientUnits="userSpaceOnUse" x1="60.5144" y1="-220.6878" x2="61.7576" y2="-220.6878" gradientTransform="matrix(0 53.6873 61.0885 0 13691.6416 -2993.8381)">
							<stop  offset="0" style="stop-color:#FFFFFF"/>
							<stop  offset="1" style="stop-color:#BCBEC0"/>
						</linearGradient>
						<path id="path334" class="st20" d="M196.7,265.4c-5.8-1.7-8.3-4.6-9.4-6l0,0c-1-1.6-1.3-3.3-1-4.3l0,0h8
							c0.3,2.9,1.3,5,4.3,7.1l0,0c3,2.1,7.7,2.3,11.3,2.3l0,0c3.6,0,6.5,0,10.7-1.6l0,0c4.9-1.7,5.7-6,5.8-7.7l0,0h7.7
							c0,0,0.1,1.6-0.1,2.9l0,0c-0.6,1.7-1.6,4.3-7,6.5l0,0c-5.4,2.3-10.9,2.3-17,2.3l0,0c-0.7,0-1.5,0-2.2,0l0,0
							C203.6,266.7,201.9,266.7,196.7,265.4"/>
					</g>
				</g>
			</g>
		</g>
		<g id="g336">
			<g id="g338">
				<g id="g344">
					<g id="g346">
						
							<linearGradient id="path358_1_" gradientUnits="userSpaceOnUse" x1="60.8533" y1="-220.8223" x2="62.0964" y2="-220.8223" gradientTransform="matrix(0 54.984 62.5643 0 14025.8301 -3102.5535)">
							<stop  offset="0" style="stop-color:#BCBEC0"/>
							<stop  offset="0.8956" style="stop-color:#939598"/>
							<stop  offset="0.8956" style="stop-color:#939598"/>
							<stop  offset="1" style="stop-color:#939598"/>
						</linearGradient>
						<path id="path358" class="st21" d="M186.3,255.4c0-10.4,16.7-12.1,22-12.1l0,0c5.4,0,9.5,0,14.7,1.1l0,0
							c8.9,2.1,10.9,7.8,11.2,10.7l0,0h-7.7c-0.1-3.3-1.8-7.1-6.7-8.8l0,0c-4.9-1.7-18.9-0.6-21.6,1.3l0,0c-2.7,2-3.7,6.1-3.9,7.7
							l0,0L186.3,255.4L186.3,255.4z"/>
					</g>
				</g>
			</g>
		</g>
		<g id="g360">
			<g>
				<g>
					<g>
						<g id="g362">
							<g id="g368" transform="translate(218.75,390.876)">
								<path id="path370" class="st17" d="M-8.1-146c11.5,0,14.7,4.4,15.5,7.8c0,0.4-0.1,0.7-0.4,0.7c-0.3,0-0.4-0.4-0.4-0.7
									c-0.3-0.6-1.6-6.3-14.7-6.3s-14.3,5.6-14.6,6.3c-0.1,0.4-0.1,0.7-0.4,0.7c-0.3,0-0.4-0.4-0.4-0.7
									C-22.7-141.9-19.6-146-8.1-146"/>
							</g>
							<g id="g372" transform="translate(368.7471,408.1064)">
								<path id="path374" class="st1" d="M-25.2-142c0,0.7-0.4,1.3-0.9,1.3h-25.1c-1.8,0-3.9,0-5.7,0c-10-0.4-18-5.6-18-12.4
									c0-6.8,4.6-12.2,18-12.4c1.2,0,4.6,0,5.7,0h24.4c0.9,0,1.6,1,1.6,2.3v10.1c0,1.1-0.7,2.3-1.6,2.3h-24.4
									c-0.4,0-0.9-0.6-0.9-1.3v-2.9c0-0.7,0.4-1.3,0.9-1.3h13.7c0.4,0,0.9-0.6,0.9-1.3v-1.6c0-0.7-0.4-1.3-0.9-1.3h-13.4
									c-1.2,0-2.1,0-3,0.2c-5.1,0.2-9.2,3-9.2,7.3s4.2,6.3,9.2,6.5c0.9,0,1.9,0,3,0h25c0.4,0,0.9,1,0.9,1.6v3L-25.2-142L-25.2-142
									z"/>
							</g>
							<g id="g376" transform="translate(312.8379,399.1699)">
								<path id="path378" class="st2" d="M-18.8-143.9c0-6.7,4.5-12.1,17.8-12.2c1.2,0,4.6,0,5.7,0h24.2c0.9,0,1.6,1,1.6,2.3v10
									c0,1.1-0.7,2.3-1.6,2.3h-24c-0.4,0-0.9-0.6-0.9-1.3v-2.9c0-0.7,0.4-1.3,0.9-1.3h13.7c0.4,0,0.9-0.6,0.9-1.3v-1.7
									c0-0.7-0.4-1.3-0.9-1.3H5c-1.2,0-2.1,0-2.8,0c-5.2,0.2-9.4,3.3-9.4,7.4c0,4.3,4.2,6.3,9.4,6.5c0.9,0,1.9,0,2.8,0h24.8
									c0.4,0,0.9,0.7,0.9,1.6v2.9c0,0.7-0.4,1.3-0.9,1.3H4.9c-1.8,0-3.7,0-5.7,0C-10.8-132.1-18.8-137.4-18.8-143.9"/>
							</g>
							<g id="g380" transform="translate(312.9258,399.1836)">
								<path id="path382" class="st3" d="M-18.7-143.9c0-6.7,4.5-11.8,17.7-12.1c1.2,0,4.5,0,5.5,0h24.1c0.9,0,1.6,1,1.6,2.1v9.8
									c0,1.1-0.7,2.1-1.6,2.1h-24c-0.4,0-0.9-0.6-0.9-1.3v-2.4c0-0.7,0.4-1.3,0.9-1.3h13.7c0.4,0,0.9-0.6,0.9-1.3v-2
									c0-0.7-0.4-1.3-0.9-1.3H4.6c-1,0-1.9,0-2.8,0.2c-5.4,0.2-9.5,3.4-9.5,7.4c0,4.3,4.3,6.5,9.4,6.7c0.9,0,1.9,0,2.8,0h24.7
									c0.4,0,0.9,0.7,0.9,1.6v2.7c0,0.7-0.4,1.3-0.9,1.3h-25c-1.8,0-3.7,0-5.5,0C-10.9-132.4-18.7-137.5-18.7-143.9"/>
							</g>
							<g id="g384" transform="translate(313.0127,399.1973)">
								<path id="path386" class="st4" d="M-18.9-143.9c0-6.7,4.5-11.7,17.7-11.8c1.3,0,4.5,0,5.5,0h23.9c0.9,0,1.6,1,1.6,2.1v9.5
									c0,1.1-0.7,2.1-1.6,2.1H4.6c-0.4,0-0.9-0.6-0.9-1.1v-2.4c0-0.7,0.3-1.1,0.9-1.1h13.7c0.4,0,0.9-0.6,0.9-1.3v-2.1
									c0-0.7-0.3-1.3-0.9-1.3H4.6c-1,0-1.9,0-2.7,0c-5.5,0.2-9.5,3.7-9.5,7.7c0,4.3,4.3,6.5,9.4,6.7c0.9,0,1.9,0,2.8,0h24.5
									c0.4,0,0.9,0.7,0.9,1.6v2.4c0,0.7-0.3,1.3-0.9,1.3H4.3c-1.8,0-3.7,0-5.5,0C-11-132.5-18.9-137.7-18.9-143.9"/>
							</g>
							<g id="g388" transform="translate(313.1006,399.2104)">
								<path id="path390" class="st5" d="M-18.8-144.2c0-6.5,4.5-11.7,17.6-11.7c1.3,0,4.3,0,5.5,0h23.8c0.9,0,1.5,1,1.5,2.1v9.4
									c0,1.1-0.7,2.1-1.5,2.1H4.5c-0.4,0-0.9-0.6-0.9-1.1v-2.3c0-0.7,0.3-1.1,0.9-1.1h13.7c0.4,0,0.9-0.6,0.9-1.1v-2.3
									c0-0.7-0.3-1.1-0.9-1.1H4.4c-1,0-1.9,0-2.7,0c-5.7,0.2-9.7,3.8-9.7,7.7c0,4.3,4.5,6.7,9.5,6.9c0.9,0,1.9,0,2.8,0h24.6
									c0.4,0,0.9,0.7,0.9,1.3v2.3c0,0.7-0.3,1.1-0.9,1.1H4.2c-1.8,0-3.7,0-5.5,0C-11.1-132.5-18.8-137.8-18.8-144.2"/>
							</g>
							<g id="g392" transform="translate(313.1885,399.2241)">
								<path id="path394" class="st6" d="M-18.8-144.2c0-6.5,4.5-11.5,17.4-11.5c1.3,0,4.3,0,5.5,0h23.6c0.9,0,1.5,1,1.5,2.1v9.1
									c0,1.1-0.7,2.1-1.5,2.1H4.6c-0.4,0-0.9-0.6-0.9-1.1v-2.1c0-0.6,0.3-1.1,0.9-1.1h13.7c0.4,0,0.9-0.6,0.9-1.1v-2.4
									c0-0.7-0.3-1.1-0.9-1.1h-14c-0.9,0-1.9,0-2.5,0c-5.7,0.2-9.8,3.8-9.8,7.8c0,4.3,4.5,6.7,9.5,6.9c0.9,0,1.9,0,2.8,0h24.4
									c0.4,0,0.9,0.7,0.9,1.3v2.1c0,0.7-0.3,1.1-0.9,1.1H4.1c-1.8,0-3.6,0-5.5,0C-11.2-132.7-18.8-138.1-18.8-144.2"/>
							</g>
							<g id="g396" transform="translate(313.2764,399.2378)">
								<path id="path398" class="st7" d="M-18.9-144.2c0-6.3,4.5-11.3,17.4-11.5c1.3,0,4.2,0,5.5,0h23.5c0.9,0,1.5,1,1.5,2.1v9
									c0,1.1-0.7,2.1-1.5,2.1H4.6c-0.4,0-0.7-0.6-0.7-1.1v-2c0-0.6,0.3-1.1,0.7-1.1h13.7c0.4,0,0.7-0.6,0.7-1.1v-2.7
									c0-0.6-0.3-1.1-0.7-1.1H4.2c-0.9,0-1.9,0-2.5,0c-5.8,0.2-10,4-10,7.8c0,4.3,4.6,6.9,9.5,7.1c0.9,0,1.9,0,2.8,0h24.2
									c0.4,0,0.7,0.7,0.7,1.3v2c0,0.6-0.3,1.1-0.7,1.1H3.9c-1.8,0-3.6,0-5.5,0C-11.3-132.8-18.9-138.2-18.9-144.2"/>
							</g>
							<g id="g400" transform="translate(313.3633,399.2515)">
								<path id="path402" class="st8" d="M-18.8-144.2c0-6.3,4.3-11.1,17.3-11.3c1.3,0,4.2,0,5.4,0h23.4c0.9,0,1.5,1,1.5,2.1v8.8
									c0,1.1-0.7,2.1-1.5,2.1H4.4c-0.4,0-0.7-0.6-0.7-1.1v-1.7c0-0.6,0.3-1.1,0.7-1.1h13.7c0.4,0,0.7-0.6,0.7-1.1v-3.3
									c0-0.6-0.3-1.1-0.7-1.1H3.9c-0.9,0-1.9,0-2.4,0c-5.9,0.2-10,4.3-10,8c0,4.3,4.6,6.9,9.5,7.1c0.9,0,1.9,0,2.8,0h24.1
									c0.4,0,0.7,0.6,0.7,1.3v1.7c0,0.6-0.3,1.1-0.7,1.1H3.8c-1.8,0-3.6,0-5.4,0C-11.2-132.8-18.8-138.4-18.8-144.2"/>
							</g>
							<g id="g404" transform="translate(313.4512,399.2651)">
								<path id="path406" class="st9" d="M-18.9-144.2c0-6.1,4.3-10.8,17.1-11.1c1.3,0,4,0,5.4,0h23.2c0.9,0,1.5,1,1.5,2.1v8.7
									c0,1.1-0.7,2.1-1.5,2.1H4.3c-0.4,0-0.7-0.6-0.7-1.1v-1.6c0-0.6,0.3-1.1,0.7-1.1h13.6c0.4,0,0.7-0.6,0.7-1.1v-3.4
									c0-0.6-0.3-1.1-0.7-1.1H3.7c-0.7,0-1.8,0-2.4,0c-6.1,0.2-10.1,4.4-10.1,8c0,4.4,4.8,7.1,9.7,7.3c0.9,0,1.9,0,2.8,0h23.9
									c0.4,0,0.7,0.6,0.7,1.3v1.6c0,0.6-0.3,1.1-0.7,1.1H3.5c-1.8,0-3.6,0-5.4,0C-11.4-133-18.9-138.6-18.9-144.2"/>
							</g>
							<g id="g408" transform="translate(313.5391,399.2788)">
								<path id="path410" class="st10" d="M-18.9-144c0-6.1,4.3-10.7,17.1-10.8c1.3,0,4,0,5.4,0h23.1c0.9,0,1.5,1,1.5,2v8.2
									c0,1.1-0.7,2-1.5,2H4.3c-0.4,0-0.7-0.6-0.7-1.1v-1.3c0-0.6,0.3-1.1,0.7-1.1H18c0.4,0,0.7-0.6,0.7-1.1v-3.4
									c0-0.6-0.3-1.1-0.7-1.1H3.6c-0.7,0-1.8,0-2.2,0c-6.1,0.2-10.3,4.6-10.3,8.2c0,4.4,4.8,7.1,9.7,7.3c0.9,0,1.8,0,2.8,0h23.9
									c0.4,0,0.7,0.6,0.7,1.1v1.3c0,0.6-0.3,1.1-0.7,1.1H3.6c-1.8,0-3.6,0-5.4-0.2C-11.5-133.2-18.9-138.7-18.9-144"/>
							</g>
							<g id="g412" transform="translate(313.627,399.292)">
								<path id="path414" class="st11" d="M-18.9-144c0-6.1,4.3-10.5,17-10.7c1.3,0,3.9-0.2,5.4-0.2h23.1c0.9,0,1.5,1,1.5,2v8
									c0,1.1-0.7,2-1.5,2h-22c-0.4,0-0.7-0.6-0.7-1.1v-0.7c0-0.6,0.3-1.1,0.7-1.1h13.7c0.4,0,0.7-0.6,0.7-1.1v-3.7
									c0-0.6-0.3-1.1-0.7-1.1H3.6c-0.7,0-1.8,0-2.2,0c-6.2,0.2-10.4,4.6-10.4,8.2c0,4.4,4.9,7.3,9.7,7.4c0.9,0,1.8,0,2.7,0h23.8
									c0.4,0,0.7,0.6,0.7,1.1v1.1c0,0.6-0.3,1.1-0.7,1.1H3.3c-1.8,0-3.4,0-5.4-0.2C-11.6-133.2-18.9-138.9-18.9-144"/>
							</g>
							<g id="g416" transform="translate(313.7139,399.3057)">
								<path id="path418" class="st12" d="M-19-144c0-6,4.3-10.4,16.8-10.5c1.3,0,3.9-0.2,5.4-0.2h22.9c0.9,0,1.5,1,1.5,2v7.8
									c0,1.1-0.6,2-1.5,2H4.4c-0.4,0-0.7-0.6-0.7-1.1v-0.7c0-0.6,0.3-1.1,0.7-1.1h13.7c0.4,0,0.7-0.6,0.7-1.1v-3.8
									c0-0.6-0.3-1.1-0.7-1.1H3.5c-0.6,0-1.8,0-2.1,0C-5-151.7-9-147.2-9-143.6c0,4.4,4.9,7.3,9.8,7.7c0.9,0,1.8,0,2.7,0h23.6
									c0.4,0,0.7,0.6,0.7,1.1v1c0,0.6-0.3,1.1-0.7,1.1H3.5c-1.8,0-3.4,0-5.4-0.2C-11.7-133.3-19-139-19-144"/>
							</g>
							<g id="g420" transform="translate(313.8018,399.3193)">
								<path id="path422" class="st13" d="M-18.9-144c0-6,4.2-10.1,16.7-10.4c1.5,0,3.7-0.2,5.2-0.2h22.8c0.9,0,1.5,0.7,1.5,2v7.7
									c0,1.1-0.6,2-1.5,2H4.1c-0.4,0-0.7-0.6-0.7-1.1v-0.7c0-0.6,0.3-1.1,0.7-1.1h13.7c0.4,0,0.7-0.6,0.7-1.1v-4
									c0-0.6-0.3-1.1-0.7-1.1H3.1c-0.6,0-1.8,0-2.1,0c-6.5,0.2-10.6,5-10.6,8.7c0,4.4,5.1,7.4,9.8,7.7c0.9,0,1.8,0,2.7,0h23.5
									c0.4,0,0.7,0.6,0.7,1.1v0.7c0,0.6-0.3,1.1-0.7,1.1H2.9c-1.8,0-3.4,0-5.2-0.2C-11.6-133.6-18.9-139.3-18.9-144"/>
							</g>
							<g id="g424" transform="translate(365.8242,407.2402)">
								<path id="path426" class="st14" d="M-24.8-142.2c0,0.6-0.3,1.1-0.7,1.1h-23.4c-1.8,0-3.4,0-5.2-0.2
									c-9.5-0.4-16.7-6.1-16.7-10.7c0-5.7,4.2-10,16.7-10.4c1.5,0,3.7-0.2,5.2-0.2h22.6c0.7,0,1.5,0.7,1.5,2v7.4c0,1-0.6,2-1.5,2
									h-21.3c-0.4,0-0.7-0.6-0.7-1.1v-0.6c0-0.6,0.3-1.1,0.7-1.1h13.7c0.4,0,0.7-0.6,0.7-1.1v-4.3c0-0.6-0.3-1.1-0.7-1.1h-14.9
									c-0.6,0-1.6,0-1.9,0c-6.7,0-10.7,5.1-10.7,8.7c0,4.4,5.1,7.4,9.8,7.8c0.9,0,1.8,0,2.7,0h23.4c0.4,0,0.7,0.6,0.7,1.1
									L-24.8-142.2L-24.8-142.2z"/>
							</g>
							<g id="g428" transform="translate(365.8242,407.2402)">
								<path id="path430" class="st14" d="M-24.8-142.2c0,0.6-0.3,1.1-0.7,1.1h-23.4c-1.8,0-3.4,0-5.2-0.2
									c-9.5-0.4-16.7-6.1-16.7-10.7c0-5.7,4.2-10,16.7-10.4c1.5,0,3.7-0.2,5.2-0.2h22.6c0.7,0,1.5,0.7,1.5,2v7.4c0,1-0.6,2-1.5,2
									h-21.3c-0.4,0-0.7-0.6-0.7-1.1v-0.6c0-0.6,0.3-1.1,0.7-1.1h13.7c0.4,0,0.7-0.6,0.7-1.1v-4.3c0-0.6-0.3-1.1-0.7-1.1h-14.9
									c-0.6,0-1.6,0-1.9,0c-6.7,0-10.7,5.1-10.7,8.7c0,4.4,5.1,7.4,9.8,7.8c0.9,0,1.8,0,2.7,0h23.4c0.4,0,0.7,0.6,0.7,1.1
									L-24.8-142.2L-24.8-142.2z"/>
							</g>
							<g id="g432" transform="translate(365.8242,407.2402)">
								<path id="path434" class="st14" d="M-24.8-142.2c0,0.6-0.3,1.1-0.7,1.1h-23.4c-1.8,0-3.4,0-5.2-0.2
									c-9.5-0.4-16.7-6.1-16.7-10.7c0-5.7,4.2-10,16.7-10.4c1.5,0,3.7-0.2,5.2-0.2h22.6c0.7,0,1.5,0.7,1.5,2v7.4c0,1-0.6,2-1.5,2
									h-21.3c-0.4,0-0.7-0.6-0.7-1.1v-0.6c0-0.6,0.3-1.1,0.7-1.1h13.7c0.4,0,0.7-0.6,0.7-1.1v-4.3c0-0.6-0.3-1.1-0.7-1.1h-14.9
									c-0.6,0-1.6,0-1.9,0c-6.7,0-10.7,5.1-10.7,8.7c0,4.4,5.1,7.4,9.8,7.8c0.9,0,1.8,0,2.7,0h23.4c0.4,0,0.7,0.6,0.7,1.1
									L-24.8-142.2L-24.8-142.2z"/>
							</g>
							<g id="g436" transform="translate(365.8242,407.2402)">
								<path id="path438" class="st14" d="M-24.8-142.2c0,0.6-0.3,1.1-0.7,1.1h-23.4c-1.8,0-3.4,0-5.2-0.2
									c-9.5-0.4-16.7-6.1-16.7-10.7c0-5.7,4.2-10,16.7-10.4c1.5,0,3.7-0.2,5.2-0.2h22.6c0.7,0,1.5,0.7,1.5,2v7.4c0,1-0.6,2-1.5,2
									h-21.3c-0.4,0-0.7-0.6-0.7-1.1v-0.6c0-0.6,0.3-1.1,0.7-1.1h13.7c0.4,0,0.7-0.6,0.7-1.1v-4.3c0-0.6-0.3-1.1-0.7-1.1h-14.9
									c-0.6,0-1.6,0-1.9,0c-6.7,0-10.7,5.1-10.7,8.7c0,4.4,5.1,7.4,9.8,7.8c0.9,0,1.8,0,2.7,0h23.4c0.4,0,0.7,0.6,0.7,1.1
									L-24.8-142.2L-24.8-142.2z"/>
							</g>
							<g id="g440" transform="translate(365.8242,407.2402)">
								<path id="path442" class="st14" d="M-24.8-142.2c0,0.6-0.3,1.1-0.7,1.1h-23.4c-1.8,0-3.4,0-5.2-0.2
									c-9.5-0.4-16.7-6.1-16.7-10.7c0-5.7,4.2-10,16.7-10.4c1.5,0,3.7-0.2,5.2-0.2h22.6c0.7,0,1.5,0.7,1.5,2v7.4c0,1-0.6,2-1.5,2
									h-21.3c-0.4,0-0.7-0.6-0.7-1.1v-0.6c0-0.6,0.3-1.1,0.7-1.1h13.7c0.4,0,0.7-0.6,0.7-1.1v-4.3c0-0.6-0.3-1.1-0.7-1.1h-14.9
									c-0.6,0-1.6,0-1.9,0c-6.7,0-10.7,5.1-10.7,8.7c0,4.4,5.1,7.4,9.8,7.8c0.9,0,1.8,0,2.7,0h23.4c0.4,0,0.7,0.6,0.7,1.1
									L-24.8-142.2L-24.8-142.2z"/>
							</g>
							<g id="g444" transform="translate(365.8242,407.2402)">
								<path id="path446" class="st14" d="M-24.8-142.2c0,0.6-0.3,1.1-0.7,1.1h-23.4c-1.8,0-3.4,0-5.2-0.2
									c-9.5-0.4-16.7-6.1-16.7-10.7c0-5.7,4.2-10,16.7-10.4c1.5,0,3.7-0.2,5.2-0.2h22.6c0.7,0,1.5,0.7,1.5,2v7.4c0,1-0.6,2-1.5,2
									h-21.3c-0.4,0-0.7-0.6-0.7-1.1v-0.6c0-0.6,0.3-1.1,0.7-1.1h13.7c0.4,0,0.7-0.6,0.7-1.1v-4.3c0-0.6-0.3-1.1-0.7-1.1h-14.9
									c-0.6,0-1.6,0-1.9,0c-6.7,0-10.7,5.1-10.7,8.7c0,4.4,5.1,7.4,9.8,7.8c0.9,0,1.8,0,2.7,0h23.4c0.4,0,0.7,0.6,0.7,1.1
									L-24.8-142.2L-24.8-142.2z"/>
							</g>
							<g id="g448" transform="translate(365.8242,407.2402)">
								<path id="path450" class="st14" d="M-24.8-142.2c0,0.6-0.3,1.1-0.7,1.1h-23.4c-1.8,0-3.4,0-5.2-0.2
									c-9.5-0.4-16.7-6.1-16.7-10.7c0-5.7,4.2-10,16.7-10.4c1.5,0,3.7-0.2,5.2-0.2h22.6c0.7,0,1.5,0.7,1.5,2v7.4c0,1-0.6,2-1.5,2
									h-21.3c-0.4,0-0.7-0.6-0.7-1.1v-0.6c0-0.6,0.3-1.1,0.7-1.1h13.7c0.4,0,0.7-0.6,0.7-1.1v-4.3c0-0.6-0.3-1.1-0.7-1.1h-14.9
									c-0.6,0-1.6,0-1.9,0c-6.7,0-10.7,5.1-10.7,8.7c0,4.4,5.1,7.4,9.8,7.8c0.9,0,1.8,0,2.7,0h23.4c0.4,0,0.7,0.6,0.7,1.1
									L-24.8-142.2L-24.8-142.2z"/>
							</g>
							<g id="g452" transform="translate(365.8242,407.2402)">
								<path id="path454" class="st14" d="M-24.8-142.2c0,0.6-0.3,1.1-0.7,1.1h-23.4c-1.8,0-3.4,0-5.2-0.2
									c-9.5-0.4-16.7-6.1-16.7-10.7c0-5.7,4.2-10,16.7-10.4c1.5,0,3.7-0.2,5.2-0.2h22.6c0.7,0,1.5,0.7,1.5,2v7.4c0,1-0.6,2-1.5,2
									h-21.3c-0.4,0-0.7-0.6-0.7-1.1v-0.6c0-0.6,0.3-1.1,0.7-1.1h13.7c0.4,0,0.7-0.6,0.7-1.1v-4.3c0-0.6-0.3-1.1-0.7-1.1h-14.9
									c-0.6,0-1.6,0-1.9,0c-6.7,0-10.7,5.1-10.7,8.7c0,4.4,5.1,7.4,9.8,7.8c0.9,0,1.8,0,2.7,0h23.4c0.4,0,0.7,0.6,0.7,1.1
									L-24.8-142.2L-24.8-142.2z"/>
							</g>
							<g id="g456" transform="translate(365.8242,407.2402)">
								<path id="path458" class="st14" d="M-24.8-142.2c0,0.6-0.3,1.1-0.7,1.1h-23.4c-1.8,0-3.4,0-5.2-0.2
									c-9.5-0.4-16.7-6.1-16.7-10.7c0-5.7,4.2-10,16.7-10.4c1.5,0,3.7-0.2,5.2-0.2h22.6c0.7,0,1.5,0.7,1.5,2v7.4c0,1-0.6,2-1.5,2
									h-21.3c-0.4,0-0.7-0.6-0.7-1.1v-0.6c0-0.6,0.3-1.1,0.7-1.1h13.7c0.4,0,0.7-0.6,0.7-1.1v-4.3c0-0.6-0.3-1.1-0.7-1.1h-14.9
									c-0.6,0-1.6,0-1.9,0c-6.7,0-10.7,5.1-10.7,8.7c0,4.4,5.1,7.4,9.8,7.8c0.9,0,1.8,0,2.7,0h23.4c0.4,0,0.7,0.6,0.7,1.1
									L-24.8-142.2L-24.8-142.2z"/>
							</g>
							<g id="g460" transform="translate(365.8242,407.2402)">
								<path id="path462" class="st14" d="M-24.8-142.2c0,0.6-0.3,1.1-0.7,1.1h-23.4c-1.8,0-3.4,0-5.2-0.2
									c-9.5-0.4-16.7-6.1-16.7-10.7c0-5.7,4.2-10,16.7-10.4c1.5,0,3.7-0.2,5.2-0.2h22.6c0.7,0,1.5,0.7,1.5,2v7.4c0,1-0.6,2-1.5,2
									h-21.3c-0.4,0-0.7-0.6-0.7-1.1v-0.6c0-0.6,0.3-1.1,0.7-1.1h13.7c0.4,0,0.7-0.6,0.7-1.1v-4.3c0-0.6-0.3-1.1-0.7-1.1h-14.9
									c-0.6,0-1.6,0-1.9,0c-6.7,0-10.7,5.1-10.7,8.7c0,4.4,5.1,7.4,9.8,7.8c0.9,0,1.8,0,2.7,0h23.4c0.4,0,0.7,0.6,0.7,1.1
									L-24.8-142.2L-24.8-142.2z"/>
							</g>
							<g id="g464" transform="translate(365.8242,407.2402)">
								<path id="path466" class="st14" d="M-24.8-142.2c0,0.6-0.3,1.1-0.7,1.1h-23.4c-1.8,0-3.4,0-5.2-0.2
									c-9.5-0.4-16.7-6.1-16.7-10.7c0-5.7,4.2-10,16.7-10.4c1.5,0,3.7-0.2,5.2-0.2h22.6c0.7,0,1.5,0.7,1.5,2v7.4c0,1-0.6,2-1.5,2
									h-21.3c-0.4,0-0.7-0.6-0.7-1.1v-0.6c0-0.6,0.3-1.1,0.7-1.1h13.7c0.4,0,0.7-0.6,0.7-1.1v-4.3c0-0.6-0.3-1.1-0.7-1.1h-14.9
									c-0.6,0-1.6,0-1.9,0c-6.7,0-10.7,5.1-10.7,8.7c0,4.4,5.1,7.4,9.8,7.8c0.9,0,1.8,0,2.7,0h23.4c0.4,0,0.7,0.6,0.7,1.1
									L-24.8-142.2L-24.8-142.2z"/>
							</g>
							<g id="g468" transform="translate(365.8242,407.2402)">
								<path id="path470" class="st14" d="M-24.8-142.2c0,0.6-0.3,1.1-0.7,1.1h-23.4c-1.8,0-3.4,0-5.2-0.2
									c-9.5-0.4-16.7-6.1-16.7-10.7c0-5.7,4.2-10,16.7-10.4c1.5,0,3.7-0.2,5.2-0.2h22.6c0.7,0,1.5,0.7,1.5,2v7.4c0,1-0.6,2-1.5,2
									h-21.3c-0.4,0-0.7-0.6-0.7-1.1v-0.6c0-0.6,0.3-1.1,0.7-1.1h13.7c0.4,0,0.7-0.6,0.7-1.1v-4.3c0-0.6-0.3-1.1-0.7-1.1h-14.9
									c-0.6,0-1.6,0-1.9,0c-6.7,0-10.7,5.1-10.7,8.7c0,4.4,5.1,7.4,9.8,7.8c0.9,0,1.8,0,2.7,0h23.4c0.4,0,0.7,0.6,0.7,1.1
									L-24.8-142.2L-24.8-142.2z"/>
							</g>
							<g id="g472" transform="translate(365.8242,407.2402)">
								<path id="path474" class="st14" d="M-24.8-142.2c0,0.6-0.3,1.1-0.7,1.1h-23.4c-1.8,0-3.4,0-5.2-0.2
									c-9.5-0.4-16.7-6.1-16.7-10.7c0-5.7,4.2-10,16.7-10.4c1.5,0,3.7-0.2,5.2-0.2h22.6c0.7,0,1.5,0.7,1.5,2v7.4c0,1-0.6,2-1.5,2
									h-21.3c-0.4,0-0.7-0.6-0.7-1.1v-0.6c0-0.6,0.3-1.1,0.7-1.1h13.7c0.4,0,0.7-0.6,0.7-1.1v-4.3c0-0.6-0.3-1.1-0.7-1.1h-14.9
									c-0.6,0-1.6,0-1.9,0c-6.7,0-10.7,5.1-10.7,8.7c0,4.4,5.1,7.4,9.8,7.8c0.9,0,1.8,0,2.7,0h23.4c0.4,0,0.7,0.6,0.7,1.1
									L-24.8-142.2L-24.8-142.2z"/>
							</g>
							<g id="g476" transform="translate(365.8242,407.2402)">
								<path id="path478" class="st14" d="M-24.8-142.2c0,0.6-0.3,1.1-0.7,1.1h-23.4c-1.8,0-3.4,0-5.2-0.2
									c-9.5-0.4-16.7-6.1-16.7-10.7c0-5.7,4.2-10,16.7-10.4c1.5,0,3.7-0.2,5.2-0.2h22.6c0.7,0,1.5,0.7,1.5,2v7.4c0,1-0.6,2-1.5,2
									h-21.3c-0.4,0-0.7-0.6-0.7-1.1v-0.6c0-0.6,0.3-1.1,0.7-1.1h13.7c0.4,0,0.7-0.6,0.7-1.1v-4.3c0-0.6-0.3-1.1-0.7-1.1h-14.9
									c-0.6,0-1.6,0-1.9,0c-6.7,0-10.7,5.1-10.7,8.7c0,4.4,5.1,7.4,9.8,7.8c0.9,0,1.8,0,2.7,0h23.4c0.4,0,0.7,0.6,0.7,1.1
									L-24.8-142.2L-24.8-142.2z"/>
							</g>
						</g>
					</g>
				</g>
			</g>
		</g>
		<g id="g480">
			<g id="g482">
				<g id="g488">
					<g id="g490">
						
							<linearGradient id="path498_1_" gradientUnits="userSpaceOnUse" x1="60.382" y1="-220.8677" x2="61.6252" y2="-220.8677" gradientTransform="matrix(0 53.2556 60.5974 0 13702.5166 -2961.1497)">
							<stop  offset="0" style="stop-color:#FFFFFF"/>
							<stop  offset="1" style="stop-color:#BCBEC0"/>
						</linearGradient>
						<path id="path498" class="st22" d="M311.7,266.1c-9.5-0.4-16.7-5.6-16.7-11.5l0,0h9.4c0,0,0,0,0,0.4l0,0c0,4.8,5.1,8,9.7,8.2
							l0,0c0.9,0,1.9,0,2.8,0l0,0H341c0.4,0,0.7,0.7,0.9,2l0,0l0.1,0.4c0,0.6-0.3,0.7-0.7,0.7l0,0h-24.2c-0.3,0-0.4,0-0.7,0l0,0
							C314.7,266.4,313.2,266.1,311.7,266.1"/>
					</g>
				</g>
			</g>
		</g>
		<g id="g500">
			<g id="g502">
				<g id="g508">
					<g id="g510">
						
							<linearGradient id="path522_1_" gradientUnits="userSpaceOnUse" x1="59.1623" y1="-220.4646" x2="60.4055" y2="-220.4646" gradientTransform="matrix(0 49.6531 56.4982 0 12773.6973 -2693.3423)">
							<stop  offset="0" style="stop-color:#BCBEC0"/>
							<stop  offset="0.9011" style="stop-color:#939598"/>
							<stop  offset="0.9011" style="stop-color:#939598"/>
							<stop  offset="1" style="stop-color:#939598"/>
						</linearGradient>
						<path id="path522" class="st23" d="M317.5,254.4c0-0.6,0-0.6,0-0.7l0,0c0-0.4,0-0.7,0.7-0.7l0,0h13.2c0.4,0,1.2-0.4,1.2-1l0,0
							c0,0,0-4,0-4.6l0,0c0-0.7,0-1.3-1.3-1.3l0,0c-1.3,0-20.5-2-23.5,2.3l0,0c-1.3,2-3.4,4.4-3.6,6.7l0,0h-9.3
							c0-10.4,12.8-10.5,15.3-10.5l0,0c2.5,0,27.7-0.2,28.7-0.2l0,0c1,0,1.9,0.4,1.9,2.1l0,0c0,0,0,7.3,0,7.8l0,0c0,0.4,0,0.4-0.3,1
							l0,0h-21.6C318.8,255.3,317.5,254.6,317.5,254.4"/>
					</g>
				</g>
			</g>
		</g>
		<g id="g524">
			<g>
				<g>
					<g>
						<g id="g526">
							<g id="g532" transform="translate(357.3271,392.1924)">
								<path id="path534" class="st17" d="M-23.9-145.8c0-0.7-0.1-1.1-1-1.1c-1.8,0-14.3,0-17,0s-7,0.6-9.2,3.8
									c-0.9,1.1,0,1.3,1,0.4c0.9-1,3.9-2.9,8.2-2.9c5.9,0,12.2,0,15.9,0c0.7,0,0.9,0.6,1,0.7C-24.8-144.5-23.9-144.3-23.9-145.8"
									/>
							</g>
							<g id="g536" transform="translate(365.6973,398.6309)">
								<path id="path538" class="st17" d="M-24.9-144.1c0,0.7-0.4,1.6-1,1.6h-21.9c-0.4,0-0.6-0.7-0.6-1.6H-24.9z"/>
							</g>
							<g id="g540" transform="translate(378.1006,389.2178)">
								<path id="path542" class="st1" d="M-26.3-146.6c-0.9,0-1.5,1-1.5,2.1v20.5c0,1.1,0.7,2.1,1.5,2.1h42.1c0.3,0,0.6-0.4,0.6-1
									v-4c0-0.6-0.3-1-0.6-1h-30.9c-0.6,0-1.2-0.7-1.2-1.7v-1c0-1,0.6-1.7,1.2-1.7h29.4c0.3,0,0.6-0.4,0.6-1v-3.4
									c0-0.4-0.3-1-0.6-1h-29.4c-0.6,0-1.2-0.7-1.2-1.7v-1c0-1,0.6-1.7,1.2-1.7h31.5c0.3,0,0.6-0.4,0.6-1v-3.7c0-0.6-0.3-1-0.6-1
									L-26.3-146.6z"/>
							</g>
							<g id="g544" transform="translate(378.2197,389.3428)">
								<path id="path546" class="st2" d="M-26.2-146.5c-0.9,0-1.5,1-1.5,2.1v20.1c0,1.1,0.7,2.1,1.5,2.1h41.8c0.3,0,0.6-0.4,0.6-1
									v-3.7c0-0.4-0.3-1-0.6-1h-30.9c-0.6,0-1.2-0.7-1.2-1.7v-1.1c0-1,0.4-1.7,1.2-1.7h29.4c0.3,0,0.6-0.4,0.6-1v-3
									c0-0.4-0.3-1-0.6-1h-29.4c-0.6,0-1.2-0.7-1.2-1.7v-1.1c0-1,0.6-1.7,1.2-1.7h31.5c0.3,0,0.6-0.4,0.6-1v-3.7
									c0-0.4-0.3-1-0.6-1L-26.2-146.5z"/>
							</g>
							<g id="g548" transform="translate(378.3379,389.4678)">
								<path id="path550" class="st3" d="M-26.3-146.3c-0.9,0-1.5,1-1.5,2.1v19.9c0,1.1,0.7,2.1,1.5,2.1h41.6
									c0.3,0,0.6-0.4,0.6-0.7v-3.4c0-0.4-0.3-0.7-0.6-0.7h-30.9c-0.6,0-1.2-0.7-1.2-1.7v-1.3c0-1,0.4-1.7,1.2-1.7h29.5
									c0.3,0,0.6-0.4,0.6-0.7v-2.9c0-0.4-0.3-0.7-0.6-0.7h-29.4c-0.6,0-1.2-0.7-1.2-1.6v-1.6c0-1,0.6-1.6,1.2-1.6H16
									c0.3,0,0.6-0.4,0.6-0.7v-3.3c0-0.4-0.3-0.7-0.6-0.7L-26.3-146.3z"/>
							</g>
							<g id="g552" transform="translate(378.457,389.5928)">
								<path id="path554" class="st4" d="M-26.2-146.4c-0.9,0-1.5,1-1.5,2.1v19.7c0,1.1,0.7,2.1,1.5,2.1h41.3
									c0.3,0,0.6-0.4,0.6-0.7v-3.3c0-0.4-0.3-0.7-0.6-0.7h-30.9c-0.6,0-1.2-0.7-1.2-1.6v-1.6c0-1,0.4-1.6,1.2-1.6h29.4
									c0.3,0,0.6-0.4,0.6-0.7v-2.7c0-0.4-0.3-0.7-0.6-0.7H-16c-0.6,0-1.2-0.7-1.2-1.6v-1.6c0-1,0.6-1.6,1.2-1.6h31.5
									c0.3,0,0.6-0.4,0.6-0.7v-3c0-0.4-0.3-0.7-0.6-0.7L-26.2-146.4z"/>
							</g>
							<g id="g556" transform="translate(378.5752,389.7178)">
								<path id="path558" class="st5" d="M-26.3-146.4c-0.9,0-1.5,1-1.5,2.1v19.4c0,1.1,0.7,2.1,1.5,2.1h41.1
									c0.3,0,0.6-0.4,0.6-0.7v-2.9c0-0.4-0.3-0.7-0.6-0.7h-30.9c-0.6,0-1.2-0.7-1.2-1.6v-2c0-1,0.4-1.6,1.2-1.6h29.4
									c0.3,0,0.6-0.4,0.6-0.7v-2.4c0-0.4-0.3-0.7-0.6-0.7h-29.6c-0.6,0-1.2-0.7-1.2-1.6v-2c0-1,0.6-1.6,1.2-1.6h31.5
									c0.3,0,0.6-0.4,0.6-0.7v-2.9c0-0.4-0.3-0.7-0.6-0.7L-26.3-146.4z"/>
							</g>
							<g id="g560" transform="translate(378.6943,389.8428)">
								<path id="path562" class="st6" d="M-26.3-146.4c-0.9,0-1.5,1-1.5,2.1v19.1c0,1.1,0.7,2.1,1.5,2.1h40.8
									c0.3,0,0.6-0.4,0.6-0.7v-2.7c0-0.4-0.3-0.7-0.6-0.7h-31.1c-0.6,0-1.2-0.7-1.2-1.6v-2.1c0-1,0.4-1.6,1.2-1.6H13
									c0.3,0,0.6-0.4,0.6-0.7v-2.3c0-0.4-0.3-0.7-0.6-0.7h-29.6c-0.6,0-1.2-0.7-1.2-1.6v-2.3c0-1,0.6-1.6,1.2-1.6h31.7
									c0.3,0,0.6-0.4,0.6-0.7v-2.7c0-0.4-0.3-0.7-0.6-0.7L-26.3-146.4z"/>
							</g>
							<g id="g564" transform="translate(378.8135,389.9678)">
								<path id="path566" class="st7" d="M-26.4-146.3c-0.9,0-1.5,1-1.5,2.1v18.9c0,1.1,0.7,2.1,1.5,2.1h40.6
									c0.3,0,0.6-0.4,0.6-0.7v-2.4c0-0.4-0.3-0.7-0.6-0.7h-31.1c-0.6,0-1.2-0.7-1.2-1.6v-2.3c0-1,0.4-1.6,1.2-1.6h29.6
									c0.3,0,0.6-0.4,0.6-0.7v-2.1c0-0.4-0.3-0.7-0.6-0.7h-29.6c-0.6,0-1.2-0.7-1.2-1.6v-2.4c0-1,0.6-1.6,1.2-1.6h31.7
									c0.3,0,0.6-0.4,0.6-0.7v-2.3c0-0.4-0.3-0.7-0.6-0.7L-26.4-146.3z"/>
							</g>
							<g id="g568" transform="translate(378.9316,390.0928)">
								<path id="path570" class="st8" d="M-26.3-146.4c-0.9,0-1.5,1-1.5,2.1v18.5c0,1.1,0.6,2.1,1.5,2.1H14c0.3,0,0.6-0.4,0.6-0.7
									v-2.1c0-0.4-0.3-0.7-0.6-0.7h-31.1c-0.6,0-1.2-0.7-1.2-1.6v-2.4c0-1,0.4-1.6,1.2-1.6h29.6c0.3,0,0.6-0.4,0.6-0.7v-1.7
									c0-0.4-0.3-0.7-0.6-0.7h-29.6c-0.6,0-1.2-0.7-1.2-1.6v-2.7c0-1,0.6-1.6,1.2-1.6h31.7c0.3,0,0.6-0.4,0.6-0.7v-2.1
									c0-0.4-0.3-0.7-0.6-0.7L-26.3-146.4z"/>
							</g>
							<g id="g572" transform="translate(379.0508,390.2178)">
								<path id="path574" class="st9" d="M-26.4-146.3c-0.9,0-1.5,1-1.5,2.1v18.4c0,1.1,0.6,2.1,1.5,2.1h40c0.3,0,0.6-0.4,0.6-0.7
									v-2c0-0.4-0.3-0.7-0.6-0.7h-31.1c-0.6,0-1-0.7-1-1.6v-2.9c0-1,0.4-1.6,1-1.6h29.6c0.3,0,0.6-0.4,0.6-0.7v-1.6
									c0-0.4-0.3-0.7-0.6-0.7h-29.6c-0.6,0-1-0.7-1-1.6v-3c0-1,0.6-1.6,1.2-1.6h31.7c0.3,0,0.6-0.4,0.6-0.7v-2
									c0-0.4-0.3-0.7-0.6-0.7L-26.4-146.3z"/>
							</g>
							<g id="g576" transform="translate(379.1699,390.3428)">
								<path id="path578" class="st10" d="M-26.3-146.1c-0.7,0-1.5,1-1.5,2.1v18c0,1.1,0.6,2.1,1.5,2.1h39.9c0.3,0,0.6-0.4,0.6-0.7
									v-1.7c0-0.4-0.3-0.7-0.6-0.7h-31.1c-0.6,0-1-0.7-1-1.6v-3c0-1,0.4-1.6,1-1.6h29.6c0.3,0,0.6-0.4,0.6-0.7v-1.3
									c0-0.4-0.3-0.7-0.6-0.7h-29.7c-0.6,0-1-0.7-1-1.6v-3.3c0-1,0.6-1.6,1.2-1.6h31.7c0.3,0,0.6-0.4,0.6-0.7v-1.7
									c0-0.4-0.3-0.7-0.6-0.7L-26.3-146.1z"/>
							</g>
							<g id="g580" transform="translate(379.2881,390.4678)">
								<path id="path582" class="st11" d="M-26.4-146.2c-0.7,0-1.5,1-1.5,2.1v17.8c0,1.1,0.6,2.1,1.5,2.1h39.6
									c0.3,0,0.6-0.4,0.6-0.7v-1.6c0-0.4-0.3-0.7-0.6-0.7h-31.1c-0.6,0-1-0.7-1-1.6v-3.3c0-1,0.4-1.6,1-1.6h29.6
									c0.3,0,0.6-0.4,0.6-0.7v-1c0-0.4-0.3-0.7-0.6-0.7h-29.8c-0.6,0-1-0.7-1-1.6v-3.4c0-1,0.6-1.6,1.2-1.6h31.7
									c0.3,0,0.6-0.4,0.6-0.7v-2c0-0.4-0.3-0.7-0.6-0.7L-26.4-146.2L-26.4-146.2z"/>
							</g>
							<g id="g584" transform="translate(379.4072,390.5928)">
								<path id="path586" class="st12" d="M-26.4-146.1c-0.7,0-1.5,1-1.5,2.1v17.6c0,1.1,0.6,2.1,1.5,2.1h39.3
									c0.3,0,0.6-0.4,0.6-0.7v-1.1c0-0.4-0.3-0.7-0.6-0.7h-31.1c-0.6,0-1-0.7-1-1.6v-3.4c0-1,0.4-1.6,1-1.6h29.7
									c0.3,0,0.6-0.4,0.6-0.7v-1.6c0-0.4-0.3-0.7-0.6-0.7h-29.7c-0.6,0-1-0.7-1-1.6v-3.8c0-1,0.6-1.6,1.2-1.6h31.7
									c0.3,0,0.6-0.4,0.6-0.7v-1.1c0-0.4-0.3-0.7-0.6-0.7L-26.4-146.1L-26.4-146.1z"/>
							</g>
							<g id="g588" transform="translate(379.5254,390.7178)">
								<path id="path590" class="st13" d="M-26.4-146.2c-0.7,0-1.5,1-1.5,2.1v17.2c0,1.1,0.6,2.1,1.5,2.1h39c0.3,0,0.6-0.4,0.6-0.7
									v-1c0-0.4-0.3-0.7-0.6-0.7h-31.1c-0.6,0-1-0.7-1-1.6v-3.8c0-1,0.4-1.6,1-1.6h29.7c0.3,0,0.6-0.4,0.6-0.7v-0.7
									c0-0.4-0.3-0.7-0.6-0.7h-29.7c-0.6,0-1-0.7-1-1.6l-0.1-4c0-1,0.6-1.6,1.2-1.6h31.7c0.3,0,0.6-0.4,0.6-0.7v-0.9
									c0-0.4-0.3-0.7-0.6-0.7L-26.4-146.2z"/>
							</g>
							<g id="g592" transform="translate(379.6445,390.8428)">
								<path id="path594" class="st14" d="M-26.4-146c-0.7,0-1.5,1-1.5,2.1v17.1c0,1.1,0.6,2.1,1.5,2.1h38.8c0.3,0,0.6-0.4,0.6-0.7
									v-0.7c0-0.4-0.3-0.7-0.6-0.7h-31.2c-0.6,0-1-0.7-1-1.6v-4c0-1,0.4-1.6,1-1.6h29.7c0.3,0,0.6-0.4,0.6-0.7v-0.6
									c0-0.4-0.3-0.7-0.6-0.7h-29.7c-0.6,0-1-0.7-1-1.6l-0.1-4.3c0-0.7,0.6-1.6,1.2-1.6h31.6c0.3,0,0.6-0.4,0.6-0.7v-0.6
									c0-0.4-0.3-0.7-0.6-0.7L-26.4-146z"/>
							</g>
						</g>
					</g>
				</g>
			</g>
		</g>
		<g id="g596">
			<g id="g598">
				<g id="g604">
					<g id="g606">
						
							<linearGradient id="path614_1_" gradientUnits="userSpaceOnUse" x1="61.4013" y1="-221.33" x2="62.6446" y2="-221.33" gradientTransform="matrix(0 56.8282 64.6626 0 14684.0283 -3235.4944)">
							<stop  offset="0" style="stop-color:#FFFFFF"/>
							<stop  offset="1" style="stop-color:#BCBEC0"/>
						</linearGradient>
						<path id="path614" class="st24" d="M351.8,264l0.4-9.1l8.5-1h29.7c0.3,0,0.4,0.4,0.7,0.7l0,0l0.1,0.4l0.1,1
							c0.1,0.6-0.3,0.7-0.6,0.7l0,0h-30.2c-0.6,0-1,0.7-1,1.6l0,0v3.4c0,0.7,0.4,1.6,1,1.6l0,0h31.2c0.3,0,0.4,0.4,0.6,0.7l0,0
							l0.4,1.3c0.1,0.6-0.3,0.7-0.6,0.7l0,0h-39.3C352.4,266.4,351.8,265.1,351.8,264"/>
					</g>
				</g>
			</g>
		</g>
		<g id="g616">
			<g id="g618">
				<g id="g624">
					<g id="g626">
						
							<linearGradient id="path638_1_" gradientUnits="userSpaceOnUse" x1="57.9217" y1="-220.1671" x2="59.1651" y2="-220.1671" gradientTransform="matrix(0 46.3568 52.7479 0 11986.0723 -2440.4031)">
							<stop  offset="0" style="stop-color:#BCBEC0"/>
							<stop  offset="0.9011" style="stop-color:#939598"/>
							<stop  offset="0.9011" style="stop-color:#939598"/>
							<stop  offset="1" style="stop-color:#939598"/>
						</linearGradient>
						<path id="path638" class="st25" d="M352.3,254.9c0,0-0.4-5.6-0.4-7.8l0,0c0-2.3,0.6-2.3,2.1-2.3l0,0h38.1c0.7,0,0.7,0,1,0.7
							l0,0c0.3,0.6,0.6,1.6,0.4,1.7l0,0c0,0-30.5-0.6-31.7-0.6l0,0c-1.2,0-2.2,0.2-2.2,1.6l0,0v4.3c0,1,0.1,1.3,1.3,1.3l0,0h29
							c0.9,0,1,0,1.3,1.1l0,0L352.3,254.9L352.3,254.9z"/>
					</g>
				</g>
			</g>
		</g>
		<g id="g640">
			<g>
				<g>
					<g>
						<g id="g642">
							<g id="g648" transform="translate(424.5176,393.0625)">
								<path id="path650" class="st17" d="M-31.4-145.5h-31.4c-0.6,0-0.9,0.6-1,0.7c-0.1,0.2-1.2,0.4-1.2-1.1c0-0.7,0.1-1.6,1-1.6
									c0.9,0,5.1,0,9.1,0c9.2,0,22,0,22.2,0c0.4,0,0.9,0,1.2,0.2c0.1,0.2,0.1,0.4,0.4,1C-30.8-145.8-31.1-145.5-31.4-145.5"/>
							</g>
						</g>
					</g>
				</g>
			</g>
		</g>
	</g>
</g>
</svg>
