<?xml version="1.0" encoding="utf-8"?>
<!-- Generator: Adobe Illustrator 23.1.1, SVG Export Plug-In . SVG Version: 6.00 Build 0)  -->
<svg version="1.1" id="Layer_1" xmlns="http://www.w3.org/2000/svg" xmlns:xlink="http://www.w3.org/1999/xlink" x="0px" y="0px"
	 viewBox="0 0 300 300" style="enable-background:new 0 0 300 300;" xml:space="preserve">
<style type="text/css">
	.st0{fill:#E20A17;}
</style>
<g id="g3532" transform="matrix(7.4332176,0,0,-7.4332176,684.46384,388.0002)">
	<path id="path3534" class="st0" d="M-58.8,26.8c0,0-2.4-0.7-7.1-3.6c-4.2-2.6-5.8-4.3-5.8-4.3l-12.9,8.9c0,0,5.4,4,10,0.9l6.1-4.2
		l0.7,0.5l-16.8,11.8c0,0,2.4,0.7,7.1,3.6c4.2,2.6,5.8,4.3,5.8,4.3l12.9-8.9c0,0-5.4-4-10-0.9l-6.1,4.2l-0.7-0.5L-58.8,26.8z"/>
</g>
</svg>
