<svg xmlns="http://www.w3.org/2000/svg" xmlns:xlink="http://www.w3.org/1999/xlink" viewBox="0 0 300 300"><style><![CDATA[.R{enable-background:new}]]></style><linearGradient id="A" gradientUnits="userSpaceOnUse" x1="150" y1="77.667" x2="150" y2="222.262"><stop offset="0" stop-color="#ebebeb"/><stop offset=".5"/><stop offset=".865" stop-color="#58595b"/><stop offset="1"/></linearGradient><use xlink:href="#Q" fill="url(#A)"/><radialGradient id="B" cx="149.924" cy="-2310.275" r="76.915" gradientTransform="matrix(1 0 0 -0.4626 0 -883.9053)" gradientUnits="userSpaceOnUse"><stop offset=".798" stop-color="#e6e6e6"/><stop offset="1"/></radialGradient><path d="M46.7 149.9c0 24.2 36.8 65.6 85.3 69.5 7.6.6 8.6-4.1 2.6-5.6-2.4-.8-39.1-11.5-50.7-32-8.8-15.5 2.1-19.1 9.4-20.1 6.8-.9 39.4-1.7 57-1.7s50.3.9 57 1.7c7.3.9 18.2 4.7 9.4 20.1-11.7 20.6-48.3 31.5-50.7 32-5.9 1.5-6.4 6.4 2.6 5.6 48.5-4.4 84.8-45.1 84.8-69.5H46.7z" fill="url(#B)"/><radialGradient id="C" cx="149.621" cy="4184.376" r="94.969" gradientTransform="matrix(1 0 0 0.3407 0 -1315.2815)" gradientUnits="userSpaceOnUse"><stop offset=".791"/><stop offset="1" stop-color="#e6e6e6"/></radialGradient><path d="M253 148.4c0-28.3-35.3-66.3-81.5-70.4-12.4-1.2-12 6.4-5.9 7.9 2.4.8 38.8 11.5 50.4 31.5 8.8 15.1-1.7 18.5-9.1 19.5-6.8.8-39.4 1.7-57 1.7s-50.3-.8-57-1.7c-7.3-.9-18.2-3.9-9.4-19.1 11.7-20.1 48.5-31.2 50.9-32 6.4-2.1 6.4-9.2-5.9-7.9-46.7 4.7-82.4 41.4-82.4 70.6l206.9-.1z" fill="url(#C)"/><linearGradient id="D" gradientUnits="userSpaceOnUse" x1="149.546" y1="152.157" x2="149.546" y2="161.029"><stop offset="0"/><stop offset=".113" stop-color="#050505"/><stop offset=".237" stop-color="#121212"/><stop offset=".366" stop-color="#282828"/><stop offset=".5" stop-color="#474747"/><stop offset=".636" stop-color="#6f6f6f"/><stop offset=".775" stop-color="#9f9f9f"/><stop offset=".914" stop-color="#d8d8d8"/><stop offset="1" stop-color="#fff"/></linearGradient><path d="M56.2 151.6h186.6v9.2H56.2v-9.2z" fill="url(#D)"/><linearGradient id="E" gradientUnits="userSpaceOnUse" x1="149.546" y1="149.673" x2="149.546" y2="143.082"><stop offset="0" stop-color="#666"/><stop offset=".148" stop-color="#6b6b6b"/><stop offset=".312" stop-color="#787878"/><stop offset=".483" stop-color="#8e8e8e"/><stop offset=".658" stop-color="#adadad"/><stop offset=".836" stop-color="#d4d4d4"/><stop offset="1" stop-color="#fff"/></linearGradient><path d="M56.2,143h186.6v6.8H56.2V143z" fill="url(#E)"/><linearGradient id="F" gradientUnits="userSpaceOnUse" x1="149.924" y1="148.867" x2="149.924" y2="159.789"><stop offset="0" stop-color="#fff"/><stop offset="1"/></linearGradient><path d="M239.1 154.2c0 3.2-40 5.8-89.1 5.8s-89.2-2.6-89.2-5.8 40-5.8 89.1-5.8 89.2 2.6 89.2 5.8h0z" opacity=".5" fill="url(#F)" class="R"/><linearGradient id="G" gradientUnits="userSpaceOnUse" x1="149.849" y1="139.201" x2="149.849" y2="150.123"><stop offset="0" stop-color="#fff"/><stop offset="1"/></linearGradient><path d="M236.6 144.5c0 3.2-38.8 5.8-86.8 5.8-47.9 0-86.8-2.6-86.8-5.8s38.8-5.8 86.8-5.8 86.8 2.6 86.8 5.8z" opacity=".5" fill="url(#G)" class="R"/><linearGradient id="H" gradientUnits="userSpaceOnUse" x1="70.578" y1="134.377" x2="72.341" y2="139.481"><stop offset="0" stop-color="#e6e6e6" stop-opacity="0"/><stop offset=".271" stop-color="#f6f6f6" stop-opacity=".538"/><stop offset=".503" stop-color="#fff"/><stop offset=".733" stop-color="#f6f6f6" stop-opacity=".538"/><stop offset="1" stop-color="#e6e6e6" stop-opacity="0"/></linearGradient><path d="M60.3 135.7s19.2-4.7 21.1-4.1c.2.5 1.7 2 2.3 2.7-.6 1.1-20.9 9.7-20.9 9.7s-4.7-.3-2.5-8.3z" fill="url(#H)"/><linearGradient id="I" gradientUnits="userSpaceOnUse" x1="229.423" y1="134.378" x2="227.658" y2="139.481"><stop offset="0" stop-color="#e6e6e6" stop-opacity="0"/><stop offset=".271" stop-color="#f6f6f6" stop-opacity=".538"/><stop offset=".503" stop-color="#fff"/><stop offset=".733" stop-color="#f6f6f6" stop-opacity=".538"/><stop offset="1" stop-color="#e6e6e6" stop-opacity="0"/></linearGradient><path d="M239.7 135.7s-19.2-4.7-21.1-4.1c-.2.5-1.7 2-2.3 2.7.6 1.1 20.9 9.7 20.9 9.7s4.7-.3 2.5-8.3z" fill="url(#I)"/><linearGradient id="J" gradientUnits="userSpaceOnUse" x1="70.648" y1="165.056" x2="72.411" y2="159.952"><stop offset="0" stop-color="#e6e6e6" stop-opacity="0"/><stop offset=".271" stop-color="#f6f6f6" stop-opacity=".538"/><stop offset=".503" stop-color="#fff"/><stop offset=".733" stop-color="#f6f6f6" stop-opacity=".538"/><stop offset="1" stop-color="#e6e6e6" stop-opacity="0"/></linearGradient><path d="M60.5 163.6s19.2 4.7 21.1 4.1c.2-.5 1.7-2 2.3-2.7-.6-1.1-20.9-9.7-20.9-9.7s-4.9.3-2.5 8.3z" opacity=".3" fill="url(#J)" class="R"/><linearGradient id="K" gradientUnits="userSpaceOnUse" x1="229.622" y1="165.054" x2="227.857" y2="159.951"><stop offset="0" stop-color="#e6e6e6" stop-opacity="0"/><stop offset=".271" stop-color="#f6f6f6" stop-opacity=".538"/><stop offset=".503" stop-color="#fff"/><stop offset=".733" stop-color="#f6f6f6" stop-opacity=".538"/><stop offset="1" stop-color="#e6e6e6" stop-opacity="0"/></linearGradient><path d="M239.8 163.6s-19.2 4.7-21.1 4.1c-.2-.5-1.7-2-2.3-2.7.6-1.1 20.9-9.7 20.9-9.7s4.8.3 2.5 8.3z" opacity=".3" fill="url(#K)" class="R"/><path d="M172.6 218.7c-3.6.6-3.8-1.4 0-2.4 18.6-5 52.1-17.1 64.8-47.7 7.1-17.3-4.5-17.4-9.2-17.9-11.5-1.1-70.1 0-78.3 0s-66.8-.8-78.5.3c-4.7.5-16.4.8-9.2 17.9 12.9 30.4 46.5 42.4 65 47.4 3.8 1.1 3.3 3-.3 2.4-45.1-8.9-81.2-38.3-81.2-69.8 0-40 47-66.7 80.6-70 4.5-.5 4.2 1.8 1.7 2.6-5.8 1.4-46.2 9.7-62.9 40.9-8.5 15.8-5.9 21.5 8 22.9 3.5.3 25.4.8 76.8.9 51.4.2 73.5-.9 76.8-1.2 13.9-1.5 16.4-7.3 7.9-22.9-16.8-31.1-57.4-39.4-63.2-40.7-2.6-.8-2.9-3 1.7-2.6 33.5 3.2 80.7 29.7 80.7 69.7.1 28.1-36.8 63.3-81.2 70.2z" fill="#fff"/><linearGradient id="L" gradientUnits="userSpaceOnUse" x1="149.622" y1="79.815" x2="149.622" y2="218.784"><stop offset="0" stop-color="#e6e6e6"/><stop offset=".497" stop-color="#fff"/><stop offset="1" stop-color="#e6e6e6"/></linearGradient><use xlink:href="#R" fill="url(#L)"/><radialGradient id="M" cx="150.989" cy="-775.336" r="106.75" gradientTransform="matrix(1,0,0,-1,0,-626.1)" gradientUnits="userSpaceOnUse"><stop offset=".816" stop-color="#fff"/><stop offset="1" stop-color="gray"/></radialGradient><use xlink:href="#R" fill="url(#M)"/><linearGradient id="N" gradientUnits="userSpaceOnUse" x1="150" y1="77.534" x2="150" y2="82.516"><stop offset="0" stop-color="#fff"/><stop offset=".098" stop-color="#f9f9f9" stop-opacity=".903"/><stop offset=".222" stop-color="#eaeaea" stop-opacity=".778"/><stop offset=".36" stop-color="#d0d0d0" stop-opacity=".64"/><stop offset=".509" stop-color="#ababab" stop-opacity=".5"/><stop offset=".666" stop-color="#7c7c7c" stop-opacity=".334"/><stop offset=".83" stop-color="#434343" stop-opacity=".17"/><stop offset=".998" stop-color="#010101" stop-opacity=".002"/><stop offset="1" stop-opacity="0"/></linearGradient><use xlink:href="#Q" fill="url(#N)"/><path d="M150 143.3c13.2 0 65 .9 72.6-5.5.6-.5.8-.8 2-.2 1.1.5 3.6 2.1 4.2 2.7.6.9-.2 1.2-.5 1.4-4.4 1.8-16.4 3.6-78.3 3.5-61.7 0-73.9-1.7-78.3-3.5-.3-.2-1.2-.5-.5-1.4.5-.8 3-2.3 4.2-2.7 1.2-.5 1.4-.3 2 .2 7.6 6.4 59.4 5.5 72.6 5.5z" fill="#fff"/><path d="M253.3 153.1c-.6 0-.9-.5-1.2-4.1-.5-8.8-6.4-24.4-14.7-32.9-1.1-1.2-2.6-1.1-1.2 1.2 2.1 3.3 10.5 15.9 10.5 31.8 0 31.5-28.6 60.3-73.5 69.4-3.6.8-4.2-.5-.5-1.5 18.5-5 52-17.1 64.7-47.7 7.1-17.3-4.5-18.3-9.2-18.8-11.5-1.1-70 0-78.3 0s-66.7-.8-78.3.3c-4.5.5-16.4 1.7-9.2 18.8 12.9 30.6 46.4 42.4 64.8 47.6 3.8 1.1 3 2.1-.5 1.5-44.7-9.2-73.3-37.7-73.5-69.2-.2-15.9 8-28.5 10.3-31.8 1.5-2.1-.2-2.3-1.2-1.2-8.3 8.5-14.1 24.4-14.5 33-.2 3.6-.5 4.1-1.1 4.1s-.8-2.1-.8-4.1c1.7-40 47-66.8 80.3-70.1 4.5-.5 4.2 1.1 1.7 1.7-5.8 1.4-46.1 10.6-62.7 41.8-8.3 15.9-5.8 21.7 8 23.2 3.5.3 25.3.8 76.8.9 51.5.2 73.3-.9 76.8-1.2 13.9-1.5 16.4-7.3 7.9-23-16.8-31.2-57.3-40.1-62.9-41.7-2.6-.8-2.9-2.1 1.7-1.7 33.5 3.2 78.8 29.8 80.6 69.7 0 1.9-.3 4-.8 4z" fill="#7f7f7f"/><linearGradient id="O" gradientUnits="userSpaceOnUse" x1="71.143" y1="140.999" x2="229.044" y2="140.999"><stop offset="0" stop-color="#fff" stop-opacity="0"/><stop offset=".5" stop-color="#fff"/><stop offset="1" stop-color="#fff" stop-opacity="0"/></linearGradient><path d="M150 143c13.2 0 65 1.1 72.6-5.5.6-.5.8-.8 2-.2 1.1.5 3.6 2.1 4.2 2.7.6.9-.2 1.2-.5 1.4-4.4 1.8-16.4 3.6-78.3 3.5-61.7 0-73.9-1.7-78.3-3.5-.3-.2-1.2-.5-.5-1.4.5-.8 3-2.3 4.2-2.7 1.2-.5 1.4-.3 2 .2C85 144 136.8 143 150 143z" opacity=".75" fill="url(#O)" class="R"/><defs ><path id="Q" d="M171.5 77.2c-12.4-.9-13.2 7-5.9 8.8 2.4.6 39.1 11.5 50.7 32 8.8 15.5-2.1 19.1-9.4 20.1-6.8.9-39.4 1.7-57 1.7s-50.3-.8-57-1.7c-7.3-.9-18.2-4.7-9.4-20.1 11.8-20.5 48.3-31.2 50.7-32 7.3-1.8 6.4-9.7-5.9-8.8-48.6 3.6-88.2 38.5-88.2 72.7s39.5 69.2 88.2 72.7c12.4.9 13.2-7 5.9-8.8-2.4-.6-39.1-11.5-50.7-32-8.8-15.5 2.1-19.1 9.4-20.1 6.8-.9 39.4-1.7 57-1.7s50.3.9 57 1.7c7.3.9 18.2 4.7 9.4 20.1-11.7 20.6-48.5 31.4-50.7 32-7.3 1.8-6.4 9.7 5.9 8.8 48.5-3.5 88.2-38.5 88.2-72.7-.2-34.2-39.7-69-88.2-72.7z"/><path id="R" d="M173 218.7c-3.6.6-4.2-.5-.5-1.5 18.6-5 52.1-17.1 64.8-47.7 7.1-17.3-4.5-17.4-9.2-17.9-11.5-1.1-70.1 0-78.3 0-8.3 0-66.8-.8-78.3.3-4.7.5-16.4.8-9.2 17.9 12.9 30.4 46.5 42.4 65 47.4 3.8 1.1 3.2 2.1-.5 1.5-45.1-9.1-81.2-37.4-81.2-69.1 0-40 47-66.7 80.6-70 4.5-.5 4.2 1.1 1.7 1.7-5.9 1.4-46.2 10.6-63 41.8-8.5 15.8-5.9 21.5 8 22.9 3.5.3 25.4.8 76.8.9 51.4.2 73.5-.9 76.8-1.2 13.9-1.5 16.4-7.3 7.9-22.9-16.8-31.1-57.4-40.1-63.2-41.5-2.6-.8-2.9-2.1 1.7-1.7 33.5 3.2 80.7 29.7 80.7 69.7.3 28.1-36.2 62.3-80.6 69.4z"/></defs></svg>