<?xml version="1.0" encoding="UTF-8"?>
<svg enable-background="new 0 0 300 300" version="1.1" viewBox="0 0 300 300" xml:space="preserve" xmlns="http://www.w3.org/2000/svg">
<style type="text/css">
	.st0{fill:url(#l);}
	.st1{fill:url(#h);}
	.st2{fill:#B3B3B3;}
	.st3{fill:#1D1D1B;}
	.st4{fill:#262626;}
	.st5{fill:#FFFFFF;}
	.st6{fill:url(#g);}
	.st7{fill:url(#f);}
	.st8{fill:#E6E6E6;}
	.st9{fill:url(#e);}
	.st10{fill:url(#d);}
	.st11{fill:url(#c);}
	.st12{fill:url(#b);}
	.st13{fill:url(#a);}
	.st14{fill:url(#v);}
	.st15{fill:url(#u);}
	.st16{fill:url(#t);}
	.st17{fill:url(#s);}
	.st18{fill:#DEDFE0;}
	.st19{fill:url(#r);}
	.st20{fill:url(#q);}
	.st21{fill:url(#p);}
	.st22{fill:url(#o);}
	.st23{fill:url(#n);}
	.st24{fill:url(#m);}
	.st25{fill:url(#k);}
	.st26{fill:url(#j);}
	.st27{fill:url(#i);}
</style>

	
		<path d="m200.9 222.3 2.5 3.9s25.3-14.4 35.9-49.9c11.4-38.3-8.2-70.3-8.2-70.3s15.7 28.3 7.8 60.4c-9 36.7-38 55.9-38 55.9z"/>
		
			
				<linearGradient id="l" x1="405.24" x2="590.93" y1="490.16" y2="490.16" gradientTransform="matrix(.7071 .7071 -.7071 .7071 144.35 -548.64)" gradientUnits="userSpaceOnUse">
				<stop stop-color="#fff" offset="0"/>
				<stop offset="1"/>
			</linearGradient>
			<path class="st0" d="m84.3 84.5c36.3-36.3 95.1-36.3 131.3 0 36.3 36.3 36.3 95 0 131.3s-95 36.3-131.3 0c-36.2-36.2-36.2-95 0-131.3zm2.9 128.5c34.6 34.6 90.8 34.6 125.5 0 34.6-34.6 34.6-90.8 0-125.5s-90.8-34.6-125.5 0c-34.6 34.7-34.6 90.8 0 125.5z"/>
			
				<linearGradient id="h" x1="214.95" x2="79.306" y1="756.98" y2="617.45" gradientTransform="translate(0 -539.89)" gradientUnits="userSpaceOnUse">
				<stop stop-color="#fff" offset="0"/>
				<stop offset="1"/>
			</linearGradient>
			<path class="st1" d="m66.6 150.3c0-46.1 37.3-83.4 83.4-83.4s83.4 37.3 83.4 83.4-37.3 83.4-83.4 83.4-83.4-37.3-83.4-83.4zm83.4 87.4c48.3 0 87.4-39.1 87.4-87.4s-39.1-87.4-87.4-87.4-87.4 39.1-87.4 87.4c0 48.2 39.1 87.4 87.4 87.4z"/>
			<path class="st2" d="m57.4 157.6 4.4-4.4s-0.2-13.8 3.4-26.2c5.6-19.7 18.4-35.3 18.4-35.3s-12.2 12.1-18.4 30.5c-3.9 11.7-4.6 23.2-6.1 29-1 3.9-1.7 6.4-1.7 6.4"/>
			<path class="st3" d="m75.1 202.8c-16.2-21.6-17.6-45.7-17.6-45.7s1.4-2.1 2.7-6.1c1.6-4.7 2.6-13.9 2.6-13.9s-7 34.5 15.4 63.6c10.8 14.1 33.7 41.6 86.3 37.3-0.1 0-53.1 13.3-89.4-35.2z"/>
			<path class="st4" d="m56.5 150.2c0-51.6 41.9-93.5 93.5-93.5s93.5 41.9 93.5 93.5-41.9 93.5-93.5 93.5v-1.2c25.5 0 48.5-10.3 65.2-27s27-39.7 27-65.2-10.3-48.5-27-65.2-39.7-27-65.2-27-48.5 10.3-65.2 27-27 39.7-27 65.2 10.3 48.5 27 65.2 39.7 27 65.2 27v1.2c-51.6 0-93.5-41.9-93.5-93.5z"/>
			<path class="st4" d="m65.9 150.3c0-46.4 37.6-84.1 84.1-84.1 46.4 0 84.1 37.6 84.1 84.1 0 46.4-37.6 84.1-84.1 84.1v-1.2c22.9 0 43.5-9.3 58.5-24.2 15-15 24.2-35.7 24.2-58.5 0-22.9-9.3-43.5-24.2-58.5-15-15-35.7-24.2-58.5-24.2-22.9 0-43.5 9.3-58.5 24.2-15 15-24.2 35.7-24.2 58.5 0 22.9 9.3 43.5 24.2 58.5 15 15 35.7 24.2 58.5 24.2v1.2c-46.4-0.1-84.1-37.7-84.1-84.1z"/>
			<path class="st5" d="m150 61.5c-49 0-88.7 39.7-88.7 88.7s39.7 88.7 88.7 88.7 88.7-39.7 88.7-88.7c0-48.9-39.7-88.7-88.7-88.7zm0 176.2c-48.3 0-87.4-39.1-87.4-87.4s39.1-87.4 87.4-87.4 87.4 39.1 87.4 87.4c0 48.2-39.1 87.4-87.4 87.4z"/>
		
	
	
		
			
				<linearGradient id="g" x1="133.41" x2="151.18" y1="101.34" y2="77.764" gradientTransform="matrix(1 0 0 -1 0 299.89)" gradientUnits="userSpaceOnUse">
				<stop stop-color="#333434" offset="0"/>
				<stop stop-color="#838484" offset=".2294"/>
				<stop stop-color="#fff" offset=".4939"/>
				<stop stop-color="#999" offset=".7244"/>
				<stop stop-color="#333434" offset=".9255"/>
			</linearGradient>
			<path class="st6" d="m151.2 218.8c-1.8-0.1-3.2-2.1-3.2-2.1l-11.3-16.6s-0.8-0.9-0.8-1.9v-0.2l-3.6 0.2v0.3c0 2.3 1.5 3.9 1.5 3.9l11.9 16.3s1.3 2.2 4.4 2.6l1.1-2.5z"/>
			<linearGradient id="f" x1="135.2" x2="135.47" y1="195.4" y2="198.02" gradientUnits="userSpaceOnUse">
				<stop stop-color="#fff" offset="0"/>
				<stop stop-color="#999" offset=".4457"/>
				<stop stop-color="#333434" offset=".9255"/>
			</linearGradient>
			<path class="st7" d="m138.2 194.4s-0.8 0.4-1.1 0.6c0 0-0.4 0.2-0.9 0.4-0.2 0.1-0.5 0.1-0.7 0.1-0.5 0-1.3-0.1-1.5 0.1-0.1 0.1-0.2 0.2-0.4 0.3s-0.3 0.3-0.5 0.5c-0.3 0.4-0.5 0.9-0.7 1.9l3.6-0.2c0-0.3 0.1-0.6 0.2-0.8s0.1-0.4 0.2-0.5 0.1-0.2 0.1-0.2l0.8-1.1 0.9-1.1z"/>
			<path class="st8" d="m188 130.2 2 0.1 8.2-15.3s1.6-3.2 2.1-3.4c2.4-0.9 5.1 4.1 5.1 4.1l-3.2-5.9s-0.5-1.3-1.8-1.3c-1.2 0-1.6 1-1.6 1l-10.8 20.7z"/>
			<linearGradient id="e" x1="186.78" x2="183.75" y1="176.84" y2="174.67" gradientUnits="userSpaceOnUse">
				<stop stop-color="#999" offset=".1225"/>
				<stop stop-color="#333434" offset=".9255"/>
			</linearGradient>
			<path class="st9" d="m219.6 129.9v0-0.1-0.1c-0.1 0-0.1-0.1-0.1-0.2h-0.1v-0.1l-6.6 0.8-0.1 0.1c-0.1 0.1-0.1 0.2-0.1 0.2l-58 86.4s-1 1.8-3.2 1.8h-0.3-0.1l-1 2.6c0.3 0 0.7 0.1 1.1 0.1h0.1 0.2 0.5c0.2 0 0.3 0 0.5-0.1 0.2 0 0.4-0.1 0.6-0.2 2-0.7 3.3-2.3 3.3-2.3l61.8-85s0.5-0.5 0.9-1.4c0.2-0.5 0.5-1.1 0.6-1.8 0-0.1 0-0.1 0.1-0.2v-0.2c-0.1-0.1-0.1-0.2-0.1-0.3z"/>
			
				<linearGradient id="d" x1="207.24" x2="214.16" y1="192.48" y2="164.47" gradientTransform="matrix(1 0 0 -1 0 299.89)" gradientUnits="userSpaceOnUse">
				<stop stop-color="#fff" offset="0"/>
				<stop stop-color="#ECECEC" offset=".1047"/>
				<stop stop-color="#BCBCBC" offset=".3168"/>
				<stop stop-color="#6D6D6D" offset=".6172"/>
				<stop stop-color="#020202" offset=".9916"/>
				<stop offset="1"/>
				<stop stop-color="#0F0F0F" offset="1"/>
				<stop stop-color="#292929" offset="1"/>
				<stop stop-color="#333" offset="1"/>
			</linearGradient>
			<path class="st10" d="m202.3 109.9 10.4 19.7s0.2 0.3 0.2 0.5v0.1l-0.1 0.1 6.7-0.6c-0.1-1.8-0.7-2.8-0.7-2.8l-14.2-19.3s-1.2-1.7-3.5-1.7h-0.3l-0.2 2.6c1.2 0.1 1.7 1.4 1.7 1.4z"/>
			
				<linearGradient id="c" x1="174.64" x2="174.03" y1="763.98" y2="669.66" gradientTransform="translate(0 -539.89)" gradientUnits="userSpaceOnUse">
				<stop stop-color="#fff" offset="0"/>
				<stop stop-color="#ECECEC" offset=".1047"/>
				<stop stop-color="#BCBCBC" offset=".3168"/>
				<stop stop-color="#6D6D6D" offset=".6172"/>
				<stop stop-color="#020202" offset=".9916"/>
				<stop offset="1"/>
				<stop stop-color="#0F0F0F" offset="1"/>
				<stop stop-color="#292929" offset="1"/>
				<stop stop-color="#333" offset="1"/>
			</linearGradient>
			<path class="st11" d="m212.5 130.6c0 0.1-58 86.5-58 86.5s-1 1.8-3.2 1.8c-1.9 0-3.4-2.2-3.4-2.2l-11.3-16.6s-0.8-0.9-0.8-1.9 0.5-1.6 0.5-1.6l51.8-66.5h24.6s-0.1 0.4-0.2 0.5z"/>
			<path class="st8" d="m218.1 126.3c0.2 0.4 0.6 1.3 0.6 2.8 0 2.5-1.4 4.1-1.4 4.1l-61.7 85.2s-1.9 2.6-5 2.4c-3.6-0.3-5.1-3.3-5.1-3.3s1.8 3.6 5.6 3.6c3.1 0 4.8-2.2 4.8-2.2l61.8-85s1.4-1.5 1.4-4.1c0-2.1-0.8-3-0.8-3l-0.2-0.2v-0.3z"/>
			<path class="st5" d="m205.3 109.3c-1-1.7-1.5-3.8-4.3-3.7-2.3 0.1-3.2 1.5-3.9 2.4 0 0.1-62.2 85.4-62.2 85.4s-1.9 2.2-2.2 4.2c-0.4 2.7 1.8 5.1 1.8 5.1s-2.3-4.4-0.5-6.8c1.6-2.2 62.1-85.6 63.2-87s2-2.4 4.2-2.4c2.1 0.2 3.9 2.8 3.9 2.8z"/>
			<path class="st4" d="m145.2 219.1-11.8-16.2c-0.2-0.3-1.6-1.9-1.6-4.3 0-2.5 1.4-4.2 1.4-4.2l63.2-87c0-0.1 1.6-2.3 4.6-2.3 2.7 0 4 2 4.1 2l14.2 19.3c0.1 0.1 0.9 1.2 0.9 3.4v0.1c0 2.5-1.5 4.4-1.5 4.4l-61.8 85c-0.1 0-2.3 2.7-5.8 2.7v-1.2c2 0 3.8-1.2 4.4-1.9l0.3-0.3 61.8-85s0.1-0.1 0.2-0.3 0.3-0.5 0.4-0.8c0.3-0.7 0.6-1.6 0.6-2.6 0-1.7-0.5-2.5-0.6-2.6l-14.2-19.5s0-0.1-0.2-0.2c-0.1-0.1-0.3-0.3-0.6-0.5-0.5-0.4-1.2-0.7-2.3-0.7-1.8 0-2.9 1-3.4 1.5-0.2 0.2-0.2 0.2-0.2 0.3l-63.2 87-0.2 0.2c-0.1 0.2-0.3 0.4-0.4 0.7-0.3 0.6-0.6 1.5-0.6 2.5 0 1.5 0.8 2.8 1.1 3.3 0.1 0.2 0.2 0.2 0.2 0.2l11.9 16.3 0.1 0.1c0 0.1 0.1 0.1 0.2 0.3 0.2 0.2 0.5 0.5 0.9 0.8 0.8 0.6 2 1.2 3.8 1.2v1.2c-4 0.1-5.8-2.6-5.9-2.9z"/>
			<path d="m188 130.4c-0.2 0-0.3-0.1-0.3-0.3s0.1-0.3 0.3-0.3h24.6c0.2 0 0.3 0.1 0.3 0.3s-0.1 0.3-0.3 0.3h-24.6z"/>
			<path class="st5" d="m147.6 216.9-6.9-10.1c-0.1-0.1-0.1-0.3 0.1-0.4 0.1-0.1 0.3-0.1 0.4 0.1l6.9 10.1s0.3 0.5 0.9 1 1.4 1 2.2 1c1 0 1.8-0.4 2.3-0.8s0.7-0.8 0.7-0.9l58-86.5s0-0.1 0.1-0.1c0-0.1 0.1-0.2 0.1-0.2s0-0.2-0.1-0.2c0-0.1-0.1-0.2-0.1-0.2l-10.4-19.8s-0.1-0.3-0.4-0.6-0.6-0.6-1.1-0.6-0.8 0.2-1 0.3c-0.1 0.1-0.3 0.1-0.4 0s-0.1-0.3 0-0.4c0.3-0.3 0.7-0.5 1.3-0.5 1.5 0 2 1.5 2 1.5l10.4 19.7s0.2 0.3 0.2 0.7-0.2 0.6-0.3 0.7l-58 86.5s-1 2-3.5 2c-1.9 0-3.4-2.3-3.4-2.3zm64.9-86c-0.1 0-0.1 0 0 0-0.1 0-0.1 0 0 0zm-0.1 0z"/>
			
				<radialGradient id="b" cx="184.46" cy="137.55" r="20.02" fx="193.92" fy="124.88" gradientUnits="userSpaceOnUse">
				<stop stop-color="#333" offset="0"/>
				<stop stop-color="#292929" offset="0"/>
				<stop stop-color="#0F0F0F" offset="0"/>
				<stop offset="0"/>
				<stop stop-color="#020202" offset=".055275"/>
				<stop stop-color="#6D6D6D" offset=".3828"/>
				<stop stop-color="#BCBCBC" offset=".6832"/>
				<stop stop-color="#ECECEC" offset=".8953"/>
				<stop stop-color="#fff" offset="1"/>
			</radialGradient>
			<path class="st12" d="m140.7 206.8-4.4-6.4s-0.8-0.9-0.8-2.1c0-1.1 0.5-1.7 0.5-1.8l51.8-66.5 10.7-20.7s0.1-0.4 0.5-0.7c0.1-0.1 0.3-0.1 0.4 0s0.1 0.3 0 0.4l-0.3 0.3c-0.1 0.1-0.1 0.1-0.1 0.2l-10.7 20.7-51.8 66.7s-0.1 0.1-0.2 0.3-0.2 0.6-0.2 1.1c0 0.4 0.2 0.9 0.3 1.2 0.2 0.3 0.3 0.5 0.4 0.6l4.4 6.4c0.1 0.1 0.1 0.3-0.1 0.4 0 0-0.1 0.1-0.2 0.1-0.1-0.1-0.2-0.1-0.2-0.2z"/>
		
		
			<path class="st8" d="m179.8 112.9s2-1.9 1.6-2.9-1.4-1-1.4-1h-27.1s-1.4-0.1-2.5 0.7c-1.1 0.9-1.7 2.2-1.7 2.2l-9.7 18.6h2.2l7.5-13.5s1.8-3.1 2.7-4.2c1.2-1.4 6.2-1.6 6.2-1.6s18.4-0.7 20.3-0.7c2.4 0.1 1.9 2.4 1.9 2.4z"/>
			<linearGradient id="a" x1="158.46" x2="155.11" y1="150.58" y2="147.98" gradientUnits="userSpaceOnUse">
				<stop stop-color="#999" offset=".1225"/>
				<stop stop-color="#333434" offset=".9255"/>
			</linearGradient>
			<path class="st13" d="m184.1 108.9c-0.1-0.5-0.5-0.9-0.5-0.9l-0.1-0.1-2.3 1.3v0.1c0 0.1 0.1 0.1 0.1 0.2l-0.1 0.1c0 0.1 0.1 0.1 0.1 0.2s0.1 0.2 0.1 0.3 0 0.2-0.1 0.3c0 0.1-0.1 0.2-0.2 0.3-0.2 0.3-0.3 0.4-0.3 0.4l-17.1 18.9-0.6 0.8-17.1 25.9-17.2 25.7s-0.7 1-2.1 1.1l-0.7 4.1h0.2 0.2 0.1c0.1 0.1 0.2 0.1 0.4 0.1 3.1-0.2 4.8-2.7 4.8-2.7l51.4-70.8s2.1-2.6 1-5.3z"/>
			
				<linearGradient id="v" x1="110.55" x2="125.72" y1="134.85" y2="112.31" gradientTransform="matrix(1 0 0 -1 0 299.89)" gradientUnits="userSpaceOnUse">
				<stop stop-color="#333434" offset="0"/>
				<stop stop-color="#838484" offset=".2294"/>
				<stop stop-color="#fff" offset=".4939"/>
				<stop stop-color="#999" offset=".7244"/>
				<stop stop-color="#333434" offset=".9255"/>
			</linearGradient>
			<path class="st14" d="m126.8 183.6h-0.4c-1 0-1.7-0.8-1.7-0.8l-11.1-16.3s-0.7-0.9-0.6-1.8v-0.2l-5.6-0.1c0 2.1 1.3 3.7 1.3 3.7l12.5 17.2s1.7 2.1 4.8 2.3l0.8-4z"/>
			<linearGradient id="u" x1="112.29" x2="112.45" y1="159.83" y2="163.96" gradientUnits="userSpaceOnUse">
				<stop stop-color="#fff" offset="0"/>
				<stop stop-color="#999" offset=".4457"/>
				<stop stop-color="#333434" offset=".9255"/>
			</linearGradient>
			<path class="st15" d="m117.3 158.4-2 0.8c-0.8 0.2-1.5 0.6-2.8 0.8h-0.4c-0.7 0-1.3-0.2-1.7-0.2-0.2 0-0.4 0-0.5 0.1-0.4 0.3-0.9 0.6-1.4 1.2-0.2 0.3-0.4 0.7-0.6 1.2-0.1 0.3-0.3 0.7-0.4 1.1-0.1 0.1-0.1 0.3-0.2 0.5 0 0.1-0.1 0.2-0.1 0.3v0.1 0.1h0.1v0.1h2.4l2.4 0.1h0.1 0.1v-0.1h0.6 0.3c0.2-0.5 0.5-1.1 0.8-1.6s0.6-0.8 0.6-0.8l0.7-0.9 0.1-0.3 0.2-0.2 0.2-0.3 1.5-2c0 0.1 0 0.1-0.1 0.1l0.1-0.1z"/>
			<linearGradient id="t" x1="180.96" x2="182" y1="107.83" y2="109.43" gradientUnits="userSpaceOnUse">
				<stop stop-color="#fff" offset="0"/>
				<stop stop-color="#999" offset=".4457"/>
				<stop stop-color="#333434" offset=".9255"/>
			</linearGradient>
			<path class="st16" d="m183.7 108.3 0.1-0.1c-0.1-0.2-0.3-0.4-0.6-0.5-0.7-0.6-1.8-0.9-1.8-0.9s0.1 0 0.1 0.1c0 0 0.2 0.2 0.3 0.4 0 0.2-0.1 0.4-0.7 0.6-1.3 0.3-2.2 0.8-2.2 0.8h0.3c-0.1 0-0.1 0.1-0.1 0.1h0.3c-0.1 0-0.1 0.1-0.1 0.1l0.9 0.1h0.1 0.3 0.1c0.2 0.1 0.5 0.3 0.7 0.7h0.1l0.2-0.1 2-1.3v0z"/>
			
				<linearGradient id="s" x1="138.79" x2="138.18" y1="764.47" y2="670.15" gradientTransform="translate(0 -539.89)" gradientUnits="userSpaceOnUse">
				<stop stop-color="#fff" offset="0"/>
				<stop stop-color="#ECECEC" offset=".1047"/>
				<stop stop-color="#BCBCBC" offset=".3168"/>
				<stop stop-color="#6D6D6D" offset=".6172"/>
				<stop stop-color="#020202" offset=".9916"/>
				<stop offset="1"/>
				<stop stop-color="#0F0F0F" offset="1"/>
				<stop stop-color="#292929" offset="1"/>
				<stop stop-color="#333" offset="1"/>
			</linearGradient>
			<path class="st17" d="m163.6 130.4-34.9 52.1s-0.7 1.2-2.4 1.2c-1 0-1.7-0.8-1.7-0.8l-11.1-16.3s-0.7-0.9-0.6-1.8c0.1-0.8 0.9-1.8 0.9-1.8l25.3-32.5 24.5-0.1z"/>
			<path class="st18" d="m120 183c-4.8-6.6-9.3-12.3-9.3-12.3s9.6 13.6 10.1 14.4 3.2 2.9 6 2.7c2.3-0.1 4-2 4.8-2.9 0.8-1 48.6-67 49.8-68.5 1.1-1.4 4-4 2.7-7.4-1.2-2.9-4-2.9-4-2.9s2.4-0.2 3.3 3c0.7 2.7-0.3 3.5-3.1 7.5-2.3 3.3-47.1 65.2-48.8 67.3-1.9 2.4-3.8 3.1-5.3 3.1-1.6 0-3.8-0.8-6.2-4z"/>
			<path class="st5" d="m109.9 169.1s-2.5-2.5-2.1-5.4c0.3-2 2.4-4.6 2.4-4.6s36.2-49.4 36.7-50 1.5-1.4 3-2c1.7-0.7 5.1-0.4 5.1-0.4s-5.8-0.3-8.4 3.2c-3.1 4.2-35.5 48.6-37.7 51.9-2.3 3.5 1 7.3 1 7.3z"/>
			<path class="st4" d="m120.7 185.7-12.5-17.2c0-0.1-1.4-1.7-1.5-4.1 0-2.4 1.5-4.2 1.5-4.2l37-50.9s1.1-1.5 2.8-2.6c2-1.3 4.1-1.4 4.7-1.4h0.1 27.1c0.2 0 3 0 4.5 2.9 0.4 0.8 0.6 1.6 0.6 2.4 0 2.3-1.4 4-1.4 4l-51.4 70.7c0 0.1-2 3-5.7 3v-1.2c2.2 0 3.7-1.4 4.4-2.1 0.2-0.2 0.3-0.4 0.3-0.4l51.4-70.8 0.2-0.2c0.1-0.2 0.3-0.4 0.4-0.7 0.3-0.6 0.6-1.4 0.6-2.3 0-0.6-0.1-1.2-0.4-1.8-1.1-2.2-3.3-2.2-3.4-2.2h-27-0.1c-0.4 0-2.3 0.1-4 1.2-0.8 0.5-1.4 1-1.8 1.5-0.4 0.4-0.6 0.8-0.6 0.8l-37 50.9s-0.1 0.1-0.2 0.3-0.3 0.4-0.4 0.7c-0.3 0.6-0.6 1.5-0.6 2.4 0 1.4 0.7 2.6 1 3.1 0.1 0.2 0.2 0.2 0.2 0.3l12.5 17.2 0.3 0.3c0.2 0.2 0.5 0.5 0.9 0.7 0.8 0.5 2 1.1 3.5 1.1v1.2c-3.9 0-5.9-2.5-6-2.6z"/>
			<path d="m138.9 130.7c-0.2 0-0.3-0.1-0.3-0.3s0.1-0.3 0.3-0.3h24.6c0.2 0 0.3 0.1 0.3 0.3s-0.1 0.3-0.3 0.3h-24.6z"/>
			<radialGradient id="r" cx="140.1" cy="131" r="19.229" gradientUnits="userSpaceOnUse">
				<stop stop-color="#333" offset="0"/>
				<stop stop-color="#292929" offset="0"/>
				<stop stop-color="#0F0F0F" offset="0"/>
				<stop offset="0"/>
				<stop stop-color="#020202" offset=".055275"/>
				<stop stop-color="#6D6D6D" offset=".3828"/>
				<stop stop-color="#BCBCBC" offset=".6832"/>
				<stop stop-color="#ECECEC" offset=".8953"/>
				<stop stop-color="#fff" offset="1"/>
			</radialGradient>
			<path class="st19" d="m122.3 180.2-9.2-13.4s-0.6-0.8-0.7-1.8v-0.2c0.1-1 0.9-2 0.9-2l25.2-32.5 9.6-18.6s0.6-1.4 1.8-2.3c0.3-0.2 0.7-0.4 1-0.5 0.2-0.1 0.3 0 0.4 0.2s0 0.3-0.2 0.4c-0.3 0.1-0.6 0.2-0.8 0.5-1.1 0.8-1.7 2.1-1.7 2.1l-9.6 18.6-25.3 32.5s-0.2 0.2-0.4 0.6c-0.2 0.3-0.4 0.8-0.4 1.1v0.1c0 0.4 0.1 0.7 0.3 1 0.1 0.3 0.3 0.4 0.3 0.5l9.2 13.5c0.1 0.1 0.1 0.3-0.1 0.4 0 0-0.1 0.1-0.2 0.1 0.1-0.2 0-0.2-0.1-0.3z"/>
			<radialGradient id="q" cx="182.85" cy="109.31" r="27.722" gradientUnits="userSpaceOnUse">
				<stop stop-color="#333" offset="0"/>
				<stop stop-color="#292929" offset="0"/>
				<stop stop-color="#0F0F0F" offset="0"/>
				<stop offset="0"/>
				<stop stop-color="#020202" offset=".055275"/>
				<stop stop-color="#6D6D6D" offset=".3828"/>
				<stop stop-color="#BCBCBC" offset=".6832"/>
				<stop stop-color="#ECECEC" offset=".8953"/>
				<stop stop-color="#fff" offset="1"/>
			</radialGradient>
			<path class="st20" d="m124.3 183.1-1.9-2.8c-0.1-0.1-0.1-0.3 0.1-0.4 0.1-0.1 0.3-0.1 0.4 0.1l1.9 2.8 0.4 0.4c0.3 0.2 0.6 0.4 1 0.4 1.1 0 1.8-0.6 2-0.9 0.1-0.1 0.1-0.1 0.1-0.2l34.9-52.1 17.4-18.7 0.3-0.3c0.1-0.2 0.3-0.5 0.3-0.7 0-0.1 0-0.3-0.1-0.4-0.3-0.8-1.1-0.8-1.2-0.8h-27.1-0.2c-0.3 0-0.8 0-1.3 0.2-0.2 0.1-0.3 0-0.4-0.2s0-0.3 0.2-0.4c0.6-0.2 1.2-0.3 1.5-0.3h0.2 27.1c0.1 0 1.2 0 1.7 1.2 0.1 0.2 0.1 0.4 0.1 0.6 0 0.9-0.7 1.5-0.7 1.5l-17.3 18.7-34.9 52.1s-0.8 1.3-2.6 1.3c-1.1-0.2-1.9-1.1-1.9-1.1z"/>
		
		
			<path class="st5" d="m114 130.2-10.3 15.4s-1 1.6-2.1 1.6-2.2-1.6-2.2-1.6l-9.3-13.7s-0.7-1-0.7-1.6c0-0.5 0.2-0.9 0.2-0.9l9.3-18s0.6-1.2 1.7-2.1c1-0.7 2.8-0.7 2.8-0.7h26.5s1.2-0.2 1.9 0.8c0.6 1.1-0.4 2-0.4 2l-17.4 18.8"/>
			<path class="st8" d="m99.2 115.9s1.8-2.7 2.4-3.3c1.5-1.5 6.3-1.5 6.3-1.5l21.2-0.6s0.5 0 0.6 0.1c1.8 0.3-0.2 2.8-0.2 2.8l1.6-1.8s1-0.9 0.4-2-1.9-0.8-1.9-0.8h-26.5s-1.8-0.1-2.8 0.7c-1.1 0.8-1.7 2.1-1.7 2.1l-7.8 15.1-1.7 3.6 2 0.4 8.1-14.8z"/>
			<linearGradient id="p" x1="130.63" x2="132.08" y1="107.42" y2="109.03" gradientUnits="userSpaceOnUse">
				<stop stop-color="#fff" offset="0"/>
				<stop stop-color="#999" offset=".4457"/>
				<stop stop-color="#333434" offset=".9255"/>
			</linearGradient>
			<path class="st21" d="m133.7 108.4 0.1-0.1c-0.3-0.4-0.9-0.8-1.1-0.9 0 0-0.1 0-0.1-0.1-0.1 0-0.1-0.1-0.2-0.1h-0.1c-0.1-0.1-0.2-0.1-0.2-0.1v0.1c-0.1 0-0.1-0.1-0.1-0.1v0.1c0 0.1 0 0.1-0.1 0.2s-0.4 0.1-0.8 0.2c-1.9 0.2-1.8 1.1-1.8 1.1v0.1h0.2l1.1 0.1s0.1 0 0.2 0.1 0.2 0.1 0.4 0.3c0.1 0.2 0.3 0.4 0.5 0.6l0.2 0.2 1.8-1.4v-0.1-0.2z"/>
			<linearGradient id="o" x1="120.24" x2="117.45" y1="132.5" y2="130.35" gradientUnits="userSpaceOnUse">
				<stop stop-color="#999" offset=".1225"/>
				<stop stop-color="#333434" offset=".9255"/>
			</linearGradient>
			<path class="st22" d="m134.8 111.8v-0.2-0.2-0.1c0.1-0.6 0-1.4-0.2-2.1v-0.5-0.2-0.1c0-0.1-0.1-0.2-0.2-0.3h-0.1l-0.1-0.1-2.5 1.4-0.1 0.1v0.1l-0.1 0.1c0.2 0.5 0.2 0.9 0 1.3-0.1 0.3-0.3 0.4-0.3 0.4l-8.6 9.4-8.6 9.3-10.3 15.4s-1 1.4-1.9 1.6l-0.1 6.3v0.1 0.1h0.1 0.1c0.9 0 1.7-0.3 2.4-0.6 1.8-0.7 2.7-2 2.7-2l27.2-37.4s0.2-0.5 0.5-1.2v-0.1c0.1-0.1 0.1-0.3 0.1-0.5z"/>
			
				<linearGradient id="n" x1="87.39" x2="99.724" y1="167.29" y2="149.38" gradientTransform="matrix(1 0 0 -1 0 299.89)" gradientUnits="userSpaceOnUse">
				<stop stop-color="#333434" offset="0"/>
				<stop stop-color="#838484" offset=".2294"/>
				<stop stop-color="#fff" offset=".4939"/>
				<stop stop-color="#999" offset=".7244"/>
				<stop stop-color="#333434" offset=".9255"/>
			</linearGradient>
			<path class="st23" d="m101.7 153.6v-6.4h-0.2c-1.2-0.1-2.1-1.6-2.1-1.6l-9.3-13.8s-0.7-1-0.7-1.6v-0.2l-6.8-0.2c0 0.1-0.1 0-0.1 0.1 0 2 1.5 4.1 1.5 4.1l12.4 17.1c0.1 0 1.8 2.5 5.3 2.5z"/>
			<linearGradient id="m" x1="87.278" x2="87.1" y1="125.66" y2="129.7" gradientUnits="userSpaceOnUse">
				<stop stop-color="#fff" offset="0"/>
				<stop stop-color="#999" offset=".4457"/>
				<stop stop-color="#333434" offset=".9255"/>
			</linearGradient>
			<path class="st24" d="m92 125.1s-1 0.6-2.2 1.1c-1.1 0.5-2.3 0.8-3 0.5-0.8-0.3-1.2-0.3-1.7-0.3h-0.1c-0.7 0-1.3 0.4-1.7 1.1-0.1 0.2-0.2 0.3-0.3 0.5-0.3 0.5-0.5 1.1-0.5 1.8v0.2l6.8 0.1h0.1 0.1 0.1c0.1-0.3 0.2-0.6 0.3-0.8 0.4-1 0.9-1.7 0.9-1.7l1.1-2.3 0.1-0.2z"/>
			
				<linearGradient id="k" x1="102.21" x2="101.6" y1="764.55" y2="670.23" gradientTransform="translate(0 -539.89)" gradientUnits="userSpaceOnUse">
				<stop stop-color="#fff" offset="0"/>
				<stop stop-color="#ECECEC" offset=".1047"/>
				<stop stop-color="#BCBCBC" offset=".3168"/>
				<stop stop-color="#6D6D6D" offset=".6172"/>
				<stop stop-color="#020202" offset=".9916"/>
				<stop offset="1"/>
				<stop stop-color="#0F0F0F" offset="1"/>
				<stop stop-color="#292929" offset="1"/>
				<stop stop-color="#333" offset="1"/>
			</linearGradient>
			<path class="st25" d="m113.9 130.2-10.3 15.4s-1 1.6-2.1 1.6-2.2-1.6-2.2-1.6l-9.4-13.7s-0.7-1-0.7-1.6v-0.1h24.7z"/>
			<path class="st5" d="m99.2 145.7-9.3-13.7s-0.7-1-0.7-1.6c0-0.1 0.1-0.2 0.1-0.2h24.6v0.1-0.1h0.2l-10.4 15.5s-1 1.6-2.1 1.7c-1.4-0.1-2.4-1.7-2.4-1.7zm4.3-0.1 10.2-15.2h-24.4c0 0.5 0.7 1.5 0.7 1.5l9.4 13.7s1 1.6 2.1 1.6c0.9 0 1.9-1.6 2-1.6z"/>
			<path class="st5" d="m102 106s-1.3 0.2-2.5 0.7c-1.1 0.5-2 1.5-2 1.5l-13.1 17.8s-1.4 1.7-1.6 3.4c-0.3 3 2.3 5.3 2.3 5.3s-2.2-3.6-1.6-5.6c0.5-1.9 1.8-2.9 2.4-3.8 0.7-0.9 11.4-15.6 11.8-16.1s1.5-1.7 2.2-2.2c0.7-0.3 2.1-1 2.1-1z"/>
			<path class="st18" d="m128.8 105.9s4.1-0.6 5.6 3.1c1.2 3-0.6 5-1.2 5.8-0.4 0.6-25.9 35.7-26.4 36.3s-2 2.3-5 2.5c-4.1 0.2-5.9-3.2-5.9-3.2s-11.3-15.8-11.9-16.7c-1.5-2.2-1.2-4.5-1.2-4.5s-0.2 1.6 1.8 4.5c1 1.4 11.3 15.4 12.1 16.2 1.1 1.1 2.5 2.6 4.5 2.6 2.4 0.1 3.5-0.6 4.8-2.1 1.5-1.7 24.9-33.7 26.2-35.6s2.6-3.5 2.1-5.6c-1.2-3.7-5.5-3.3-5.5-3.3z"/>
			<path class="st4" d="m96 151.5-12.4-17c0-0.1-1.6-2.1-1.7-4.5 0-2.1 1-3.4 1.2-3.7l12.7-17.4s1.1-1.6 2.9-2.6 3.6-1.1 4.3-1.1h0.2 26.5c0.6 0 3.7 0.1 5.2 3.1 0.5 0.9 0.6 1.8 0.6 2.6 0 1.8-0.8 3-0.9 3.1l-27.2 37.4c0 0.1-2 2.8-5.8 2.8s-5.6-2.6-5.6-2.7zm3.3-44.1c-0.7 0.4-1.3 1-1.8 1.5-0.4 0.5-0.7 0.8-0.7 0.8l-12.7 17.5-0.1 0.2c-0.1 0.1-0.2 0.3-0.3 0.6-0.2 0.5-0.5 1.2-0.5 2.1 0 1.3 0.8 2.8 1.2 3.4 0.1 0.2 0.2 0.3 0.2 0.3l12.4 17.1 0.1 0.1c0 0.1 0.1 0.1 0.2 0.2 0.2 0.2 0.5 0.5 0.9 0.7 0.8 0.5 1.9 1.1 3.5 1.1 2.4 0 3.9-1.3 4.5-1.9l0.3-0.3 0.5 0.4-0.5-0.4 27.2-37.4 0.1-0.1c0.1-0.1 0.1-0.3 0.2-0.5 0.2-0.4 0.3-1 0.3-1.7 0-0.6-0.1-1.3-0.5-2.1-1-2.2-3.6-2.4-4-2.3h-26.7-0.2c-0.5-0.2-2.1-0.1-3.6 0.7z"/>
			<path d="m114 130.2s0-0.3-0.2-0.3h-24.6c-0.2 0-0.3 0.1-0.3 0.3s0.1 0.3 0.3 0.3h24.5c0.1 0 0.3-0.3 0.3-0.3z"/>
			<radialGradient id="j" cx="90.791" cy="130.44" r="13.545" gradientUnits="userSpaceOnUse">
				<stop stop-color="#333" offset="0"/>
				<stop stop-color="#292929" offset="0"/>
				<stop stop-color="#0F0F0F" offset="0"/>
				<stop offset="0"/>
				<stop stop-color="#020202" offset=".055275"/>
				<stop stop-color="#6D6D6D" offset=".3828"/>
				<stop stop-color="#BCBCBC" offset=".6832"/>
				<stop stop-color="#ECECEC" offset=".8953"/>
				<stop stop-color="#fff" offset="1"/>
			</radialGradient>
			<path class="st26" d="m99.6 146.5c0.1 0.1 0.1 0.1 0.2 0.1s0.1 0 0.2-0.1 0.1-0.3 0-0.4c-0.3-0.3-0.5-0.6-0.5-0.6l-9.4-13.7s-0.2-0.2-0.3-0.6c-0.2-0.3-0.3-0.7-0.3-0.8 0-0.4 0.2-0.7 0.2-0.7l9.3-18s0.3-0.6 0.9-1.3c0.1-0.1 0.1-0.3 0-0.4s-0.3-0.1-0.4 0c-0.6 0.7-1 1.4-1 1.4l-9.3 18s-0.2 0.4-0.2 1c0 0.7 0.8 1.7 0.8 1.7l9.4 13.7c-0.2 0 0 0.3 0.4 0.7z"/>
			<radialGradient id="i" cx="130.65" cy="108.73" r="23.215" gradientUnits="userSpaceOnUse">
				<stop stop-color="#333" offset="0"/>
				<stop stop-color="#292929" offset="0"/>
				<stop stop-color="#0F0F0F" offset="0"/>
				<stop offset="0"/>
				<stop stop-color="#020202" offset=".055275"/>
				<stop stop-color="#6D6D6D" offset=".3828"/>
				<stop stop-color="#BCBCBC" offset=".6832"/>
				<stop stop-color="#ECECEC" offset=".8953"/>
				<stop stop-color="#fff" offset="1"/>
			</radialGradient>
			<path class="st27" d="m99.6 146.5c-0.1-0.1-0.1-0.3 0-0.4s0.3-0.1 0.4 0c0.4 0.4 0.9 0.8 1.4 0.8 0.4 0 0.8-0.3 1.2-0.7s0.6-0.8 0.6-0.8l10.4-15.4 17.3-18.7s0.1-0.1 0.2-0.3 0.2-0.5 0.2-0.8c0-0.2 0-0.4-0.1-0.6-0.2-0.6-1.3-0.7-1.6-0.7h-26.6c-0.4 0-1.7 0.1-2.4 0.6-0.3 0.2-0.5 0.4-0.7 0.7-0.1 0.1-0.3 0.1-0.4 0s-0.1-0.3 0-0.4c0.2-0.3 0.5-0.5 0.8-0.7 0.9-0.7 2.3-0.7 2.8-0.7h0.2 26.5 0.1c0.2 0 1.6 0 2.1 1 0.1 0.3 0.2 0.6 0.2 0.8 0 0.9-0.6 1.4-0.6 1.4l-17.3 18.7-10.3 15.4s-1 1.7-2.3 1.8c-1.1 0-1.7-0.5-2.1-1z"/>
		
	

</svg>
