<?xml version="1.0" encoding="utf-8"?>
<!-- Generator: Adobe Illustrator 24.1.2, SVG Export Plug-In . SVG Version: 6.00 Build 0)  -->
<svg version="1.1" id="Layer_1" xmlns="http://www.w3.org/2000/svg" xmlns:xlink="http://www.w3.org/1999/xlink" x="0px" y="0px"
	 viewBox="0 0 450 475.1" style="enable-background:new 0 0 450 475.1;" xml:space="preserve">
<style type="text/css">
	.st0{fill:#1C5AA7;}
	.st1{fill:#356070;}
	.st2{fill:#D4B776;}
</style>
<g>
	<path class="st0" d="M1767.3,119.4l0.6-0.9l-3.6-2.5l-4.4,6.4l1,0.1C1763.4,122.6,1765.8,121.4,1767.3,119.4 M1783.9,121.9l-1,1.4
		l-1.8,2.7c-2.9,4.3-6.1,4.7-10,2l-3.2-2.2l-3.1-2.1c-2.4,1.5-6.4,1-6.4,1l10.3,7c6.5,4.5,11.6,3.4,15.4-2.1l11-16.1l-3.6-2.5
		L1783.9,121.9L1783.9,121.9z"/>
	<path class="st0" d="M1796.6,103.6l-0.6,0.9l3.6,2.5l4.4-6.4l-1-0.1C1800.5,100.5,1798.1,101.6,1796.6,103.6 M1780,101.1l1-1.4
		l1.8-2.7c2.9-4.3,6.1-4.7,10-2l3.2,2.2l3.1,2.1c2.4-1.5,6.4-1,6.4-1l-10.3-7c-6.5-4.5-11.6-3.4-15.4,2.1l-11,16.1l3.6,2.5
		L1780,101.1L1780,101.1z M1591.1,133.6v-8.9c0-3.5-1.8-5.4-5.9-5.4h-2.7c-1.1,0-1.9-0.2-2.1-0.8c-0.4,1.7,0.4,2.4,1.7,2.4h3.1
		c2.4,0,3.7,1.1,3.7,3.7v1.7l-5.5,0.5c-4,0.4-5.6,2.1-5.6,5c0,3.3,2,5,5.2,5c1.4,0,2.7-0.1,3.8-0.3c1.8-0.3,1.2-2.3,1.2-2.3
		c-0.1,0.4-0.8,0.6-0.8,0.6c-1.3,0.3-2.6,0.5-4.2,0.5c-1.8,0-3-1.4-3-3.5c0-2,0.9-3.3,3.5-3.5l5.3-0.4v6.3c0,1.9,0.9,3,3.3,2.4
		C1591.3,136.3,1591.1,135.2,1591.1,133.6 M1622.6,133.6v-8.9c0-3.5-1.8-5.4-5.9-5.4h-2.7c-1.1,0-1.9-0.2-2.1-0.8
		c-0.4,1.7,0.4,2.4,1.7,2.4h3.1c2.4,0,3.7,1.1,3.7,3.7v1.7l-5.5,0.5c-4,0.4-5.6,2.1-5.6,5c0,3.3,2,5,5.2,5c1.4,0,2.7-0.1,3.8-0.3
		c1.8-0.3,1.2-2.3,1.2-2.3c0,0.4-0.7,0.6-0.7,0.6c-1.3,0.3-2.7,0.5-4.2,0.5c-1.8,0-3-1.4-3-3.5c0-2,0.9-3.3,3.5-3.5l5.3-0.4v6.3
		c0,1.9,0.9,3,3.3,2.4C1622.8,136.3,1622.6,135.2,1622.6,133.6 M1578.1,118.5c-0.2,0.6-1,0.8-2.1,0.8h-2.7c-4.1,0-5.9,1.9-5.9,5.4
		v8.9c0,1.6-0.3,2.7-1.1,3c2.4,0.6,3.4-0.5,3.4-2.4v-9.6c0-2.7,1.2-3.7,3.7-3.7h3.1C1577.7,120.9,1578.5,120.2,1578.1,118.5
		 M1605.3,121.9v12.5c-1.1,0.4-3,0.8-4.9,0.8c-3.7,0-4.5-2-4.5-6.9V122c0-1.9-1-3-3.4-2.4c0.8,0.3,1.1,1.4,1.1,3v5.7
		c0,5.7,1.3,8.4,6.8,8.4c1.9,0,3.7-0.5,4.9-0.8l0,0v1.4c0,2.7-1.2,3.7-3.7,3.7h-3.1c-1.3,0-2.1,0.7-1.7,2.4c0.2-0.6,1-0.8,2.1-0.8
		h2.7c4.1,0,5.9-1.9,5.9-5.4v-14.6c0-1.6,0.3-2.7,1.1-3C1606.2,119,1605.3,120,1605.3,121.9 M1678.3,133.6v-9c0-3.5-1.8-5.4-5.9-5.4
		h-2.7c-1.1,0-1.9-0.2-2.1-0.8c-0.4,1.7,0.4,2.4,1.7,2.4h3.1c2.4,0,3.7,1.1,3.7,3.7v1.7l-5.5,0.5c-4,0.4-5.6,2.1-5.6,5
		c0,3.3,2,5,5.2,5c1.4,0,2.7-0.1,3.8-0.3c1.8-0.3,1.2-2.3,1.2-2.3c-0.1,0.4-0.7,0.6-0.7,0.6c-1.3,0.3-2.6,0.5-4.2,0.5
		c-1.8,0-3-1.4-3-3.5c0-2,0.9-3.3,3.5-3.5l5.3-0.4v6.3c0,1.9,0.9,3,3.3,2.4C1678.5,136.3,1678.3,135.2,1678.3,133.6 M1640,113.9
		h-2.7c-4.1,0-5.9,1.9-5.9,5.4v14.5c0,1.6-0.3,2.7-1.1,3c2.4,0.6,3.3-0.5,3.3-2.4v-7.9h6.1c1.3,0,2.1-0.7,1.7-2.4
		c-0.2,0.6-1,0.8-2.1,0.8h-5.7v-5.5c0-2.7,1.2-3.7,3.7-3.7h3c1.3,0,2.1-0.7,1.7-2.4C1641.9,113.7,1641.2,113.9,1640,113.9
		 M1645.8,117.4c0.7,0,1.3-0.6,1.3-1.3s-0.6-1.3-1.3-1.3s-1.3,0.6-1.3,1.3S1645,117.4,1645.8,117.4 M1646.9,133.9v-12
		c0-1.9-0.9-3-3.3-2.4c0.8,0.3,1.1,1.4,1.1,3v12c0,1.9,0.9,3,3.3,2.4C1647.1,136.6,1646.9,135.5,1646.9,133.9"/>
	<g>
		<path id="B" class="st0" d="M1662.9,133.6v-8.9c0-3.5-1.8-5.4-5.9-5.4h-7.1c-0.3,0-0.5,0.1-0.8,0.1c0.8,0.3,1.1,1.4,1.1,3v12
			c0,1.9,0.9,3,3.3,2.4c-0.8-0.3-1.1-1.4-1.1-3v-12c0-0.4,0-0.7-0.1-1h4.7c2.4,0,3.7,1.1,3.7,3.7v9.5c0,1.9,0.9,3,3.3,2.4
			C1663.2,136.3,1662.9,135.2,1662.9,133.6"/>
	</g>
	<path class="st0" d="M1710.9,117.4c0.7,0,1.3-0.6,1.3-1.3s-0.6-1.3-1.3-1.3s-1.3,0.6-1.3,1.3S1710.2,117.4,1710.9,117.4
		 M1712,133.9v-12c0-1.9-0.9-3-3.3-2.4c0.8,0.3,1.1,1.4,1.1,3v12c0,1.9,0.9,3,3.3,2.4C1712.3,136.6,1712,135.5,1712,133.9
		 M1728,133.6v-8.8c0-3.5-1.8-5.4-5.9-5.4h-7.2c-0.3,0-0.5,0.1-0.8,0.1c0.8,0.3,1.1,1.4,1.1,3v12c0,1.9,0.9,3,3.3,2.4
		c-0.8-0.3-1.1-1.4-1.1-3v-12c0-0.4,0-0.7-0.1-1h4.7c2.4,0,3.7,1.1,3.7,3.7v9.5c0,1.9,0.9,3,3.4,2.4
		C1728.2,136.3,1728,135.2,1728,133.6"/>
	<g>
		<path id="B_1_" class="st0" d="M1693.8,133.6v-8.9c0-3.5-1.8-5.4-5.9-5.4h-7.1c-0.3,0-0.5,0.1-0.8,0.1c0.8,0.3,1.1,1.4,1.1,3v12
			c0,1.9,0.9,3,3.3,2.4c-0.8-0.3-1.1-1.4-1.1-3v-12c0-0.4,0-0.7-0.1-1h4.7c2.4,0,3.7,1.1,3.7,3.7v9.5c0,1.9,0.9,3,3.3,2.4
			C1694.1,136.3,1693.8,135.2,1693.8,133.6"/>
	</g>
	<path class="st0" d="M1702.1,120.9h3.1c1.3,0,2.1-0.7,1.7-2.4c-0.2,0.6-1,0.8-2.1,0.8h-2.7c-4.1,0-5.9,1.9-5.9,5.4v6.5
		c0,3.5,1.8,5.4,5.9,5.4h2.7c1.1,0,1.9,0.2,2.1,0.8c0.4-1.7-0.4-2.4-1.7-2.4h-3.1c-2.4,0-3.7-1.1-3.7-3.7v-6.6
		C1698.4,122,1699.6,120.9,1702.1,120.9 M1741.6,134.4c-1.1,0.4-3,0.8-4.9,0.8c-3.7,0-4.5-2-4.5-6.9v-3.7c0-2.7,1.2-3.7,3.7-3.7h5.8
		c-0.1,0.3-0.1,0.6-0.1,1V134.4L1741.6,134.4z M1744.9,119.5c-0.3-0.1-0.6-0.1-0.8-0.1l0,0h-8.3c-4.1,0-5.9,1.9-5.9,5.4l-0.1,3.7
		c0,5.7,1.3,8.4,6.8,8.4c1.9,0,3.8-0.5,4.9-0.8l0,0v1.4c0,2.7-1.2,3.7-3.7,3.7h-3.1c-1.3,0-2.1,0.7-1.7,2.4c0.2-0.6,1-0.8,2.1-0.8
		h2.7c4.1,0,5.9-1.9,5.9-5.4V134l0.2-13.6C1744.3,119.9,1744.5,119.6,1744.9,119.5 M1727.6,82.4v19c0,1.8-0.3,3-1.3,3.4
		c2.8,0.6,3.8-0.6,3.8-2.7V83c0-1.8,0.3-3,1.3-3.4C1728.6,79,1727.6,80.3,1727.6,82.4 M1741.1,88v10.8c0,3-1.4,4.2-4.1,4.2h-1.6
		c-1.5,0-2.4,0.7-1.9,2.7c0.2-0.7,1.1-0.9,2.4-0.9h1.2c4.6,0,6.7-2.1,6.7-6.1V88.6c0-1.8,0.3-3,1.3-3.4
		C1742.2,84.6,1741.1,85.8,1741.1,88"/>
	<path class="st0" d="M1720.5,88v10.9c0,3-1.4,4.2-4.1,4.2h-8.8c-4.2,0-5.1-2.2-5.1-7.7v-10h-6.6c-5.1,0-8.2,2.4-8.2,9.8
		c0,6,1.8,9.7,8.4,9.8h1.2c1.2,0,2.1,0.2,2.3,0.9c0.4-1.9-0.4-2.6-1.8-2.6h-1.6c-4.4,0-5.8-2.6-5.8-7.4v-1.4c0-5.3,1.8-7.3,5.6-7.3
		h4v8.3c0,6.5,1.5,9.5,7.7,9.5h8.8c4.6,0,6.7-2.1,6.7-6.1V88.6c0-1.8,0.3-3,1.3-3.4C1721.5,84.6,1720.5,85.8,1720.5,88"/>
	<g>
		<path id="C" class="st0" d="M1694.3,83.7c0.8,0,1.5-0.7,1.5-1.5c0-0.8-0.7-1.5-1.5-1.5c-0.8,0-1.5,0.7-1.5,1.5
			C1692.8,83,1693.4,83.7,1694.3,83.7C1694.3,83.7,1694.3,83.7,1694.3,83.7"/>
	</g>
	<g>
		<path id="C_1_" class="st0" d="M1698.2,83.7c0.8,0,1.5-0.7,1.5-1.5c0-0.8-0.7-1.5-1.5-1.5c-0.8,0-1.5,0.7-1.5,1.5
			C1696.7,83,1697.3,83.7,1698.2,83.7C1698.2,83.7,1698.2,83.7,1698.2,83.7"/>
	</g>
	<g>
		<path id="C_2_" class="st0" d="M1652.5,83.7c0.8,0,1.5-0.7,1.5-1.5c0-0.8-0.7-1.5-1.5-1.5c-0.8,0-1.5,0.7-1.5,1.5
			C1651,83,1651.6,83.7,1652.5,83.7C1652.5,83.7,1652.5,83.7,1652.5,83.7"/>
	</g>
	<path class="st0" d="M1656.4,83.7c0.8,0,1.5-0.7,1.5-1.5c0-0.8-0.7-1.5-1.5-1.5c-0.8,0-1.5,0.7-1.5,1.5
		C1654.9,83.1,1655.5,83.7,1656.4,83.7 M1687.6,95.2v-0.3V95.2z M1644.3,94.9v0.3V94.9z"/>
	<path class="st0" d="M1615.1,102.1c-1.3,0.4-3.3,1-5.5,1c-4.2,0-5.1-2.3-5.1-7.8v-4.2c0-3,1.4-4.2,4.1-4.2h6.5
		c-0.1,0.3-0.1,0.7-0.1,1.1L1615.1,102.1L1615.1,102.1z M1675.5,82.4v16.5c0,3-1.4,4.2-4.1,4.2h-5.9c1-1,1.4-2.5,1.4-4.3V83.1
		c0-1.8,0.3-3,1.3-3.4c-2.8-0.6-3.8,0.6-3.8,2.7v16.5c0,3-1.4,4.2-4.1,4.2h-6.5c1-1,1.4-2.5,1.4-4.3v-9.9c0-1.8,0.3-3,1.3-3.4
		c-2.8-0.6-3.8,0.6-3.8,2.7v10.7c0,3-1.4,4.2-4.1,4.2h-6.6c1.8-1.6,2.5-4.4,2.5-7.9c0-7.4-3.2-9.8-8.2-9.8h-6.6v10
		c0,5.5-0.9,7.7-5.1,7.7h-2.5c-2.5,0-3.9-1-4.1-3.6l0.2-13.2c0.2-0.6,0.5-0.9,1-1.1c-0.3-0.1-0.7-0.1-1-0.1l0,0h-9.3
		c-4.6,0-6.7,2.1-6.7,6.1l-0.1,4.2c0,6.5,1.5,9.5,7.7,9.5c2.1,0,4.2-0.5,5.5-0.9c-0.1,2.7-1.5,3.9-4.1,3.9h-3.5
		c-1.5,0-2.4,0.7-1.9,2.7c0.2-0.7,1.1-0.9,2.4-0.9h3c4.4,0,6.5-2,6.7-5.7c1,0.6,2.4,0.9,4.2,0.9h2.5c6.2,0,7.7-3,7.7-9.5V87h4
		c3.8,0,5.6,1.9,5.6,7.3v1.4c0,4.9-1.4,7.4-5.8,7.4h-3.6c-1.5,0-2.3,0.7-1.8,2.6c0.2-0.7,1.1-0.9,2.3-0.9h38.7
		c4.6,0,6.7-2.1,6.7-6.1V83c0-1.8,0.3-3,1.3-3.4C1676.5,79,1675.5,80.3,1675.5,82.4 M1595.5,88.2v10.7c0,3-1.4,4.2-4.1,4.2h-1.3
		c-2.7,0-4.1-1.2-4.1-4.2l0,0V83c0-1.8,0.3-3,1.3-3.4c-2.8-0.6-3.8,0.6-3.8,2.7v20.8c0,3-1.4,4.2-4.1,4.2h-5.4
		c-2.7,0-4.1-1.2-4.1-4.2v-5c0-3,1.4-4.2,4.1-4.2h1c1.5,0,2.4-0.7,1.9-2.7c-0.2,0.7-1.1,0.9-2.4,0.9h-0.6c-4.6,0-6.7,2.1-6.7,6.1
		v4.9c0,3.9,2.1,6.1,6.7,6.1h5.4c4.3,0,6.4-1.9,6.7-5.3c1,0.6,2.4,1,4.2,1h1.3c4.6,0,6.7-2.1,6.7-6.1v-9.9c0-1.8,0.3-3,1.3-3.4
		C1596.6,84.8,1595.5,86,1595.5,88.2"/>
	<g>
		<path id="D" class="st0" d="M1715.8,106.8c-0.8,0-1.5,0.7-1.5,1.5c0,0.8,0.7,1.5,1.5,1.5c0.8,0,1.5-0.7,1.5-1.5
			C1717.3,107.4,1716.7,106.8,1715.8,106.8"/>
	</g>
	<g>
		<path id="E" class="st0" d="M1719.7,106.8c-0.8,0-1.5,0.7-1.5,1.5c0,0.8,0.7,1.5,1.5,1.5c0.8,0,1.5-0.7,1.5-1.5
			C1721.2,107.5,1720.6,106.8,1719.7,106.8C1719.7,106.8,1719.7,106.8,1719.7,106.8"/>
	</g>
	<g>
		<path id="D_1_" class="st0" d="M1590.1,106.8c-0.8,0-1.5,0.7-1.5,1.5c0,0.8,0.7,1.5,1.5,1.5c0.8,0,1.5-0.7,1.5-1.5
			C1591.6,107.4,1591,106.8,1590.1,106.8"/>
	</g>
	<g>
		<path id="E_1_" class="st0" d="M1594,106.8c-0.8,0-1.5,0.7-1.5,1.5c0,0.8,0.7,1.5,1.5,1.5c0.8,0,1.5-0.7,1.5-1.5
			C1595.5,107.5,1594.9,106.8,1594,106.8C1594,106.8,1594,106.8,1594,106.8"/>
	</g>
	<path class="st0" d="M1774,96.9l0.9,0.6l2.5-3.6l-6.4-4.4l-0.1,1C1770.9,93,1772.1,95.3,1774,96.9 M1770.1,112.5l-2.7-1.8
		c-4.3-2.9-4.7-6.1-2-10l2.2-3.2l2.1-3.1c-1.5-2.4-1-6.4-1-6.4l-7,10.3c-4.4,6.5-3.4,11.6,2.1,15.4l16.1,11l2.5-3.6l-10.9-7.5
		L1770.1,112.5L1770.1,112.5z M1789.9,126.1l-0.9-0.6l-2.5,3.6l6.4,4.4l0.1-1C1793,130,1791.9,127.7,1789.9,126.1 M1800,109.4
		l-16.1-11l-2.5,3.6l10.9,7.5l1.4,1l2.7,1.8c4.3,2.9,4.7,6.1,2,10l-2.2,3.2l-2.1,3.1c1.5,2.4,1,6.4,1,6.4l7-10.3
		C1806.6,118.3,1805.5,113.2,1800,109.4"/>
</g>
<g>
	<g>
		<path class="st1" d="M57.1,239v-18.6c-2,0-4.4,1.2-4.4,5.8v12.7H21.3c0.2-3.6,0.6-9.3,2.6-13.7c3-6.8,7.6-10.3,17.3-10.2v5.8
			c-4.8,0-8.2,0.6-10.7,5.2c-1.1,2-1.7,4.9-1.9,6.5H46c0.1-7.2,0.1-7,0-7.1c0-11.4,9.6-12,18.1-12v19.1h6.8v6.3H57.1V239z"/>
		<path class="st1" d="M69.1,239v-6.3c4.6,0,6.9-1.8,6.9-5v-24h6.8v24.3C82.8,234.9,77.5,239,69.1,239z M98.2,248.7V243
			c2.6,0,7-1,6.8-6.1c-0.8,1.3-2.7,3.6-6.5,3.6C91.3,240.5,88,236,88,227c0-8.6,4-13.5,11-13.5h11.2v23.6
			C110.3,244.9,105.5,248.9,98.2,248.7L98.2,248.7z M103.6,219.7h-3.9c-4,0-4.8,4.6-4.8,7.4c0,3,0,7.5,4.4,7.5
			c4.4,0,4.3-4.2,4.3-7.2C103.6,227.3,103.6,219.7,103.6,219.7z M111.6,200.7v-2.7h2.4v-0.6c0-1.3,0.5-5,4.5-5c2.1,0,3.4,1,4.2,2.7
			c-0.5,0-2.9,0.5-2.9,0.5c-0.4-0.5-0.7-0.7-1.2-0.7c-1.5,0-1.5,1.7-1.5,2.4v0.6h6.3v2.7h-11.8V200.7z M128.1,239h-12.6v-6.3h4.6
			v-29h7v29h0.8c1.3,0,3-1.1,3.6-2.6c0.7-1.8,0.6-3.8,0.6-5.6v-20.9h6.8v24C139.1,234.6,134.4,239,128.1,239L128.1,239z M144.4,239
			v-35.4h6.8V239H144.4z M195.5,239c-2.4,0-4.5-0.6-6.2-1.7v0.2c0,6.7-4.6,11-11,11.2h-1.4c-6.3-0.1-10.9-4.6-10.9-11.3v-10h6.8v9.7
			c0,3.3,1.5,5,5,5s4.8-1.8,4.8-5v-33.6h6.9v24.2c0,3,2.6,4.6,6.2,4.6h0.8v6.3h-0.8V239z"/>
		<path class="st1" d="M192.3,250.1v-6.8h6.1v6.8H192.3z M195.5,239h-0.6v-6.3h0.6c4.6-0.1,6.1-1.8,6.1-4.9v-14.3h6.8v14.6
			C208.3,234.9,203.8,238.9,195.5,239L195.5,239z M201.1,250.1v-6.8h6.1v6.8H201.1z M235.9,239c-0.8,6.1-5.6,10-11.2,10.2l-1.2,0.1
			v-6.3c2.7,0,5-1.8,5.2-4h-4c-4.8,0-10.9-2.7-10.9-12c0-8.7,4-13.4,10.9-13.4H236v19.2h6.5v6.3h-6.7V239z M229.1,219.7h-4.4
			c-3.7,0-4.3,4.6-4.3,7.4c0,3.1,1.4,5.7,4.3,5.7h4.4V219.7z"/>
		<path class="st1" d="M268.7,237.5c-1.9,3.9-5.3,6.1-10.1,6.1c-4.6,0-8.2-2.1-10-5.8c-1.7,0.8-3.8,1.2-6.1,1.2h-2v-6.3
			c2.6-0.1,5.9-0.1,6.2-3.3c0.5-8,4.5-12.9,11.9-12.9c7.6,0,11.6,5.8,11.6,12.9c0,2.3,1.7,3.3,5,3.3h2v6.3
			C274.4,239,271.4,238.8,268.7,237.5L268.7,237.5z M258.7,222.2c-2.7,0-4.6,1.9-4.6,7.7c0,5.6,1.9,7.5,4.6,7.5c2.7,0,4.6-2,4.6-7.4
			C263.3,224.1,261.4,222.2,258.7,222.2z"/>
		<path class="st1" d="M275.6,239v-6.3c4.6,0,6.9-1.7,6.9-4.9v-14.3h6.8v14.6C289.3,234.9,284.1,239,275.6,239z M276.1,208.8V202
			h5.5v6.8H276.1z M284.2,208.8V202h5.5v6.8H284.2z"/>
	</g>
	<path class="st2" d="M24.1,261.8H19v-3h15.3v3h-5v19.6h-5.2V261.8L24.1,261.8z M43.1,258.9h5.6l7.4,22.7h-5.2l-1.5-5h-7l-1.5,5
		h-5.1L43.1,258.9L43.1,258.9z M48.5,273.6l-2.7-9l-2.7,9C43,273.6,48.5,273.6,48.5,273.6z M58.8,258.9h5.3l5.2,9.6l5.2-9.6h5.3
		v22.6h-5.1V266l-5.6,10h-0.1l-5.6-10v15.4h-5v-22.6H58.8z M83,258.9h5.5l3.4,15.7l4.2-15.7h4.9l4,15.7l3.4-15.7h5.2l-5.8,22.7h-5.5
		l-4-15.3l-4,15.3h-5.3L83,258.9z M116.5,258.9h13.8v3h-8.4v6.8h7.6v3h-7.6v6.9h8.7v3h-14V258.9z M134.1,258.9h13.8v3h-8.6v6.8h7.6
		v3h-7.6v6.9h8.7v3h-14v-22.6H134.1z M151.5,258.9h5.2v19.6h7.6v3h-12.8V258.9z M181.5,258.9h5.6l7.4,22.7h-5.2l-1.5-5h-7l-1.5,5h-5
		L181.5,258.9z M186.9,273.6l-2.7-9l-2.7,9H186.9z M197.3,258.9h5.2v19.6h7.6v3h-12.9v-22.6H197.3z M212.3,270.6v-1
		c0-7.6,3.9-11.2,9.6-11.2c5.7,0,9.6,3.4,9.6,11.2v1c0,7.6-3.9,11.2-9.6,11.2C216.3,281.8,212.3,278.2,212.3,270.6z M226.1,270.6v-1
		c0-5.8-1.8-8.2-4.3-8.2s-4.3,2.4-4.3,8.2v1c0,5.8,1.8,8.2,4.3,8.2S226.1,276.6,226.1,270.6z M235.1,275.1v-16.3h5.2v16.5
		c0,2.4,1.5,3.4,3.7,3.4c2.3,0,3.7-1.1,3.7-3.4v-16.5h5.2v16.3c0,4.5-3.7,6.7-8.9,6.7S235.1,279.5,235.1,275.1L235.1,275.1z
		 M257.3,258.9h5.2v19.6h7.6v3h-12.9v-22.6H257.3z M278.7,258.9h5.6l7.4,22.7h-5.2l-1.5-5h-7l-1.5,5h-5.1L278.7,258.9L278.7,258.9z
		 M284.1,273.6l-2.7-9l-2.7,9H284.1L284.1,273.6z"/>
	<path class="st2" d="M425.8,204.6l-58.1-41.9l-58.1,41.9c-2.1,16.5,7.6,27.9,7.6,27.9s1.9-3.8,5.3-6.2l45.3-32.7l45.3,32.7
		c3.4,2.5,5.3,6.2,5.3,6.2S427.9,221.2,425.8,204.6L425.8,204.6z"/>
	<path class="st1" d="M411.6,245.6l-43.9,32.2l-43.9-32.2c-15.3-11.4-16.4-29.8-16.4-29.8V260c0,5.1,4.3,8.4,4.3,8.4l56.1,41.1
		l56.1-41.1c0,0,4.3-3.4,4.3-8.4v-44.2C428,215.8,427,234.2,411.6,245.6z"/>
</g>
</svg>
