<?xml version="1.0" encoding="utf-8"?>
<!-- Generator: Adobe Illustrator 24.1.2, SVG Export Plug-In . SVG Version: 6.00 Build 0)  -->
<svg version="1.1" id="Layer_1" xmlns="http://www.w3.org/2000/svg" xmlns:xlink="http://www.w3.org/1999/xlink" x="0px" y="0px"
	 viewBox="0 0 450 475.1" style="enable-background:new 0 0 450 475.1;" xml:space="preserve">
<style type="text/css">
	.st0{fill:#1C5AA7;}
	.st1{fill:url(#SVGID_1_);}
	.st2{fill:url(#SVGID_2_);}
	.st3{fill:#231F20;}
</style>
<g>
	<path class="st0" d="M1767.3,119.4l0.6-0.9l-3.6-2.5l-4.4,6.4l1,0.1C1763.4,122.6,1765.8,121.4,1767.3,119.4 M1783.9,121.9l-1,1.4
		l-1.8,2.7c-2.9,4.3-6.1,4.7-10,2l-3.2-2.2l-3.1-2.1c-2.4,1.5-6.4,1-6.4,1l10.3,7c6.5,4.5,11.6,3.4,15.4-2.1l11-16.1l-3.6-2.5
		L1783.9,121.9L1783.9,121.9z"/>
	<path class="st0" d="M1796.6,103.6l-0.6,0.9l3.6,2.5l4.4-6.4l-1-0.1C1800.5,100.5,1798.1,101.6,1796.6,103.6 M1780,101.1l1-1.4
		l1.8-2.7c2.9-4.3,6.1-4.7,10-2l3.2,2.2l3.1,2.1c2.4-1.5,6.4-1,6.4-1l-10.3-7c-6.5-4.5-11.6-3.4-15.4,2.1l-11,16.1l3.6,2.5
		L1780,101.1L1780,101.1z M1591.1,133.6v-8.9c0-3.5-1.8-5.4-5.9-5.4h-2.7c-1.1,0-1.9-0.2-2.1-0.8c-0.4,1.7,0.4,2.4,1.7,2.4h3.1
		c2.4,0,3.7,1.1,3.7,3.7v1.7l-5.5,0.5c-4,0.4-5.6,2.1-5.6,5c0,3.3,2,5,5.2,5c1.4,0,2.7-0.1,3.8-0.3c1.8-0.3,1.2-2.3,1.2-2.3
		c-0.1,0.4-0.8,0.6-0.8,0.6c-1.3,0.3-2.6,0.5-4.2,0.5c-1.8,0-3-1.4-3-3.5c0-2,0.9-3.3,3.5-3.5l5.3-0.4v6.3c0,1.9,0.9,3,3.3,2.4
		C1591.3,136.3,1591.1,135.2,1591.1,133.6 M1622.6,133.6v-8.9c0-3.5-1.8-5.4-5.9-5.4h-2.7c-1.1,0-1.9-0.2-2.1-0.8
		c-0.4,1.7,0.4,2.4,1.7,2.4h3.1c2.4,0,3.7,1.1,3.7,3.7v1.7l-5.5,0.5c-4,0.4-5.6,2.1-5.6,5c0,3.3,2,5,5.2,5c1.4,0,2.7-0.1,3.8-0.3
		c1.8-0.3,1.2-2.3,1.2-2.3c0,0.4-0.7,0.6-0.7,0.6c-1.3,0.3-2.7,0.5-4.2,0.5c-1.8,0-3-1.4-3-3.5c0-2,0.9-3.3,3.5-3.5l5.3-0.4v6.3
		c0,1.9,0.9,3,3.3,2.4C1622.8,136.3,1622.6,135.2,1622.6,133.6 M1578.1,118.5c-0.2,0.6-1,0.8-2.1,0.8h-2.7c-4.1,0-5.9,1.9-5.9,5.4
		v8.9c0,1.6-0.3,2.7-1.1,3c2.4,0.6,3.4-0.5,3.4-2.4v-9.6c0-2.7,1.2-3.7,3.7-3.7h3.1C1577.7,120.9,1578.5,120.2,1578.1,118.5
		 M1605.3,121.9v12.5c-1.1,0.4-3,0.8-4.9,0.8c-3.7,0-4.5-2-4.5-6.9V122c0-1.9-1-3-3.4-2.4c0.8,0.3,1.1,1.4,1.1,3v5.7
		c0,5.7,1.3,8.4,6.8,8.4c1.9,0,3.7-0.5,4.9-0.8l0,0v1.4c0,2.7-1.2,3.7-3.7,3.7h-3.1c-1.3,0-2.1,0.7-1.7,2.4c0.2-0.6,1-0.8,2.1-0.8
		h2.7c4.1,0,5.9-1.9,5.9-5.4v-14.6c0-1.6,0.3-2.7,1.1-3C1606.2,119,1605.3,120,1605.3,121.9 M1678.3,133.6v-9c0-3.5-1.8-5.4-5.9-5.4
		h-2.7c-1.1,0-1.9-0.2-2.1-0.8c-0.4,1.7,0.4,2.4,1.7,2.4h3.1c2.4,0,3.7,1.1,3.7,3.7v1.7l-5.5,0.5c-4,0.4-5.6,2.1-5.6,5
		c0,3.3,2,5,5.2,5c1.4,0,2.7-0.1,3.8-0.3c1.8-0.3,1.2-2.3,1.2-2.3c-0.1,0.4-0.7,0.6-0.7,0.6c-1.3,0.3-2.6,0.5-4.2,0.5
		c-1.8,0-3-1.4-3-3.5c0-2,0.9-3.3,3.5-3.5l5.3-0.4v6.3c0,1.9,0.9,3,3.3,2.4C1678.5,136.3,1678.3,135.2,1678.3,133.6 M1640,113.9
		h-2.7c-4.1,0-5.9,1.9-5.9,5.4v14.5c0,1.6-0.3,2.7-1.1,3c2.4,0.6,3.3-0.5,3.3-2.4v-7.9h6.1c1.3,0,2.1-0.7,1.7-2.4
		c-0.2,0.6-1,0.8-2.1,0.8h-5.7v-5.5c0-2.7,1.2-3.7,3.7-3.7h3c1.3,0,2.1-0.7,1.7-2.4C1641.9,113.7,1641.2,113.9,1640,113.9
		 M1645.8,117.4c0.7,0,1.3-0.6,1.3-1.3s-0.6-1.3-1.3-1.3s-1.3,0.6-1.3,1.3S1645,117.4,1645.8,117.4 M1646.9,133.9v-12
		c0-1.9-0.9-3-3.3-2.4c0.8,0.3,1.1,1.4,1.1,3v12c0,1.9,0.9,3,3.3,2.4C1647.1,136.6,1646.9,135.5,1646.9,133.9"/>
	<g>
		<path id="D" class="st0" d="M1662.9,133.6v-8.9c0-3.5-1.8-5.4-5.9-5.4h-7.1c-0.3,0-0.5,0.1-0.8,0.1c0.8,0.3,1.1,1.4,1.1,3v12
			c0,1.9,0.9,3,3.3,2.4c-0.8-0.3-1.1-1.4-1.1-3v-12c0-0.4,0-0.7-0.1-1h4.7c2.4,0,3.7,1.1,3.7,3.7v9.5c0,1.9,0.9,3,3.3,2.4
			C1663.2,136.3,1662.9,135.2,1662.9,133.6"/>
	</g>
	<path class="st0" d="M1710.9,117.4c0.7,0,1.3-0.6,1.3-1.3s-0.6-1.3-1.3-1.3s-1.3,0.6-1.3,1.3S1710.2,117.4,1710.9,117.4
		 M1712,133.9v-12c0-1.9-0.9-3-3.3-2.4c0.8,0.3,1.1,1.4,1.1,3v12c0,1.9,0.9,3,3.3,2.4C1712.3,136.6,1712,135.5,1712,133.9
		 M1728,133.6v-8.8c0-3.5-1.8-5.4-5.9-5.4h-7.2c-0.3,0-0.5,0.1-0.8,0.1c0.8,0.3,1.1,1.4,1.1,3v12c0,1.9,0.9,3,3.3,2.4
		c-0.8-0.3-1.1-1.4-1.1-3v-12c0-0.4,0-0.7-0.1-1h4.7c2.4,0,3.7,1.1,3.7,3.7v9.5c0,1.9,0.9,3,3.4,2.4
		C1728.2,136.3,1728,135.2,1728,133.6"/>
	<g>
		<path id="D_1_" class="st0" d="M1693.8,133.6v-8.9c0-3.5-1.8-5.4-5.9-5.4h-7.1c-0.3,0-0.5,0.1-0.8,0.1c0.8,0.3,1.1,1.4,1.1,3v12
			c0,1.9,0.9,3,3.3,2.4c-0.8-0.3-1.1-1.4-1.1-3v-12c0-0.4,0-0.7-0.1-1h4.7c2.4,0,3.7,1.1,3.7,3.7v9.5c0,1.9,0.9,3,3.3,2.4
			C1694.1,136.3,1693.8,135.2,1693.8,133.6"/>
	</g>
	<path class="st0" d="M1702.1,120.9h3.1c1.3,0,2.1-0.7,1.7-2.4c-0.2,0.6-1,0.8-2.1,0.8h-2.7c-4.1,0-5.9,1.9-5.9,5.4v6.5
		c0,3.5,1.8,5.4,5.9,5.4h2.7c1.1,0,1.9,0.2,2.1,0.8c0.4-1.7-0.4-2.4-1.7-2.4h-3.1c-2.4,0-3.7-1.1-3.7-3.7v-6.6
		C1698.4,122,1699.6,120.9,1702.1,120.9 M1741.6,134.4c-1.1,0.4-3,0.8-4.9,0.8c-3.7,0-4.5-2-4.5-6.9v-3.7c0-2.7,1.2-3.7,3.7-3.7h5.8
		c-0.1,0.3-0.1,0.6-0.1,1V134.4L1741.6,134.4z M1744.9,119.5c-0.3-0.1-0.6-0.1-0.8-0.1l0,0h-8.3c-4.1,0-5.9,1.9-5.9,5.4l-0.1,3.7
		c0,5.7,1.3,8.4,6.8,8.4c1.9,0,3.8-0.5,4.9-0.8l0,0v1.4c0,2.7-1.2,3.7-3.7,3.7h-3.1c-1.3,0-2.1,0.7-1.7,2.4c0.2-0.6,1-0.8,2.1-0.8
		h2.7c4.1,0,5.9-1.9,5.9-5.4V134l0.2-13.6C1744.3,119.9,1744.5,119.6,1744.9,119.5 M1727.6,82.4v19c0,1.8-0.3,3-1.3,3.4
		c2.8,0.6,3.8-0.6,3.8-2.7V83c0-1.8,0.3-3,1.3-3.4C1728.6,79,1727.6,80.3,1727.6,82.4 M1741.1,88v10.8c0,3-1.4,4.2-4.1,4.2h-1.6
		c-1.5,0-2.4,0.7-1.9,2.7c0.2-0.7,1.1-0.9,2.4-0.9h1.2c4.6,0,6.7-2.1,6.7-6.1V88.6c0-1.8,0.3-3,1.3-3.4
		C1742.2,84.6,1741.1,85.8,1741.1,88"/>
	<path class="st0" d="M1720.5,88v10.9c0,3-1.4,4.2-4.1,4.2h-8.8c-4.2,0-5.1-2.2-5.1-7.7v-10h-6.6c-5.1,0-8.2,2.4-8.2,9.8
		c0,6,1.8,9.7,8.4,9.8h1.2c1.2,0,2.1,0.2,2.3,0.9c0.4-1.9-0.4-2.6-1.8-2.6h-1.6c-4.4,0-5.8-2.6-5.8-7.4v-1.4c0-5.3,1.8-7.3,5.6-7.3
		h4v8.3c0,6.5,1.5,9.5,7.7,9.5h8.8c4.6,0,6.7-2.1,6.7-6.1V88.6c0-1.8,0.3-3,1.3-3.4C1721.5,84.6,1720.5,85.8,1720.5,88"/>
	<g>
		<path id="E" class="st0" d="M1694.3,83.7c0.8,0,1.5-0.7,1.5-1.5c0-0.8-0.7-1.5-1.5-1.5c-0.8,0-1.5,0.7-1.5,1.5
			C1692.8,83,1693.4,83.7,1694.3,83.7C1694.3,83.7,1694.3,83.7,1694.3,83.7"/>
	</g>
	<g>
		<path id="E_1_" class="st0" d="M1698.2,83.7c0.8,0,1.5-0.7,1.5-1.5c0-0.8-0.7-1.5-1.5-1.5c-0.8,0-1.5,0.7-1.5,1.5
			C1696.7,83,1697.3,83.7,1698.2,83.7C1698.2,83.7,1698.2,83.7,1698.2,83.7"/>
	</g>
	<g>
		<path id="E_2_" class="st0" d="M1652.5,83.7c0.8,0,1.5-0.7,1.5-1.5c0-0.8-0.7-1.5-1.5-1.5c-0.8,0-1.5,0.7-1.5,1.5
			C1651,83,1651.6,83.7,1652.5,83.7C1652.5,83.7,1652.5,83.7,1652.5,83.7"/>
	</g>
	<path class="st0" d="M1656.4,83.7c0.8,0,1.5-0.7,1.5-1.5c0-0.8-0.7-1.5-1.5-1.5c-0.8,0-1.5,0.7-1.5,1.5
		C1654.9,83.1,1655.5,83.7,1656.4,83.7 M1687.6,95.2v-0.3V95.2z M1644.3,94.9v0.3V94.9z"/>
	<path class="st0" d="M1615.1,102.1c-1.3,0.4-3.3,1-5.5,1c-4.2,0-5.1-2.3-5.1-7.8v-4.2c0-3,1.4-4.2,4.1-4.2h6.5
		c-0.1,0.3-0.1,0.7-0.1,1.1L1615.1,102.1L1615.1,102.1z M1675.5,82.4v16.5c0,3-1.4,4.2-4.1,4.2h-5.9c1-1,1.4-2.5,1.4-4.3V83.1
		c0-1.8,0.3-3,1.3-3.4c-2.8-0.6-3.8,0.6-3.8,2.7v16.5c0,3-1.4,4.2-4.1,4.2h-6.5c1-1,1.4-2.5,1.4-4.3v-9.9c0-1.8,0.3-3,1.3-3.4
		c-2.8-0.6-3.8,0.6-3.8,2.7v10.7c0,3-1.4,4.2-4.1,4.2h-6.6c1.8-1.6,2.5-4.4,2.5-7.9c0-7.4-3.2-9.8-8.2-9.8h-6.6v10
		c0,5.5-0.9,7.7-5.1,7.7h-2.5c-2.5,0-3.9-1-4.1-3.6l0.2-13.2c0.2-0.6,0.5-0.9,1-1.1c-0.3-0.1-0.7-0.1-1-0.1l0,0h-9.3
		c-4.6,0-6.7,2.1-6.7,6.1l-0.1,4.2c0,6.5,1.5,9.5,7.7,9.5c2.1,0,4.2-0.5,5.5-0.9c-0.1,2.7-1.5,3.9-4.1,3.9h-3.5
		c-1.5,0-2.4,0.7-1.9,2.7c0.2-0.7,1.1-0.9,2.4-0.9h3c4.4,0,6.5-2,6.7-5.7c1,0.6,2.4,0.9,4.2,0.9h2.5c6.2,0,7.7-3,7.7-9.5V87h4
		c3.8,0,5.6,1.9,5.6,7.3v1.4c0,4.9-1.4,7.4-5.8,7.4h-3.6c-1.5,0-2.3,0.7-1.8,2.6c0.2-0.7,1.1-0.9,2.3-0.9h38.7
		c4.6,0,6.7-2.1,6.7-6.1V83c0-1.8,0.3-3,1.3-3.4C1676.5,79,1675.5,80.3,1675.5,82.4 M1595.5,88.2v10.7c0,3-1.4,4.2-4.1,4.2h-1.3
		c-2.7,0-4.1-1.2-4.1-4.2l0,0V83c0-1.8,0.3-3,1.3-3.4c-2.8-0.6-3.8,0.6-3.8,2.7v20.8c0,3-1.4,4.2-4.1,4.2h-5.4
		c-2.7,0-4.1-1.2-4.1-4.2v-5c0-3,1.4-4.2,4.1-4.2h1c1.5,0,2.4-0.7,1.9-2.7c-0.2,0.7-1.1,0.9-2.4,0.9h-0.6c-4.6,0-6.7,2.1-6.7,6.1
		v4.9c0,3.9,2.1,6.1,6.7,6.1h5.4c4.3,0,6.4-1.9,6.7-5.3c1,0.6,2.4,1,4.2,1h1.3c4.6,0,6.7-2.1,6.7-6.1v-9.9c0-1.8,0.3-3,1.3-3.4
		C1596.6,84.8,1595.5,86,1595.5,88.2"/>
	<g>
		<path id="F" class="st0" d="M1715.8,106.8c-0.8,0-1.5,0.7-1.5,1.5c0,0.8,0.7,1.5,1.5,1.5c0.8,0,1.5-0.7,1.5-1.5
			C1717.3,107.4,1716.7,106.8,1715.8,106.8"/>
	</g>
	<g>
		<path id="G" class="st0" d="M1719.7,106.8c-0.8,0-1.5,0.7-1.5,1.5c0,0.8,0.7,1.5,1.5,1.5c0.8,0,1.5-0.7,1.5-1.5
			C1721.2,107.5,1720.6,106.8,1719.7,106.8C1719.7,106.8,1719.7,106.8,1719.7,106.8"/>
	</g>
	<g>
		<path id="F_1_" class="st0" d="M1590.1,106.8c-0.8,0-1.5,0.7-1.5,1.5c0,0.8,0.7,1.5,1.5,1.5c0.8,0,1.5-0.7,1.5-1.5
			C1591.6,107.4,1591,106.8,1590.1,106.8"/>
	</g>
	<g>
		<path id="G_1_" class="st0" d="M1594,106.8c-0.8,0-1.5,0.7-1.5,1.5c0,0.8,0.7,1.5,1.5,1.5c0.8,0,1.5-0.7,1.5-1.5
			C1595.5,107.5,1594.9,106.8,1594,106.8C1594,106.8,1594,106.8,1594,106.8"/>
	</g>
	<path class="st0" d="M1774,96.9l0.9,0.6l2.5-3.6l-6.4-4.4l-0.1,1C1770.9,93,1772.1,95.3,1774,96.9 M1770.1,112.5l-2.7-1.8
		c-4.3-2.9-4.7-6.1-2-10l2.2-3.2l2.1-3.1c-1.5-2.4-1-6.4-1-6.4l-7,10.3c-4.4,6.5-3.4,11.6,2.1,15.4l16.1,11l2.5-3.6l-10.9-7.5
		L1770.1,112.5L1770.1,112.5z M1789.9,126.1l-0.9-0.6l-2.5,3.6l6.4,4.4l0.1-1C1793,130,1791.9,127.7,1789.9,126.1 M1800,109.4
		l-16.1-11l-2.5,3.6l10.9,7.5l1.4,1l2.7,1.8c4.3,2.9,4.7,6.1,2,10l-2.2,3.2l-2.1,3.1c1.5,2.4,1,6.4,1,6.4l7-10.3
		C1806.6,118.3,1805.5,113.2,1800,109.4"/>
</g>
<linearGradient id="SVGID_1_" gradientUnits="userSpaceOnUse" x1="313.3355" y1="254.138" x2="364.376" y2="254.138" gradientTransform="matrix(1 0 0 -1 0 475.89)">
	<stop  offset="0" style="stop-color:#551615"/>
	<stop  offset="1" style="stop-color:#E92126"/>
</linearGradient>
<path class="st1" d="M342,232.1c-13.9,4.2-26.7,3-28.4-2.7c-1.8-5.7,8.2-13.8,22.2-18c13.9-4.2,26.7-3,28.4,2.7
	C365.9,219.9,356,227.9,342,232.1z"/>
<linearGradient id="SVGID_2_" gradientUnits="userSpaceOnUse" x1="81.0263" y1="275.7457" x2="368.1792" y2="275.7457" gradientTransform="matrix(1 0 0 -1 0 475.89)">
	<stop  offset="0" style="stop-color:#551615"/>
	<stop  offset="1" style="stop-color:#E92126"/>
</linearGradient>
<path class="st2" d="M81,196.9c32.2,58.3,175-7.8,217.9-10.2c0,0,12.4-1.1,3.9-4.9s-35.2-17.3-77.9,0c0,0,30.1-21.9,81.1-16.9
	c18.9,1.9,42.5,19,62.2,25.3c0,0-144.3,41-177.9,44.2S94.4,241.5,81,196.9L81,196.9z"/>
<g>
	<path class="st3" d="M96.8,276.2h-4.8c-0.1,3.9-2.7,5.6-7.2,5.6c-5.6,0-7.3-3.4-7.6-8.2l1.9-0.6v0.4c0.1,4.5,1.8,6.5,5.7,6.5
		c2.7,0,5.1-0.8,5.1-4.1v-17.4l1.9-0.6v16.7h4.8L96.8,276.2L96.8,276.2z"/>
	<path class="st3" d="M103,271.2c0,2.9-1.9,4.9-4.9,4.9h-1.6v-1.9h1.4c2,0,3.1-1.1,3.1-3.4v-7.2l1.9-0.6L103,271.2L103,271.2z
		 M96.8,281.1c0-0.8,0.4-1.2,1.2-1.2c0.8,0,1.1,0.4,1.1,1.2s-0.4,1.2-1.1,1.2C97.3,282.4,96.8,281.9,96.8,281.1z M101.9,282.4
		c-0.8,0-1.1-0.4-1.1-1.2s0.4-1.2,1.1-1.2c0.8,0,1.2,0.4,1.2,1.2C103,281.9,102.7,282.4,101.9,282.4z M115.2,276.2
		c-0.4,3.4-2.1,5.6-5.7,5.6c-1,0-1.9-0.2-2.7-0.6l-1.1-2.2c1.5,0.8,2.7,1.1,3.8,1.1c2.2,0,3.4-1.5,3.6-3.7h-2.9
		c-3.1,0-5.1-2.1-5.1-6.4c0-4.2,1.9-6.4,5.1-6.4c3.4,0,5.2,2.6,5.1,6.1v4.9h3.9v1.9L115.2,276.2L115.2,276.2z M113.2,274.3v-4.5
		c0-3.1-1.1-4.6-3.1-4.6c-2.1,0-3.2,1.5-3.2,4.6c0,3,1.1,4.5,3.2,4.5H113.2z"/>
	<g>
		<path id="H" class="st3" d="M123.9,276.2h-5.3v-1.9h5.3V276.2z"/>
	</g>
	<g>
		<path id="H_1_" class="st3" d="M128.6,276.2h-5.3v-1.9h5.3V276.2z"/>
	</g>
	<g>
		<path id="H_2_" class="st3" d="M133.2,276.2h-5.3v-1.9h5.3V276.2z"/>
	</g>
	<g>
		<path id="H_3_" class="st3" d="M137.9,276.2h-5.3v-1.9h5.3V276.2z"/>
	</g>
	<path class="st3" d="M156.7,276.2h-1.4c-1.6,0-2.7-0.4-3.7-1.4c-0.6,2.1-2.3,3.4-4.7,3.4s-3.8-1.1-4.6-3.1c-0.8,0.8-2,1.1-3.4,1.1
		h-1.5v-1.9h1.3c1.8,0,2.8-1,3.1-2.7c0.1-3.4,1.6-5.9,5.1-5.9c3.2,0,4.8,1.9,5,5.3c0,2.3,1.1,3.4,3.2,3.4h1.6L156.7,276.2
		L156.7,276.2z M149.9,271.8c0-2.9-0.8-4.3-3-4.3s-3.1,1.4-3.1,4.3c0,2.9,0.9,4.4,3.1,4.4S149.9,274.8,149.9,271.8z"/>
	<g>
		<path id="H_4_" class="st3" d="M161.5,276.2h-5.3v-1.9h5.3V276.2z"/>
	</g>
	<g>
		<path id="H_5_" class="st3" d="M166.1,276.2h-5.3v-1.9h5.3V276.2z"/>
	</g>
	<path class="st3" d="M176.1,276.2h-1.2c-1.7,0-3.1-0.8-3.8-1.9c-0.9,1.3-2.3,1.9-4.1,1.9h-1.3v-1.9h1.1c2,0,3.1-1.1,3.1-3.4v-7.2
		l1.9-0.6v8c0,2.1,1.1,3.1,3,3.1h1.2L176.1,276.2L176.1,276.2z M167.7,258.3c0-0.8,0.4-1.2,1.2-1.2s1.1,0.4,1.1,1.2
		s-0.4,1.2-1.1,1.2S167.7,259.1,167.7,258.3z M172.7,259.5c-0.8,0-1.1-0.4-1.1-1.2c0-0.8,0.4-1.2,1.1-1.2c0.8,0,1.2,0.4,1.2,1.2
		C174,259.1,173.5,259.5,172.7,259.5z"/>
	<g>
		<path id="H_6_" class="st3" d="M181,276.2h-5.3v-1.9h5.3V276.2z"/>
	</g>
	<path class="st3" d="M190.8,276.2h-1.2c-1.7,0-3.1-0.8-3.8-1.9c-0.9,1.3-2.3,1.9-4.1,1.9h-1.3v-1.9h1.1c2,0,3.1-1.1,3.1-3.4v-12.7
		l1.9-0.6v13.6c0,2.1,1.1,3.1,3,3.1h1.2L190.8,276.2L190.8,276.2z"/>
	<path class="st3" d="M197,271.2c0,2.9-1.9,4.9-4.9,4.9h-1.5v-1.9h1.4c2,0,3.1-1.1,3.1-3.4v-12.6l1.9-0.6V271.2z"/>
	<g>
		<path id="I" class="st3" d="M215.5,276.2h-4c-0.3,3.2-1.9,5.5-5.5,5.6c-0.7,0-2-0.2-2.9-0.6l-0.9-2.1c1.4,0.9,2.6,1,3.7,1
			c2.6,0,3.7-2.1,3.7-4.6v-11.6l1.9-0.6v11.1h3.9L215.5,276.2L215.5,276.2z"/>
	</g>
	<g>
		<path id="H_7_" class="st3" d="M220.2,276.2h-5.3v-1.9h5.3V276.2z"/>
	</g>
	<g>
		<path id="H_8_" class="st3" d="M224.9,276.2h-5.3v-1.9h5.3V276.2z"/>
	</g>
	<g>
		<path id="H_9_" class="st3" d="M229.6,276.2h-5.3v-1.9h5.3V276.2z"/>
	</g>
	<g>
		<path id="H_10_" class="st3" d="M234.2,276.2h-5.3v-1.9h5.3V276.2z"/>
	</g>
	<path class="st3" d="M244.2,276.2h-1.2c-1.7,0-3.1-0.8-3.8-1.9c-0.9,1.3-2.3,1.9-4.1,1.9h-1.3v-1.9h1.1c2,0,3.1-1.1,3.1-3.4v-7.2
		l1.9-0.6v8c0,2.1,1.1,3.1,3,3.1h1.2L244.2,276.2L244.2,276.2z M237.7,281.1c0-0.8,0.4-1.1,1.2-1.1c0.8,0,1.2,0.4,1.2,1.1
		c0,0.8-0.4,1.2-1.2,1.2C238.2,282.4,237.7,281.9,237.7,281.1z"/>
	<path class="st3" d="M262.7,276.2h-18.9v-1.9h12.7v-1.9c-0.1-3.8-0.3-7.6-4.6-7.6c-1.4,0-2.9,0.7-4.3,2l-1.2-1.3
		c1.9-1.7,3.7-2.6,5.6-2.6c5.8,0,6.6,4.5,6.6,8.8v2.5h4.1L262.7,276.2L262.7,276.2z M251,281.1c0-0.8,0.4-1.2,1.2-1.2
		c0.8,0,1.1,0.4,1.1,1.2c0,0.8-0.4,1.2-1.1,1.2S251,281.9,251,281.1z"/>
	<path class="st3" d="M268.9,271.2c0,2.9-1.9,4.9-4.9,4.9h-1.6v-1.9h1.4c2,0,3.1-1.1,3.1-3.4v-12.6l1.9-0.6L268.9,271.2L268.9,271.2
		z M273.9,276.2H272v-17.9l1.9-0.5V276.2L273.9,276.2z M295.2,276.2h-1c-1.9,0-3.3-0.7-4.1-2c-0.8,1.4-2.2,2-4.1,2
		c-3.1,0-4.9-2-4.9-6.5c0-3.7,1.3-6.4,4.9-6.4h5.3v7.8c0,2.3,1.1,3.4,3.1,3.4h0.8V276.2L295.2,276.2z M289.4,264.9h-3.2
		c-2.1,0-3.2,1.6-3.2,4.9s1.1,4.7,3.2,4.7c2.1,0,3.2-1.4,3.2-4.7V264.9z M284.1,258.3c0-0.8,0.4-1.2,1.2-1.2c0.8,0,1.1,0.4,1.1,1.2
		c0,0.8-0.4,1.2-1.1,1.2C284.6,259.5,284.1,259.1,284.1,258.3z M289.2,259.5c-0.8,0-1.1-0.4-1.1-1.2s0.4-1.2,1.1-1.2
		c0.8,0,1.2,0.4,1.2,1.2C290.4,259.1,290,259.5,289.2,259.5z"/>
	<g>
		<path id="H_11_" class="st3" d="M300,276.2h-5.3v-1.9h5.3V276.2z"/>
	</g>
	<g>
		<path id="H_12_" class="st3" d="M304.7,276.2h-5.3v-1.9h5.3V276.2z"/>
	</g>
	<g>
		<path id="H_13_" class="st3" d="M309.4,276.2h-5.3v-1.9h5.3V276.2z"/>
	</g>
	<g>
		<path id="H_14_" class="st3" d="M314,276.2h-5.3v-1.9h5.3V276.2z"/>
	</g>
	<path class="st3" d="M326.9,274.3v-3c-0.2-3.4-2.4-5.3-5.4-5.3c-1.9,0-4,0.8-5.4,2.2l-1.1-1.3l8.1-9.3h2.6l-6.4,7.1
		c0.6-0.4,1.9-0.4,2.9-0.4c2.5,0,6.1,1.6,6.6,6.3c0.1,0.9,0,5.6,0,5.6h-15.4v-1.9L326.9,274.3L326.9,274.3z"/>
	<g>
		<path id="I_1_" class="st3" d="M342.7,276.2h-4c-0.3,3.2-1.9,5.5-5.5,5.6c-0.7,0-2-0.2-2.9-0.6l-0.9-2.1c1.4,0.9,2.6,1,3.7,1
			c2.6,0,3.7-2.1,3.7-4.6v-11.6l1.9-0.6v11.1h3.9V276.2L342.7,276.2z"/>
	</g>
	<g>
		<path id="H_15_" class="st3" d="M347.5,276.2h-5.3v-1.9h5.3V276.2z"/>
	</g>
	<path class="st3" d="M369.1,271.2c0,3-1.8,4.9-4.9,4.9h-17.1v-1.9h3.8v-7.9l1.9-0.6v8.6h6.1v-9.2l1.9-0.6v9.8h3.2
		c2,0,3.1-1.1,3.1-3.4v-7.2l1.9-0.6L369.1,271.2L369.1,271.2z M356.7,258.6c0-0.8,0.4-1.2,1.2-1.2s1.1,0.4,1.1,1.2s-0.4,1.2-1.1,1.2
		S356.7,259.4,356.7,258.6z M359.8,256.6c-0.7,0-1.1-0.4-1.1-1.1c0-0.8,0.4-1.1,1.1-1.1c0.7,0,1.1,0.4,1.1,1.1
		C360.9,256.2,360.5,256.6,359.8,256.6z M361.7,259.8c-0.8,0-1.1-0.4-1.1-1.2s0.4-1.2,1.1-1.2c0.8,0,1.2,0.4,1.2,1.2
		S362.5,259.8,361.7,259.8z M87.7,305.7l-1.5-4.9h-5.8l-1.5,4.9h-2.6l5.6-16.9h2.8l5.6,16.9H87.7z M84.3,294.4l-1-3.4h-0.1l-1,3.4
		l-1.3,4.4h4.7C85.6,298.9,84.3,294.4,84.3,294.4z M92.5,305.7v-16.9h2.4v15.1h6.9v1.9L92.5,305.7L92.5,305.7z M105.9,305.9
		c-1.1,0-2.2-0.4-3.1-0.8l0.6-1.8c0.7,0.4,1.4,0.6,2.4,0.6c1.9,0,2.2-1.1,2.2-3.3v-12.1h2.4v12.4C110.5,304,109.2,305.9,105.9,305.9
		z"/>
	<g>
		<path id="J" class="st3" d="M120.6,305.7l-0.1-1.2h-0.1c-0.6,0.9-1.9,1.5-3.3,1.5c-2,0-3.7-1.4-3.7-3.6c0-2.3,2.1-3.4,4.3-3.4
			l2.5-0.1v-1.2c0-1.6-0.5-2.6-2.2-2.6c-1.1,0-2.1,0.4-3.1,0.9l-0.7-1.6c1-0.5,2.4-1.1,3.9-1.1c2.9,0,4.4,1.7,4.4,4.3v8.2
			L120.6,305.7L120.6,305.7z M120.2,300.2l-2.1,0.1c-1.6,0.1-2.3,0.8-2.3,1.9c0,1,0.6,1.9,1.7,1.9c1.1,0,1.9-0.4,2.7-1.1V300.2
			L120.2,300.2z"/>
	</g>
	<path class="st3" d="M129.9,305.9c-1.5,0-3.4-0.5-4.2-1.1v-16.5l2.2-0.5v6.7h0.1c0.5-0.6,1.8-1.3,2.9-1.3c3.2,0,4.6,3.4,4.6,6.4
		C135.4,302.6,133.7,305.9,129.9,305.9z M130.5,295c-1.1,0-2.1,0.7-2.7,1.3v7.3c0.5,0.3,1.3,0.4,2,0.4c2.1,0,3.2-2.1,3.2-4.6
		C133,297,132.3,295,130.5,295L130.5,295z"/>
	<g>
		<path id="K" class="st3" d="M144.2,295.2c-0.4-0.1-0.6-0.2-1.1-0.2c-1.1,0-2.2,1.1-2.8,2.2v8.5h-2.2v-12.3h1.7l0.2,2.1h0.1
			c0.5-1.1,1.8-2.4,3.2-2.4c0.5,0,1,0.1,1.4,0.3L144.2,295.2L144.2,295.2z"/>
	</g>
	<path class="st3" d="M161.6,290.6h-6.4v5.5h5.9v1.9h-5.9v7.7h-2.4v-16.9h9L161.6,290.6L161.6,290.6z M166.1,291.1
		c-0.7,0-1.4-0.6-1.4-1.3c0-0.8,0.6-1.4,1.4-1.4c0,0,0,0,0,0c0.7,0,1.4,0.6,1.4,1.4C167.5,290.6,166.8,291.1,166.1,291.1z
		 M165.1,305.7v-12.3l2.2-0.3v12.5L165.1,305.7L165.1,305.7z M178.4,305.7V298c0-1.7-0.4-2.9-2.1-2.9c-1.1,0-2.1,0.7-2.9,1.7v9h-2.2
		v-12.3h1.9l0.2,1.4h0.1c0.7-0.9,2-1.7,3.2-1.7c2.8,0,4.1,1.9,4.1,4.5v8L178.4,305.7L178.4,305.7z"/>
	<g>
		<path id="J_1_" class="st3" d="M190.4,305.7l-0.1-1.2h-0.1c-0.6,0.9-1.9,1.5-3.3,1.5c-2,0-3.7-1.4-3.7-3.6c0-2.3,2.1-3.4,4.3-3.4
			l2.5-0.1v-1.2c0-1.6-0.5-2.6-2.2-2.6c-1.1,0-2.1,0.4-3.1,0.9l-0.7-1.6c1-0.5,2.4-1.1,3.9-1.1c2.9,0,4.4,1.7,4.4,4.3v8.2
			L190.4,305.7L190.4,305.7z M190,300.2l-2.1,0.1c-1.6,0.1-2.3,0.8-2.3,1.9c0,1,0.6,1.9,1.7,1.9c1.1,0,1.9-0.4,2.7-1.1V300.2
			L190,300.2z"/>
	</g>
	<g>
		<path id="L" class="st3" d="M202.8,305.7V298c0-1.7-0.4-2.9-2.1-2.9c-1.1,0-2.1,0.7-2.9,1.7v9h-2.2v-12.3h1.9l0.2,1.4h0.1
			c0.7-0.9,2-1.7,3.2-1.7c2.8,0,4.1,1.9,4.1,4.5v8L202.8,305.7L202.8,305.7z"/>
	</g>
	<path class="st3" d="M213.2,305.9c-3.9,0-5.6-3.1-5.6-6.4s1.9-6.4,5.7-6.4c1.1,0,2.1,0.3,3.5,0.9l-0.7,1.7
		c-1.1-0.5-1.9-0.7-2.8-0.7c-2.3,0-3.4,2-3.4,4.6c0,2.6,1.1,4.6,3.3,4.6c1.1,0,2-0.3,3.1-0.8l0.7,1.7
		C215.7,305.6,214.5,305.9,213.2,305.9L213.2,305.9z M220.6,291.1c-0.7,0-1.4-0.6-1.4-1.3c0-0.8,0.6-1.4,1.4-1.4c0,0,0,0,0,0
		c0.7,0,1.4,0.6,1.4,1.4C222,290.6,221.4,291.1,220.6,291.1z M219.5,305.7v-12.3l2.2-0.3v12.5L219.5,305.7L219.5,305.7z
		 M232.9,305.7V298c0-1.7-0.4-2.9-2.1-2.9c-1.1,0-2.1,0.7-2.9,1.7v9h-2.2v-12.3h1.9l0.2,1.4h0.1c0.7-0.9,2-1.7,3.2-1.7
		c2.8,0,4.1,1.9,4.1,4.5v8L232.9,305.7L232.9,305.7z M246.4,295.3c0.4,0.6,0.5,1.4,0.5,2.2c0,2.3-1.5,4.5-4.5,4.5
		c-0.9,0-1.6-0.2-2.3-0.5c-0.3,0.2-0.4,0.4-0.4,0.7c0,0.6,0.9,1.1,2.1,1.2c2.4,0.4,5.9,0.4,5.9,3.7c0,2.6-2.7,3.9-5.4,3.9
		c-2.6,0-5.1-1.2-5.1-3.5c0-0.9,0.4-1.6,0.8-2.2l1.7,0.8c-0.2,0.3-0.4,0.7-0.4,1.3c0,1.1,1.2,1.9,3.1,1.9s3.3-0.7,3.3-1.9
		c0-1.9-1.9-1.8-3.8-2.1c-1.9-0.4-4-0.9-4-2.7c0-0.8,0.7-1.4,1.1-1.7v-0.2c-0.7-0.9-1.1-1.9-1.1-3.1c0-2.3,1.4-4.4,4.4-4.4
		c1.2,0,2.2,0.4,3,1c0,0,1.5-0.4,2-0.8l0.9,1.5C248.3,294.8,247.9,295.2,246.4,295.3L246.4,295.3z M242.4,294.9
		c-1.6,0-2.1,1.1-2.1,2.6c0,1.5,0.5,2.6,2.1,2.6c1.6,0,2.1-1.1,2.1-2.6C244.5,296,244,294.9,242.4,294.9z M267,291.2
		c-1.1-0.5-2.5-0.9-3.7-0.9c-3.6,0-5,3.3-5,7c0,3.8,1.2,6.7,4.7,6.7c1.3,0,2.8-0.4,4.1-0.9l0.6,1.8c-1.4,0.7-3.1,1.1-4.8,1.1
		c-4.8,0-7.2-3.7-7.2-8.6c0-4.8,2.5-8.9,7.6-8.9c1.5,0,3,0.3,4.4,1L267,291.2z M274.9,305.9c-3.8,0-5.2-3.2-5.2-6.4
		c0-3.2,1.4-6.4,5.1-6.4c3.8,0,5.2,3.2,5.2,6.4C280.1,302.7,278.7,305.9,274.9,305.9z M274.9,295c-2.2,0-2.8,1.9-2.8,4.6
		c0,2.6,0.6,4.6,2.8,4.6c2.2,0,2.9-1.9,2.9-4.6C277.7,296.9,277.1,295,274.9,295z"/>
	<g>
		<path id="K_1_" class="st3" d="M288.9,295.2c-0.4-0.1-0.6-0.2-1.1-0.2c-1.1,0-2.2,1.1-2.8,2.2v8.5h-2.2v-12.3h1.7l0.2,2.1h0.1
			c0.5-1.1,1.8-2.4,3.2-2.4c0.5,0,1,0.1,1.4,0.3L288.9,295.2L288.9,295.2z"/>
	</g>
	<path class="st3" d="M295.8,305.9c-0.8,0-1.6-0.2-2.3-0.4v5.3h-2.2v-17.4h1.9l0.2,1.4c0.5-0.8,1.9-1.7,3.1-1.7
		c3.5,0,4.7,3.4,4.7,6.4C301.2,302.7,299.5,305.9,295.8,305.9z M296.2,295c-1.1,0-2.2,1-2.7,1.7v7.1c0.5,0.2,1.4,0.4,2.1,0.4
		c2.2,0,3.2-1.9,3.2-4.6C298.8,297,298.2,295,296.2,295L296.2,295z M308.5,305.9c-3.8,0-5.2-3.2-5.2-6.4c0-3.2,1.4-6.4,5.1-6.4
		c3.8,0,5.2,3.2,5.2,6.4C313.6,302.7,312.2,305.9,308.5,305.9z M308.4,295c-2.2,0-2.8,1.9-2.8,4.6c0,2.6,0.6,4.6,2.8,4.6
		c2.2,0,2.9-1.9,2.9-4.6S310.6,295,308.4,295z"/>
	<g>
		<path id="K_2_" class="st3" d="M322.5,295.2c-0.4-0.1-0.6-0.2-1.1-0.2c-1.1,0-2.2,1.1-2.8,2.2v8.5h-2.2v-12.3h1.7l0.2,2.1h0.1
			c0.5-1.1,1.8-2.4,3.2-2.4c0.5,0,1,0.1,1.4,0.3L322.5,295.2L322.5,295.2z"/>
	</g>
	<g>
		<path id="J_2_" class="st3" d="M331.4,305.7l-0.1-1.2h-0.1c-0.6,0.9-1.9,1.5-3.3,1.5c-2,0-3.7-1.4-3.7-3.6c0-2.3,2.1-3.4,4.3-3.4
			l2.5-0.1v-1.2c0-1.6-0.5-2.6-2.2-2.6c-1.1,0-2.1,0.4-3.1,0.9l-0.7-1.6c1-0.5,2.4-1.1,3.9-1.1c2.9,0,4.4,1.7,4.4,4.3v8.2
			L331.4,305.7L331.4,305.7z M331,300.2l-2.1,0.1c-1.6,0.1-2.3,0.8-2.3,1.9c0,1,0.6,1.9,1.7,1.9c1.1,0,1.9-0.4,2.7-1.1V300.2
			L331,300.2z"/>
	</g>
	<path class="st3" d="M340.6,305.9c-1.9,0-3.2-1.1-3.2-3.3V295h-2.1v-1.6h2.2v-3.4l2.2-0.5v4h2.8l-0.3,1.6h-2.6v7.2
		c0,1.5,0.4,1.9,1.2,1.9c0.5,0,1-0.1,1.4-0.3l0.4,1.7C342.2,305.7,341.3,305.9,340.6,305.9z M346.6,291.1c-0.7,0-1.4-0.6-1.4-1.3
		c0-0.8,0.6-1.4,1.4-1.4c0.8,0,1.4,0.6,1.4,1.4C348.1,290.6,347.3,291.1,346.6,291.1z M345.6,305.7v-12.3l2.2-0.3v12.5L345.6,305.7
		L345.6,305.7z M356.3,305.9c-3.8,0-5.2-3.2-5.2-6.4c0-3.2,1.4-6.4,5.1-6.4c3.8,0,5.2,3.2,5.2,6.4
		C361.5,302.7,360.1,305.9,356.3,305.9z M356.3,295c-2.2,0-2.8,1.9-2.8,4.6c0,2.6,0.6,4.6,2.8,4.6c2.2,0,2.9-1.9,2.9-4.6
		S358.5,295,356.3,295z"/>
	<g>
		<path id="L_1_" class="st3" d="M371.4,305.7V298c0-1.7-0.4-2.9-2.1-2.9c-1.1,0-2.1,0.7-2.9,1.7v9h-2.2v-12.3h1.9l0.2,1.4h0.1
			c0.7-0.9,2-1.7,3.2-1.7c2.8,0,4.1,1.9,4.1,4.5v8L371.4,305.7L371.4,305.7z"/>
	</g>
</g>
</svg>
