<svg xmlns="http://www.w3.org/2000/svg" xmlns:xlink="http://www.w3.org/1999/xlink" viewBox="0 0 450 475.1"><g fill="#295135"><path d="M25 245.1h3.3l.5 9h9.6L33 204.2H19.5l-4.8 49.9h9.7l.6-9zm1.6-29.8l1.4 21h-3.2c.3-4.4.8-11.4 1.8-21zm29.3 28.8h-5.6v-39.9H41v49.9h14.9zm16.7 10h8.6V236l6.8-31.8h-8.5c-1.2 7.8-2.1 14.4-2.6 19.7-.2-3.4-1-9.9-2.3-19.7h-8.5l6.5 31.8v18.1zm37.4-3.9c.9-1.6 1.4-3.2 1.6-4.7s.3-4.2.3-8v-33.3h-9.3V241c0 2.5-.1 4-.3 4.7s-.6 1-1.2 1c-.5 0-.8-.3-1-.9s-.3-2-.3-4.2v-37.5h-9.3v29.6c0 5.6.1 9.3.2 11.1.2 1.8.6 3.4 1.4 5s2.1 2.9 3.7 3.9 3.6 1.5 5.7 1.5c1.9 0 3.6-.4 5-1.3 1.5-.9 2.7-2.1 3.5-3.7zm25.4-19.4c-1.1-2.2-3.7-5-7.8-8.4-1.4-1.2-2.3-2.2-2.6-3.1-.3-.8-.5-2.1-.5-3.8 0-1.3.2-2.3.4-2.9.3-.6.7-1 1.3-1 .5 0 .9.2 1.1.7s.3 1.5.3 3.3v3.7h8.7v-1.9c0-4-.3-6.8-.8-8.4-.6-1.7-1.7-3-3.4-4.1s-3.8-1.6-6.2-1.6c-2.2 0-4.1.5-5.6 1.5-1.6 1-2.7 2.4-3.4 4.1-.7 1.8-1.1 4.6-1.1 8.4 0 2.7.3 4.8.7 6.5.5 1.8 1.1 3.1 1.9 4 .8 1 2.3 2.5 4.6 4.7 2.3 2.1 3.8 3.6 4.4 4.5s.8 2.9.8 5.8c0 1.3-.2 2.3-.5 3s-.8 1-1.4 1-1-.3-1.3-.8-.4-1.8-.4-3.6v-6.1h-8.7v3.3c0 3.7.3 6.6.8 8.7s1.7 3.7 3.4 5c1.8 1.3 3.9 2 6.4 2 2.2 0 4.2-.5 5.9-1.7s2.9-2.5 3.4-4.2c.6-1.7.9-4.3.9-7.9.3-5-.2-8.6-1.3-10.7zm25.3-5.2c.7-1.4 1-4 1-7.9 0-4.2-.5-7.3-1.4-9.3-1-1.9-2.2-3.1-3.8-3.6-1.5-.5-4.5-.7-8.8-.7h-6.5V254h9.2v-22.5c1.3 0 2 .3 2.3 1 .3.6.4 2.3.4 5v16.6h8.5v-13.2l-.2-7.4c-.2-.9-.5-1.9-1.2-3-.6-1.1-1.9-1.9-3.7-2.5 2.2-.3 3.5-1.1 4.2-2.4zm-7.5-6.3c0 2.2-.2 3.5-.6 3.9s-1.2.6-2.2.6v-11.1c1.1 0 1.8.3 2.2.7.4.5.6 1.5.6 3.1v2.8zM25.3 280.5h-1.7v13.1h6.1v-2.2h-4.4zm10.2 4.9c-.6-1-1.3-1.4-2.2-1.4-.8 0-1.5.4-2.1 1.3s-.8 2.1-.8 3.7c0 1.3.2 2.4.6 3.3.5 1.1 1.3 1.6 2.4 1.6.7 0 1.2-.3 1.7-.7.5-.5.8-1.2 1-2.1l-1.6-.4c-.1.5-.2.8-.4 1.1-.2.2-.4.3-.6.3-.4 0-.7-.2-1-.6s-.4-1-.4-1.8h4.1c.1-1.9-.2-3.4-.7-4.3zm-3 1c.3-.4.5-.6.9-.6.3 0 .6.2.8.6s.4.9.4 1.6h-2.5c0-.7.2-1.2.4-1.6z"/><use xlink:href="#H"/><path d="M47.2 287.6c-.8-.3-1.4-.5-1.5-.7s-.2-.3-.2-.5.1-.4.2-.5c.2-.2.5-.3 1-.3.3 0 .6.1.8.3s.3.5.4.8l1.5-.4c-.2-.8-.4-1.5-.8-1.9s-1.1-.6-1.9-.6c-.9 0-1.6.3-2 .8s-.6 1.2-.6 2.1c0 1 .3 1.6.7 2.2.4.4 1.2.8 2.5 1.2.3.1.4.2.5.3s.1.3.1.5c0 .3-.1.5-.2.7-.2.3-.5.4-1 .4-.4 0-.7-.1-.9-.4s-.4-.6-.4-1.1l-1.6.4c.2.9.5 1.6 1 2.1s1.2.8 2 .8c1 0 1.6-.3 2.1-1 .5-.6.7-1.4.7-2.3 0-.8-.2-1.4-.5-1.9-.4-.3-1-.6-1.9-1zm3.9-3.5h1.6v9.6h-1.6zm0-3.7h1.6v2.3h-1.6z"/><use xlink:href="#I"/><path d="M66 285.4c-.5-1-1.1-1.5-1.9-1.5s-1.4.4-1.9 1.3c-.5.8-.7 2.1-.7 3.7 0 1.3.2 2.3.6 3.2.5 1.1 1.2 1.6 2 1.6.7 0 1.4-.5 1.9-1.5v1.4c0 .6 0 1-.1 1.2-.1.3-.2.5-.3.6-.2.2-.5.3-1 .3-.3 0-.6-.1-.7-.3-.1-.1-.2-.4-.2-.7l-1.9-.4c-.1.1-.1.2-.1.3 0 .8.3 1.6.7 2.1.5.6 1.2.8 2.3.8.5 0 1-.1 1.4-.3s.7-.4.9-.7a3.2 3.2 0 0 0 .5-1.3c.1-.6.2-1.4.2-2.5v-8.6H66v1.3zm-.6 5.4c-.3.5-.6.7-1 .7s-.7-.2-1-.7-.4-1.2-.4-2.2.2-1.6.3-2.3c.3-.5.6-.7 1-.7s.7.3 1 .7c.3.5.4 1.2.4 2.2.2 1.1 0 1.9-.3 2.3zm12.2-.3v-3c0-1.1-.1-1.9-.2-2.3s-.4-.7-.7-1c-.4-.3-.9-.4-1.6-.4-.8 0-1.4.3-1.9.7-.4.5-.7 1.2-.8 2.1l1.5.4c.1-.5.3-.7.4-1 .2-.2.4-.3.7-.3.4 0 .7.1.9.3s.2.6.2 1.1v.3c-.3.2-.8.4-1.6.6-.6.2-1 .4-1.3.6s-.5.5-.7 1c-.2.4-.3.9-.3 1.4 0 .8.2 1.5.6 2s.9.8 1.5.8a1.93 1.93 0 0 0 1-.3c.3-.2.6-.5.9-1 0 .1 0 .2.1.3.1.3.1.6.2.7H78c-.2-.4-.3-.8-.3-1.3 0-.2-.1-.8-.1-1.7zm-1.7.3c-.1.3-.2.6-.4.8-.3.3-.5.4-.8.4s-.5-.1-.6-.4c-.2-.3-.3-.5-.3-.9s.1-.7.3-.9c.2-.1.4-.3.9-.4.4-.1.7-.3 1-.3v.5c0 .5 0 1-.1 1.2zm8.7-5.9c-.2-.3-.4-.6-.7-.8a1.69 1.69 0 0 0-1-.3c-.8 0-1.5.6-2.1 1.6V284h-1.5v9.6H81v-4.4l.1-2.2c.1-.4.3-.7.5-1 .3-.3.5-.4.8-.4.2 0 .4.1.6.3s.3.4.3.7c.1.3.1 1 .1 2v4.9H85v-5.9c0-.7-.1-1.3-.1-1.7l-.3-1zm6.1-4.5v4.8c-.5-.9-1.1-1.3-1.8-1.3-.8 0-1.4.4-1.9 1.3-.5.8-.7 2.1-.7 3.7s.3 2.8.8 3.7 1.1 1.3 1.9 1.3c.4 0 .7-.2 1.1-.4.3-.3.6-.7.9-1.2v1.4h1.5v-13.2h-1.8zm-.4 10.7c-.3.5-.6.7-1 .7-.5 0-.8-.4-1.1-1-.2-.5-.3-1.2-.3-2.2s.1-1.6.4-2.1.6-.7 1-.7.7.3 1 .7c.3.5.4 1.3.4 2.4.1 1-.1 1.8-.4 2.2zm7.1 2.5h1.7V288h3.7v-2.2h-3.7v-3.1h4.2v-2.3h-5.9zm7.4-9.5h1.6v9.6h-1.6zm0-3.7h1.6v2.3h-1.6zm8.7 4.5c-.2-.3-.4-.6-.7-.8a1.69 1.69 0 0 0-1-.3c-.8 0-1.5.6-2.1 1.6V284h-1.5v9.6h1.6v-4.4l.1-2.2c.1-.4.3-.7.5-1 .3-.3.5-.4.8-.4.2 0 .4.1.6.3s.3.4.3.7c.1.3.1 1 .1 2v4.9h1.7v-5.9c0-.7-.1-1.3-.1-1.7l-.3-1z"/><use xlink:href="#H" x="77.9"/><path d="M127.5 284.9c-.2-.3-.4-.6-.7-.8a1.69 1.69 0 0 0-1-.3c-.8 0-1.5.6-2.1 1.6V284h-1.5v9.6h1.7v-4.4l.1-2.2c.1-.4.3-.7.5-1 .3-.3.5-.4.8-.4.2 0 .4.1.6.3s.3.4.3.7c.1.3.1 1 .1 2v4.9h1.6v-5.9c0-.7-.1-1.3-.1-1.7 0-.3-.1-.6-.3-1zm5.6 6.4c-.2.3-.5.4-.8.4-.4 0-.7-.2-1-.7-.3-.4-.4-1.3-.4-2.4 0-1 .1-1.8.4-2.2s.6-.6 1-.6c.3 0 .5.1.7.4s.3.6.4 1.1l1.6-.4c-.2-1-.5-1.8-.9-2.4-.4-.5-1.1-.7-1.8-.7-1 0-1.7.4-2.2 1.3s-.8 2.1-.8 3.7c0 1.5.3 2.8.8 3.7s1.3 1.3 2.2 1.3c.8 0 1.4-.3 1.9-.8.5-.6.8-1.4 1-2.6l-1.6-.4c-.2.6-.3 1-.5 1.3zm3.2-10.9h1.6v2.3h-1.6zm0 3.7h1.6v9.6h-1.6z"/><use xlink:href="#I" x="85.3"/><path d="M151.2 285.4c-.5-1-1.1-1.5-1.9-1.5s-1.4.4-1.9 1.3c-.5.8-.7 2.1-.7 3.7 0 1.3.2 2.3.6 3.2.5 1.1 1.2 1.6 2 1.6.7 0 1.4-.5 1.9-1.5v1.4c0 .6 0 1-.1 1.2-.1.3-.2.5-.3.6-.2.2-.5.3-1 .3-.3 0-.6-.1-.7-.3-.1-.1-.2-.4-.2-.7l-1.9-.4c0 .1 0 .2-.1.3 0 .8.3 1.6.7 2.1.5.6 1.2.8 2.3.8.5 0 1-.1 1.4-.3s.7-.4.9-.7a3.2 3.2 0 0 0 .5-1.3c.1-.6.2-1.4.2-2.5v-8.6h-1.5v1.3zm-.5 5.4c-.3.5-.6.7-1 .7s-.7-.2-1-.7-.4-1.2-.4-2.2.2-1.6.3-2.3c.3-.5.6-.7 1-.7s.7.3 1 .7c.3.5.4 1.2.4 2.2.2 1.1 0 1.9-.3 2.3zm104.7-15v7.8H266v-68h-7.9v60.2z"/><circle cx="261.3" cy="292.2" r="4.9"/><path d="M251.1 287.3c-2.8 0-4.9 2.2-4.9 4.9 0 2.8 2.2 4.9 4.9 4.9 2.8 0 4.9-2.2 4.9-4.9.1-2.7-2.1-4.9-4.9-4.9zm1.6-3.6v-7.9H250c-1.1 0-1.9-.8-1.9-1.9v-42l-1.8 1.3c-2 1.3-4.1 2.3-6.3 3v37.7c0 1.1-.8 1.9-1.9 1.9s-1.9-.8-1.9-1.9V237l-2.1.3c-2 .2-4 .1-5.9-.3v36.9c0 1.1-.8 1.9-1.9 1.9s-1.9-.8-1.9-1.9v-37.8a9.83 9.83 0 0 0-1.6-.5c-2-.7-3.8-1.7-5.5-2.9-.3-.2-.6-.5-1-.7v42c0 1.1-.8 1.9-1.9 1.9h-2.7v7.9h2.7c2.2 0 4.3-.7 5.9-2 1.6 1.2 3.7 2 5.9 2s4.3-.7 5.9-2c1.6 1.2 3.7 2 5.9 2s4.3-.7 5.9-2c1.6 1.2 3.7 2 5.9 2h2.9zm-46.5-69.2v-3.1c0-14.3 11.6-26 26-26 14.3 0 26 11.6 26 26v1.6h7.9v-1.6c0-18.7-15.1-33.8-33.8-33.8s-33.9 15.1-33.9 33.8v72.2a6.06 6.06 0 0 1-6.1 6.1h-7.9v7.8h7.9a13.87 13.87 0 0 0 13.9-13.9h2.8v-7.9h-2.7v-61.2zm158.6 68.3s-.7-.5-1.3 0c0 0-2.4 1.8-2.3 3.9s1.1 2.8 1.9 2.8 1.8-.6 2-1.7c0 0 .2-.4.2.2 0 .5-.4 4.6-7.3 5.3 0 0-.2 0 .2.2s3.6 1.2 5.1.6 2.3-2 3-5.2c.6-3.4-.7-5.7-1.5-6.1zm-1.3 4.3c-.5 0-.9-.2-1.1-.5-.2-.4 0-1.8.9-1.6s1.1 1.1 1.1 1.2c.1.7-.3.9-.9.9zm-5.4-1.2c-.2-1.4-.6-2.7-.6-7.2l-1.8 2.1.4 4.3.4 5.1s.7-.6 1-1.2.7-1.6.6-3.1zm-38.9 6l-1.2-1.2s-.3-.3-.3-.2l-1.2 1.3-1.3-1.2c-.1-.1-1.6 1.4-1.6 1.4s-.2.2 0 .3l1.4 1.4s.1 0 .3-.1 1-1 1-1 .3-.1.4.1 1 1 1 1 .2.1.4-.1c.2-.1 1.3-1.3 1.3-1.3s0-.2-.2-.4z"/><path d="M319.3 286.9c-.2-2.5-.8-4.3-1.3-4.3 0 0-.6 1.4-1.1 1.9s-.2.7 0 1c.2.2 1.1.8 1.1 2h-10s-.7 0-.7-1-.6-6.9-.8-8.7c0 0-.1-.3-.4.1-.2.4-1.4 1.9-1.4 1.9s-.2.2-.2.9l.8 6.2c.2 1.7.4 2.7.2 3.1s-2.4 1.5-4.2 1.4-3.1-.9-3.1-2.5c-.1-1.6.5-2.8.7-3s-.3-.4-.7.3-1.3 2.6-1 4.9 2.4 3.2 5.4 2.7c3-.6 4.1-2.3 4.4-3.6l11.9-.1c0-.2.5-.7.4-3.2zm33.4-9.3s-1.1 1.6-1.1 1.9c-.1.3-.2.4.1 1s.8 3.9 1.1 5.4-.1 1.6-.1 1.6h-5.5c-.4-.1-.3-.3-.2-1 .2-.7.1-2.7.1-3.1s-.2-.3-.2-.3l-1.7 2s.3.7.2 1.4-.7 1-.7 1h-5.8c-1.4 0-1.6-1.8-1.9-2.5-.2-.7-.5-1.5-1.8-1.3-1.3.3-2.1 1.6-2.5 2.7-.4 1-.8 1.2-.8 1.2h-4.1c-.1-3.2-1.4-4.6-2.5-4.6-1.2 0-2.5 2.4-3.1 4.1s.3 2.1 1.1 2.6c.8.4 2.3.3 2.3.3-.1 2.6-4.7 3.2-5.5 3.3s-1.4.2-.9.3c.4.2 4.8 1.3 6.4 0s1.8-3.6 1.8-3.6h3.6c.7 0 1.1-.6 1.3-1s.5-.2.5-.2l3 1.6c.4.2.9.5 1.2.3s.6-.7.6-.7h7c.7-.2 1-1 1-1 .3.8 1 1 1 1h6.3c.5 0 .6-.1 1-.8.3-.8.5-1.8.5-1.8s0-.9-.2-2.4c-.2-1.4-.3-3-.3-3.4s.3-.7.6-1l.3-.3c-1.2-.6-2.1-2.7-2.1-2.7zm-27 9.8c-3.3.3-2.1-1.4-1.8-1.8.4-.4.7-.7 1.3.2.7.9.5 1.6.5 1.6zm10.5.1c-1.1-.2-2.2-1.1-2.2-1.1s.2-.3.5-.5c.4-.2.7-.4 1.3.2.7.6.4 1.4.4 1.4zm36.4-6.9s.1 0 .3-.1 1-1 1-1 .3-.1.4.1 1 1 1 1 .2.1.4-.1c.2-.1 1.3-1.3 1.3-1.3s.1-.3-.1-.5l-1.2-1.2s-.3-.3-.3-.2l-1.2 1.3-1.3-1.2c-.1-.1-1.6 1.4-1.6 1.4s-.2.2 0 .3c0 .2 1.3 1.5 1.3 1.5zm-29.5 1.2s.1 0 .3-.1 1-1 1-1 .3-.1.4.1 1 1 1 1 .2.1.4-.1c.2-.1 1.3-1.3 1.3-1.3s.1-.3-.1-.5l-1.2-1.2s-.3-.3-.3-.2l-1.2 1.3-1.3-1.2c-.1-.1-1.6 1.4-1.6 1.4s-.2.2 0 .3c0 .3 1.3 1.5 1.3 1.5zm31.7.8c-.8-.5-1.6-.5-1.8-.3l-1.1 2.3.7.1s-.9 1.6-1.6 3.6c-.6 2 2 2.2 4 1.5s2.6-1.9 2.6-3.6c0-1.8-2-3.1-2.8-3.6zm0 4.9c-.9.3-2.3.4-2.3-.7s.8-1.9.8-1.9 1.5.4 2.1 1.1c.7.9.3 1.2-.6 1.5zm23.5-4.4c-2 .2-3.1 2.8-3.1 2.8-.1.3.1.2.7-.3s1.9-.2 2.9.2l1.9.8c-1.2.7-2.8.7-2.8.7h-8.1c-.7 0-.6-1.1-.8-2.8l-.6-6.4c0-.4-.2-.3-.2-.3-.5.8-1.6 2-1.6 2 0 .4.1 1.1.1 1.1.7 2.7.7 6.3.9 7.7.2 1.5.8 1.2.8 1.2h8c2.4 0 1.9.1 4-1s4.1-.5 4.3-.4c.3.2.7.2.8 0s1.5-2.2 1.5-2.2c-1-.2-1.5-.3-3.7-1.1-2-.6-3-2.2-5-2zm28.1-2.9c-1.1-.6-1.7-2.6-1.7-2.6-.4.4-.9 1.5-1.2 1.8s-.2.4-.2.4c.6 1.7.9 3.6 1.2 5.4s.4 2.2.2 2.2c-.3 0-4.5.2-5-.1s-.5-1.9-.6-4l-.4-5.8c-.1-.3-.2-.2-.2-.2l-1.4 1.4c-.2.2-.2.5-.2.5a11.56 11.56 0 0 1 .4 4.4c-.2 1.6-1.3 2.5-1.5 2.9-.2.3-.3.2-.3.2s.1-1.8-1.4-4.4c-1.8-3.1-3.6-4-4.2-4.4s-.6.6-.8 1.1c-.1.6-.1 1.4 0 1.6s1.2 1.3 1.9 1.8c.6.5.7.1.8-.2.2-.3.3-.2.4 0s.8 1 .8 1c1.3 1.7 1.7 4 1.7 4-2 2.9-5.6 3.5-5.6 3.5v.4s1.4 0 2.9-.3c1.4-.3 2.4-.5 3.9-2s1.8-3.8 1.8-3.8c.4.3.3 2.4.3 3.6s.6 1.4.6 1.4h6.2c.3 0 .7-.3 1-1.1.2-.8.4-2 .3-3.2-.2-1.2-.4-3.9-.4-4.2 0-.4.1-.3.2-.5 0-.3.5-.8.5-.8zm-14.6 13.3c-.7-.2-.6-.6 0-.8s1 .4 1 .4l.4-.7c-.6-.6-1.3-.6-1.8-.1s-1 1.2-.7 1.6 1 .4 1 .4l-.6.3c-.4.2-.6 1-.4.7.3-.3.9-.5 1.4-.6.4-.2.7-.1 1.1-.5l.6-.6c-.6.1-1.2.1-2-.1zm-29.6-7.2c-.1 0 1.2 1.1 1.6 1.9.5.8.6.8-.3 1.9-.8 1.1-2.8 3.2-6.8 3 0 0-.1.2.3.3.3.1 4.3 1 5.3.7 1-.2 2.5-1.8 2.9-4.2s.5-3-2.2-5.9l-.8 2.3zm14.7 5c-.2-.2-.3 0-.3 0s-1 .7-1.2 1c-.3.3-.1.5-.1.5l1 1.1c.2.2.6 0 .6 0l1.1-1c.3-.3.1-.5.1-.5l-1.2-1.1zm37.8-79.5c-.2-3.2 0-6.4-.6-5.8l-2.8 8c-.4 1.3-.5 1.8-.5 2.7 0 1 0 3.3.5 7.6s.6 8.8.8 12.3.2 6.3.2 6.8.5.5 1.1-1.4 1.8-4.9 1.8-10.8-.4-16.2-.5-19.4zm-36.8 44.7c.6-.8 2.2-3.9 2.2-3.9 1.6 2 3.7 3.9 3.7 3.9 1.2-1.8 3.1-5.7 3.1-5.7-1.9-1.6-3.9-4.9-3.9-4.9-.3.5-1.4 2-1.9 3.2s-.6 1.1-.6 1.1c-.3-.5-1.2-1.7-1.8-2.3s-1.5-2-1.5-2c-1 1.2-3.3 6.2-3.3 6.2 1 1.8 4 4.4 4 4.4zm26.2-47.1c-.4-.7-.9-1.3-.9-2.3s.1-2.5-.4-1.7l-2.7 7.6c-.3 1-.1 1.4.3 2.3.4 1 .9 2.2 1.2 5.9.3 3.8.6 7.6.6 10H403s-.9 0-.8-2.4l.1-8.4s.1-1.3-.5-2.2l-3.5 6.3.1 4.5c0 1.1.1 1.9.2 2.4h-29.3s-.6 0-.6-2-.1-5-.4-7.1h-.3s-1.1 3-2.1 4.9v2.9s-.1 1 .2 1.3h-3.2s.3-1.3.6-2.4.4-4.1.4-7.2c0 0-.3-.2-.6.4-.3.5-.9 2.2-1.4 3.6s-.8 1.8-1.1 3c-.2 1.2-.2 2.6-.2 2.6h-4.4s.6-3.4 1.1-5.4c.5-1.9.3-2.4.3-3.2v-1.3s-.3 0-.5.4-1.8 4.1-2.3 5.7-.6 2.5-.6 3.8h-48.8s-1.6.3-2.4-1.4c-.8-1.6-3-7.2-3.1-8 0 0-.2 0-.4.6l-1.8 5.3c-.2.6-.5 1.5-.4 1.9s1.3 3.2 2.1 5.5c.7 2.3 1.5 3.6-.5 6.8s-3.6 6.3-6.5 6.4c-2.9.2-3.3-1.3-3.6-1.4 0 0-.6.1-.4.7.2.7 2.4 3.8 4.5 5.4 2.1 1.5 3.4 3.3 5.3 1.1s3.9-7.8 4.6-12c0 0 .3.5 1.3.5h49.5s.6-.2 1-1.2c0 0 .4 1.1.8 1.3h5.1s.6-.5.8-1.5c0 0 .3 1.3.9 1.6h4.7s.6-1.1.6-1.8c0 0 .3 1.3.7 1.8h29.5s.6-1.1 1.4-3.9c0 0 .3 3.7 2.3 4h21.9s1.3-2 1.5-5.5c.3-3.4 0-10.3 0-16.4l2.4-6c.2-.3-.1-.8-.4-1.5-.3-.9-2.3-3.6-2.7-4.3z"/></g><radialGradient id="A" cx="232.628" cy="205.718" r="32.632" fx="232.612" fy="205.719" gradientTransform="matrix(1 0 0 0.8993 0 20.7237)" gradientUnits="userSpaceOnUse"><stop offset="0" stop-color="#fdf286"/><stop offset=".111" stop-color="#fbef83"/><stop offset=".201" stop-color="#f7e57c"/><stop offset=".284" stop-color="#eed46e"/><stop offset=".363" stop-color="#e3bb5b"/><stop offset=".438" stop-color="#d49d43"/><stop offset=".472" stop-color="#cc8c36"/><stop offset=".712" stop-color="#c7812d"/><stop offset=".847" stop-color="#deda2d"/></radialGradient><path d="M225.6 195.1c-1.3.5-2.7 1.2-3.8 2-.8.6-1.6 1.2-2.4 2-.6.6-1.1 1.2-1.6 1.8a34.47 34.47 0 0 0-2 3.2c-.5 1-.8 2.1-1.1 3.1-.3 1.3-.5 2.7-.6 4-.1 2.2.3 4.5 1 6.6.5 1.4 1.2 2.7 2 3.9.2.2.3.4.4.6a12.45 12.45 0 0 0 1.9 2.1c.7.7 1.5 1.4 2.4 2 1.2.8 2.5 1.5 3.8 2 2.5 1 5.2 1.4 7.9 1.2 3-.2 5.9-1.1 8.5-2.8 1.1-.7 2-1.5 2.9-2.4l1.9-2.1c.2-.2.3-.4.4-.6.8-1.2 1.5-2.5 2-3.9.7-2.1 1.1-4.4 1-6.6-.1-1.4-.3-2.7-.6-4-.3-1.1-.6-2.1-1.1-3.1-.5-1.1-1.2-2.2-2-3.2-.5-.6-1-1.3-1.6-1.8-.9-.9-1.9-1.7-2.9-2.4-2.6-1.7-5.5-2.6-8.5-2.8-.4-.1-.8-.1-1.3-.1-2.2.1-4.5.5-6.6 1.3" fill="url(#A)"/><radialGradient id="B" cx="-199.802" cy="358.392" r="32.632" fx="-199.818" fy="358.392" gradientTransform="matrix(0.7219 0 0 0.4687 376.7453 32.0005)" gradientUnits="userSpaceOnUse"><stop offset="0" stop-color="#fff"/><stop offset=".098" stop-color="#fffffc"/><stop offset=".178" stop-color="#fdfdf2"/><stop offset=".252" stop-color="#fbfbe1"/><stop offset=".321" stop-color="#f7f8c8"/><stop offset=".389" stop-color="#f3f4a9"/><stop offset=".453" stop-color="#eeef84"/><stop offset=".472" stop-color="#eced77"/></radialGradient><path d="M227.4 194.4c-1 .3-1.9.6-2.8 1.1-.6.3-1.2.6-1.7 1l-1.1.9a11.51 11.51 0 0 0-1.4 1.7 11.94 11.94 0 0 0-.8 1.6c-.2.7-.4 1.4-.4 2.1a8.75 8.75 0 0 0 .7 3.5c.3.7.8 1.4 1.4 2l.3.3c.4.4.8.8 1.3 1.1.5.4 1.1.7 1.7 1l2.8 1.1c1.8.5 3.8.7 5.7.6 2.1-.1 4.3-.6 6.1-1.5.8-.4 1.5-.8 2.1-1.2l1.3-1.1.3-.3c.6-.6 1.1-1.3 1.4-2 .5-1.1.8-2.3.7-3.5 0-.7-.2-1.4-.4-2.1-.2-.6-.5-1.1-.8-1.6-.4-.6-.8-1.2-1.4-1.7-.3-.3-.7-.7-1.1-.9-.7-.5-1.3-.9-2.1-1.2-1.9-.9-4-1.4-6.1-1.5h-.9c-1.6 0-3.3.2-4.8.6" fill="url(#B)"/><radialGradient id="C" cx="1095.592" cy="1628.7" r="32.632" fx="1095.577" fy="1628.7" gradientTransform="matrix(3.7399 0 0 0.113 -3733.27 81.9775)" gradientUnits="userSpaceOnUse"><stop offset="0" stop-color="#fdf286"/><stop offset=".111" stop-color="#fbef83"/><stop offset=".201" stop-color="#f7e57c"/><stop offset=".284" stop-color="#eed46e"/><stop offset=".363" stop-color="#e3bb5b"/><stop offset=".438" stop-color="#d49d43"/><stop offset=".472" stop-color="#cc8c36"/><stop offset=".712" stop-color="#c7812d"/><stop offset=".847" stop-color="#deda2d"/></radialGradient><use xlink:href="#J" fill="url(#C)"/><radialGradient id="D" cx="995.531" cy="3088.357" r="32.632" fx="995.515" fy="3088.357" gradientTransform="matrix(2.7 0 0 5.887732e-02 -2324.283 83.394)" gradientUnits="userSpaceOnUse"><stop offset="0" stop-color="#fff"/><stop offset=".098" stop-color="#fffffc"/><stop offset=".178" stop-color="#fdfdf2"/><stop offset=".252" stop-color="#fbfbe1"/><stop offset=".321" stop-color="#f7f8c8"/><stop offset=".389" stop-color="#f3f4a9"/><stop offset=".453" stop-color="#eeef84"/><stop offset=".472" stop-color="#eced77"/></radialGradient><path d="M344.7 264.5l-10.3.1-6.4.1-4.3.1-5.3.2-3 .2c-.9.1-1.4.2-1.6.3-.1.1.7.3 2.7.4l5.3.3h1.1l5 .1 6.4.1c3.3.1 6.7.1 10.3.1l21.3.1 22.9-.2c2.9 0 5.4-.1 7.9-.2 1.9 0 3.4-.1 5-.1h1.1l5.3-.3c2-.1 3-.3 2.7-.4-.1-.1-.7-.2-1.6-.3-.7-.1-1.7-.1-3-.2-1.4-.1-3.2-.1-5.3-.2-1.3 0-2.7-.1-4.3-.1-2.4-.1-5-.1-7.9-.2l-22.9-.2h-3.4c-6 .3-12.1.3-17.7.3" fill="url(#D)"/><radialGradient id="E" cx="1022.129" cy="1632.081" r="32.632" fx="1022.113" fy="1632.081" gradientTransform="matrix(3.7399,0,0,0.113,-3458.47,81.6203)" gradientUnits="userSpaceOnUse"><stop offset="0" stop-color="#fdf286"/><stop offset=".111" stop-color="#fbef83"/><stop offset=".201" stop-color="#f7e57c"/><stop offset=".284" stop-color="#eed46e"/><stop offset=".363" stop-color="#e3bb5b"/><stop offset=".438" stop-color="#d49d43"/><stop offset=".472" stop-color="#cc8c36"/><stop offset=".712" stop-color="#c7812d"/><stop offset=".847" stop-color="#deda2d"/></radialGradient><use xlink:href="#J" x="-274.8" y="0.4" fill="url(#E)"/><radialGradient id="F" cx="893.773" cy="3094.843" r="32.632" fx="893.757" fy="3094.844" gradientTransform="matrix(2.7 0 0 5.887732e-02 -2324.283 83.4368)" gradientUnits="userSpaceOnUse"><stop offset="0" stop-color="#fff"/><stop offset=".098" stop-color="#fffffc"/><stop offset=".178" stop-color="#fdfdf2"/><stop offset=".252" stop-color="#fbfbe1"/><stop offset=".321" stop-color="#f7f8c8"/><stop offset=".389" stop-color="#f3f4a9"/><stop offset=".453" stop-color="#eeef84"/><stop offset=".472" stop-color="#eced77"/></radialGradient><path d="M69.9 265l-10.3.1-6.4.1-4.3.1-5.3.2-3 .2c-.9.1-1.4.2-1.6.3-.1.1.7.3 2.7.4l5.3.3h1.1l5 .1 6.4.1c3.3.1 6.7.1 10.3.1l21.3.1 22.9-.2c2.9 0 5.4-.1 7.9-.2 1.9 0 3.4-.1 5-.1h1.1l5.3-.3c2-.1 3-.3 2.7-.4-.1-.1-.7-.2-1.6-.3-.7-.1-1.7-.1-3-.2-1.4-.1-3.2-.1-5.3-.2-1.3 0-2.7-.1-4.3-.1-2.4-.1-5-.1-7.9-.2l-22.9-.2h-3.4c-5.9.2-12.1.2-17.7.3" fill="url(#F)"/><defs ><path id="H" d="M42.7 290.5v-3c0-1.1-.1-1.9-.2-2.3s-.4-.7-.7-1c-.4-.3-.9-.4-1.6-.4-.8 0-1.4.3-1.9.7-.4.5-.7 1.2-.8 2.1l1.5.4c.1-.5.2-.7.4-1 .2-.2.4-.3.7-.3.4 0 .7.1.9.3s.2.6.2 1.1v.3c-.3.2-.8.4-1.6.6-.6.2-1 .4-1.3.6s-.5.5-.7 1c-.2.4-.3.9-.3 1.4 0 .8.2 1.5.6 2s.9.8 1.5.8a1.93 1.93 0 0 0 1-.3c.3-.2.6-.5.9-1 0 .1 0 .2.1.3.1.3.1.6.2.7h1.6c-.2-.4-.3-.8-.3-1.3-.2-.2-.2-.8-.2-1.7zm-1.7.3c-.1.3-.2.6-.4.8-.3.3-.5.4-.8.4s-.5-.1-.6-.4c-.2-.3-.3-.5-.3-.9s.1-.7.3-.9c.2-.1.4-.3.9-.4.4-.1.7-.3 1-.3v.5c-.1.5-.1 1-.1 1.2z"/><path id="I" d="M59.8 284.9c-.2-.3-.4-.6-.7-.8a1.69 1.69 0 0 0-1-.3c-.8 0-1.5.6-2.1 1.6V284h-1.5v9.6h1.6v-4.4l.1-2.2c.1-.4.3-.7.5-1 .3-.3.5-.4.8-.4.2 0 .4.1.6.3s.3.4.3.7.1 1 .1 2v4.9h1.7v-5.9c0-.7-.1-1.3-.1-1.7l-.3-1z"/><path id="J" d="M337.9 264.6l-14.3.3-8.9.2-6 .2-7.3.4-4.2.4c-1.2.2-2 .3-2.2.5-.2.3 1 .6 3.8.8l7.3.5c.6 0 1 .1 1.6.1l6.9.3 23.2.5 29.6.1 31.8-.4 10.9-.3 6.9-.3c.6 0 1 0 1.6-.1l7.3-.5c2.8-.3 4.2-.6 3.8-.8-.2-.2-1-.3-2.2-.5l-4.2-.4-7.3-.4-6-.2-10.9-.3-31.8-.4h-4.8l-24.6.3"/></defs></svg>