<?xml version="1.0" encoding="utf-8"?>
<!-- Generator: Adobe Illustrator 24.1.2, SVG Export Plug-In . SVG Version: 6.00 Build 0)  -->
<svg version="1.1" id="Layer_1" xmlns="http://www.w3.org/2000/svg" xmlns:xlink="http://www.w3.org/1999/xlink" x="0px" y="0px"
	 viewBox="0 0 450 475.1" style="enable-background:new 0 0 450 475.1;" xml:space="preserve">
<style type="text/css">
	.st0{fill:#018592;}
	.st1{fill:#0994A1;}
	.st2{fill:#7ECFD2;}
	.st3{fill:#57C4C7;}
	.st4{fill:#525254;}
</style>
<path class="st0" d="M387,286.8l-15.2-16.3h-48l-15.6,16.3h-20.6c14.2,17.3,35.8,28.3,60,28.3s45.7-11,60-28.3H387z"/>
<path class="st1" d="M387,251.4l-15.2-16.3h-48l-15.6,16.3h-37c1.7,9.4,5,18.3,9.8,26.2h23.6l13.2-14.5c1.5-1.5,4.1-1.8,4.1-1.8
	h50.4c3,0,5,1.9,5,1.9l13.4,14.3H414c4.8-7.9,8.1-16.7,9.8-26.2H387L387,251.4z"/>
<path class="st2" d="M304.7,206.7l13.2-14.5c1.5-1.5,4.1-1.8,4.1-1.8h50.4c3,0,5,1.9,5,1.9l13.4,14.3h27.9
	c-11.9-27.5-39.3-46.7-71.2-46.7s-59.2,19.2-71.2,46.7h28.4L304.7,206.7z"/>
<path class="st3" d="M387,215.9l-15.2-16.3h-48l-15.6,16.3h-35.1c-1.9,6.9-3.1,14.1-3.1,21.6c0,1.5,0,3.1,0.1,4.6h34.5l13.2-14.5
	c1.5-1.5,4.1-1.8,4.1-1.8h50.4c3,0,5,1.9,5,1.9l13.4,14.3h34.2c0.1-1.5,0.1-3,0.1-4.6c0-7.6-1-14.8-3.1-21.6H387V215.9z"/>
<g>
	<path class="st4" d="M33.3,300.3c-6.2,0-8.5-3-8.5-7.6c0-4.3,2.7-8,8-8c4.6,0,6.9,2.6,6.9,7.2v8.2h-6.4V300.3z M36.9,292.6
		c0-3.9-1.6-5.4-4.2-5.4c-3,0-4.8,2.2-4.8,5.4c0,3.7,1.7,5.5,5.8,5.5h3.2C36.9,298.1,36.9,292.6,36.9,292.6z M28.7,280.5
		c0-0.9,0.7-1.7,1.6-1.7c0,0,0,0,0.1,0c0.9,0,1.7,0.7,1.7,1.6c0,0,0,0,0,0.1c0,0.9-0.8,1.7-1.7,1.7
		C29.5,282.3,28.7,281.5,28.7,280.5C28.7,280.6,28.7,280.6,28.7,280.5z M33.4,280.5c0-0.9,0.8-1.7,1.7-1.7c0.9,0,1.7,0.8,1.7,1.7
		s-0.8,1.7-1.7,1.7C34.2,282.2,33.4,281.5,33.4,280.5z M38.5,308.1l0.3-2.4c1,0.4,2.1,0.6,3.2,0.6c2.6,0,4.2-1.3,4.2-5.5v-15.6h3
		v15.3c0,4.6-1.7,8.1-7.4,8.1C40.7,308.6,39.5,308.5,38.5,308.1z M55.1,277.7h3v20.4h3.5v2.4h-6.5V277.7z"/>
	<path class="st4" d="M61.2,298.1h13.3l0.2-3.3c0-4.8-1.7-7.2-7.1-7.2c-1.3,0-2.4,0.1-3.5,0.2v-2.3c1.3-0.1,2.5-0.2,3.8-0.2
		c7.1,0,9.7,3.2,9.7,9.4c0,2-0.2,3.9-0.6,5.8H61.2V298.1L61.2,298.1z M67,305.2c0-0.9,0.8-1.7,1.7-1.7c0.9,0,1.7,0.7,1.7,1.6
		c0,0,0,0,0,0.1c0,0.9-0.8,1.7-1.7,1.7C67.8,306.9,67.1,306.2,67,305.2C67,305.2,67,305.2,67,305.2z M89.4,295.1h-3l-5.2-17.3l3-0.5
		L89.4,295.1z M82.6,300.3v-2.4h10v-20.4h3v22.7H82.6L82.6,300.3z M83,306.8c0.7,0,1.4,0,1.8,0.1c-0.3-0.2-0.6-0.7-0.6-1.1
		c0-1.6,1.3-2.9,3.8-2.9c0.7,0,1.4,0.1,1.7,0.1l-0.3,1.8c-0.5-0.1-1-0.2-1.5-0.2c-0.9,0-1.5,0.5-1.5,1c0,0.7,0.7,1.1,2.2,1.1h1.9
		v1.7H83L83,306.8L83,306.8z M101.6,277.7h3v22.7h-3V277.7z M109.3,308l0.2-2.5c0,0,2.7,0.6,5.2,0.6c3.5,0,6.2-1.4,6.2-5v-0.8h-3.2
		c-6.2,0-8.5-3-8.5-7.6c0-4.2,2.6-8,8.1-8c3.5,0,6.5,1.1,6.5,1.1v15c0,3.8-2.4,7.6-9.4,7.6C111.9,308.5,109.3,308,109.3,308
		L109.3,308z M120.8,288c0,0-1.6-0.7-3.9-0.7c-3,0-4.8,2.2-4.8,5.3c0,3.7,1.7,5.5,5.8,5.5h2.9L120.8,288L120.8,288z M149.1,277.7h3
		v20.4h3.4v2.4H152c-0.6,5.3-3.7,7.4-7.9,7.4c-4.5,0-7.9-2.4-7.9-9c0-2.1,0.3-4.2,0.8-6.1l3.1-0.6c-0.6,2.2-0.9,4.4-0.9,6.4
		c0,5.5,2.7,6.9,5.3,6.9c2.6,0,4.7-1.6,4.7-6.8L149.1,277.7L149.1,277.7z"/>
	<path class="st4" d="M155.1,298.1h6.5v-12.8h3v15.1h-9.4v-2.3H155.1z M157.8,306.9c-0.9,0-1.7-0.8-1.7-1.7s0.8-1.7,1.7-1.7
		c0.9,0,1.7,0.7,1.7,1.6c0,0,0,0,0,0.1C159.5,306.1,158.8,306.8,157.8,306.9z M162.6,306.9c-0.9,0-1.7-0.7-1.7-1.6c0,0,0,0,0-0.1
		c0-0.9,0.8-1.7,1.7-1.7c0.9,0,1.7,0.7,1.7,1.6c0,0,0,0,0,0.1C164.2,306.1,163.5,306.9,162.6,306.9z M168.9,308l0.2-2.5
		c0,0,2.7,0.6,5.2,0.6c3.5,0,6.2-1.4,6.2-5v-0.8h-3.2c-6.2,0-8.5-3-8.5-7.6c0-4.2,2.6-8,8.1-8c3.5,0,6.5,1.1,6.5,1.1v12h3.5v2.4
		h-3.5v0.6c0,3.8-2.4,7.6-9.4,7.6C171.6,308.5,168.9,308,168.9,308z M180.5,288c0,0-1.6-0.7-3.9-0.7c-3,0-4.8,2.2-4.8,5.3
		c0,3.7,1.7,5.5,5.8,5.5h2.9L180.5,288L180.5,288z"/>
	<path class="st4" d="M191.2,297.6c-0.7,1.7-2.2,2.7-4.2,2.7h-0.5v-2.4h0.6c1.6,0,2.9-0.9,2.9-4.7c0-4.7,2.7-8.4,7.9-8.4
		c4.8,0,7.1,2.7,7.1,7.7v5.5h3.2v2.4H198C194.2,300.3,192.3,299.3,191.2,297.6L191.2,297.6z M202,293c0-4.1-1.6-5.7-4.5-5.7
		c-2.9,0-4.7,2.2-4.7,5.7c0,3.4,1.6,5,5.5,5h3.7V293z"/>
	<path class="st4" d="M207.6,298.1h4.7v-12.8h3v12.8h3.3v2.4h-11V298.1z M209.2,280.5c0-0.9,0.8-1.7,1.7-1.7s1.7,0.8,1.7,1.7
		c0,0.9-0.8,1.7-1.7,1.7C210,282.3,209.2,281.5,209.2,280.5C209.2,280.6,209.2,280.6,209.2,280.5z M213.9,280.5
		c0-0.9,0.8-1.7,1.7-1.7c0.9,0,1.7,0.8,1.7,1.7s-0.8,1.7-1.7,1.7C214.7,282.2,213.9,281.5,213.9,280.5z"/>
	<path class="st4" d="M218,298.1h4.5v-20.4h3v20.4h3.5v2.4h-11V298.1z"/>
	<path class="st4" d="M228.6,298.1h4.5v-20.4h3v22.7h-7.4V298.1z M222.5,210.4H217v-1c0-0.5,0.1-0.9,0.5-1.3
		c0.3-0.3,0.6-0.5,0.8-0.5s0.5,0,0.8,0.1c0.3,0.1,0.7,0.3,1,0.7l2.2-2.4c-0.6-0.6-1.3-1-1.8-1.3c-0.7-0.2-1.4-0.3-1.9-0.3
		c-1.4,0-2.6,0.5-3.5,1.4c-0.9,0.9-1.4,2.5-1.4,4.6H211v3.3h11.4L222.5,210.4L222.5,210.4z M230.2,222.3c1,0,1.8-0.3,2.6-1.1
		c0.7-0.7,1-1.6,1-2.5c0-1-0.3-1.9-1-2.6s-1.6-1-2.6-1c-0.9,0-1.8,0.3-2.5,1s-1,1.6-1,2.6c0,0.9,0.3,1.8,1,2.5
		C228.4,221.9,229.2,222.3,230.2,222.3z M242.3,216c-0.7-0.7-1.6-1-2.5-1c-0.9,0-1.8,0.3-2.5,1s-1,1.6-1,2.6c0,0.9,0.3,1.8,1,2.5
		c0.7,0.7,1.6,1.1,2.5,1.1c1,0,1.8-0.3,2.5-1.1c0.7-0.7,1-1.6,1-2.5C243.4,217.6,243,216.8,242.3,216z M235.8,244.5h-12.4
		c-0.9,0-1.5-0.2-1.8-0.7c-0.3-0.5-0.5-1-0.5-1.7V216h-6.9v27.1c0,1,0.1,1.9,0.3,2.9c0.2,0.9,0.7,1.7,1.4,2.4
		c0.6,0.7,1.4,1.3,2.4,1.7c0.9,0.5,2.2,0.7,3.5,0.7h20.3v-24.2h-6.4L235.8,244.5L235.8,244.5z"/>
	<g>
		<path id="B" class="st4" d="M194.3,256.2c-0.9,0-1.8,0.3-2.5,1s-1,1.6-1,2.6c0,0.9,0.3,1.8,1,2.5s1.6,1.1,2.5,1.1
			c1,0,1.8-0.3,2.5-1.1c0.7-0.7,1-1.6,1-2.5c0-1-0.3-1.9-1-2.6S195.3,256.2,194.3,256.2z"/>
	</g>
	<g>
		<path id="B_1_" class="st4" d="M175.8,256.2c-0.9,0-1.8,0.3-2.5,1s-1,1.6-1,2.6c0,0.9,0.3,1.8,1,2.5s1.6,1.1,2.5,1.1
			c1,0,1.8-0.3,2.5-1.1c0.7-0.7,1-1.6,1-2.5c0-1-0.3-1.9-1-2.6S176.7,256.2,175.8,256.2z"/>
	</g>
	<path class="st4" d="M166.3,256.2c-0.9,0-1.8,0.3-2.5,1s-1,1.6-1,2.6c0,0.9,0.3,1.8,1,2.5s1.6,1.1,2.5,1.1c1,0,1.8-0.3,2.5-1.1
		c0.7-0.7,1-1.6,1-2.5c0-1-0.3-1.9-1-2.6S167.3,256.2,166.3,256.2z M204.6,230.2c-1.1-1.3-2.6-2.3-4.2-3c-1.7-0.7-3.5-1-5.7-1
		c-2.4,0-4.7,0.6-6.9,1.6c-0.8,0.3-1.5,0.8-2.2,1.3l2.9,5.5c0.7-0.5,1.4-0.9,2.2-1.1c1.4-0.6,2.7-0.8,4-0.8s2.3,0.2,3.1,0.8
		c0.8,0.6,1.5,1.3,1.9,2.1c0.6,0.9,0.9,1.9,1,3c0.2,1.1,0.3,2.3,0.3,3.4v2.9h-33.4v-10.1c0,0-0.1-8-8.6-8h-14.2v21.8
		c0,2.4-0.7,4.4-2.1,5.7c-1.4,1.4-3.1,2.1-5.2,2.1c-0.3,0-0.8,0-1.4-0.1c-0.6,0-1.4-0.1-2.2-0.3c-0.3-0.1-0.8-0.2-1.3-0.3v5.5
		c0.2,0.1,0.3,0.1,0.6,0.2c0.6,0.2,1.3,0.3,1.9,0.6l1.9,0.3c0.6,0.1,1.3,0.1,1.7,0.1c1.3,0,2.6-0.2,4-0.6c1.4-0.3,2.6-0.9,3.9-1.7
		c1.2-0.8,2.2-1.9,3-3.1c0.8-1.3,1.4-2.9,1.6-4.7l0.2-6.2v-12.9h7.3c0,0,2.9-0.3,2.9,4.5v13.5h46.1v-9.6c0.1-2.1-0.2-4.2-0.8-6.2
		C206.6,233,205.8,231.4,204.6,230.2L204.6,230.2z"/>
</g>
</svg>
