<svg  xmlns="http://www.w3.org/2000/svg" width="73.308" height="85.241" viewBox="0 0 73.308 85.241">
<g id="Group_46" data-name="Group 46" transform="translate(0 0)" opacity="0.8">
<g id="Group_45" data-name="Group 45">
<g id="Group_44" data-name="Group 44">
<path id="Path_54" data-name="Path 54" d="M1240.98,1592.464a58.208,58.208,0,0,1-21.549,9.663c-1.547,27.078,21.535,41.1,21.549,41.087.016.009,23.1-14.009,21.551-41.087C1250.8,1599.779,1240.98,1592.464,1240.98,1592.464Z" transform="translate(-1204.326 -1575.202)" fill="#a58f33"/>
<path id="Path_55" data-name="Path 55" d="M1281.932,1597.782a2.269,2.269,0,0,0-1.818-2.094c-17.914-3.585-33.21-14.849-33.361-14.961a2.26,2.26,0,0,0-2.724.014c-.6.459-14.979,11.272-33.344,14.948a2.268,2.268,0,0,0-1.817,2.094c-1.472,25.759,10.614,44.291,21.014,55.3a86.235,86.235,0,0,0,9.948,9.022c1.368,1.051,2.473,1.824,3.159,2.288,1.28.865,1.648,1.113,2.355,1.126h.086c.7,0,1.118-.282,2.227-1.024.6-.4,1.572-1.075,2.785-1.991a85.028,85.028,0,0,0,8.942-7.838,80.771,80.771,0,0,0,15.852-22.323A70.476,70.476,0,0,0,1281.932,1597.782Zm-19.845,47.053a79.361,79.361,0,0,1-16.688,15.716,79.417,79.417,0,0,1-16.689-15.72c-10.764-13.5-15.94-28.657-15.4-45.069,15.507-3.5,28.048-11.6,32.1-14.434,4.105,2.827,16.863,10.981,32.074,14.433C1278.03,1616.175,1272.854,1631.332,1262.087,1644.835Z" transform="translate(-1208.746 -1580.278)" fill="#a58f33"/>
</g>
</g>
</g>
</svg>
