 <svg xmlns="http://www.w3.org/2000/svg" width="95.184" height="84.667" viewBox="0 0 95.184 84.667">
              <g id="Group_49" data-name="Group 49" transform="translate(0 0)" opacity="0.8">
                <g id="Group_48" data-name="Group 48">
                  <g id="Group_47" data-name="Group 47">
                    <path id="Path_56" data-name="Path 56" d="M914.45,1620.734a59.282,59.282,0,0,0,7.707-.494v-26.823a59.325,59.325,0,0,0-7.707-.494c-15.277,0-27.66,5.617-27.66,12.546v2.719C886.79,1615.116,899.173,1620.734,914.45,1620.734Z" transform="translate(-886.79 -1571.651)" fill="#a58f33"/>
                    <path id="Path_57" data-name="Path 57" d="M914.45,1627.706a59.282,59.282,0,0,0,7.707-.495v-7.861a59.337,59.337,0,0,1-7.707.5c-13.335,0-24.464-4.281-27.078-9.977a6.116,6.116,0,0,0-.582,2.57v2.721C886.79,1622.09,899.173,1627.706,914.45,1627.706Z" transform="translate(-886.79 -1564.593)" fill="#a58f33"/>
                    <path id="Path_58" data-name="Path 58" d="M922.157,1629.862v-.611a59.234,59.234,0,0,1-7.707.5c-13.335,0-24.464-4.279-27.078-9.975a6.115,6.115,0,0,0-.582,2.57v2.72c0,6.929,12.383,12.546,27.66,12.546a58.721,58.721,0,0,0,8.74-.64,9.891,9.891,0,0,1-1.033-4.384Z" transform="translate(-886.79 -1560.469)" fill="#a58f33"/>
                    <path id="Path_59" data-name="Path 59" d="M942.6,1577.906c-15.273,0-27.654,5.615-27.654,12.542v2.721c0,6.927,12.381,12.542,27.654,12.542s27.653-5.615,27.653-12.542v-2.721C970.249,1583.521,957.868,1577.906,942.6,1577.906Z" transform="translate(-875.065 -1577.906)" fill="#a58f33"/>
                    <path id="Path_60" data-name="Path 60" d="M942.6,1604.827c-13.332,0-24.459-4.279-27.072-9.974a6.109,6.109,0,0,0-.582,2.568v2.721c0,6.927,12.381,12.542,27.654,12.542s27.653-5.615,27.653-12.542v-2.721a6.111,6.111,0,0,0-.582-2.568C967.054,1600.547,955.927,1604.827,942.6,1604.827Z" transform="translate(-875.065 -1570.847)" fill="#a58f33"/>
                    <path id="Path_61" data-name="Path 61" d="M942.6,1614.727c-13.332,0-24.459-4.279-27.072-9.974a6.107,6.107,0,0,0-.582,2.568v2.721c0,6.927,12.381,12.542,27.654,12.542s27.653-5.615,27.653-12.542v-2.721a6.109,6.109,0,0,0-.582-2.568C967.054,1610.448,955.927,1614.727,942.6,1614.727Z" transform="translate(-875.065 -1566.724)" fill="#a58f33"/>
                    <path id="Path_62" data-name="Path 62" d="M942.6,1625.162c-13.332,0-24.459-4.279-27.072-9.974a6.112,6.112,0,0,0-.582,2.568v2.721c0,6.927,12.381,12.542,27.654,12.542s27.653-5.615,27.653-12.542v-2.721a6.109,6.109,0,0,0-.582-2.568C967.054,1620.883,955.927,1625.162,942.6,1625.162Z" transform="translate(-875.065 -1562.378)" fill="#a58f33"/>
                    <path id="Path_63" data-name="Path 63" d="M942.6,1635.063c-13.332,0-24.459-4.279-27.072-9.974a6.113,6.113,0,0,0-.582,2.568v2.721c0,6.927,12.381,12.542,27.654,12.542s27.653-5.615,27.653-12.542v-2.721a6.11,6.11,0,0,0-.582-2.568C967.054,1630.784,955.927,1635.063,942.6,1635.063Z" transform="translate(-875.065 -1558.254)" fill="#a58f33"/>
                  </g>
                </g>
              </g>
            </svg>
