 <svg  xmlns="http://www.w3.org/2000/svg" width="169.083" height="66.874" viewBox="0 0 169.083 66.874">
              <g id="Group_50" data-name="Group 50" transform="translate(0 0)" opacity="0.8">
                <path id="Path_64" data-name="Path 64" d="M513.714,1636.626c2.958.751,5.9,1.555,8.847,2.333,2.356-9.085,5.71-12.942,11.838-12.679,9.811.435,12.393,7.1,12.5,16.066,1.265-4.8,4.768-3.646,7.7-3.646q35.583-.038,71.168-.016h3.128c-.191-.17-.377-.338-.567-.513,1.5-3.271,3-6.546,4.6-10.023h-2.031c-13.934,0-27.867-.043-41.8.043-1.915.01-2.826-.534-3.344-2.408a96.41,96.41,0,0,0-3.313-10.314,54.932,54.932,0,0,1-3.863-24.807c.228-3.138.037-6.308.037-9.658h-8.2c.629,1.238,1.143,2.2,1.613,3.17a3.545,3.545,0,0,1,.493,1.391q-.025,21.026-.1,42.054c0,.074-.1.147-.207.3-2.027.768-2.244-.418-2.244-2.084q.04-17.591.01-35.184c0-4.261-.01-4.366-4.387-4.133a78.8,78.8,0,0,0-9.186,1.027,19.4,19.4,0,0,0-10.811,5.689c-3.826,3.905-7.658,7.832-11.805,11.372a73.355,73.355,0,0,1-9.764,6.6c-2.466,1.5-5.176,2.6-7.731,3.973a8.627,8.627,0,0,0-4.567,7.3c-.3,3.424-.439,6.863-.741,10.286A3.221,3.221,0,0,0,513.714,1636.626Zm22.511-28.062a7.73,7.73,0,0,1,1.016-1.73c3.381-3.35,6.965-6.509,10.192-10,3.948-4.271,8.975-5.636,14.441-6.2,1.487-.149,2.122.36,2.112,1.868-.033,4.583.006,9.165-.037,13.747-.017,1.932-.8,3.118-3.021,3.085-5-.074-10-.026-15-.026v.058c-2.555,0-5.116.058-7.667-.037A6.9,6.9,0,0,1,536.225,1608.564Zm-21.072,10.588a47.579,47.579,0,0,1,4.921-.031c-1.222,1.609-2.089,2.772-2.984,3.915a7.688,7.688,0,0,1-1.724,1.948c-.6.375-1.826.656-2.191.323C511.888,1624.159,513.466,1619.349,515.153,1619.153Z" transform="translate(-510.963 -1580.771)" fill="#a58f33"/>
                <path id="Path_65" data-name="Path 65" d="M565.445,1616.628a3.3,3.3,0,0,0,2.217,1.524,54.306,54.306,0,0,0,5.863.339c-.217-6.863,3.519-11.219,9.207-11.113,5.965.11,9.166,4.281,8.811,11.689,11.743.381,23.48.756,35.524,1.149-.149-3.779.476-7.42,3.963-9.4a11.592,11.592,0,0,1,6.19-1.565c5.377.391,8.087,4.5,7.975,11.927a74.99,74.99,0,0,0,7.646-1.7c.694-.228,1.307-1.619,1.435-2.546.428-3.234.729-6.487.888-9.742.212-4.323-1.836-7.107-6.132-7.387a19.88,19.88,0,0,1-11.24-4.524c-10.308-7.816-31.7-10.991-46.049,2.456a6.627,6.627,0,0,1-3.211,1.492c-4.249.768-8.557,1.213-12.78,2.079a21.216,21.216,0,0,0-6.1,2.371C566.18,1605.663,563.83,1613.013,565.445,1616.628Zm29.194-16.346a13.425,13.425,0,0,1,5.826-6.016c6.223-3.609,13-4.25,19.971-3.451a31.42,31.42,0,0,1,14.382,4.878c1.006.689,1.477,2.155,2.2,3.26-1.091.529-2.159,1.462-3.271,1.514q-8.278.429-16.584.449c-6.434.006-12.875-.174-19.31-.3C596.925,1600.6,596,1600.431,594.639,1600.282Z" transform="translate(-488.488 -1577.637)" fill="#a58f33"/>
                <path id="Path_66" data-name="Path 66" d="M595.783,1624.07a9.7,9.7,0,0,0,9.747,9.7,9.844,9.844,0,0,0,9.706-9.811,9.719,9.719,0,0,0-9.816-9.658A9.593,9.593,0,0,0,595.783,1624.07Zm4.731-.126a4.974,4.974,0,0,1,5.085-4.917,5.043,5.043,0,0,1,4.863,4.905,5.108,5.108,0,0,1-4.985,5.085A5.048,5.048,0,0,1,600.514,1623.944Z" transform="translate(-475.636 -1566.902)" fill="#a58f33"/>
                <path id="Path_67" data-name="Path 67" d="M520.821,1624.022a9.729,9.729,0,1,0,19.458-.027,9.729,9.729,0,0,0-19.458.027Zm4.731.079a5,5,0,1,1,5.174,4.91A5.151,5.151,0,0,1,525.552,1624.1Z" transform="translate(-506.857 -1566.901)" fill="#a58f33"/>
                <path id="Path_68" data-name="Path 68" d="M608,1614.478c1.147,2.015,2.724,4.006,3.445,6.259s.581,4.778.836,7.372c.455-.19.973-.265,1.016-.445.71-3.149,3.058-2.979,5.519-2.947,6.17.085,12.34.021,18.511.032,1.207.006,2.387.058,2.3-1.688-.074-1.429.451-3.037-1.836-3.408-7.646-1.243-15.277-2.582-22.917-3.905C612.479,1615.335,610.092,1614.869,608,1614.478Z" transform="translate(-470.546 -1566.829)" fill="#a58f33"/>
                <path id="Path_69" data-name="Path 69" d="M572.184,1610.018c-.074,4.652,2.953,7.954,7.308,7.969a7.51,7.51,0,0,0,7.621-7.5c.016-4.1-3.52-7.864-7.541-7.573C575.836,1603.191,572.169,1605.42,572.184,1610.018Zm3.493.328a4.333,4.333,0,0,1,4.207-3.917c1.724.048,3.662,2.376,3.529,4.255a4.15,4.15,0,0,1-4.344,3.683C577.36,1614.283,575.619,1612.213,575.677,1610.346Z" transform="translate(-485.465 -1571.651)" fill="#a58f33"/>
                <path id="Path_70" data-name="Path 70" d="M609.9,1611.292a8.006,8.006,0,0,0,7.313,7.822,7.447,7.447,0,0,0,7.743-7.282c.12-4.46-2.826-7.408-7.526-7.514A6.994,6.994,0,0,0,609.9,1611.292Zm3.567.609c.037-2.323,1.926-4.466,3.948-4.478a4.352,4.352,0,0,1,4.033,4.35c.01,2.106-1.975,3.7-4.567,3.667A3.484,3.484,0,0,1,613.468,1611.9Z" transform="translate(-469.757 -1571.063)" fill="#a58f33"/>
                <path id="Path_71" data-name="Path 71" d="M544.562,1586.064c2.793-.153,4.662-.259,7.588-.424-.952-1.909-1.36-3.445-2.339-4.391-.561-.541-2.582-.546-3.017-.021C545.821,1582.4,545.425,1584.058,544.562,1586.064Z" transform="translate(-496.969 -1580.839)" fill="#a58f33"/>
              </g>
            </svg>
