<svg  xmlns="http://www.w3.org/2000/svg" width="57.664" height="83.875" viewBox="0 0 57.664 83.875">
              <g id="Group_67" data-name="Group 67" transform="translate(0 0)">
                <g id="Group_60" data-name="Group 60">
                  <g id="Group_59" data-name="Group 59">
                    <path id="Path_76" data-name="Path 76" d="M325.709,1577.089H278.529a5.252,5.252,0,0,0-5.243,5.243v73.39a5.248,5.248,0,0,0,5.243,5.242h47.179a5.244,5.244,0,0,0,5.242-5.242v-73.39A5.248,5.248,0,0,0,325.709,1577.089Zm0,68.149H278.529v-57.664h47.179Z" transform="translate(-273.287 -1577.089)" fill="#a58f33"/>
                  </g>
                </g>
                <g id="Group_62" data-name="Group 62" transform="translate(10.485 20.97)">
                  <g id="Group_61" data-name="Group 61">
                    <path id="Path_77" data-name="Path 77" d="M293.794,1591.893H283.31a2.621,2.621,0,0,0-2.621,2.621V1605a2.622,2.622,0,0,0,2.621,2.622h10.485a2.622,2.622,0,0,0,2.62-2.622v-10.484A2.621,2.621,0,0,0,293.794,1591.893Z" transform="translate(-280.689 -1591.893)" fill="#a58f33"/>
                  </g>
                </g>
                <g id="Group_64" data-name="Group 64" transform="translate(10.485 41.938)">
                  <g id="Group_63" data-name="Group 63">
                    <path id="Path_78" data-name="Path 78" d="M293.794,1606.7H283.31a2.622,2.622,0,0,0-2.621,2.621V1619.8a2.622,2.622,0,0,0,2.621,2.62h10.485a2.622,2.622,0,0,0,2.62-2.62v-10.485A2.622,2.622,0,0,0,293.794,1606.7Z" transform="translate(-280.689 -1606.696)" fill="#a58f33"/>
                  </g>
                </g>
                <g id="Group_66" data-name="Group 66" transform="translate(31.453 20.97)">
                  <g id="Group_65" data-name="Group 65">
                    <path id="Path_79" data-name="Path 79" d="M308.6,1591.893H298.113a2.621,2.621,0,0,0-2.621,2.621V1605a2.622,2.622,0,0,0,2.621,2.622H308.6a2.622,2.622,0,0,0,2.621-2.622v-10.484A2.621,2.621,0,0,0,308.6,1591.893Z" transform="translate(-295.492 -1591.893)" fill="#a58f33"/>
                  </g>
                </g>
              </g>
            </svg>
